%TF.GenerationSoftware,KiCad,Pcbnew,6.0.4*%
%TF.CreationDate,2022-03-30T22:58:46+02:00*%
%TF.ProjectId,cederom-ap3012-test,63656465-726f-46d2-9d61-70333031322d,2022-03-30*%
%TF.SameCoordinates,Original*%
%TF.FileFunction,Copper,L1,Top*%
%TF.FilePolarity,Positive*%
%FSLAX46Y46*%
G04 Gerber Fmt 4.6, Leading zero omitted, Abs format (unit mm)*
G04 Created by KiCad (PCBNEW 6.0.4) date 2022-03-30 22:58:46*
%MOMM*%
%LPD*%
G01*
G04 APERTURE LIST*
G04 Aperture macros list*
%AMRoundRect*
0 Rectangle with rounded corners*
0 $1 Rounding radius*
0 $2 $3 $4 $5 $6 $7 $8 $9 X,Y pos of 4 corners*
0 Add a 4 corners polygon primitive as box body*
4,1,4,$2,$3,$4,$5,$6,$7,$8,$9,$2,$3,0*
0 Add four circle primitives for the rounded corners*
1,1,$1+$1,$2,$3*
1,1,$1+$1,$4,$5*
1,1,$1+$1,$6,$7*
1,1,$1+$1,$8,$9*
0 Add four rect primitives between the rounded corners*
20,1,$1+$1,$2,$3,$4,$5,0*
20,1,$1+$1,$4,$5,$6,$7,0*
20,1,$1+$1,$6,$7,$8,$9,0*
20,1,$1+$1,$8,$9,$2,$3,0*%
G04 Aperture macros list end*
%TA.AperFunction,ComponentPad*%
%ADD10R,1.700000X1.700000*%
%TD*%
%TA.AperFunction,ComponentPad*%
%ADD11O,1.700000X1.700000*%
%TD*%
%TA.AperFunction,SMDPad,CuDef*%
%ADD12R,3.500000X1.800000*%
%TD*%
%TA.AperFunction,SMDPad,CuDef*%
%ADD13RoundRect,0.250000X-0.337500X-0.475000X0.337500X-0.475000X0.337500X0.475000X-0.337500X0.475000X0*%
%TD*%
%TA.AperFunction,SMDPad,CuDef*%
%ADD14RoundRect,0.250000X0.337500X0.475000X-0.337500X0.475000X-0.337500X-0.475000X0.337500X-0.475000X0*%
%TD*%
%TA.AperFunction,ComponentPad*%
%ADD15R,2.000000X2.000000*%
%TD*%
%TA.AperFunction,SMDPad,CuDef*%
%ADD16RoundRect,0.250000X-0.475000X0.337500X-0.475000X-0.337500X0.475000X-0.337500X0.475000X0.337500X0*%
%TD*%
%TA.AperFunction,SMDPad,CuDef*%
%ADD17RoundRect,0.150000X0.512500X0.150000X-0.512500X0.150000X-0.512500X-0.150000X0.512500X-0.150000X0*%
%TD*%
%TA.AperFunction,SMDPad,CuDef*%
%ADD18R,1.000000X2.750000*%
%TD*%
%TA.AperFunction,SMDPad,CuDef*%
%ADD19RoundRect,0.237500X-0.287500X-0.237500X0.287500X-0.237500X0.287500X0.237500X-0.287500X0.237500X0*%
%TD*%
%TA.AperFunction,ViaPad*%
%ADD20C,1.200000*%
%TD*%
%TA.AperFunction,Conductor*%
%ADD21C,0.500000*%
%TD*%
G04 APERTURE END LIST*
D10*
%TO.P,R`1,1,Pin_1*%
%TO.N,Net-(JP3-Pad1)*%
X97795000Y-64770000D03*
D11*
%TO.P,R`1,2,Pin_2*%
%TO.N,Net-(R`1-Pad2)*%
X95255000Y-64770000D03*
%TD*%
D10*
%TO.P,JP2,1,A*%
%TO.N,Net-(D1-Pad2)*%
X90170000Y-50815000D03*
D11*
%TO.P,JP2,2,C*%
%TO.N,Net-(JP2-Pad2)*%
X90170000Y-53355000D03*
%TO.P,JP2,3,B*%
%TO.N,Net-(D2-Pad2)*%
X90170000Y-55895000D03*
%TD*%
D10*
%TO.P,JP4,1,A*%
%TO.N,GND*%
X80010000Y-64755000D03*
D11*
%TO.P,JP4,2,C*%
%TO.N,Net-(JP4-Pad2)*%
X80010000Y-62215000D03*
%TO.P,JP4,3,B*%
%TO.N,Net-(C1-Pad1)*%
X80010000Y-59675000D03*
%TD*%
%TO.P,JP3,3,B*%
%TO.N,Net-(JP3-Pad3)*%
X93980000Y-60960000D03*
%TO.P,JP3,2,C*%
%TO.N,Net-(C2-Pad1)*%
X96520000Y-60960000D03*
D10*
%TO.P,JP3,1,A*%
%TO.N,Net-(JP3-Pad1)*%
X99060000Y-60960000D03*
%TD*%
%TO.P,JP1,1,A*%
%TO.N,Net-(JP1-Pad1)*%
X80010000Y-50800000D03*
D11*
%TO.P,JP1,2,C*%
%TO.N,Net-(C1-Pad1)*%
X80010000Y-53340000D03*
%TO.P,JP1,3,B*%
%TO.N,Net-(JP1-Pad3)*%
X80010000Y-55880000D03*
%TD*%
D12*
%TO.P,D1,2,A*%
%TO.N,Net-(D1-Pad2)*%
X94020000Y-50800000D03*
%TO.P,D1,1,K*%
%TO.N,Net-(C2-Pad1)*%
X99020000Y-50800000D03*
%TD*%
D13*
%TO.P,R2,1*%
%TO.N,Net-(R`1-Pad2)*%
X88497500Y-62230000D03*
%TO.P,R2,2*%
%TO.N,GND*%
X90572500Y-62230000D03*
%TD*%
D14*
%TO.P,R1,1*%
%TO.N,Net-(JP3-Pad3)*%
X90572500Y-59690000D03*
%TO.P,R1,2*%
%TO.N,Net-(R`1-Pad2)*%
X88497500Y-59690000D03*
%TD*%
D15*
%TO.P,TP4,1,1*%
%TO.N,GND*%
X101600000Y-64770000D03*
%TD*%
D16*
%TO.P,C2,1*%
%TO.N,Net-(C2-Pad1)*%
X101600000Y-59922500D03*
%TO.P,C2,2*%
%TO.N,GND*%
X101600000Y-61997500D03*
%TD*%
D17*
%TO.P,U1,1,SW*%
%TO.N,Net-(JP2-Pad2)*%
X86227500Y-61910000D03*
%TO.P,U1,2,GND*%
%TO.N,GND*%
X86227500Y-60960000D03*
%TO.P,U1,3,FB*%
%TO.N,Net-(R`1-Pad2)*%
X86227500Y-60010000D03*
%TO.P,U1,4,~{SHDN}*%
%TO.N,Net-(JP4-Pad2)*%
X83952500Y-60010000D03*
%TO.P,U1,5,IN*%
%TO.N,Net-(C1-Pad1)*%
X83952500Y-61910000D03*
%TD*%
D15*
%TO.P,TP1,1,1*%
%TO.N,Net-(C1-Pad1)*%
X76200000Y-50800000D03*
%TD*%
D12*
%TO.P,D2,1,K*%
%TO.N,Net-(C2-Pad1)*%
X99020000Y-55880000D03*
%TO.P,D2,2,A*%
%TO.N,Net-(D2-Pad2)*%
X94020000Y-55880000D03*
%TD*%
D15*
%TO.P,TP3,1,1*%
%TO.N,Net-(C2-Pad1)*%
X101600000Y-50800000D03*
%TD*%
%TO.P,TP2,1,1*%
%TO.N,GND*%
X76200000Y-64770000D03*
%TD*%
D18*
%TO.P,L2,1,1*%
%TO.N,Net-(JP1-Pad3)*%
X83940000Y-55880000D03*
%TO.P,L2,2,2*%
%TO.N,Net-(JP2-Pad2)*%
X86240000Y-55880000D03*
%TD*%
D19*
%TO.P,L1,2,2*%
%TO.N,Net-(JP2-Pad2)*%
X85965000Y-50800000D03*
%TO.P,L1,1,1*%
%TO.N,Net-(JP1-Pad1)*%
X84215000Y-50800000D03*
%TD*%
D16*
%TO.P,C1,2*%
%TO.N,GND*%
X76200000Y-61997500D03*
%TO.P,C1,1*%
%TO.N,Net-(C1-Pad1)*%
X76200000Y-59922500D03*
%TD*%
D20*
%TO.N,Net-(JP4-Pad2)*%
X83947000Y-58547000D03*
%TD*%
D21*
%TO.N,GND*%
X101600000Y-61997500D02*
X101600000Y-64770000D01*
%TO.N,Net-(C2-Pad1)*%
X101600000Y-50800000D02*
X101600000Y-55880000D01*
X101600000Y-55880000D02*
X101600000Y-59922500D01*
X99020000Y-55880000D02*
X101600000Y-55880000D01*
X99020000Y-50800000D02*
X101600000Y-50800000D01*
%TO.N,GND*%
X76200000Y-61997500D02*
X76200000Y-64770000D01*
%TO.N,Net-(C1-Pad1)*%
X76200000Y-59922500D02*
X76200000Y-53340000D01*
X80010000Y-59675000D02*
X76447500Y-59675000D01*
X76447500Y-59675000D02*
X76200000Y-59922500D01*
X83952500Y-61910000D02*
X82245000Y-61910000D01*
X82245000Y-61910000D02*
X80010000Y-59675000D01*
%TO.N,Net-(JP4-Pad2)*%
X83952500Y-60010000D02*
X83952500Y-58552500D01*
X83952500Y-58552500D02*
X83947000Y-58547000D01*
%TO.N,Net-(JP2-Pad2)*%
X85405000Y-61910000D02*
X85115480Y-61620480D01*
X85115480Y-61620480D02*
X85115480Y-56235520D01*
X86227500Y-61910000D02*
X85405000Y-61910000D01*
X85115480Y-56235520D02*
X85471000Y-55880000D01*
X85471000Y-55880000D02*
X86240000Y-55880000D01*
%TO.N,GND*%
X87122000Y-60960000D02*
X87376000Y-61214000D01*
X81788000Y-66548000D02*
X87376000Y-66548000D01*
X87376000Y-61214000D02*
X87376000Y-66548000D01*
X86227500Y-60960000D02*
X87122000Y-60960000D01*
X87376000Y-66548000D02*
X90551000Y-66548000D01*
%TO.N,Net-(R`1-Pad2)*%
X88497500Y-59690000D02*
X88497500Y-60981500D01*
X88497500Y-60981500D02*
X88497500Y-62230000D01*
X91466500Y-60981500D02*
X88497500Y-60981500D01*
X95255000Y-64770000D02*
X91466500Y-60981500D01*
%TO.N,GND*%
X90551000Y-66548000D02*
X101092000Y-66548000D01*
X90572500Y-62230000D02*
X90572500Y-66526500D01*
X90572500Y-66526500D02*
X90551000Y-66548000D01*
%TO.N,Net-(R`1-Pad2)*%
X86227500Y-60010000D02*
X88177500Y-60010000D01*
X88177500Y-60010000D02*
X88497500Y-59690000D01*
%TO.N,GND*%
X80010000Y-64770000D02*
X81788000Y-66548000D01*
X80010000Y-64755000D02*
X80010000Y-64770000D01*
X76200000Y-64770000D02*
X79995000Y-64770000D01*
X79995000Y-64770000D02*
X80010000Y-64755000D01*
%TO.N,Net-(JP3-Pad1)*%
X97795000Y-63495000D02*
X99060000Y-62230000D01*
X97795000Y-64770000D02*
X97795000Y-63495000D01*
X99060000Y-62230000D02*
X99060000Y-60960000D01*
%TO.N,Net-(C2-Pad1)*%
X96520000Y-59690000D02*
X99060000Y-57150000D01*
X96520000Y-60960000D02*
X96520000Y-59690000D01*
X99060000Y-57150000D02*
X99060000Y-55920000D01*
X99060000Y-55920000D02*
X99020000Y-55880000D01*
%TO.N,Net-(JP3-Pad3)*%
X90572500Y-59690000D02*
X92710000Y-59690000D01*
X92710000Y-59690000D02*
X93980000Y-60960000D01*
%TO.N,Net-(JP2-Pad2)*%
X87757000Y-51181000D02*
X87757000Y-53340000D01*
X87757000Y-53340000D02*
X87757000Y-55372000D01*
X90170000Y-53355000D02*
X87772000Y-53355000D01*
X87772000Y-53355000D02*
X87757000Y-53340000D01*
X85965000Y-50800000D02*
X87376000Y-50800000D01*
X87376000Y-50800000D02*
X87757000Y-51181000D01*
X87757000Y-55372000D02*
X87249000Y-55880000D01*
X87249000Y-55880000D02*
X86240000Y-55880000D01*
%TO.N,Net-(D2-Pad2)*%
X94020000Y-55880000D02*
X90185000Y-55880000D01*
X90185000Y-55880000D02*
X90170000Y-55895000D01*
%TO.N,Net-(C2-Pad1)*%
X99020000Y-55880000D02*
X99020000Y-50800000D01*
%TO.N,Net-(D1-Pad2)*%
X90170000Y-50815000D02*
X94005000Y-50815000D01*
X94005000Y-50815000D02*
X94020000Y-50800000D01*
%TO.N,Net-(JP1-Pad3)*%
X80010000Y-55880000D02*
X83940000Y-55880000D01*
%TO.N,Net-(JP1-Pad1)*%
X80010000Y-50800000D02*
X84215000Y-50800000D01*
%TO.N,Net-(C1-Pad1)*%
X76200000Y-53340000D02*
X76200000Y-50800000D01*
X80010000Y-53340000D02*
X76200000Y-53340000D01*
%TD*%
%TA.AperFunction,Conductor*%
%TO.N,GND*%
G36*
X103573621Y-48788502D02*
G01*
X103620114Y-48842158D01*
X103631500Y-48894500D01*
X103631500Y-66675500D01*
X103611498Y-66743621D01*
X103557842Y-66790114D01*
X103505500Y-66801500D01*
X74294500Y-66801500D01*
X74226379Y-66781498D01*
X74179886Y-66727842D01*
X74168500Y-66675500D01*
X74168500Y-65814669D01*
X74692001Y-65814669D01*
X74692371Y-65821490D01*
X74697895Y-65872352D01*
X74701521Y-65887604D01*
X74746676Y-66008054D01*
X74755214Y-66023649D01*
X74831715Y-66125724D01*
X74844276Y-66138285D01*
X74946351Y-66214786D01*
X74961946Y-66223324D01*
X75082394Y-66268478D01*
X75097649Y-66272105D01*
X75148514Y-66277631D01*
X75155328Y-66278000D01*
X75927885Y-66278000D01*
X75943124Y-66273525D01*
X75944329Y-66272135D01*
X75946000Y-66264452D01*
X75946000Y-66259884D01*
X76454000Y-66259884D01*
X76458475Y-66275123D01*
X76459865Y-66276328D01*
X76467548Y-66277999D01*
X77244669Y-66277999D01*
X77251490Y-66277629D01*
X77302352Y-66272105D01*
X77317604Y-66268479D01*
X77438054Y-66223324D01*
X77453649Y-66214786D01*
X77555724Y-66138285D01*
X77568285Y-66125724D01*
X77644786Y-66023649D01*
X77653324Y-66008054D01*
X77698478Y-65887606D01*
X77702105Y-65872351D01*
X77707631Y-65821486D01*
X77708000Y-65814672D01*
X77708000Y-65649669D01*
X78652001Y-65649669D01*
X78652371Y-65656490D01*
X78657895Y-65707352D01*
X78661521Y-65722604D01*
X78706676Y-65843054D01*
X78715214Y-65858649D01*
X78791715Y-65960724D01*
X78804276Y-65973285D01*
X78906351Y-66049786D01*
X78921946Y-66058324D01*
X79042394Y-66103478D01*
X79057649Y-66107105D01*
X79108514Y-66112631D01*
X79115328Y-66113000D01*
X79737885Y-66113000D01*
X79753124Y-66108525D01*
X79754329Y-66107135D01*
X79756000Y-66099452D01*
X79756000Y-66094884D01*
X80264000Y-66094884D01*
X80268475Y-66110123D01*
X80269865Y-66111328D01*
X80277548Y-66112999D01*
X80904669Y-66112999D01*
X80911490Y-66112629D01*
X80962352Y-66107105D01*
X80977604Y-66103479D01*
X81098054Y-66058324D01*
X81113649Y-66049786D01*
X81215724Y-65973285D01*
X81228285Y-65960724D01*
X81304786Y-65858649D01*
X81313324Y-65843054D01*
X81358478Y-65722606D01*
X81362105Y-65707351D01*
X81367631Y-65656486D01*
X81368000Y-65649672D01*
X81368000Y-65027115D01*
X81363525Y-65011876D01*
X81362135Y-65010671D01*
X81354452Y-65009000D01*
X80282115Y-65009000D01*
X80266876Y-65013475D01*
X80265671Y-65014865D01*
X80264000Y-65022548D01*
X80264000Y-66094884D01*
X79756000Y-66094884D01*
X79756000Y-65027115D01*
X79751525Y-65011876D01*
X79750135Y-65010671D01*
X79742452Y-65009000D01*
X78670116Y-65009000D01*
X78654877Y-65013475D01*
X78653672Y-65014865D01*
X78652001Y-65022548D01*
X78652001Y-65649669D01*
X77708000Y-65649669D01*
X77708000Y-65042115D01*
X77703525Y-65026876D01*
X77702135Y-65025671D01*
X77694452Y-65024000D01*
X76472115Y-65024000D01*
X76456876Y-65028475D01*
X76455671Y-65029865D01*
X76454000Y-65037548D01*
X76454000Y-66259884D01*
X75946000Y-66259884D01*
X75946000Y-65042115D01*
X75941525Y-65026876D01*
X75940135Y-65025671D01*
X75932452Y-65024000D01*
X74710116Y-65024000D01*
X74694877Y-65028475D01*
X74693672Y-65029865D01*
X74692001Y-65037548D01*
X74692001Y-65814669D01*
X74168500Y-65814669D01*
X74168500Y-64497885D01*
X74692000Y-64497885D01*
X74696475Y-64513124D01*
X74697865Y-64514329D01*
X74705548Y-64516000D01*
X77689884Y-64516000D01*
X77705123Y-64511525D01*
X77706328Y-64510135D01*
X77707999Y-64502452D01*
X77707999Y-63725331D01*
X77707629Y-63718510D01*
X77702105Y-63667648D01*
X77698479Y-63652396D01*
X77653324Y-63531946D01*
X77644786Y-63516351D01*
X77568285Y-63414276D01*
X77555724Y-63401715D01*
X77453649Y-63325214D01*
X77438054Y-63316676D01*
X77317606Y-63271522D01*
X77302351Y-63267895D01*
X77251486Y-63262369D01*
X77244672Y-63262000D01*
X77059139Y-63262000D01*
X76991018Y-63241998D01*
X76944525Y-63188342D01*
X76934421Y-63118068D01*
X76963915Y-63053488D01*
X76999181Y-63026820D01*
X76998732Y-63026094D01*
X77142807Y-62936937D01*
X77154208Y-62927901D01*
X77268739Y-62813171D01*
X77277751Y-62801760D01*
X77362816Y-62663757D01*
X77368963Y-62650576D01*
X77420138Y-62496290D01*
X77423005Y-62482914D01*
X77432672Y-62388562D01*
X77433000Y-62382146D01*
X77433000Y-62269615D01*
X77428525Y-62254376D01*
X77427135Y-62253171D01*
X77419452Y-62251500D01*
X74985116Y-62251500D01*
X74969877Y-62255975D01*
X74968672Y-62257365D01*
X74967001Y-62265048D01*
X74967001Y-62382095D01*
X74967338Y-62388614D01*
X74977257Y-62484206D01*
X74980149Y-62497600D01*
X75031588Y-62651784D01*
X75037761Y-62664962D01*
X75123063Y-62802807D01*
X75132099Y-62814208D01*
X75246829Y-62928739D01*
X75258240Y-62937751D01*
X75402475Y-63026658D01*
X75401459Y-63028307D01*
X75447361Y-63068723D01*
X75466822Y-63137001D01*
X75446280Y-63204961D01*
X75392257Y-63251026D01*
X75340826Y-63262001D01*
X75155331Y-63262001D01*
X75148510Y-63262371D01*
X75097648Y-63267895D01*
X75082396Y-63271521D01*
X74961946Y-63316676D01*
X74946351Y-63325214D01*
X74844276Y-63401715D01*
X74831715Y-63414276D01*
X74755214Y-63516351D01*
X74746676Y-63531946D01*
X74701522Y-63652394D01*
X74697895Y-63667649D01*
X74692369Y-63718514D01*
X74692000Y-63725328D01*
X74692000Y-64497885D01*
X74168500Y-64497885D01*
X74168500Y-51848134D01*
X74691500Y-51848134D01*
X74698255Y-51910316D01*
X74749385Y-52046705D01*
X74836739Y-52163261D01*
X74953295Y-52250615D01*
X75089684Y-52301745D01*
X75151866Y-52308500D01*
X75315500Y-52308500D01*
X75383621Y-52328502D01*
X75430114Y-52382158D01*
X75441500Y-52434500D01*
X75441500Y-53312165D01*
X75441258Y-53319966D01*
X75437453Y-53381298D01*
X75438693Y-53388514D01*
X75439680Y-53394257D01*
X75441500Y-53415596D01*
X75441500Y-58798219D01*
X75421498Y-58866340D01*
X75381803Y-58905363D01*
X75250652Y-58986522D01*
X75125695Y-59111697D01*
X75121855Y-59117927D01*
X75121854Y-59117928D01*
X75042603Y-59246497D01*
X75032885Y-59262262D01*
X74977203Y-59430139D01*
X74976503Y-59436975D01*
X74976502Y-59436978D01*
X74974956Y-59452066D01*
X74966500Y-59534600D01*
X74966500Y-60310400D01*
X74977474Y-60416166D01*
X74979655Y-60422702D01*
X74979655Y-60422704D01*
X74996646Y-60473632D01*
X75033450Y-60583946D01*
X75126522Y-60734348D01*
X75251697Y-60859305D01*
X75256235Y-60862102D01*
X75296824Y-60919353D01*
X75300054Y-60990276D01*
X75264428Y-61051687D01*
X75255932Y-61059062D01*
X75245793Y-61067098D01*
X75131261Y-61181829D01*
X75122249Y-61193240D01*
X75037184Y-61331243D01*
X75031037Y-61344424D01*
X74979862Y-61498710D01*
X74976995Y-61512086D01*
X74967328Y-61606438D01*
X74967000Y-61612855D01*
X74967000Y-61725385D01*
X74971475Y-61740624D01*
X74972865Y-61741829D01*
X74980548Y-61743500D01*
X77414884Y-61743500D01*
X77430123Y-61739025D01*
X77431328Y-61737635D01*
X77432999Y-61729952D01*
X77432999Y-61612905D01*
X77432662Y-61606386D01*
X77422743Y-61510794D01*
X77419851Y-61497400D01*
X77368412Y-61343216D01*
X77362239Y-61330038D01*
X77276937Y-61192193D01*
X77267901Y-61180792D01*
X77153172Y-61066262D01*
X77144238Y-61059206D01*
X77103177Y-61001288D01*
X77099947Y-60930365D01*
X77135574Y-60868954D01*
X77143407Y-60862154D01*
X77149348Y-60858478D01*
X77274305Y-60733303D01*
X77285931Y-60714442D01*
X77363275Y-60588968D01*
X77363276Y-60588966D01*
X77367115Y-60582738D01*
X77387980Y-60519832D01*
X77428411Y-60461472D01*
X77493975Y-60434236D01*
X77507573Y-60433500D01*
X78812491Y-60433500D01*
X78880612Y-60453502D01*
X78909402Y-60480595D01*
X78909987Y-60480088D01*
X79056250Y-60648938D01*
X79228126Y-60791632D01*
X79269343Y-60815717D01*
X79301445Y-60834476D01*
X79350169Y-60886114D01*
X79363240Y-60955897D01*
X79336509Y-61021669D01*
X79296055Y-61055027D01*
X79283607Y-61061507D01*
X79279474Y-61064610D01*
X79279471Y-61064612D01*
X79109549Y-61192193D01*
X79104965Y-61195635D01*
X78950629Y-61357138D01*
X78824743Y-61541680D01*
X78730688Y-61744305D01*
X78670989Y-61959570D01*
X78647251Y-62181695D01*
X78647548Y-62186848D01*
X78647548Y-62186851D01*
X78657314Y-62356222D01*
X78660110Y-62404715D01*
X78661247Y-62409761D01*
X78661248Y-62409767D01*
X78680748Y-62496290D01*
X78709222Y-62622639D01*
X78757168Y-62740716D01*
X78787010Y-62814208D01*
X78793266Y-62829616D01*
X78795965Y-62834020D01*
X78883441Y-62976768D01*
X78909987Y-63020088D01*
X78913367Y-63023990D01*
X78923057Y-63035176D01*
X79056250Y-63188938D01*
X79060225Y-63192238D01*
X79060231Y-63192244D01*
X79065425Y-63196556D01*
X79105059Y-63255460D01*
X79106555Y-63326441D01*
X79069439Y-63386962D01*
X79029168Y-63411480D01*
X78921946Y-63451676D01*
X78906351Y-63460214D01*
X78804276Y-63536715D01*
X78791715Y-63549276D01*
X78715214Y-63651351D01*
X78706676Y-63666946D01*
X78661522Y-63787394D01*
X78657895Y-63802649D01*
X78652369Y-63853514D01*
X78652000Y-63860328D01*
X78652000Y-64482885D01*
X78656475Y-64498124D01*
X78657865Y-64499329D01*
X78665548Y-64501000D01*
X81349884Y-64501000D01*
X81365123Y-64496525D01*
X81366328Y-64495135D01*
X81367999Y-64487452D01*
X81367999Y-63860331D01*
X81367629Y-63853510D01*
X81362105Y-63802648D01*
X81358479Y-63787396D01*
X81313324Y-63666946D01*
X81304786Y-63651351D01*
X81228285Y-63549276D01*
X81215724Y-63536715D01*
X81113649Y-63460214D01*
X81098054Y-63451676D01*
X80987813Y-63410348D01*
X80931049Y-63367706D01*
X80906349Y-63301145D01*
X80921557Y-63231796D01*
X80943104Y-63203115D01*
X81044430Y-63102144D01*
X81044440Y-63102132D01*
X81048096Y-63098489D01*
X81098068Y-63028946D01*
X81175435Y-62921277D01*
X81178453Y-62917077D01*
X81203554Y-62866290D01*
X81275136Y-62721453D01*
X81275137Y-62721451D01*
X81277430Y-62716811D01*
X81324111Y-62563166D01*
X81340865Y-62508023D01*
X81340865Y-62508021D01*
X81342370Y-62503069D01*
X81343263Y-62496290D01*
X81357439Y-62388614D01*
X81358233Y-62382580D01*
X81386956Y-62317652D01*
X81446221Y-62278561D01*
X81517212Y-62277716D01*
X81572250Y-62309931D01*
X81661230Y-62398911D01*
X81673616Y-62413323D01*
X81682149Y-62424918D01*
X81682154Y-62424923D01*
X81686492Y-62430818D01*
X81692070Y-62435557D01*
X81692073Y-62435560D01*
X81726768Y-62465035D01*
X81734284Y-62471965D01*
X81739979Y-62477660D01*
X81742861Y-62479940D01*
X81762251Y-62495281D01*
X81765655Y-62498072D01*
X81786633Y-62515894D01*
X81821285Y-62545333D01*
X81827801Y-62548661D01*
X81832850Y-62552028D01*
X81837979Y-62555195D01*
X81843716Y-62559734D01*
X81909875Y-62590655D01*
X81913769Y-62592558D01*
X81978808Y-62625769D01*
X81985916Y-62627508D01*
X81991559Y-62629607D01*
X81997322Y-62631524D01*
X82003950Y-62634622D01*
X82011112Y-62636112D01*
X82011113Y-62636112D01*
X82075412Y-62649486D01*
X82079696Y-62650456D01*
X82150610Y-62667808D01*
X82156212Y-62668156D01*
X82156215Y-62668156D01*
X82161764Y-62668500D01*
X82161762Y-62668536D01*
X82165755Y-62668775D01*
X82169947Y-62669149D01*
X82177115Y-62670640D01*
X82254520Y-62668546D01*
X82257928Y-62668500D01*
X83156246Y-62668500D01*
X83191398Y-62673503D01*
X83329989Y-62713767D01*
X83329993Y-62713768D01*
X83336169Y-62715562D01*
X83342574Y-62716066D01*
X83342579Y-62716067D01*
X83371042Y-62718307D01*
X83371050Y-62718307D01*
X83373498Y-62718500D01*
X84531502Y-62718500D01*
X84533950Y-62718307D01*
X84533958Y-62718307D01*
X84562421Y-62716067D01*
X84562426Y-62716066D01*
X84568831Y-62715562D01*
X84713601Y-62673503D01*
X84720988Y-62671357D01*
X84720990Y-62671356D01*
X84728601Y-62669145D01*
X84871807Y-62584453D01*
X84877417Y-62578843D01*
X84879445Y-62577270D01*
X84945530Y-62551323D01*
X85010019Y-62562680D01*
X85069853Y-62590644D01*
X85073769Y-62592558D01*
X85138808Y-62625769D01*
X85145916Y-62627508D01*
X85151559Y-62629607D01*
X85157322Y-62631524D01*
X85163950Y-62634622D01*
X85171112Y-62636112D01*
X85171113Y-62636112D01*
X85235412Y-62649486D01*
X85239696Y-62650456D01*
X85310610Y-62667808D01*
X85316212Y-62668156D01*
X85316215Y-62668156D01*
X85321764Y-62668500D01*
X85321762Y-62668536D01*
X85325755Y-62668775D01*
X85329947Y-62669149D01*
X85337115Y-62670640D01*
X85414520Y-62668546D01*
X85417928Y-62668500D01*
X85431246Y-62668500D01*
X85466398Y-62673503D01*
X85604989Y-62713767D01*
X85604993Y-62713768D01*
X85611169Y-62715562D01*
X85617574Y-62716066D01*
X85617579Y-62716067D01*
X85646042Y-62718307D01*
X85646050Y-62718307D01*
X85648498Y-62718500D01*
X86806502Y-62718500D01*
X86808950Y-62718307D01*
X86808958Y-62718307D01*
X86837421Y-62716067D01*
X86837426Y-62716066D01*
X86843831Y-62715562D01*
X86988601Y-62673503D01*
X86995988Y-62671357D01*
X86995990Y-62671356D01*
X87003601Y-62669145D01*
X87036090Y-62649931D01*
X87139980Y-62588491D01*
X87139983Y-62588489D01*
X87146807Y-62584453D01*
X87186405Y-62544855D01*
X87248717Y-62510829D01*
X87319532Y-62515894D01*
X87376368Y-62558441D01*
X87401179Y-62624961D01*
X87401500Y-62633950D01*
X87401500Y-62755400D01*
X87401837Y-62758646D01*
X87401837Y-62758650D01*
X87411618Y-62852914D01*
X87412474Y-62861166D01*
X87414655Y-62867702D01*
X87414655Y-62867704D01*
X87435018Y-62928739D01*
X87468450Y-63028946D01*
X87561522Y-63179348D01*
X87566704Y-63184521D01*
X87623842Y-63241559D01*
X87686697Y-63304305D01*
X87692927Y-63308145D01*
X87692928Y-63308146D01*
X87830288Y-63392816D01*
X87837262Y-63397115D01*
X87909361Y-63421029D01*
X87998611Y-63450632D01*
X87998613Y-63450632D01*
X88005139Y-63452797D01*
X88011975Y-63453497D01*
X88011978Y-63453498D01*
X88055031Y-63457909D01*
X88109600Y-63463500D01*
X88885400Y-63463500D01*
X88888646Y-63463163D01*
X88888650Y-63463163D01*
X88984308Y-63453238D01*
X88984312Y-63453237D01*
X88991166Y-63452526D01*
X88997702Y-63450345D01*
X88997704Y-63450345D01*
X89146777Y-63400610D01*
X89158946Y-63396550D01*
X89309348Y-63303478D01*
X89434305Y-63178303D01*
X89437102Y-63173765D01*
X89494353Y-63133176D01*
X89565276Y-63129946D01*
X89626687Y-63165572D01*
X89634062Y-63174068D01*
X89642098Y-63184207D01*
X89756829Y-63298739D01*
X89768240Y-63307751D01*
X89906243Y-63392816D01*
X89919424Y-63398963D01*
X90073710Y-63450138D01*
X90087086Y-63453005D01*
X90181438Y-63462672D01*
X90187854Y-63463000D01*
X90300385Y-63463000D01*
X90315624Y-63458525D01*
X90316829Y-63457135D01*
X90318500Y-63449452D01*
X90318500Y-62102000D01*
X90338502Y-62033879D01*
X90392158Y-61987386D01*
X90444500Y-61976000D01*
X90700500Y-61976000D01*
X90768621Y-61996002D01*
X90815114Y-62049658D01*
X90826500Y-62102000D01*
X90826500Y-63444884D01*
X90830975Y-63460123D01*
X90832365Y-63461328D01*
X90840048Y-63462999D01*
X90957095Y-63462999D01*
X90963614Y-63462662D01*
X91059206Y-63452743D01*
X91072600Y-63449851D01*
X91226784Y-63398412D01*
X91239962Y-63392239D01*
X91377807Y-63306937D01*
X91389208Y-63297901D01*
X91503739Y-63183171D01*
X91512751Y-63171760D01*
X91597816Y-63033757D01*
X91603963Y-63020576D01*
X91655138Y-62866290D01*
X91658005Y-62852914D01*
X91667672Y-62758562D01*
X91668000Y-62752146D01*
X91668000Y-62559871D01*
X91688002Y-62491750D01*
X91741658Y-62445257D01*
X91811932Y-62435153D01*
X91876512Y-62464647D01*
X91883095Y-62470776D01*
X93874449Y-64462130D01*
X93908475Y-64524442D01*
X93910641Y-64564613D01*
X93892251Y-64736695D01*
X93905110Y-64959715D01*
X93906247Y-64964761D01*
X93906248Y-64964767D01*
X93920299Y-65027115D01*
X93954222Y-65177639D01*
X94038266Y-65384616D01*
X94154987Y-65575088D01*
X94301250Y-65743938D01*
X94473126Y-65886632D01*
X94666000Y-65999338D01*
X94874692Y-66079030D01*
X94879760Y-66080061D01*
X94879763Y-66080062D01*
X94952616Y-66094884D01*
X95093597Y-66123567D01*
X95098772Y-66123757D01*
X95098774Y-66123757D01*
X95311673Y-66131564D01*
X95311677Y-66131564D01*
X95316837Y-66131753D01*
X95321957Y-66131097D01*
X95321959Y-66131097D01*
X95533288Y-66104025D01*
X95533289Y-66104025D01*
X95538416Y-66103368D01*
X95551469Y-66099452D01*
X95747429Y-66040661D01*
X95747434Y-66040659D01*
X95752384Y-66039174D01*
X95952994Y-65940896D01*
X96134860Y-65811173D01*
X96243091Y-65703319D01*
X96305462Y-65669404D01*
X96376268Y-65674592D01*
X96433030Y-65717238D01*
X96450012Y-65748341D01*
X96474879Y-65814672D01*
X96494385Y-65866705D01*
X96581739Y-65983261D01*
X96698295Y-66070615D01*
X96834684Y-66121745D01*
X96896866Y-66128500D01*
X98693134Y-66128500D01*
X98755316Y-66121745D01*
X98891705Y-66070615D01*
X99008261Y-65983261D01*
X99095615Y-65866705D01*
X99115122Y-65814669D01*
X100092001Y-65814669D01*
X100092371Y-65821490D01*
X100097895Y-65872352D01*
X100101521Y-65887604D01*
X100146676Y-66008054D01*
X100155214Y-66023649D01*
X100231715Y-66125724D01*
X100244276Y-66138285D01*
X100346351Y-66214786D01*
X100361946Y-66223324D01*
X100482394Y-66268478D01*
X100497649Y-66272105D01*
X100548514Y-66277631D01*
X100555328Y-66278000D01*
X101327885Y-66278000D01*
X101343124Y-66273525D01*
X101344329Y-66272135D01*
X101346000Y-66264452D01*
X101346000Y-66259884D01*
X101854000Y-66259884D01*
X101858475Y-66275123D01*
X101859865Y-66276328D01*
X101867548Y-66277999D01*
X102644669Y-66277999D01*
X102651490Y-66277629D01*
X102702352Y-66272105D01*
X102717604Y-66268479D01*
X102838054Y-66223324D01*
X102853649Y-66214786D01*
X102955724Y-66138285D01*
X102968285Y-66125724D01*
X103044786Y-66023649D01*
X103053324Y-66008054D01*
X103098478Y-65887606D01*
X103102105Y-65872351D01*
X103107631Y-65821486D01*
X103108000Y-65814672D01*
X103108000Y-65042115D01*
X103103525Y-65026876D01*
X103102135Y-65025671D01*
X103094452Y-65024000D01*
X101872115Y-65024000D01*
X101856876Y-65028475D01*
X101855671Y-65029865D01*
X101854000Y-65037548D01*
X101854000Y-66259884D01*
X101346000Y-66259884D01*
X101346000Y-65042115D01*
X101341525Y-65026876D01*
X101340135Y-65025671D01*
X101332452Y-65024000D01*
X100110116Y-65024000D01*
X100094877Y-65028475D01*
X100093672Y-65029865D01*
X100092001Y-65037548D01*
X100092001Y-65814669D01*
X99115122Y-65814669D01*
X99146745Y-65730316D01*
X99153500Y-65668134D01*
X99153500Y-63871866D01*
X99146745Y-63809684D01*
X99095615Y-63673295D01*
X99008261Y-63556739D01*
X99001081Y-63551358D01*
X98995297Y-63545574D01*
X98961271Y-63483262D01*
X98966336Y-63412447D01*
X98995297Y-63367384D01*
X99548911Y-62813770D01*
X99563323Y-62801384D01*
X99574918Y-62792851D01*
X99574923Y-62792846D01*
X99580818Y-62788508D01*
X99585557Y-62782930D01*
X99585560Y-62782927D01*
X99615035Y-62748232D01*
X99621965Y-62740716D01*
X99627660Y-62735021D01*
X99632518Y-62728880D01*
X99645281Y-62712749D01*
X99648072Y-62709345D01*
X99690591Y-62659297D01*
X99690592Y-62659295D01*
X99695333Y-62653715D01*
X99698661Y-62647199D01*
X99702028Y-62642150D01*
X99705195Y-62637021D01*
X99709734Y-62631284D01*
X99740655Y-62565125D01*
X99742561Y-62561225D01*
X99775769Y-62496192D01*
X99777508Y-62489084D01*
X99779607Y-62483441D01*
X99781524Y-62477679D01*
X99784622Y-62471050D01*
X99795481Y-62418841D01*
X99828936Y-62356222D01*
X99890935Y-62321629D01*
X99918841Y-62318500D01*
X99958134Y-62318500D01*
X100020316Y-62311745D01*
X100156705Y-62260615D01*
X100165436Y-62254072D01*
X100167230Y-62253401D01*
X100171760Y-62250921D01*
X100172118Y-62251575D01*
X100231938Y-62229223D01*
X100301321Y-62244274D01*
X100351553Y-62294446D01*
X100367001Y-62354897D01*
X100367001Y-62382095D01*
X100367338Y-62388614D01*
X100377257Y-62484206D01*
X100380149Y-62497600D01*
X100431588Y-62651784D01*
X100437761Y-62664962D01*
X100523063Y-62802807D01*
X100532099Y-62814208D01*
X100646829Y-62928739D01*
X100658240Y-62937751D01*
X100802475Y-63026658D01*
X100801459Y-63028307D01*
X100847361Y-63068723D01*
X100866822Y-63137001D01*
X100846280Y-63204961D01*
X100792257Y-63251026D01*
X100740826Y-63262001D01*
X100555331Y-63262001D01*
X100548510Y-63262371D01*
X100497648Y-63267895D01*
X100482396Y-63271521D01*
X100361946Y-63316676D01*
X100346351Y-63325214D01*
X100244276Y-63401715D01*
X100231715Y-63414276D01*
X100155214Y-63516351D01*
X100146676Y-63531946D01*
X100101522Y-63652394D01*
X100097895Y-63667649D01*
X100092369Y-63718514D01*
X100092000Y-63725328D01*
X100092000Y-64497885D01*
X100096475Y-64513124D01*
X100097865Y-64514329D01*
X100105548Y-64516000D01*
X103089884Y-64516000D01*
X103105123Y-64511525D01*
X103106328Y-64510135D01*
X103107999Y-64502452D01*
X103107999Y-63725331D01*
X103107629Y-63718510D01*
X103102105Y-63667648D01*
X103098479Y-63652396D01*
X103053324Y-63531946D01*
X103044786Y-63516351D01*
X102968285Y-63414276D01*
X102955724Y-63401715D01*
X102853649Y-63325214D01*
X102838054Y-63316676D01*
X102717606Y-63271522D01*
X102702351Y-63267895D01*
X102651486Y-63262369D01*
X102644672Y-63262000D01*
X102459139Y-63262000D01*
X102391018Y-63241998D01*
X102344525Y-63188342D01*
X102334421Y-63118068D01*
X102363915Y-63053488D01*
X102399181Y-63026820D01*
X102398732Y-63026094D01*
X102542807Y-62936937D01*
X102554208Y-62927901D01*
X102668739Y-62813171D01*
X102677751Y-62801760D01*
X102762816Y-62663757D01*
X102768963Y-62650576D01*
X102820138Y-62496290D01*
X102823005Y-62482914D01*
X102832672Y-62388562D01*
X102833000Y-62382146D01*
X102833000Y-62269615D01*
X102828525Y-62254376D01*
X102827135Y-62253171D01*
X102819452Y-62251500D01*
X101472000Y-62251500D01*
X101403879Y-62231498D01*
X101357386Y-62177842D01*
X101346000Y-62125500D01*
X101346000Y-61869500D01*
X101366002Y-61801379D01*
X101419658Y-61754886D01*
X101472000Y-61743500D01*
X102814884Y-61743500D01*
X102830123Y-61739025D01*
X102831328Y-61737635D01*
X102832999Y-61729952D01*
X102832999Y-61612905D01*
X102832662Y-61606386D01*
X102822743Y-61510794D01*
X102819851Y-61497400D01*
X102768412Y-61343216D01*
X102762239Y-61330038D01*
X102676937Y-61192193D01*
X102667901Y-61180792D01*
X102553172Y-61066262D01*
X102544238Y-61059206D01*
X102503177Y-61001288D01*
X102499947Y-60930365D01*
X102535574Y-60868954D01*
X102543407Y-60862154D01*
X102549348Y-60858478D01*
X102674305Y-60733303D01*
X102685931Y-60714442D01*
X102763275Y-60588968D01*
X102763276Y-60588966D01*
X102767115Y-60582738D01*
X102807599Y-60460682D01*
X102820632Y-60421389D01*
X102820632Y-60421387D01*
X102822797Y-60414861D01*
X102833500Y-60310400D01*
X102833500Y-59534600D01*
X102825503Y-59457522D01*
X102823238Y-59435692D01*
X102823237Y-59435688D01*
X102822526Y-59428834D01*
X102799153Y-59358775D01*
X102768868Y-59268002D01*
X102766550Y-59261054D01*
X102673478Y-59110652D01*
X102548303Y-58985695D01*
X102512926Y-58963888D01*
X102418384Y-58905611D01*
X102370890Y-58852838D01*
X102358500Y-58798351D01*
X102358500Y-55907835D01*
X102358742Y-55900033D01*
X102359816Y-55882716D01*
X102362547Y-55838702D01*
X102360320Y-55825740D01*
X102358500Y-55804404D01*
X102358500Y-52434500D01*
X102378502Y-52366379D01*
X102432158Y-52319886D01*
X102484500Y-52308500D01*
X102648134Y-52308500D01*
X102710316Y-52301745D01*
X102846705Y-52250615D01*
X102963261Y-52163261D01*
X103050615Y-52046705D01*
X103101745Y-51910316D01*
X103108500Y-51848134D01*
X103108500Y-49751866D01*
X103101745Y-49689684D01*
X103050615Y-49553295D01*
X102963261Y-49436739D01*
X102846705Y-49349385D01*
X102710316Y-49298255D01*
X102648134Y-49291500D01*
X100551866Y-49291500D01*
X100489684Y-49298255D01*
X100353295Y-49349385D01*
X100330689Y-49366327D01*
X100264185Y-49391174D01*
X100255126Y-49391500D01*
X97221866Y-49391500D01*
X97159684Y-49398255D01*
X97023295Y-49449385D01*
X96906739Y-49536739D01*
X96819385Y-49653295D01*
X96768255Y-49789684D01*
X96761500Y-49851866D01*
X96761500Y-51748134D01*
X96768255Y-51810316D01*
X96819385Y-51946705D01*
X96906739Y-52063261D01*
X97023295Y-52150615D01*
X97159684Y-52201745D01*
X97221866Y-52208500D01*
X98135500Y-52208500D01*
X98203621Y-52228502D01*
X98250114Y-52282158D01*
X98261500Y-52334500D01*
X98261500Y-54345500D01*
X98241498Y-54413621D01*
X98187842Y-54460114D01*
X98135500Y-54471500D01*
X97221866Y-54471500D01*
X97159684Y-54478255D01*
X97023295Y-54529385D01*
X96906739Y-54616739D01*
X96819385Y-54733295D01*
X96768255Y-54869684D01*
X96761500Y-54931866D01*
X96761500Y-56828134D01*
X96768255Y-56890316D01*
X96819385Y-57026705D01*
X96906739Y-57143261D01*
X97023295Y-57230615D01*
X97159684Y-57281745D01*
X97221866Y-57288500D01*
X97544629Y-57288500D01*
X97612750Y-57308502D01*
X97659243Y-57362158D01*
X97669347Y-57432432D01*
X97639853Y-57497012D01*
X97633724Y-57503595D01*
X96031089Y-59106230D01*
X96016677Y-59118616D01*
X96005082Y-59127149D01*
X96005077Y-59127154D01*
X95999182Y-59131492D01*
X95994443Y-59137070D01*
X95994440Y-59137073D01*
X95964965Y-59171768D01*
X95958035Y-59179284D01*
X95952340Y-59184979D01*
X95950060Y-59187861D01*
X95934719Y-59207251D01*
X95931928Y-59210655D01*
X95889409Y-59260703D01*
X95884667Y-59266285D01*
X95881339Y-59272801D01*
X95877972Y-59277850D01*
X95874805Y-59282979D01*
X95870266Y-59288716D01*
X95839345Y-59354875D01*
X95837442Y-59358769D01*
X95804231Y-59423808D01*
X95802492Y-59430916D01*
X95800393Y-59436559D01*
X95798476Y-59442322D01*
X95795378Y-59448950D01*
X95793888Y-59456112D01*
X95793888Y-59456113D01*
X95780514Y-59520412D01*
X95779544Y-59524696D01*
X95762192Y-59595610D01*
X95761844Y-59601212D01*
X95761844Y-59601215D01*
X95761744Y-59602831D01*
X95761500Y-59606764D01*
X95761464Y-59606762D01*
X95761225Y-59610755D01*
X95760851Y-59614947D01*
X95759360Y-59622115D01*
X95760700Y-59671646D01*
X95761454Y-59699521D01*
X95761500Y-59702928D01*
X95761500Y-59767655D01*
X95741498Y-59835776D01*
X95711153Y-59868415D01*
X95619100Y-59937530D01*
X95614965Y-59940635D01*
X95573654Y-59983864D01*
X95521280Y-60038671D01*
X95460629Y-60102138D01*
X95353201Y-60259621D01*
X95298293Y-60304621D01*
X95227768Y-60312792D01*
X95164021Y-60281538D01*
X95143324Y-60257054D01*
X95062822Y-60132617D01*
X95062820Y-60132614D01*
X95060014Y-60128277D01*
X94909670Y-59963051D01*
X94905619Y-59959852D01*
X94905615Y-59959848D01*
X94738414Y-59827800D01*
X94738410Y-59827798D01*
X94734359Y-59824598D01*
X94538789Y-59716638D01*
X94533920Y-59714914D01*
X94533916Y-59714912D01*
X94333087Y-59643795D01*
X94333083Y-59643794D01*
X94328212Y-59642069D01*
X94323119Y-59641162D01*
X94323116Y-59641161D01*
X94113373Y-59603800D01*
X94113367Y-59603799D01*
X94108284Y-59602894D01*
X94037770Y-59602033D01*
X93890082Y-59600228D01*
X93890080Y-59600228D01*
X93884911Y-59600165D01*
X93843262Y-59606538D01*
X93781385Y-59616006D01*
X93711023Y-59606538D01*
X93673232Y-59580551D01*
X93293770Y-59201089D01*
X93281384Y-59186677D01*
X93272851Y-59175082D01*
X93272846Y-59175077D01*
X93268508Y-59169182D01*
X93262930Y-59164443D01*
X93262927Y-59164440D01*
X93228232Y-59134965D01*
X93220716Y-59128035D01*
X93215021Y-59122340D01*
X93203183Y-59112974D01*
X93192749Y-59104719D01*
X93189345Y-59101928D01*
X93139297Y-59059409D01*
X93139295Y-59059408D01*
X93133715Y-59054667D01*
X93127199Y-59051339D01*
X93122150Y-59047972D01*
X93117021Y-59044805D01*
X93111284Y-59040266D01*
X93045125Y-59009345D01*
X93041225Y-59007439D01*
X93010410Y-58991704D01*
X92976192Y-58974231D01*
X92969084Y-58972492D01*
X92963441Y-58970393D01*
X92957678Y-58968476D01*
X92951050Y-58965378D01*
X92879583Y-58950513D01*
X92875299Y-58949543D01*
X92804390Y-58932192D01*
X92798788Y-58931844D01*
X92798785Y-58931844D01*
X92793236Y-58931500D01*
X92793238Y-58931464D01*
X92789245Y-58931225D01*
X92785053Y-58930851D01*
X92777885Y-58929360D01*
X92711675Y-58931151D01*
X92700479Y-58931454D01*
X92697072Y-58931500D01*
X91696781Y-58931500D01*
X91628660Y-58911498D01*
X91589637Y-58871803D01*
X91512332Y-58746880D01*
X91508478Y-58740652D01*
X91383303Y-58615695D01*
X91265046Y-58542800D01*
X91238968Y-58526725D01*
X91238966Y-58526724D01*
X91232738Y-58522885D01*
X91072254Y-58469655D01*
X91071389Y-58469368D01*
X91071387Y-58469368D01*
X91064861Y-58467203D01*
X91058025Y-58466503D01*
X91058022Y-58466502D01*
X91014969Y-58462091D01*
X90960400Y-58456500D01*
X90184600Y-58456500D01*
X90181354Y-58456837D01*
X90181350Y-58456837D01*
X90085692Y-58466762D01*
X90085688Y-58466763D01*
X90078834Y-58467474D01*
X90072298Y-58469655D01*
X90072296Y-58469655D01*
X89945002Y-58512124D01*
X89911054Y-58523450D01*
X89760652Y-58616522D01*
X89635695Y-58741697D01*
X89633094Y-58745916D01*
X89575970Y-58786417D01*
X89505047Y-58789649D01*
X89443635Y-58754024D01*
X89437078Y-58746470D01*
X89433478Y-58740652D01*
X89308303Y-58615695D01*
X89190046Y-58542800D01*
X89163968Y-58526725D01*
X89163966Y-58526724D01*
X89157738Y-58522885D01*
X88997254Y-58469655D01*
X88996389Y-58469368D01*
X88996387Y-58469368D01*
X88989861Y-58467203D01*
X88983025Y-58466503D01*
X88983022Y-58466502D01*
X88939969Y-58462091D01*
X88885400Y-58456500D01*
X88109600Y-58456500D01*
X88106354Y-58456837D01*
X88106350Y-58456837D01*
X88010692Y-58466762D01*
X88010688Y-58466763D01*
X88003834Y-58467474D01*
X87997298Y-58469655D01*
X87997296Y-58469655D01*
X87870002Y-58512124D01*
X87836054Y-58523450D01*
X87685652Y-58616522D01*
X87560695Y-58741697D01*
X87556855Y-58747927D01*
X87556854Y-58747928D01*
X87475471Y-58879956D01*
X87467885Y-58892262D01*
X87454756Y-58931844D01*
X87416239Y-59047972D01*
X87412203Y-59060139D01*
X87411502Y-59066977D01*
X87411502Y-59066979D01*
X87404190Y-59138343D01*
X87377348Y-59204070D01*
X87319233Y-59244852D01*
X87278846Y-59251500D01*
X87023754Y-59251500D01*
X86988602Y-59246497D01*
X86850011Y-59206233D01*
X86850007Y-59206232D01*
X86843831Y-59204438D01*
X86837426Y-59203934D01*
X86837421Y-59203933D01*
X86808958Y-59201693D01*
X86808950Y-59201693D01*
X86806502Y-59201500D01*
X85999980Y-59201500D01*
X85931859Y-59181498D01*
X85885366Y-59127842D01*
X85873980Y-59075500D01*
X85873980Y-57889500D01*
X85893982Y-57821379D01*
X85947638Y-57774886D01*
X85999980Y-57763500D01*
X86788134Y-57763500D01*
X86850316Y-57756745D01*
X86986705Y-57705615D01*
X87103261Y-57618261D01*
X87190615Y-57501705D01*
X87241745Y-57365316D01*
X87248500Y-57303134D01*
X87248500Y-56757239D01*
X87268502Y-56689118D01*
X87322158Y-56642625D01*
X87364285Y-56631654D01*
X87369808Y-56631205D01*
X87391339Y-56629454D01*
X87391342Y-56629453D01*
X87398637Y-56628860D01*
X87405601Y-56626604D01*
X87411560Y-56625413D01*
X87417415Y-56624029D01*
X87424681Y-56623182D01*
X87493327Y-56598265D01*
X87497455Y-56596848D01*
X87559936Y-56576607D01*
X87559938Y-56576606D01*
X87566899Y-56574351D01*
X87573154Y-56570555D01*
X87578628Y-56568049D01*
X87584058Y-56565330D01*
X87590937Y-56562833D01*
X87651976Y-56522814D01*
X87655680Y-56520477D01*
X87718107Y-56482595D01*
X87726484Y-56475197D01*
X87726508Y-56475224D01*
X87729500Y-56472571D01*
X87732733Y-56469868D01*
X87738852Y-56465856D01*
X87792128Y-56409617D01*
X87794506Y-56407175D01*
X88245911Y-55955770D01*
X88260323Y-55943384D01*
X88271918Y-55934851D01*
X88271923Y-55934846D01*
X88277818Y-55930508D01*
X88282557Y-55924930D01*
X88282560Y-55924927D01*
X88312035Y-55890232D01*
X88318965Y-55882716D01*
X88324660Y-55877021D01*
X88336785Y-55861695D01*
X88342281Y-55854749D01*
X88345072Y-55851345D01*
X88387591Y-55801297D01*
X88387592Y-55801295D01*
X88392333Y-55795715D01*
X88395661Y-55789199D01*
X88399020Y-55784162D01*
X88402194Y-55779023D01*
X88406734Y-55773284D01*
X88437636Y-55707163D01*
X88439569Y-55703209D01*
X88443239Y-55696021D01*
X88472769Y-55638192D01*
X88474510Y-55631076D01*
X88476604Y-55625446D01*
X88478523Y-55619679D01*
X88481621Y-55613050D01*
X88496483Y-55541600D01*
X88497453Y-55537315D01*
X88513473Y-55471844D01*
X88514808Y-55466390D01*
X88515500Y-55455236D01*
X88515536Y-55455238D01*
X88515775Y-55451248D01*
X88516150Y-55447050D01*
X88517640Y-55439885D01*
X88515546Y-55362496D01*
X88515500Y-55359088D01*
X88515500Y-54239500D01*
X88535502Y-54171379D01*
X88589158Y-54124886D01*
X88641500Y-54113500D01*
X88972491Y-54113500D01*
X89040612Y-54133502D01*
X89069402Y-54160595D01*
X89069987Y-54160088D01*
X89216250Y-54328938D01*
X89388126Y-54471632D01*
X89451918Y-54508909D01*
X89461445Y-54514476D01*
X89510169Y-54566114D01*
X89523240Y-54635897D01*
X89496509Y-54701669D01*
X89456055Y-54735027D01*
X89443607Y-54741507D01*
X89439474Y-54744610D01*
X89439471Y-54744612D01*
X89272891Y-54869684D01*
X89264965Y-54875635D01*
X89261393Y-54879373D01*
X89128535Y-55018401D01*
X89110629Y-55037138D01*
X89107715Y-55041410D01*
X89107714Y-55041411D01*
X89087714Y-55070730D01*
X88984743Y-55221680D01*
X88937716Y-55322992D01*
X88895334Y-55414297D01*
X88890688Y-55424305D01*
X88830989Y-55639570D01*
X88807251Y-55861695D01*
X88807548Y-55866848D01*
X88807548Y-55866851D01*
X88811469Y-55934851D01*
X88820110Y-56084715D01*
X88821247Y-56089761D01*
X88821248Y-56089767D01*
X88845304Y-56196508D01*
X88869222Y-56302639D01*
X88912168Y-56408402D01*
X88943476Y-56485505D01*
X88953266Y-56509616D01*
X88960616Y-56521610D01*
X89063265Y-56689118D01*
X89069987Y-56700088D01*
X89216250Y-56868938D01*
X89388126Y-57011632D01*
X89581000Y-57124338D01*
X89789692Y-57204030D01*
X89794760Y-57205061D01*
X89794763Y-57205062D01*
X89893888Y-57225229D01*
X90008597Y-57248567D01*
X90013772Y-57248757D01*
X90013774Y-57248757D01*
X90226673Y-57256564D01*
X90226677Y-57256564D01*
X90231837Y-57256753D01*
X90236957Y-57256097D01*
X90236959Y-57256097D01*
X90448288Y-57229025D01*
X90448289Y-57229025D01*
X90453416Y-57228368D01*
X90463879Y-57225229D01*
X90662429Y-57165661D01*
X90662434Y-57165659D01*
X90667384Y-57164174D01*
X90867994Y-57065896D01*
X91049860Y-56936173D01*
X91208096Y-56778489D01*
X91211110Y-56774295D01*
X91211119Y-56774284D01*
X91270983Y-56690974D01*
X91326977Y-56647326D01*
X91373305Y-56638500D01*
X91635500Y-56638500D01*
X91703621Y-56658502D01*
X91750114Y-56712158D01*
X91761500Y-56764500D01*
X91761500Y-56828134D01*
X91768255Y-56890316D01*
X91819385Y-57026705D01*
X91906739Y-57143261D01*
X92023295Y-57230615D01*
X92159684Y-57281745D01*
X92221866Y-57288500D01*
X95818134Y-57288500D01*
X95880316Y-57281745D01*
X96016705Y-57230615D01*
X96133261Y-57143261D01*
X96220615Y-57026705D01*
X96271745Y-56890316D01*
X96278500Y-56828134D01*
X96278500Y-54931866D01*
X96271745Y-54869684D01*
X96220615Y-54733295D01*
X96133261Y-54616739D01*
X96016705Y-54529385D01*
X95880316Y-54478255D01*
X95818134Y-54471500D01*
X92221866Y-54471500D01*
X92159684Y-54478255D01*
X92023295Y-54529385D01*
X91906739Y-54616739D01*
X91819385Y-54733295D01*
X91768255Y-54869684D01*
X91761500Y-54931866D01*
X91761500Y-54995500D01*
X91741498Y-55063621D01*
X91687842Y-55110114D01*
X91635500Y-55121500D01*
X91356235Y-55121500D01*
X91288114Y-55101498D01*
X91257250Y-55070730D01*
X91255975Y-55071712D01*
X91252822Y-55067617D01*
X91250014Y-55063277D01*
X91099670Y-54898051D01*
X91095619Y-54894852D01*
X91095615Y-54894848D01*
X90928414Y-54762800D01*
X90928410Y-54762798D01*
X90924359Y-54759598D01*
X90883053Y-54736796D01*
X90833084Y-54686364D01*
X90818312Y-54616921D01*
X90843428Y-54550516D01*
X90870780Y-54523909D01*
X90914603Y-54492650D01*
X91049860Y-54396173D01*
X91208096Y-54238489D01*
X91221891Y-54219292D01*
X91335435Y-54061277D01*
X91338453Y-54057077D01*
X91341342Y-54051233D01*
X91435136Y-53861453D01*
X91435137Y-53861451D01*
X91437430Y-53856811D01*
X91502370Y-53643069D01*
X91531529Y-53421590D01*
X91531611Y-53418240D01*
X91533074Y-53358365D01*
X91533074Y-53358361D01*
X91533156Y-53355000D01*
X91514852Y-53132361D01*
X91460431Y-52915702D01*
X91371354Y-52710840D01*
X91297384Y-52596500D01*
X91252822Y-52527617D01*
X91252820Y-52527614D01*
X91250014Y-52523277D01*
X91236365Y-52508277D01*
X91102798Y-52361488D01*
X91071746Y-52297642D01*
X91080141Y-52227143D01*
X91125317Y-52172375D01*
X91151761Y-52158706D01*
X91258297Y-52118767D01*
X91266705Y-52115615D01*
X91383261Y-52028261D01*
X91470615Y-51911705D01*
X91521745Y-51775316D01*
X91522840Y-51775727D01*
X91554282Y-51720696D01*
X91617239Y-51687880D01*
X91687944Y-51694310D01*
X91743948Y-51737945D01*
X91766905Y-51797889D01*
X91767401Y-51802459D01*
X91767402Y-51802463D01*
X91768255Y-51810316D01*
X91819385Y-51946705D01*
X91906739Y-52063261D01*
X92023295Y-52150615D01*
X92159684Y-52201745D01*
X92221866Y-52208500D01*
X95818134Y-52208500D01*
X95880316Y-52201745D01*
X96016705Y-52150615D01*
X96133261Y-52063261D01*
X96220615Y-51946705D01*
X96271745Y-51810316D01*
X96278500Y-51748134D01*
X96278500Y-49851866D01*
X96271745Y-49789684D01*
X96220615Y-49653295D01*
X96133261Y-49536739D01*
X96016705Y-49449385D01*
X95880316Y-49398255D01*
X95818134Y-49391500D01*
X92221866Y-49391500D01*
X92159684Y-49398255D01*
X92023295Y-49449385D01*
X91906739Y-49536739D01*
X91819385Y-49653295D01*
X91768255Y-49789684D01*
X91767402Y-49797536D01*
X91767401Y-49797540D01*
X91764626Y-49823090D01*
X91737384Y-49888653D01*
X91679022Y-49929079D01*
X91608067Y-49931535D01*
X91547049Y-49895240D01*
X91521381Y-49853713D01*
X91473767Y-49726703D01*
X91470615Y-49718295D01*
X91383261Y-49601739D01*
X91266705Y-49514385D01*
X91130316Y-49463255D01*
X91068134Y-49456500D01*
X89271866Y-49456500D01*
X89209684Y-49463255D01*
X89073295Y-49514385D01*
X88956739Y-49601739D01*
X88869385Y-49718295D01*
X88818255Y-49854684D01*
X88811500Y-49916866D01*
X88811500Y-51713134D01*
X88818255Y-51775316D01*
X88869385Y-51911705D01*
X88956739Y-52028261D01*
X89073295Y-52115615D01*
X89081704Y-52118767D01*
X89081705Y-52118768D01*
X89190451Y-52159535D01*
X89247216Y-52202176D01*
X89271916Y-52268738D01*
X89256709Y-52338087D01*
X89237316Y-52364568D01*
X89120888Y-52486403D01*
X89110629Y-52497138D01*
X89080363Y-52541507D01*
X89025455Y-52586507D01*
X88976277Y-52596500D01*
X88641500Y-52596500D01*
X88573379Y-52576498D01*
X88526886Y-52522842D01*
X88515500Y-52470500D01*
X88515500Y-51248063D01*
X88516933Y-51229114D01*
X88519097Y-51214886D01*
X88520198Y-51207651D01*
X88515915Y-51154990D01*
X88515500Y-51144777D01*
X88515500Y-51136707D01*
X88515078Y-51133087D01*
X88515077Y-51133069D01*
X88512208Y-51108461D01*
X88511775Y-51104086D01*
X88506454Y-51038661D01*
X88506453Y-51038658D01*
X88505860Y-51031363D01*
X88503604Y-51024399D01*
X88502413Y-51018440D01*
X88501029Y-51012585D01*
X88500182Y-51005319D01*
X88475265Y-50936673D01*
X88473848Y-50932545D01*
X88453607Y-50870064D01*
X88453606Y-50870062D01*
X88451351Y-50863101D01*
X88447555Y-50856846D01*
X88445049Y-50851372D01*
X88442330Y-50845942D01*
X88439833Y-50839063D01*
X88399809Y-50778016D01*
X88397472Y-50774312D01*
X88362509Y-50716693D01*
X88362505Y-50716688D01*
X88359595Y-50711892D01*
X88352197Y-50703516D01*
X88352223Y-50703493D01*
X88349574Y-50700503D01*
X88346866Y-50697264D01*
X88342856Y-50691148D01*
X88337549Y-50686121D01*
X88337546Y-50686117D01*
X88286617Y-50637872D01*
X88284175Y-50635494D01*
X87959770Y-50311089D01*
X87947384Y-50296677D01*
X87938851Y-50285082D01*
X87938846Y-50285077D01*
X87934508Y-50279182D01*
X87928930Y-50274443D01*
X87928927Y-50274440D01*
X87894232Y-50244965D01*
X87886716Y-50238035D01*
X87881021Y-50232340D01*
X87874880Y-50227482D01*
X87858749Y-50214719D01*
X87855345Y-50211928D01*
X87805297Y-50169409D01*
X87805295Y-50169408D01*
X87799715Y-50164667D01*
X87793199Y-50161339D01*
X87788150Y-50157972D01*
X87783021Y-50154805D01*
X87777284Y-50150266D01*
X87711125Y-50119345D01*
X87707225Y-50117439D01*
X87642192Y-50084231D01*
X87635084Y-50082492D01*
X87629441Y-50080393D01*
X87623678Y-50078476D01*
X87617050Y-50075378D01*
X87545583Y-50060513D01*
X87541299Y-50059543D01*
X87528863Y-50056500D01*
X87470390Y-50042192D01*
X87464788Y-50041844D01*
X87464785Y-50041844D01*
X87459236Y-50041500D01*
X87459238Y-50041464D01*
X87455245Y-50041225D01*
X87451053Y-50040851D01*
X87443885Y-50039360D01*
X87377675Y-50041151D01*
X87366479Y-50041454D01*
X87363072Y-50041500D01*
X86838677Y-50041500D01*
X86770556Y-50021498D01*
X86749666Y-50004679D01*
X86718003Y-49973071D01*
X86596977Y-49898469D01*
X86576150Y-49885631D01*
X86576148Y-49885630D01*
X86569920Y-49881791D01*
X86404809Y-49827026D01*
X86397973Y-49826326D01*
X86397970Y-49826325D01*
X86346474Y-49821049D01*
X86302072Y-49816500D01*
X85627928Y-49816500D01*
X85624682Y-49816837D01*
X85624678Y-49816837D01*
X85530765Y-49826581D01*
X85530761Y-49826582D01*
X85523907Y-49827293D01*
X85517371Y-49829474D01*
X85517369Y-49829474D01*
X85418259Y-49862540D01*
X85358893Y-49882346D01*
X85327349Y-49901866D01*
X85218490Y-49969230D01*
X85210969Y-49973884D01*
X85179121Y-50005787D01*
X85116841Y-50039866D01*
X85046021Y-50034863D01*
X85000933Y-50005943D01*
X84973184Y-49978243D01*
X84968003Y-49973071D01*
X84959520Y-49967842D01*
X84826150Y-49885631D01*
X84826148Y-49885630D01*
X84819920Y-49881791D01*
X84654809Y-49827026D01*
X84647973Y-49826326D01*
X84647970Y-49826325D01*
X84596474Y-49821049D01*
X84552072Y-49816500D01*
X83877928Y-49816500D01*
X83874682Y-49816837D01*
X83874678Y-49816837D01*
X83780765Y-49826581D01*
X83780761Y-49826582D01*
X83773907Y-49827293D01*
X83767371Y-49829474D01*
X83767369Y-49829474D01*
X83668259Y-49862540D01*
X83608893Y-49882346D01*
X83460969Y-49973884D01*
X83455796Y-49979066D01*
X83430388Y-50004518D01*
X83368105Y-50038597D01*
X83341215Y-50041500D01*
X81494500Y-50041500D01*
X81426379Y-50021498D01*
X81379886Y-49967842D01*
X81368500Y-49915500D01*
X81368500Y-49901866D01*
X81361745Y-49839684D01*
X81310615Y-49703295D01*
X81223261Y-49586739D01*
X81106705Y-49499385D01*
X80970316Y-49448255D01*
X80908134Y-49441500D01*
X79111866Y-49441500D01*
X79049684Y-49448255D01*
X78913295Y-49499385D01*
X78796739Y-49586739D01*
X78709385Y-49703295D01*
X78658255Y-49839684D01*
X78651500Y-49901866D01*
X78651500Y-51698134D01*
X78658255Y-51760316D01*
X78709385Y-51896705D01*
X78796739Y-52013261D01*
X78913295Y-52100615D01*
X78921704Y-52103767D01*
X78921705Y-52103768D01*
X79030451Y-52144535D01*
X79087216Y-52187176D01*
X79111916Y-52253738D01*
X79096709Y-52323087D01*
X79077316Y-52349568D01*
X78961751Y-52470500D01*
X78950629Y-52482138D01*
X78920363Y-52526507D01*
X78865455Y-52571507D01*
X78816277Y-52581500D01*
X77084500Y-52581500D01*
X77016379Y-52561498D01*
X76969886Y-52507842D01*
X76958500Y-52455500D01*
X76958500Y-52434500D01*
X76978502Y-52366379D01*
X77032158Y-52319886D01*
X77084500Y-52308500D01*
X77248134Y-52308500D01*
X77310316Y-52301745D01*
X77446705Y-52250615D01*
X77563261Y-52163261D01*
X77650615Y-52046705D01*
X77701745Y-51910316D01*
X77708500Y-51848134D01*
X77708500Y-49751866D01*
X77701745Y-49689684D01*
X77650615Y-49553295D01*
X77563261Y-49436739D01*
X77446705Y-49349385D01*
X77310316Y-49298255D01*
X77248134Y-49291500D01*
X75151866Y-49291500D01*
X75089684Y-49298255D01*
X74953295Y-49349385D01*
X74836739Y-49436739D01*
X74749385Y-49553295D01*
X74698255Y-49689684D01*
X74691500Y-49751866D01*
X74691500Y-51848134D01*
X74168500Y-51848134D01*
X74168500Y-48894500D01*
X74188502Y-48826379D01*
X74242158Y-48779886D01*
X74294500Y-48768500D01*
X103505500Y-48768500D01*
X103573621Y-48788502D01*
G37*
%TD.AperFunction*%
%TA.AperFunction,Conductor*%
G36*
X87681121Y-60788502D02*
G01*
X87727614Y-60842158D01*
X87739000Y-60894500D01*
X87739000Y-60953665D01*
X87738758Y-60961466D01*
X87734953Y-61022798D01*
X87736774Y-61033394D01*
X87736503Y-61035731D01*
X87736589Y-61037323D01*
X87736316Y-61037338D01*
X87728598Y-61103915D01*
X87691111Y-61153144D01*
X87685652Y-61156522D01*
X87680482Y-61161701D01*
X87593257Y-61249078D01*
X87530974Y-61283157D01*
X87460154Y-61278154D01*
X87403282Y-61235657D01*
X87398280Y-61228482D01*
X87391520Y-61218029D01*
X87382630Y-61214000D01*
X87144842Y-61214000D01*
X87080703Y-61196453D01*
X87045142Y-61175423D01*
X87003601Y-61150855D01*
X86995990Y-61148644D01*
X86995988Y-61148643D01*
X86909474Y-61123509D01*
X86843831Y-61104438D01*
X86837426Y-61103934D01*
X86837421Y-61103933D01*
X86808958Y-61101693D01*
X86808950Y-61101693D01*
X86806502Y-61101500D01*
X86099500Y-61101500D01*
X86031379Y-61081498D01*
X85984886Y-61027842D01*
X85973500Y-60975500D01*
X85973500Y-60944500D01*
X85993502Y-60876379D01*
X86047158Y-60829886D01*
X86099500Y-60818500D01*
X86806502Y-60818500D01*
X86808950Y-60818307D01*
X86808958Y-60818307D01*
X86837421Y-60816067D01*
X86837426Y-60816066D01*
X86843831Y-60815562D01*
X86850007Y-60813768D01*
X86850011Y-60813767D01*
X86988602Y-60773503D01*
X87023754Y-60768500D01*
X87613000Y-60768500D01*
X87681121Y-60788502D01*
G37*
%TD.AperFunction*%
%TD*%
M02*
