M48
; DRILL file {KiCad 9.0.3} date 2025-08-23T03:35:58+0200
; FORMAT={-:-/ absolute / inch / decimal}
; #@! TF.CreationDate,2025-08-23T03:35:58+02:00
; #@! TF.GenerationSoftware,Kicad,Pcbnew,9.0.3
; #@! TF.FileFunction,Plated,1,2,PTH
FMAT,2
INCH
; #@! TA.AperFunction,Plated,PTH,ComponentDrill
T1C0.0315
%
G90
G05
T1
X3.937Y-2.3622
X3.937Y-2.4622
X3.937Y-2.5622
X3.937Y-2.6622
X3.937Y-2.7622
X3.937Y-2.8622
X3.937Y-2.9622
X3.937Y-3.0622
X3.937Y-3.1622
X3.937Y-3.2622
X3.937Y-3.3622
X3.937Y-3.4622
X4.537Y-2.3622
X4.537Y-2.4622
X4.537Y-2.5622
X4.537Y-2.6622
X4.537Y-2.7622
X4.537Y-2.8622
X4.537Y-2.9622
X4.537Y-3.0622
X4.537Y-3.1622
X4.537Y-3.2622
X4.537Y-3.3622
X4.537Y-3.4622
M30
