%TF.GenerationSoftware,KiCad,Pcbnew,9.0.3*%
%TF.CreationDate,2025-08-23T03:35:55+02:00*%
%TF.ProjectId,cederom-adapter-so24-to-dip24,63656465-726f-46d2-9d61-646170746572,1*%
%TF.SameCoordinates,Original*%
%TF.FileFunction,Legend,Top*%
%TF.FilePolarity,Positive*%
%FSLAX46Y46*%
G04 Gerber Fmt 4.6, Leading zero omitted, Abs format (unit mm)*
G04 Created by KiCad (PCBNEW 9.0.3) date 2025-08-23 03:35:55*
%MOMM*%
%LPD*%
G01*
G04 APERTURE LIST*
%ADD10C,0.200000*%
%ADD11C,0.150000*%
%ADD12C,0.120000*%
G04 APERTURE END LIST*
D10*
X105597619Y-60195920D02*
X105776190Y-60255443D01*
X105776190Y-60255443D02*
X106073809Y-60255443D01*
X106073809Y-60255443D02*
X106192857Y-60195920D01*
X106192857Y-60195920D02*
X106252381Y-60136396D01*
X106252381Y-60136396D02*
X106311904Y-60017348D01*
X106311904Y-60017348D02*
X106311904Y-59898300D01*
X106311904Y-59898300D02*
X106252381Y-59779253D01*
X106252381Y-59779253D02*
X106192857Y-59719729D01*
X106192857Y-59719729D02*
X106073809Y-59660205D01*
X106073809Y-59660205D02*
X105835714Y-59600681D01*
X105835714Y-59600681D02*
X105716666Y-59541158D01*
X105716666Y-59541158D02*
X105657143Y-59481634D01*
X105657143Y-59481634D02*
X105597619Y-59362586D01*
X105597619Y-59362586D02*
X105597619Y-59243539D01*
X105597619Y-59243539D02*
X105657143Y-59124491D01*
X105657143Y-59124491D02*
X105716666Y-59064967D01*
X105716666Y-59064967D02*
X105835714Y-59005443D01*
X105835714Y-59005443D02*
X106133333Y-59005443D01*
X106133333Y-59005443D02*
X106311904Y-59064967D01*
X107085714Y-59005443D02*
X107323809Y-59005443D01*
X107323809Y-59005443D02*
X107442857Y-59064967D01*
X107442857Y-59064967D02*
X107561904Y-59184015D01*
X107561904Y-59184015D02*
X107621428Y-59422110D01*
X107621428Y-59422110D02*
X107621428Y-59838777D01*
X107621428Y-59838777D02*
X107561904Y-60076872D01*
X107561904Y-60076872D02*
X107442857Y-60195920D01*
X107442857Y-60195920D02*
X107323809Y-60255443D01*
X107323809Y-60255443D02*
X107085714Y-60255443D01*
X107085714Y-60255443D02*
X106966666Y-60195920D01*
X106966666Y-60195920D02*
X106847619Y-60076872D01*
X106847619Y-60076872D02*
X106788095Y-59838777D01*
X106788095Y-59838777D02*
X106788095Y-59422110D01*
X106788095Y-59422110D02*
X106847619Y-59184015D01*
X106847619Y-59184015D02*
X106966666Y-59064967D01*
X106966666Y-59064967D02*
X107085714Y-59005443D01*
X108097619Y-59124491D02*
X108157143Y-59064967D01*
X108157143Y-59064967D02*
X108276190Y-59005443D01*
X108276190Y-59005443D02*
X108573809Y-59005443D01*
X108573809Y-59005443D02*
X108692857Y-59064967D01*
X108692857Y-59064967D02*
X108752381Y-59124491D01*
X108752381Y-59124491D02*
X108811904Y-59243539D01*
X108811904Y-59243539D02*
X108811904Y-59362586D01*
X108811904Y-59362586D02*
X108752381Y-59541158D01*
X108752381Y-59541158D02*
X108038095Y-60255443D01*
X108038095Y-60255443D02*
X108811904Y-60255443D01*
X109883333Y-59422110D02*
X109883333Y-60255443D01*
X109585714Y-58945920D02*
X109288095Y-59838777D01*
X109288095Y-59838777D02*
X110061904Y-59838777D01*
X105359524Y-62267873D02*
X105359524Y-61017873D01*
X105359524Y-61017873D02*
X105657143Y-61017873D01*
X105657143Y-61017873D02*
X105835714Y-61077397D01*
X105835714Y-61077397D02*
X105954762Y-61196445D01*
X105954762Y-61196445D02*
X106014285Y-61315492D01*
X106014285Y-61315492D02*
X106073809Y-61553588D01*
X106073809Y-61553588D02*
X106073809Y-61732159D01*
X106073809Y-61732159D02*
X106014285Y-61970254D01*
X106014285Y-61970254D02*
X105954762Y-62089302D01*
X105954762Y-62089302D02*
X105835714Y-62208350D01*
X105835714Y-62208350D02*
X105657143Y-62267873D01*
X105657143Y-62267873D02*
X105359524Y-62267873D01*
X106609524Y-62267873D02*
X106609524Y-61017873D01*
X107204762Y-62267873D02*
X107204762Y-61017873D01*
X107204762Y-61017873D02*
X107680952Y-61017873D01*
X107680952Y-61017873D02*
X107800000Y-61077397D01*
X107800000Y-61077397D02*
X107859523Y-61136921D01*
X107859523Y-61136921D02*
X107919047Y-61255969D01*
X107919047Y-61255969D02*
X107919047Y-61434540D01*
X107919047Y-61434540D02*
X107859523Y-61553588D01*
X107859523Y-61553588D02*
X107800000Y-61613111D01*
X107800000Y-61613111D02*
X107680952Y-61672635D01*
X107680952Y-61672635D02*
X107204762Y-61672635D01*
X108395238Y-61136921D02*
X108454762Y-61077397D01*
X108454762Y-61077397D02*
X108573809Y-61017873D01*
X108573809Y-61017873D02*
X108871428Y-61017873D01*
X108871428Y-61017873D02*
X108990476Y-61077397D01*
X108990476Y-61077397D02*
X109050000Y-61136921D01*
X109050000Y-61136921D02*
X109109523Y-61255969D01*
X109109523Y-61255969D02*
X109109523Y-61375016D01*
X109109523Y-61375016D02*
X109050000Y-61553588D01*
X109050000Y-61553588D02*
X108335714Y-62267873D01*
X108335714Y-62267873D02*
X109109523Y-62267873D01*
X110180952Y-61434540D02*
X110180952Y-62267873D01*
X109883333Y-60958350D02*
X109585714Y-61851207D01*
X109585714Y-61851207D02*
X110359523Y-61851207D01*
X105180952Y-63923160D02*
X105776190Y-63923160D01*
X105061904Y-64280303D02*
X105478571Y-63030303D01*
X105478571Y-63030303D02*
X105895237Y-64280303D01*
X106311905Y-64280303D02*
X106311905Y-63030303D01*
X106311905Y-63030303D02*
X106609524Y-63030303D01*
X106609524Y-63030303D02*
X106788095Y-63089827D01*
X106788095Y-63089827D02*
X106907143Y-63208875D01*
X106907143Y-63208875D02*
X106966666Y-63327922D01*
X106966666Y-63327922D02*
X107026190Y-63566018D01*
X107026190Y-63566018D02*
X107026190Y-63744589D01*
X107026190Y-63744589D02*
X106966666Y-63982684D01*
X106966666Y-63982684D02*
X106907143Y-64101732D01*
X106907143Y-64101732D02*
X106788095Y-64220780D01*
X106788095Y-64220780D02*
X106609524Y-64280303D01*
X106609524Y-64280303D02*
X106311905Y-64280303D01*
X107561905Y-64280303D02*
X107561905Y-63030303D01*
X107561905Y-63030303D02*
X108038095Y-63030303D01*
X108038095Y-63030303D02*
X108157143Y-63089827D01*
X108157143Y-63089827D02*
X108216666Y-63149351D01*
X108216666Y-63149351D02*
X108276190Y-63268399D01*
X108276190Y-63268399D02*
X108276190Y-63446970D01*
X108276190Y-63446970D02*
X108216666Y-63566018D01*
X108216666Y-63566018D02*
X108157143Y-63625541D01*
X108157143Y-63625541D02*
X108038095Y-63685065D01*
X108038095Y-63685065D02*
X107561905Y-63685065D01*
X108692857Y-63446970D02*
X108990476Y-64280303D01*
X108990476Y-64280303D02*
X109288095Y-63446970D01*
X110419047Y-64280303D02*
X109704762Y-64280303D01*
X110061905Y-64280303D02*
X110061905Y-63030303D01*
X110061905Y-63030303D02*
X109942857Y-63208875D01*
X109942857Y-63208875D02*
X109823809Y-63327922D01*
X109823809Y-63327922D02*
X109704762Y-63387446D01*
X104296428Y-88448826D02*
X104236904Y-88508350D01*
X104236904Y-88508350D02*
X104058333Y-88567873D01*
X104058333Y-88567873D02*
X103939285Y-88567873D01*
X103939285Y-88567873D02*
X103760714Y-88508350D01*
X103760714Y-88508350D02*
X103641666Y-88389302D01*
X103641666Y-88389302D02*
X103582143Y-88270254D01*
X103582143Y-88270254D02*
X103522619Y-88032159D01*
X103522619Y-88032159D02*
X103522619Y-87853588D01*
X103522619Y-87853588D02*
X103582143Y-87615492D01*
X103582143Y-87615492D02*
X103641666Y-87496445D01*
X103641666Y-87496445D02*
X103760714Y-87377397D01*
X103760714Y-87377397D02*
X103939285Y-87317873D01*
X103939285Y-87317873D02*
X104058333Y-87317873D01*
X104058333Y-87317873D02*
X104236904Y-87377397D01*
X104236904Y-87377397D02*
X104296428Y-87436921D01*
X105308333Y-88508350D02*
X105189285Y-88567873D01*
X105189285Y-88567873D02*
X104951190Y-88567873D01*
X104951190Y-88567873D02*
X104832143Y-88508350D01*
X104832143Y-88508350D02*
X104772619Y-88389302D01*
X104772619Y-88389302D02*
X104772619Y-87913111D01*
X104772619Y-87913111D02*
X104832143Y-87794064D01*
X104832143Y-87794064D02*
X104951190Y-87734540D01*
X104951190Y-87734540D02*
X105189285Y-87734540D01*
X105189285Y-87734540D02*
X105308333Y-87794064D01*
X105308333Y-87794064D02*
X105367857Y-87913111D01*
X105367857Y-87913111D02*
X105367857Y-88032159D01*
X105367857Y-88032159D02*
X104772619Y-88151207D01*
X105903572Y-88567873D02*
X105903572Y-87317873D01*
X105903572Y-87317873D02*
X106201191Y-87317873D01*
X106201191Y-87317873D02*
X106379762Y-87377397D01*
X106379762Y-87377397D02*
X106498810Y-87496445D01*
X106498810Y-87496445D02*
X106558333Y-87615492D01*
X106558333Y-87615492D02*
X106617857Y-87853588D01*
X106617857Y-87853588D02*
X106617857Y-88032159D01*
X106617857Y-88032159D02*
X106558333Y-88270254D01*
X106558333Y-88270254D02*
X106498810Y-88389302D01*
X106498810Y-88389302D02*
X106379762Y-88508350D01*
X106379762Y-88508350D02*
X106201191Y-88567873D01*
X106201191Y-88567873D02*
X105903572Y-88567873D01*
X107629762Y-88508350D02*
X107510714Y-88567873D01*
X107510714Y-88567873D02*
X107272619Y-88567873D01*
X107272619Y-88567873D02*
X107153572Y-88508350D01*
X107153572Y-88508350D02*
X107094048Y-88389302D01*
X107094048Y-88389302D02*
X107094048Y-87913111D01*
X107094048Y-87913111D02*
X107153572Y-87794064D01*
X107153572Y-87794064D02*
X107272619Y-87734540D01*
X107272619Y-87734540D02*
X107510714Y-87734540D01*
X107510714Y-87734540D02*
X107629762Y-87794064D01*
X107629762Y-87794064D02*
X107689286Y-87913111D01*
X107689286Y-87913111D02*
X107689286Y-88032159D01*
X107689286Y-88032159D02*
X107094048Y-88151207D01*
X108939286Y-88567873D02*
X108522620Y-87972635D01*
X108225001Y-88567873D02*
X108225001Y-87317873D01*
X108225001Y-87317873D02*
X108701191Y-87317873D01*
X108701191Y-87317873D02*
X108820239Y-87377397D01*
X108820239Y-87377397D02*
X108879762Y-87436921D01*
X108879762Y-87436921D02*
X108939286Y-87555969D01*
X108939286Y-87555969D02*
X108939286Y-87734540D01*
X108939286Y-87734540D02*
X108879762Y-87853588D01*
X108879762Y-87853588D02*
X108820239Y-87913111D01*
X108820239Y-87913111D02*
X108701191Y-87972635D01*
X108701191Y-87972635D02*
X108225001Y-87972635D01*
X109713096Y-87317873D02*
X109951191Y-87317873D01*
X109951191Y-87317873D02*
X110070239Y-87377397D01*
X110070239Y-87377397D02*
X110189286Y-87496445D01*
X110189286Y-87496445D02*
X110248810Y-87734540D01*
X110248810Y-87734540D02*
X110248810Y-88151207D01*
X110248810Y-88151207D02*
X110189286Y-88389302D01*
X110189286Y-88389302D02*
X110070239Y-88508350D01*
X110070239Y-88508350D02*
X109951191Y-88567873D01*
X109951191Y-88567873D02*
X109713096Y-88567873D01*
X109713096Y-88567873D02*
X109594048Y-88508350D01*
X109594048Y-88508350D02*
X109475001Y-88389302D01*
X109475001Y-88389302D02*
X109415477Y-88151207D01*
X109415477Y-88151207D02*
X109415477Y-87734540D01*
X109415477Y-87734540D02*
X109475001Y-87496445D01*
X109475001Y-87496445D02*
X109594048Y-87377397D01*
X109594048Y-87377397D02*
X109713096Y-87317873D01*
X110784525Y-88567873D02*
X110784525Y-87317873D01*
X110784525Y-87317873D02*
X111201191Y-88210730D01*
X111201191Y-88210730D02*
X111617858Y-87317873D01*
X111617858Y-87317873D02*
X111617858Y-88567873D01*
D11*
X106329166Y-65934819D02*
X105995833Y-65458628D01*
X105757738Y-65934819D02*
X105757738Y-64934819D01*
X105757738Y-64934819D02*
X106138690Y-64934819D01*
X106138690Y-64934819D02*
X106233928Y-64982438D01*
X106233928Y-64982438D02*
X106281547Y-65030057D01*
X106281547Y-65030057D02*
X106329166Y-65125295D01*
X106329166Y-65125295D02*
X106329166Y-65268152D01*
X106329166Y-65268152D02*
X106281547Y-65363390D01*
X106281547Y-65363390D02*
X106233928Y-65411009D01*
X106233928Y-65411009D02*
X106138690Y-65458628D01*
X106138690Y-65458628D02*
X105757738Y-65458628D01*
X106757738Y-65411009D02*
X107091071Y-65411009D01*
X107233928Y-65934819D02*
X106757738Y-65934819D01*
X106757738Y-65934819D02*
X106757738Y-64934819D01*
X106757738Y-64934819D02*
X107233928Y-64934819D01*
X107995833Y-65411009D02*
X107662500Y-65411009D01*
X107662500Y-65934819D02*
X107662500Y-64934819D01*
X107662500Y-64934819D02*
X108138690Y-64934819D01*
X108662500Y-64934819D02*
X108662500Y-65172914D01*
X108424405Y-65077676D02*
X108662500Y-65172914D01*
X108662500Y-65172914D02*
X108900595Y-65077676D01*
X108519643Y-65363390D02*
X108662500Y-65172914D01*
X108662500Y-65172914D02*
X108805357Y-65363390D01*
X109424405Y-64934819D02*
X109424405Y-65172914D01*
X109186310Y-65077676D02*
X109424405Y-65172914D01*
X109424405Y-65172914D02*
X109662500Y-65077676D01*
X109281548Y-65363390D02*
X109424405Y-65172914D01*
X109424405Y-65172914D02*
X109567262Y-65363390D01*
X106286666Y-58124819D02*
X105953333Y-57648628D01*
X105715238Y-58124819D02*
X105715238Y-57124819D01*
X105715238Y-57124819D02*
X106096190Y-57124819D01*
X106096190Y-57124819D02*
X106191428Y-57172438D01*
X106191428Y-57172438D02*
X106239047Y-57220057D01*
X106239047Y-57220057D02*
X106286666Y-57315295D01*
X106286666Y-57315295D02*
X106286666Y-57458152D01*
X106286666Y-57458152D02*
X106239047Y-57553390D01*
X106239047Y-57553390D02*
X106191428Y-57601009D01*
X106191428Y-57601009D02*
X106096190Y-57648628D01*
X106096190Y-57648628D02*
X105715238Y-57648628D01*
X106715238Y-57601009D02*
X107048571Y-57601009D01*
X107191428Y-58124819D02*
X106715238Y-58124819D01*
X106715238Y-58124819D02*
X106715238Y-57124819D01*
X106715238Y-57124819D02*
X107191428Y-57124819D01*
X107953333Y-57601009D02*
X107620000Y-57601009D01*
X107620000Y-58124819D02*
X107620000Y-57124819D01*
X107620000Y-57124819D02*
X108096190Y-57124819D01*
X108620000Y-57124819D02*
X108620000Y-57362914D01*
X108381905Y-57267676D02*
X108620000Y-57362914D01*
X108620000Y-57362914D02*
X108858095Y-57267676D01*
X108477143Y-57553390D02*
X108620000Y-57362914D01*
X108620000Y-57362914D02*
X108762857Y-57553390D01*
X109381905Y-57124819D02*
X109381905Y-57362914D01*
X109143810Y-57267676D02*
X109381905Y-57362914D01*
X109381905Y-57362914D02*
X109620000Y-57267676D01*
X109239048Y-57553390D02*
X109381905Y-57362914D01*
X109381905Y-57362914D02*
X109524762Y-57553390D01*
D12*
%TO.C,REF\u002A\u002A*%
X107662500Y-66320000D02*
X105012500Y-66320000D01*
X107662500Y-66320000D02*
X110312500Y-66320000D01*
X107662500Y-81540000D02*
X105012500Y-81540000D01*
X107662500Y-81540000D02*
X110312500Y-81540000D01*
X104112500Y-66385000D02*
X103872500Y-66055000D01*
X104352500Y-66055000D01*
X104112500Y-66385000D01*
G36*
X104112500Y-66385000D02*
G01*
X103872500Y-66055000D01*
X104352500Y-66055000D01*
X104112500Y-66385000D01*
G37*
X101560000Y-58670000D02*
X101560000Y-89270000D01*
X101560000Y-89270000D02*
X113680000Y-89270000D01*
X106620000Y-58670000D02*
X101560000Y-58670000D01*
X113680000Y-58670000D02*
X108620000Y-58670000D01*
X113680000Y-89270000D02*
X113680000Y-58670000D01*
X108620000Y-58670000D02*
G75*
G02*
X106620000Y-58670000I-1000000J0D01*
G01*
%TD*%
M02*
