%TF.GenerationSoftware,KiCad,Pcbnew,9.0.3*%
%TF.CreationDate,2025-08-23T03:35:55+02:00*%
%TF.ProjectId,cederom-adapter-so24-to-dip24,63656465-726f-46d2-9d61-646170746572,1*%
%TF.SameCoordinates,Original*%
%TF.FileFunction,Copper,L1,Top*%
%TF.FilePolarity,Positive*%
%FSLAX46Y46*%
G04 Gerber Fmt 4.6, Leading zero omitted, Abs format (unit mm)*
G04 Created by KiCad (PCBNEW 9.0.3) date 2025-08-23 03:35:55*
%MOMM*%
%LPD*%
G01*
G04 APERTURE LIST*
G04 Aperture macros list*
%AMRoundRect*
0 Rectangle with rounded corners*
0 $1 Rounding radius*
0 $2 $3 $4 $5 $6 $7 $8 $9 X,Y pos of 4 corners*
0 Add a 4 corners polygon primitive as box body*
4,1,4,$2,$3,$4,$5,$6,$7,$8,$9,$2,$3,0*
0 Add four circle primitives for the rounded corners*
1,1,$1+$1,$2,$3*
1,1,$1+$1,$4,$5*
1,1,$1+$1,$6,$7*
1,1,$1+$1,$8,$9*
0 Add four rect primitives between the rounded corners*
20,1,$1+$1,$2,$3,$4,$5,0*
20,1,$1+$1,$4,$5,$6,$7,0*
20,1,$1+$1,$6,$7,$8,$9,0*
20,1,$1+$1,$8,$9,$2,$3,0*%
G04 Aperture macros list end*
%ADD10C,0.200000*%
%TA.AperFunction,NonConductor*%
%ADD11C,0.200000*%
%TD*%
%TA.AperFunction,SMDPad,CuDef*%
%ADD12RoundRect,0.150000X-0.837500X-0.150000X0.837500X-0.150000X0.837500X0.150000X-0.837500X0.150000X0*%
%TD*%
%TA.AperFunction,ComponentPad*%
%ADD13RoundRect,0.250000X-0.950000X-0.550000X0.950000X-0.550000X0.950000X0.550000X-0.950000X0.550000X0*%
%TD*%
%TA.AperFunction,ComponentPad*%
%ADD14O,2.400000X1.600000*%
%TD*%
%TA.AperFunction,Conductor*%
%ADD15C,0.500000*%
%TD*%
%TA.AperFunction,Conductor*%
%ADD16C,0.600000*%
%TD*%
G04 APERTURE END LIST*
D10*
D11*
X105597619Y-60195920D02*
X105776190Y-60255443D01*
X105776190Y-60255443D02*
X106073809Y-60255443D01*
X106073809Y-60255443D02*
X106192857Y-60195920D01*
X106192857Y-60195920D02*
X106252381Y-60136396D01*
X106252381Y-60136396D02*
X106311904Y-60017348D01*
X106311904Y-60017348D02*
X106311904Y-59898300D01*
X106311904Y-59898300D02*
X106252381Y-59779253D01*
X106252381Y-59779253D02*
X106192857Y-59719729D01*
X106192857Y-59719729D02*
X106073809Y-59660205D01*
X106073809Y-59660205D02*
X105835714Y-59600681D01*
X105835714Y-59600681D02*
X105716666Y-59541158D01*
X105716666Y-59541158D02*
X105657143Y-59481634D01*
X105657143Y-59481634D02*
X105597619Y-59362586D01*
X105597619Y-59362586D02*
X105597619Y-59243539D01*
X105597619Y-59243539D02*
X105657143Y-59124491D01*
X105657143Y-59124491D02*
X105716666Y-59064967D01*
X105716666Y-59064967D02*
X105835714Y-59005443D01*
X105835714Y-59005443D02*
X106133333Y-59005443D01*
X106133333Y-59005443D02*
X106311904Y-59064967D01*
X107085714Y-59005443D02*
X107323809Y-59005443D01*
X107323809Y-59005443D02*
X107442857Y-59064967D01*
X107442857Y-59064967D02*
X107561904Y-59184015D01*
X107561904Y-59184015D02*
X107621428Y-59422110D01*
X107621428Y-59422110D02*
X107621428Y-59838777D01*
X107621428Y-59838777D02*
X107561904Y-60076872D01*
X107561904Y-60076872D02*
X107442857Y-60195920D01*
X107442857Y-60195920D02*
X107323809Y-60255443D01*
X107323809Y-60255443D02*
X107085714Y-60255443D01*
X107085714Y-60255443D02*
X106966666Y-60195920D01*
X106966666Y-60195920D02*
X106847619Y-60076872D01*
X106847619Y-60076872D02*
X106788095Y-59838777D01*
X106788095Y-59838777D02*
X106788095Y-59422110D01*
X106788095Y-59422110D02*
X106847619Y-59184015D01*
X106847619Y-59184015D02*
X106966666Y-59064967D01*
X106966666Y-59064967D02*
X107085714Y-59005443D01*
X108097619Y-59124491D02*
X108157143Y-59064967D01*
X108157143Y-59064967D02*
X108276190Y-59005443D01*
X108276190Y-59005443D02*
X108573809Y-59005443D01*
X108573809Y-59005443D02*
X108692857Y-59064967D01*
X108692857Y-59064967D02*
X108752381Y-59124491D01*
X108752381Y-59124491D02*
X108811904Y-59243539D01*
X108811904Y-59243539D02*
X108811904Y-59362586D01*
X108811904Y-59362586D02*
X108752381Y-59541158D01*
X108752381Y-59541158D02*
X108038095Y-60255443D01*
X108038095Y-60255443D02*
X108811904Y-60255443D01*
X109883333Y-59422110D02*
X109883333Y-60255443D01*
X109585714Y-58945920D02*
X109288095Y-59838777D01*
X109288095Y-59838777D02*
X110061904Y-59838777D01*
X105359524Y-62267873D02*
X105359524Y-61017873D01*
X105359524Y-61017873D02*
X105657143Y-61017873D01*
X105657143Y-61017873D02*
X105835714Y-61077397D01*
X105835714Y-61077397D02*
X105954762Y-61196445D01*
X105954762Y-61196445D02*
X106014285Y-61315492D01*
X106014285Y-61315492D02*
X106073809Y-61553588D01*
X106073809Y-61553588D02*
X106073809Y-61732159D01*
X106073809Y-61732159D02*
X106014285Y-61970254D01*
X106014285Y-61970254D02*
X105954762Y-62089302D01*
X105954762Y-62089302D02*
X105835714Y-62208350D01*
X105835714Y-62208350D02*
X105657143Y-62267873D01*
X105657143Y-62267873D02*
X105359524Y-62267873D01*
X106609524Y-62267873D02*
X106609524Y-61017873D01*
X107204762Y-62267873D02*
X107204762Y-61017873D01*
X107204762Y-61017873D02*
X107680952Y-61017873D01*
X107680952Y-61017873D02*
X107800000Y-61077397D01*
X107800000Y-61077397D02*
X107859523Y-61136921D01*
X107859523Y-61136921D02*
X107919047Y-61255969D01*
X107919047Y-61255969D02*
X107919047Y-61434540D01*
X107919047Y-61434540D02*
X107859523Y-61553588D01*
X107859523Y-61553588D02*
X107800000Y-61613111D01*
X107800000Y-61613111D02*
X107680952Y-61672635D01*
X107680952Y-61672635D02*
X107204762Y-61672635D01*
X108395238Y-61136921D02*
X108454762Y-61077397D01*
X108454762Y-61077397D02*
X108573809Y-61017873D01*
X108573809Y-61017873D02*
X108871428Y-61017873D01*
X108871428Y-61017873D02*
X108990476Y-61077397D01*
X108990476Y-61077397D02*
X109050000Y-61136921D01*
X109050000Y-61136921D02*
X109109523Y-61255969D01*
X109109523Y-61255969D02*
X109109523Y-61375016D01*
X109109523Y-61375016D02*
X109050000Y-61553588D01*
X109050000Y-61553588D02*
X108335714Y-62267873D01*
X108335714Y-62267873D02*
X109109523Y-62267873D01*
X110180952Y-61434540D02*
X110180952Y-62267873D01*
X109883333Y-60958350D02*
X109585714Y-61851207D01*
X109585714Y-61851207D02*
X110359523Y-61851207D01*
X105180952Y-63923160D02*
X105776190Y-63923160D01*
X105061904Y-64280303D02*
X105478571Y-63030303D01*
X105478571Y-63030303D02*
X105895237Y-64280303D01*
X106311905Y-64280303D02*
X106311905Y-63030303D01*
X106311905Y-63030303D02*
X106609524Y-63030303D01*
X106609524Y-63030303D02*
X106788095Y-63089827D01*
X106788095Y-63089827D02*
X106907143Y-63208875D01*
X106907143Y-63208875D02*
X106966666Y-63327922D01*
X106966666Y-63327922D02*
X107026190Y-63566018D01*
X107026190Y-63566018D02*
X107026190Y-63744589D01*
X107026190Y-63744589D02*
X106966666Y-63982684D01*
X106966666Y-63982684D02*
X106907143Y-64101732D01*
X106907143Y-64101732D02*
X106788095Y-64220780D01*
X106788095Y-64220780D02*
X106609524Y-64280303D01*
X106609524Y-64280303D02*
X106311905Y-64280303D01*
X107561905Y-64280303D02*
X107561905Y-63030303D01*
X107561905Y-63030303D02*
X108038095Y-63030303D01*
X108038095Y-63030303D02*
X108157143Y-63089827D01*
X108157143Y-63089827D02*
X108216666Y-63149351D01*
X108216666Y-63149351D02*
X108276190Y-63268399D01*
X108276190Y-63268399D02*
X108276190Y-63446970D01*
X108276190Y-63446970D02*
X108216666Y-63566018D01*
X108216666Y-63566018D02*
X108157143Y-63625541D01*
X108157143Y-63625541D02*
X108038095Y-63685065D01*
X108038095Y-63685065D02*
X107561905Y-63685065D01*
X108692857Y-63446970D02*
X108990476Y-64280303D01*
X108990476Y-64280303D02*
X109288095Y-63446970D01*
X110419047Y-64280303D02*
X109704762Y-64280303D01*
X110061905Y-64280303D02*
X110061905Y-63030303D01*
X110061905Y-63030303D02*
X109942857Y-63208875D01*
X109942857Y-63208875D02*
X109823809Y-63327922D01*
X109823809Y-63327922D02*
X109704762Y-63387446D01*
D10*
D11*
X104296428Y-88448826D02*
X104236904Y-88508350D01*
X104236904Y-88508350D02*
X104058333Y-88567873D01*
X104058333Y-88567873D02*
X103939285Y-88567873D01*
X103939285Y-88567873D02*
X103760714Y-88508350D01*
X103760714Y-88508350D02*
X103641666Y-88389302D01*
X103641666Y-88389302D02*
X103582143Y-88270254D01*
X103582143Y-88270254D02*
X103522619Y-88032159D01*
X103522619Y-88032159D02*
X103522619Y-87853588D01*
X103522619Y-87853588D02*
X103582143Y-87615492D01*
X103582143Y-87615492D02*
X103641666Y-87496445D01*
X103641666Y-87496445D02*
X103760714Y-87377397D01*
X103760714Y-87377397D02*
X103939285Y-87317873D01*
X103939285Y-87317873D02*
X104058333Y-87317873D01*
X104058333Y-87317873D02*
X104236904Y-87377397D01*
X104236904Y-87377397D02*
X104296428Y-87436921D01*
X105308333Y-88508350D02*
X105189285Y-88567873D01*
X105189285Y-88567873D02*
X104951190Y-88567873D01*
X104951190Y-88567873D02*
X104832143Y-88508350D01*
X104832143Y-88508350D02*
X104772619Y-88389302D01*
X104772619Y-88389302D02*
X104772619Y-87913111D01*
X104772619Y-87913111D02*
X104832143Y-87794064D01*
X104832143Y-87794064D02*
X104951190Y-87734540D01*
X104951190Y-87734540D02*
X105189285Y-87734540D01*
X105189285Y-87734540D02*
X105308333Y-87794064D01*
X105308333Y-87794064D02*
X105367857Y-87913111D01*
X105367857Y-87913111D02*
X105367857Y-88032159D01*
X105367857Y-88032159D02*
X104772619Y-88151207D01*
X105903572Y-88567873D02*
X105903572Y-87317873D01*
X105903572Y-87317873D02*
X106201191Y-87317873D01*
X106201191Y-87317873D02*
X106379762Y-87377397D01*
X106379762Y-87377397D02*
X106498810Y-87496445D01*
X106498810Y-87496445D02*
X106558333Y-87615492D01*
X106558333Y-87615492D02*
X106617857Y-87853588D01*
X106617857Y-87853588D02*
X106617857Y-88032159D01*
X106617857Y-88032159D02*
X106558333Y-88270254D01*
X106558333Y-88270254D02*
X106498810Y-88389302D01*
X106498810Y-88389302D02*
X106379762Y-88508350D01*
X106379762Y-88508350D02*
X106201191Y-88567873D01*
X106201191Y-88567873D02*
X105903572Y-88567873D01*
X107629762Y-88508350D02*
X107510714Y-88567873D01*
X107510714Y-88567873D02*
X107272619Y-88567873D01*
X107272619Y-88567873D02*
X107153572Y-88508350D01*
X107153572Y-88508350D02*
X107094048Y-88389302D01*
X107094048Y-88389302D02*
X107094048Y-87913111D01*
X107094048Y-87913111D02*
X107153572Y-87794064D01*
X107153572Y-87794064D02*
X107272619Y-87734540D01*
X107272619Y-87734540D02*
X107510714Y-87734540D01*
X107510714Y-87734540D02*
X107629762Y-87794064D01*
X107629762Y-87794064D02*
X107689286Y-87913111D01*
X107689286Y-87913111D02*
X107689286Y-88032159D01*
X107689286Y-88032159D02*
X107094048Y-88151207D01*
X108939286Y-88567873D02*
X108522620Y-87972635D01*
X108225001Y-88567873D02*
X108225001Y-87317873D01*
X108225001Y-87317873D02*
X108701191Y-87317873D01*
X108701191Y-87317873D02*
X108820239Y-87377397D01*
X108820239Y-87377397D02*
X108879762Y-87436921D01*
X108879762Y-87436921D02*
X108939286Y-87555969D01*
X108939286Y-87555969D02*
X108939286Y-87734540D01*
X108939286Y-87734540D02*
X108879762Y-87853588D01*
X108879762Y-87853588D02*
X108820239Y-87913111D01*
X108820239Y-87913111D02*
X108701191Y-87972635D01*
X108701191Y-87972635D02*
X108225001Y-87972635D01*
X109713096Y-87317873D02*
X109951191Y-87317873D01*
X109951191Y-87317873D02*
X110070239Y-87377397D01*
X110070239Y-87377397D02*
X110189286Y-87496445D01*
X110189286Y-87496445D02*
X110248810Y-87734540D01*
X110248810Y-87734540D02*
X110248810Y-88151207D01*
X110248810Y-88151207D02*
X110189286Y-88389302D01*
X110189286Y-88389302D02*
X110070239Y-88508350D01*
X110070239Y-88508350D02*
X109951191Y-88567873D01*
X109951191Y-88567873D02*
X109713096Y-88567873D01*
X109713096Y-88567873D02*
X109594048Y-88508350D01*
X109594048Y-88508350D02*
X109475001Y-88389302D01*
X109475001Y-88389302D02*
X109415477Y-88151207D01*
X109415477Y-88151207D02*
X109415477Y-87734540D01*
X109415477Y-87734540D02*
X109475001Y-87496445D01*
X109475001Y-87496445D02*
X109594048Y-87377397D01*
X109594048Y-87377397D02*
X109713096Y-87317873D01*
X110784525Y-88567873D02*
X110784525Y-87317873D01*
X110784525Y-87317873D02*
X111201191Y-88210730D01*
X111201191Y-88210730D02*
X111617858Y-87317873D01*
X111617858Y-87317873D02*
X111617858Y-88567873D01*
D12*
%TO.P,REF\u002A\u002A,1*%
%TO.N,N/C*%
X104200000Y-66945000D03*
%TO.P,REF\u002A\u002A,2*%
X104200000Y-68215000D03*
%TO.P,REF\u002A\u002A,3*%
X104200000Y-69485000D03*
%TO.P,REF\u002A\u002A,4*%
X104200000Y-70755000D03*
%TO.P,REF\u002A\u002A,5*%
X104200000Y-72025000D03*
%TO.P,REF\u002A\u002A,6*%
X104200000Y-73295000D03*
%TO.P,REF\u002A\u002A,7*%
X104200000Y-74565000D03*
%TO.P,REF\u002A\u002A,8*%
X104200000Y-75835000D03*
%TO.P,REF\u002A\u002A,9*%
X104200000Y-77105000D03*
%TO.P,REF\u002A\u002A,10*%
X104200000Y-78375000D03*
%TO.P,REF\u002A\u002A,11*%
X104200000Y-79645000D03*
%TO.P,REF\u002A\u002A,12*%
X104200000Y-80915000D03*
%TO.P,REF\u002A\u002A,13*%
X111125000Y-80915000D03*
%TO.P,REF\u002A\u002A,14*%
X111125000Y-79645000D03*
%TO.P,REF\u002A\u002A,15*%
X111125000Y-78375000D03*
%TO.P,REF\u002A\u002A,16*%
X111125000Y-77105000D03*
%TO.P,REF\u002A\u002A,17*%
X111125000Y-75835000D03*
%TO.P,REF\u002A\u002A,18*%
X111125000Y-74565000D03*
%TO.P,REF\u002A\u002A,19*%
X111125000Y-73295000D03*
%TO.P,REF\u002A\u002A,20*%
X111125000Y-72025000D03*
%TO.P,REF\u002A\u002A,21*%
X111125000Y-70755000D03*
%TO.P,REF\u002A\u002A,22*%
X111125000Y-69485000D03*
%TO.P,REF\u002A\u002A,23*%
X111125000Y-68215000D03*
%TO.P,REF\u002A\u002A,24*%
X111125000Y-66945000D03*
%TD*%
D13*
%TO.P,REF\u002A\u002A,1*%
%TO.N,N/C*%
X100000000Y-60000000D03*
D14*
%TO.P,REF\u002A\u002A,2*%
X100000000Y-62540000D03*
%TO.P,REF\u002A\u002A,3*%
X100000000Y-65080000D03*
%TO.P,REF\u002A\u002A,4*%
X100000000Y-67620000D03*
%TO.P,REF\u002A\u002A,5*%
X100000000Y-70160000D03*
%TO.P,REF\u002A\u002A,6*%
X100000000Y-72700000D03*
%TO.P,REF\u002A\u002A,7*%
X100000000Y-75240000D03*
%TO.P,REF\u002A\u002A,8*%
X100000000Y-77780000D03*
%TO.P,REF\u002A\u002A,9*%
X100000000Y-80320000D03*
%TO.P,REF\u002A\u002A,10*%
X100000000Y-82860000D03*
%TO.P,REF\u002A\u002A,11*%
X100000000Y-85400000D03*
%TO.P,REF\u002A\u002A,12*%
X100000000Y-87940000D03*
%TO.P,REF\u002A\u002A,13*%
X115240000Y-87940000D03*
%TO.P,REF\u002A\u002A,14*%
X115240000Y-85400000D03*
%TO.P,REF\u002A\u002A,15*%
X115240000Y-82860000D03*
%TO.P,REF\u002A\u002A,16*%
X115240000Y-80320000D03*
%TO.P,REF\u002A\u002A,17*%
X115240000Y-77780000D03*
%TO.P,REF\u002A\u002A,18*%
X115240000Y-75240000D03*
%TO.P,REF\u002A\u002A,19*%
X115240000Y-72700000D03*
%TO.P,REF\u002A\u002A,20*%
X115240000Y-70160000D03*
%TO.P,REF\u002A\u002A,21*%
X115240000Y-67620000D03*
%TO.P,REF\u002A\u002A,22*%
X115240000Y-65080000D03*
%TO.P,REF\u002A\u002A,23*%
X115240000Y-62540000D03*
%TO.P,REF\u002A\u002A,24*%
X115240000Y-60000000D03*
%TD*%
D15*
%TO.N,*%
X111125000Y-68215000D02*
X112385000Y-68215000D01*
X112385000Y-68215000D02*
X112600000Y-68000000D01*
X112600000Y-68000000D02*
X112600000Y-63600000D01*
X112600000Y-63600000D02*
X113660000Y-62540000D01*
X113660000Y-62540000D02*
X115240000Y-62540000D01*
X115240000Y-67620000D02*
X115240000Y-67760000D01*
X115240000Y-67760000D02*
X112245000Y-70755000D01*
X112245000Y-70755000D02*
X111125000Y-70755000D01*
X100000000Y-67620000D02*
X100000000Y-67800000D01*
X100000000Y-67800000D02*
X102955000Y-70755000D01*
X102955000Y-70755000D02*
X104200000Y-70755000D01*
X100000000Y-72700000D02*
X101900000Y-72700000D01*
X101900000Y-72700000D02*
X102495000Y-73295000D01*
X102495000Y-73295000D02*
X104200000Y-73295000D01*
X114345000Y-77780000D02*
X112400000Y-75835000D01*
X115240000Y-77780000D02*
X114345000Y-77780000D01*
X100000000Y-77780000D02*
X100970000Y-77780000D01*
X100970000Y-77780000D02*
X102915000Y-75835000D01*
X102915000Y-75835000D02*
X104200000Y-75835000D01*
X112600000Y-80000000D02*
X112245000Y-79645000D01*
X112245000Y-79645000D02*
X111125000Y-79645000D01*
X115240000Y-85400000D02*
X113400000Y-85400000D01*
X113400000Y-85400000D02*
X112600000Y-84600000D01*
X112600000Y-84600000D02*
X112600000Y-80000000D01*
X115240000Y-87940000D02*
X113465000Y-87940000D01*
X113465000Y-87940000D02*
X111125000Y-85600000D01*
X111125000Y-85600000D02*
X111125000Y-80915000D01*
X113660000Y-82860000D02*
X113400000Y-82600000D01*
X115240000Y-82860000D02*
X113660000Y-82860000D01*
X113400000Y-82600000D02*
X113400000Y-79400000D01*
X113400000Y-79400000D02*
X112375000Y-78375000D01*
X115240000Y-80145000D02*
X112200000Y-77105000D01*
X115240000Y-80320000D02*
X115240000Y-80145000D01*
X111125000Y-78375000D02*
X112375000Y-78375000D01*
X112600000Y-78600000D02*
X113200000Y-79200000D01*
X112375000Y-78375000D02*
X112600000Y-78600000D01*
X111125000Y-77105000D02*
X112200000Y-77105000D01*
X112400000Y-75835000D02*
X111125000Y-75835000D01*
X111125000Y-73295000D02*
X112805000Y-73295000D01*
X112805000Y-73295000D02*
X113400000Y-72700000D01*
X111125000Y-74565000D02*
X112825000Y-74565000D01*
X112825000Y-74565000D02*
X113500000Y-75240000D01*
X115240000Y-75240000D02*
X113500000Y-75240000D01*
X115240000Y-72700000D02*
X113400000Y-72700000D01*
X115240000Y-70160000D02*
X114340000Y-70160000D01*
X114340000Y-70160000D02*
X112475000Y-72025000D01*
X112475000Y-72025000D02*
X111125000Y-72025000D01*
X115240000Y-65080000D02*
X113920000Y-65080000D01*
X113920000Y-65080000D02*
X113500000Y-65500000D01*
X113500000Y-65500000D02*
X113500000Y-68250000D01*
X113500000Y-68250000D02*
X112265000Y-69485000D01*
X112265000Y-69485000D02*
X111125000Y-69485000D01*
X115240000Y-60000000D02*
X113500000Y-60000000D01*
X111125000Y-62375000D02*
X111125000Y-66945000D01*
X113500000Y-60000000D02*
X111125000Y-62375000D01*
X102915000Y-75835000D02*
X104337500Y-75835000D01*
X100000000Y-82860000D02*
X101640000Y-82860000D01*
X102000000Y-79500000D02*
X103125000Y-78375000D01*
X101640000Y-82860000D02*
X102000000Y-82500000D01*
X103125000Y-78375000D02*
X104337500Y-78375000D01*
X102000000Y-82500000D02*
X102000000Y-79500000D01*
X100000000Y-80320000D02*
X100000000Y-80250000D01*
X100000000Y-80250000D02*
X103145000Y-77105000D01*
X103145000Y-77105000D02*
X104337500Y-77105000D01*
X100000000Y-85400000D02*
X101850000Y-85400000D01*
X101850000Y-85400000D02*
X102750000Y-84500000D01*
X103250000Y-79645000D02*
X104337500Y-79645000D01*
X102750000Y-84500000D02*
X102750000Y-80145000D01*
X102750000Y-80145000D02*
X103250000Y-79645000D01*
X100000000Y-87940000D02*
X101810000Y-87940000D01*
X101810000Y-87940000D02*
X104337500Y-85412500D01*
X104337500Y-85412500D02*
X104337500Y-80915000D01*
X100000000Y-75240000D02*
X101760000Y-75240000D01*
X101760000Y-75240000D02*
X102435000Y-74565000D01*
X102435000Y-74565000D02*
X104337500Y-74565000D01*
X100000000Y-60000000D02*
X101837500Y-60000000D01*
X101837500Y-60000000D02*
X104337500Y-62500000D01*
X100000000Y-62540000D02*
X101790000Y-62540000D01*
X101790000Y-62540000D02*
X102750000Y-63500000D01*
X101580000Y-65080000D02*
X102000000Y-65500000D01*
X100000000Y-65080000D02*
X101580000Y-65080000D01*
X102750000Y-67750000D02*
X103215000Y-68215000D01*
X102750000Y-63500000D02*
X102750000Y-67750000D01*
X103215000Y-68215000D02*
X104337500Y-68215000D01*
X104337500Y-62500000D02*
X104337500Y-66945000D01*
X100000000Y-70160000D02*
X100910000Y-70160000D01*
X100910000Y-70160000D02*
X102775000Y-72025000D01*
X102775000Y-72025000D02*
X104337500Y-72025000D01*
X102000000Y-65500000D02*
X102000000Y-68500000D01*
X102000000Y-68500000D02*
X102985000Y-69485000D01*
X102985000Y-69485000D02*
X104337500Y-69485000D01*
D16*
X111262500Y-80915000D02*
X108436000Y-80915000D01*
X104337500Y-80915000D02*
X106824000Y-80915000D01*
X111262500Y-79645000D02*
X108436000Y-79645000D01*
X104337500Y-79645000D02*
X106824000Y-79645000D01*
X111262500Y-78375000D02*
X108436000Y-78375000D01*
X104337500Y-78375000D02*
X106824000Y-78375000D01*
X111262500Y-77105000D02*
X108436000Y-77105000D01*
X104337500Y-77105000D02*
X106824000Y-77105000D01*
X111262500Y-75835000D02*
X108436000Y-75835000D01*
X104337500Y-75835000D02*
X106824000Y-75835000D01*
X111262500Y-74565000D02*
X108436000Y-74565000D01*
X104337500Y-74565000D02*
X106824000Y-74565000D01*
X111262500Y-73295000D02*
X108436000Y-73295000D01*
X104337500Y-73295000D02*
X106824000Y-73295000D01*
X111262500Y-72025000D02*
X108436000Y-72025000D01*
X104337500Y-72025000D02*
X106824000Y-72025000D01*
X111262500Y-70755000D02*
X108436000Y-70755000D01*
X104337500Y-70755000D02*
X106824000Y-70755000D01*
X111262500Y-69485000D02*
X108436000Y-69485000D01*
X104337500Y-69485000D02*
X106824000Y-69485000D01*
X111262500Y-68215000D02*
X108436000Y-68215000D01*
X104337500Y-68215000D02*
X106824000Y-68215000D01*
X111262500Y-66945000D02*
X108456000Y-66945000D01*
X104337500Y-66945000D02*
X106824000Y-66945000D01*
%TD*%
M02*
