%FSLAX45Y45*%
G04 Gerber Fmt 4.5, Leading zero omitted, Abs format (unit mm)*
G04 Created by KiCad (PCBNEW 6.0.4) date 2022-04-03 03:05:16*
%MOMM*%
%LPD*%
G01*
G04 APERTURE LIST*
%TA.AperFunction,Profile*%
%ADD10C,0.100000*%
%TD*%
%ADD11C,0.200000*%
%ADD12C,0.070000*%
%ADD13C,0.100000*%
G04 APERTURE END LIST*
D10*
X9144000Y-6604000D02*
X6096000Y-6604000D01*
X9144000Y-4826000D02*
X9144000Y-6604000D01*
X6096000Y-4826000D02*
X9144000Y-4826000D01*
X6096000Y-6604000D02*
X6096000Y-4826000D01*
D11*
D12*
X7077000Y-5045000D02*
X7147000Y-5115000D01*
X7147000Y-5045000D02*
X7077000Y-5115000D01*
D13*
X6400000Y-5080000D02*
G75*
G03*
X6400000Y-5080000I-50000J0D01*
G01*
X6400000Y-6350000D02*
G75*
G03*
X6400000Y-6350000I-50000J0D01*
G01*
X6908000Y-5080000D02*
G75*
G03*
X6908000Y-5080000I-50000J0D01*
G01*
X6908000Y-5334000D02*
G75*
G03*
X6908000Y-5334000I-50000J0D01*
G01*
X6908000Y-5588000D02*
G75*
G03*
X6908000Y-5588000I-50000J0D01*
G01*
X6908000Y-6350000D02*
G75*
G03*
X6908000Y-6350000I-50000J0D01*
G01*
X7162000Y-6350000D02*
G75*
G03*
X7162000Y-6350000I-50000J0D01*
G01*
X7924000Y-5969000D02*
G75*
G03*
X7924000Y-5969000I-50000J0D01*
G01*
X7925500Y-5588000D02*
G75*
G03*
X7925500Y-5588000I-50000J0D01*
G01*
X7925500Y-6350000D02*
G75*
G03*
X7925500Y-6350000I-50000J0D01*
G01*
X8178000Y-5969000D02*
G75*
G03*
X8178000Y-5969000I-50000J0D01*
G01*
X8179500Y-5588000D02*
G75*
G03*
X8179500Y-5588000I-50000J0D01*
G01*
X8179500Y-6350000D02*
G75*
G03*
X8179500Y-6350000I-50000J0D01*
G01*
X8432000Y-5969000D02*
G75*
G03*
X8432000Y-5969000I-50000J0D01*
G01*
X8433500Y-5588000D02*
G75*
G03*
X8433500Y-5588000I-50000J0D01*
G01*
X8433500Y-6350000D02*
G75*
G03*
X8433500Y-6350000I-50000J0D01*
G01*
X8940000Y-5080000D02*
G75*
G03*
X8940000Y-5080000I-50000J0D01*
G01*
X8940000Y-6350000D02*
G75*
G03*
X8940000Y-6350000I-50000J0D01*
G01*
D11*
X6348619Y-6919476D02*
X6348619Y-6719476D01*
X6396238Y-6719476D01*
X6424809Y-6729000D01*
X6443857Y-6748048D01*
X6453381Y-6767095D01*
X6462905Y-6805190D01*
X6462905Y-6833762D01*
X6453381Y-6871857D01*
X6443857Y-6890905D01*
X6424809Y-6909952D01*
X6396238Y-6919476D01*
X6348619Y-6919476D01*
X6548619Y-6919476D02*
X6548619Y-6786143D01*
X6548619Y-6824238D02*
X6558143Y-6805190D01*
X6567667Y-6795667D01*
X6586714Y-6786143D01*
X6605762Y-6786143D01*
X6672428Y-6919476D02*
X6672428Y-6786143D01*
X6672428Y-6719476D02*
X6662905Y-6729000D01*
X6672428Y-6738524D01*
X6681952Y-6729000D01*
X6672428Y-6719476D01*
X6672428Y-6738524D01*
X6796238Y-6919476D02*
X6777190Y-6909952D01*
X6767667Y-6890905D01*
X6767667Y-6719476D01*
X6901000Y-6919476D02*
X6881952Y-6909952D01*
X6872428Y-6890905D01*
X6872428Y-6719476D01*
X7129571Y-6919476D02*
X7129571Y-6719476D01*
X7196238Y-6862333D01*
X7262905Y-6719476D01*
X7262905Y-6919476D01*
X7443857Y-6919476D02*
X7443857Y-6814714D01*
X7434333Y-6795667D01*
X7415286Y-6786143D01*
X7377190Y-6786143D01*
X7358143Y-6795667D01*
X7443857Y-6909952D02*
X7424809Y-6919476D01*
X7377190Y-6919476D01*
X7358143Y-6909952D01*
X7348619Y-6890905D01*
X7348619Y-6871857D01*
X7358143Y-6852809D01*
X7377190Y-6843286D01*
X7424809Y-6843286D01*
X7443857Y-6833762D01*
X7539095Y-6786143D02*
X7539095Y-6986143D01*
X7539095Y-6795667D02*
X7558143Y-6786143D01*
X7596238Y-6786143D01*
X7615286Y-6795667D01*
X7624809Y-6805190D01*
X7634333Y-6824238D01*
X7634333Y-6881381D01*
X7624809Y-6900428D01*
X7615286Y-6909952D01*
X7596238Y-6919476D01*
X7558143Y-6919476D01*
X7539095Y-6909952D01*
X7720048Y-6900428D02*
X7729571Y-6909952D01*
X7720048Y-6919476D01*
X7710524Y-6909952D01*
X7720048Y-6900428D01*
X7720048Y-6919476D01*
X7720048Y-6795667D02*
X7729571Y-6805190D01*
X7720048Y-6814714D01*
X7710524Y-6805190D01*
X7720048Y-6795667D01*
X7720048Y-6814714D01*
D12*
X6021000Y-7214000D02*
X6091000Y-7284000D01*
X6091000Y-7214000D02*
X6021000Y-7284000D01*
D11*
X6386714Y-7139476D02*
X6405762Y-7139476D01*
X6424809Y-7149000D01*
X6434333Y-7158524D01*
X6443857Y-7177571D01*
X6453381Y-7215667D01*
X6453381Y-7263286D01*
X6443857Y-7301381D01*
X6434333Y-7320428D01*
X6424809Y-7329952D01*
X6405762Y-7339476D01*
X6386714Y-7339476D01*
X6367667Y-7329952D01*
X6358143Y-7320428D01*
X6348619Y-7301381D01*
X6339095Y-7263286D01*
X6339095Y-7215667D01*
X6348619Y-7177571D01*
X6358143Y-7158524D01*
X6367667Y-7149000D01*
X6386714Y-7139476D01*
X6539095Y-7320428D02*
X6548619Y-7329952D01*
X6539095Y-7339476D01*
X6529571Y-7329952D01*
X6539095Y-7320428D01*
X6539095Y-7339476D01*
X6615286Y-7139476D02*
X6748619Y-7139476D01*
X6662905Y-7339476D01*
X6862905Y-7139476D02*
X6881952Y-7139476D01*
X6901000Y-7149000D01*
X6910524Y-7158524D01*
X6920048Y-7177571D01*
X6929571Y-7215667D01*
X6929571Y-7263286D01*
X6920048Y-7301381D01*
X6910524Y-7320428D01*
X6901000Y-7329952D01*
X6881952Y-7339476D01*
X6862905Y-7339476D01*
X6843857Y-7329952D01*
X6834333Y-7320428D01*
X6824809Y-7301381D01*
X6815286Y-7263286D01*
X6815286Y-7215667D01*
X6824809Y-7177571D01*
X6834333Y-7158524D01*
X6843857Y-7149000D01*
X6862905Y-7139476D01*
X7053381Y-7139476D02*
X7072428Y-7139476D01*
X7091476Y-7149000D01*
X7101000Y-7158524D01*
X7110524Y-7177571D01*
X7120048Y-7215667D01*
X7120048Y-7263286D01*
X7110524Y-7301381D01*
X7101000Y-7320428D01*
X7091476Y-7329952D01*
X7072428Y-7339476D01*
X7053381Y-7339476D01*
X7034333Y-7329952D01*
X7024809Y-7320428D01*
X7015286Y-7301381D01*
X7005762Y-7263286D01*
X7005762Y-7215667D01*
X7015286Y-7177571D01*
X7024809Y-7158524D01*
X7034333Y-7149000D01*
X7053381Y-7139476D01*
X7205762Y-7339476D02*
X7205762Y-7206143D01*
X7205762Y-7225190D02*
X7215286Y-7215667D01*
X7234333Y-7206143D01*
X7262905Y-7206143D01*
X7281952Y-7215667D01*
X7291476Y-7234714D01*
X7291476Y-7339476D01*
X7291476Y-7234714D02*
X7301000Y-7215667D01*
X7320048Y-7206143D01*
X7348619Y-7206143D01*
X7367667Y-7215667D01*
X7377190Y-7234714D01*
X7377190Y-7339476D01*
X7472428Y-7339476D02*
X7472428Y-7206143D01*
X7472428Y-7225190D02*
X7481952Y-7215667D01*
X7501000Y-7206143D01*
X7529571Y-7206143D01*
X7548619Y-7215667D01*
X7558143Y-7234714D01*
X7558143Y-7339476D01*
X7558143Y-7234714D02*
X7567667Y-7215667D01*
X7586714Y-7206143D01*
X7615286Y-7206143D01*
X7634333Y-7215667D01*
X7643857Y-7234714D01*
X7643857Y-7339476D01*
X8034333Y-7129952D02*
X7862905Y-7387095D01*
X8291476Y-7139476D02*
X8310524Y-7139476D01*
X8329571Y-7149000D01*
X8339095Y-7158524D01*
X8348619Y-7177571D01*
X8358143Y-7215667D01*
X8358143Y-7263286D01*
X8348619Y-7301381D01*
X8339095Y-7320428D01*
X8329571Y-7329952D01*
X8310524Y-7339476D01*
X8291476Y-7339476D01*
X8272428Y-7329952D01*
X8262905Y-7320428D01*
X8253381Y-7301381D01*
X8243857Y-7263286D01*
X8243857Y-7215667D01*
X8253381Y-7177571D01*
X8262905Y-7158524D01*
X8272428Y-7149000D01*
X8291476Y-7139476D01*
X8443857Y-7320428D02*
X8453381Y-7329952D01*
X8443857Y-7339476D01*
X8434333Y-7329952D01*
X8443857Y-7320428D01*
X8443857Y-7339476D01*
X8577190Y-7139476D02*
X8596238Y-7139476D01*
X8615286Y-7149000D01*
X8624810Y-7158524D01*
X8634333Y-7177571D01*
X8643857Y-7215667D01*
X8643857Y-7263286D01*
X8634333Y-7301381D01*
X8624810Y-7320428D01*
X8615286Y-7329952D01*
X8596238Y-7339476D01*
X8577190Y-7339476D01*
X8558143Y-7329952D01*
X8548619Y-7320428D01*
X8539095Y-7301381D01*
X8529571Y-7263286D01*
X8529571Y-7215667D01*
X8539095Y-7177571D01*
X8548619Y-7158524D01*
X8558143Y-7149000D01*
X8577190Y-7139476D01*
X8720048Y-7158524D02*
X8729571Y-7149000D01*
X8748619Y-7139476D01*
X8796238Y-7139476D01*
X8815286Y-7149000D01*
X8824810Y-7158524D01*
X8834333Y-7177571D01*
X8834333Y-7196619D01*
X8824810Y-7225190D01*
X8710524Y-7339476D01*
X8834333Y-7339476D01*
X8901000Y-7139476D02*
X9034333Y-7139476D01*
X8948619Y-7339476D01*
X9196238Y-7139476D02*
X9158143Y-7139476D01*
X9139095Y-7149000D01*
X9129571Y-7158524D01*
X9110524Y-7187095D01*
X9101000Y-7225190D01*
X9101000Y-7301381D01*
X9110524Y-7320428D01*
X9120048Y-7329952D01*
X9139095Y-7339476D01*
X9177190Y-7339476D01*
X9196238Y-7329952D01*
X9205762Y-7320428D01*
X9215286Y-7301381D01*
X9215286Y-7253762D01*
X9205762Y-7234714D01*
X9196238Y-7225190D01*
X9177190Y-7215667D01*
X9139095Y-7215667D01*
X9120048Y-7225190D01*
X9110524Y-7234714D01*
X9101000Y-7253762D01*
X9291476Y-7139476D02*
X9291476Y-7177571D01*
X9367667Y-7139476D02*
X9367667Y-7177571D01*
X9662905Y-7415667D02*
X9653381Y-7406143D01*
X9634333Y-7377571D01*
X9624810Y-7358524D01*
X9615286Y-7329952D01*
X9605762Y-7282333D01*
X9605762Y-7244238D01*
X9615286Y-7196619D01*
X9624810Y-7168048D01*
X9634333Y-7149000D01*
X9653381Y-7120428D01*
X9662905Y-7110905D01*
X9843857Y-7339476D02*
X9729571Y-7339476D01*
X9786714Y-7339476D02*
X9786714Y-7139476D01*
X9767667Y-7168048D01*
X9748619Y-7187095D01*
X9729571Y-7196619D01*
X10081952Y-7339476D02*
X10081952Y-7139476D01*
X10167667Y-7339476D02*
X10167667Y-7234714D01*
X10158143Y-7215667D01*
X10139095Y-7206143D01*
X10110524Y-7206143D01*
X10091476Y-7215667D01*
X10081952Y-7225190D01*
X10291476Y-7339476D02*
X10272429Y-7329952D01*
X10262905Y-7320428D01*
X10253381Y-7301381D01*
X10253381Y-7244238D01*
X10262905Y-7225190D01*
X10272429Y-7215667D01*
X10291476Y-7206143D01*
X10320048Y-7206143D01*
X10339095Y-7215667D01*
X10348619Y-7225190D01*
X10358143Y-7244238D01*
X10358143Y-7301381D01*
X10348619Y-7320428D01*
X10339095Y-7329952D01*
X10320048Y-7339476D01*
X10291476Y-7339476D01*
X10472429Y-7339476D02*
X10453381Y-7329952D01*
X10443857Y-7310905D01*
X10443857Y-7139476D01*
X10624810Y-7329952D02*
X10605762Y-7339476D01*
X10567667Y-7339476D01*
X10548619Y-7329952D01*
X10539095Y-7310905D01*
X10539095Y-7234714D01*
X10548619Y-7215667D01*
X10567667Y-7206143D01*
X10605762Y-7206143D01*
X10624810Y-7215667D01*
X10634333Y-7234714D01*
X10634333Y-7253762D01*
X10539095Y-7272809D01*
X10701000Y-7415667D02*
X10710524Y-7406143D01*
X10729571Y-7377571D01*
X10739095Y-7358524D01*
X10748619Y-7329952D01*
X10758143Y-7282333D01*
X10758143Y-7244238D01*
X10748619Y-7196619D01*
X10739095Y-7168048D01*
X10729571Y-7149000D01*
X10710524Y-7120428D01*
X10701000Y-7110905D01*
D13*
X6091000Y-7513000D02*
G75*
G03*
X6091000Y-7513000I-50000J0D01*
G01*
D11*
X6453381Y-7603476D02*
X6339095Y-7603476D01*
X6396238Y-7603476D02*
X6396238Y-7403476D01*
X6377190Y-7432048D01*
X6358143Y-7451095D01*
X6339095Y-7460619D01*
X6539095Y-7584428D02*
X6548619Y-7593952D01*
X6539095Y-7603476D01*
X6529571Y-7593952D01*
X6539095Y-7584428D01*
X6539095Y-7603476D01*
X6672428Y-7403476D02*
X6691476Y-7403476D01*
X6710524Y-7413000D01*
X6720048Y-7422524D01*
X6729571Y-7441571D01*
X6739095Y-7479667D01*
X6739095Y-7527286D01*
X6729571Y-7565381D01*
X6720048Y-7584428D01*
X6710524Y-7593952D01*
X6691476Y-7603476D01*
X6672428Y-7603476D01*
X6653381Y-7593952D01*
X6643857Y-7584428D01*
X6634333Y-7565381D01*
X6624809Y-7527286D01*
X6624809Y-7479667D01*
X6634333Y-7441571D01*
X6643857Y-7422524D01*
X6653381Y-7413000D01*
X6672428Y-7403476D01*
X6862905Y-7403476D02*
X6881952Y-7403476D01*
X6901000Y-7413000D01*
X6910524Y-7422524D01*
X6920048Y-7441571D01*
X6929571Y-7479667D01*
X6929571Y-7527286D01*
X6920048Y-7565381D01*
X6910524Y-7584428D01*
X6901000Y-7593952D01*
X6881952Y-7603476D01*
X6862905Y-7603476D01*
X6843857Y-7593952D01*
X6834333Y-7584428D01*
X6824809Y-7565381D01*
X6815286Y-7527286D01*
X6815286Y-7479667D01*
X6824809Y-7441571D01*
X6834333Y-7422524D01*
X6843857Y-7413000D01*
X6862905Y-7403476D01*
X7053381Y-7403476D02*
X7072428Y-7403476D01*
X7091476Y-7413000D01*
X7101000Y-7422524D01*
X7110524Y-7441571D01*
X7120048Y-7479667D01*
X7120048Y-7527286D01*
X7110524Y-7565381D01*
X7101000Y-7584428D01*
X7091476Y-7593952D01*
X7072428Y-7603476D01*
X7053381Y-7603476D01*
X7034333Y-7593952D01*
X7024809Y-7584428D01*
X7015286Y-7565381D01*
X7005762Y-7527286D01*
X7005762Y-7479667D01*
X7015286Y-7441571D01*
X7024809Y-7422524D01*
X7034333Y-7413000D01*
X7053381Y-7403476D01*
X7205762Y-7603476D02*
X7205762Y-7470143D01*
X7205762Y-7489190D02*
X7215286Y-7479667D01*
X7234333Y-7470143D01*
X7262905Y-7470143D01*
X7281952Y-7479667D01*
X7291476Y-7498714D01*
X7291476Y-7603476D01*
X7291476Y-7498714D02*
X7301000Y-7479667D01*
X7320048Y-7470143D01*
X7348619Y-7470143D01*
X7367667Y-7479667D01*
X7377190Y-7498714D01*
X7377190Y-7603476D01*
X7472428Y-7603476D02*
X7472428Y-7470143D01*
X7472428Y-7489190D02*
X7481952Y-7479667D01*
X7501000Y-7470143D01*
X7529571Y-7470143D01*
X7548619Y-7479667D01*
X7558143Y-7498714D01*
X7558143Y-7603476D01*
X7558143Y-7498714D02*
X7567667Y-7479667D01*
X7586714Y-7470143D01*
X7615286Y-7470143D01*
X7634333Y-7479667D01*
X7643857Y-7498714D01*
X7643857Y-7603476D01*
X8034333Y-7393952D02*
X7862905Y-7651095D01*
X8291476Y-7403476D02*
X8310524Y-7403476D01*
X8329571Y-7413000D01*
X8339095Y-7422524D01*
X8348619Y-7441571D01*
X8358143Y-7479667D01*
X8358143Y-7527286D01*
X8348619Y-7565381D01*
X8339095Y-7584428D01*
X8329571Y-7593952D01*
X8310524Y-7603476D01*
X8291476Y-7603476D01*
X8272428Y-7593952D01*
X8262905Y-7584428D01*
X8253381Y-7565381D01*
X8243857Y-7527286D01*
X8243857Y-7479667D01*
X8253381Y-7441571D01*
X8262905Y-7422524D01*
X8272428Y-7413000D01*
X8291476Y-7403476D01*
X8443857Y-7584428D02*
X8453381Y-7593952D01*
X8443857Y-7603476D01*
X8434333Y-7593952D01*
X8443857Y-7584428D01*
X8443857Y-7603476D01*
X8577190Y-7403476D02*
X8596238Y-7403476D01*
X8615286Y-7413000D01*
X8624810Y-7422524D01*
X8634333Y-7441571D01*
X8643857Y-7479667D01*
X8643857Y-7527286D01*
X8634333Y-7565381D01*
X8624810Y-7584428D01*
X8615286Y-7593952D01*
X8596238Y-7603476D01*
X8577190Y-7603476D01*
X8558143Y-7593952D01*
X8548619Y-7584428D01*
X8539095Y-7565381D01*
X8529571Y-7527286D01*
X8529571Y-7479667D01*
X8539095Y-7441571D01*
X8548619Y-7422524D01*
X8558143Y-7413000D01*
X8577190Y-7403476D01*
X8710524Y-7403476D02*
X8834333Y-7403476D01*
X8767667Y-7479667D01*
X8796238Y-7479667D01*
X8815286Y-7489190D01*
X8824810Y-7498714D01*
X8834333Y-7517762D01*
X8834333Y-7565381D01*
X8824810Y-7584428D01*
X8815286Y-7593952D01*
X8796238Y-7603476D01*
X8739095Y-7603476D01*
X8720048Y-7593952D01*
X8710524Y-7584428D01*
X8929571Y-7603476D02*
X8967667Y-7603476D01*
X8986714Y-7593952D01*
X8996238Y-7584428D01*
X9015286Y-7555857D01*
X9024810Y-7517762D01*
X9024810Y-7441571D01*
X9015286Y-7422524D01*
X9005762Y-7413000D01*
X8986714Y-7403476D01*
X8948619Y-7403476D01*
X8929571Y-7413000D01*
X8920048Y-7422524D01*
X8910524Y-7441571D01*
X8910524Y-7489190D01*
X8920048Y-7508238D01*
X8929571Y-7517762D01*
X8948619Y-7527286D01*
X8986714Y-7527286D01*
X9005762Y-7517762D01*
X9015286Y-7508238D01*
X9024810Y-7489190D01*
X9196238Y-7470143D02*
X9196238Y-7603476D01*
X9148619Y-7393952D02*
X9101000Y-7536809D01*
X9224810Y-7536809D01*
X9291476Y-7403476D02*
X9291476Y-7441571D01*
X9367667Y-7403476D02*
X9367667Y-7441571D01*
X9662905Y-7679667D02*
X9653381Y-7670143D01*
X9634333Y-7641571D01*
X9624810Y-7622524D01*
X9615286Y-7593952D01*
X9605762Y-7546333D01*
X9605762Y-7508238D01*
X9615286Y-7460619D01*
X9624810Y-7432048D01*
X9634333Y-7413000D01*
X9653381Y-7384428D01*
X9662905Y-7374905D01*
X9843857Y-7603476D02*
X9729571Y-7603476D01*
X9786714Y-7603476D02*
X9786714Y-7403476D01*
X9767667Y-7432048D01*
X9748619Y-7451095D01*
X9729571Y-7460619D01*
X9958143Y-7489190D02*
X9939095Y-7479667D01*
X9929571Y-7470143D01*
X9920048Y-7451095D01*
X9920048Y-7441571D01*
X9929571Y-7422524D01*
X9939095Y-7413000D01*
X9958143Y-7403476D01*
X9996238Y-7403476D01*
X10015286Y-7413000D01*
X10024810Y-7422524D01*
X10034333Y-7441571D01*
X10034333Y-7451095D01*
X10024810Y-7470143D01*
X10015286Y-7479667D01*
X9996238Y-7489190D01*
X9958143Y-7489190D01*
X9939095Y-7498714D01*
X9929571Y-7508238D01*
X9920048Y-7527286D01*
X9920048Y-7565381D01*
X9929571Y-7584428D01*
X9939095Y-7593952D01*
X9958143Y-7603476D01*
X9996238Y-7603476D01*
X10015286Y-7593952D01*
X10024810Y-7584428D01*
X10034333Y-7565381D01*
X10034333Y-7527286D01*
X10024810Y-7508238D01*
X10015286Y-7498714D01*
X9996238Y-7489190D01*
X10272429Y-7603476D02*
X10272429Y-7403476D01*
X10358143Y-7603476D02*
X10358143Y-7498714D01*
X10348619Y-7479667D01*
X10329571Y-7470143D01*
X10301000Y-7470143D01*
X10281952Y-7479667D01*
X10272429Y-7489190D01*
X10481952Y-7603476D02*
X10462905Y-7593952D01*
X10453381Y-7584428D01*
X10443857Y-7565381D01*
X10443857Y-7508238D01*
X10453381Y-7489190D01*
X10462905Y-7479667D01*
X10481952Y-7470143D01*
X10510524Y-7470143D01*
X10529571Y-7479667D01*
X10539095Y-7489190D01*
X10548619Y-7508238D01*
X10548619Y-7565381D01*
X10539095Y-7584428D01*
X10529571Y-7593952D01*
X10510524Y-7603476D01*
X10481952Y-7603476D01*
X10662905Y-7603476D02*
X10643857Y-7593952D01*
X10634333Y-7574905D01*
X10634333Y-7403476D01*
X10815286Y-7593952D02*
X10796238Y-7603476D01*
X10758143Y-7603476D01*
X10739095Y-7593952D01*
X10729571Y-7574905D01*
X10729571Y-7498714D01*
X10739095Y-7479667D01*
X10758143Y-7470143D01*
X10796238Y-7470143D01*
X10815286Y-7479667D01*
X10824810Y-7498714D01*
X10824810Y-7517762D01*
X10729571Y-7536809D01*
X10901000Y-7593952D02*
X10920048Y-7603476D01*
X10958143Y-7603476D01*
X10977190Y-7593952D01*
X10986714Y-7574905D01*
X10986714Y-7565381D01*
X10977190Y-7546333D01*
X10958143Y-7536809D01*
X10929571Y-7536809D01*
X10910524Y-7527286D01*
X10901000Y-7508238D01*
X10901000Y-7498714D01*
X10910524Y-7479667D01*
X10929571Y-7470143D01*
X10958143Y-7470143D01*
X10977190Y-7479667D01*
X11053381Y-7679667D02*
X11062905Y-7670143D01*
X11081952Y-7641571D01*
X11091476Y-7622524D01*
X11101000Y-7593952D01*
X11110524Y-7546333D01*
X11110524Y-7508238D01*
X11101000Y-7460619D01*
X11091476Y-7432048D01*
X11081952Y-7413000D01*
X11062905Y-7384428D01*
X11053381Y-7374905D01*
M02*
