%TF.GenerationSoftware,KiCad,Pcbnew,5.1.6*%
%TF.CreationDate,2020-07-28T17:06:22+02:00*%
%TF.ProjectId,cederom-vias-test,63656465-726f-46d2-9d76-6961732d7465,rev?*%
%TF.SameCoordinates,Original*%
%TF.FileFunction,Profile,NP*%
%FSLAX46Y46*%
G04 Gerber Fmt 4.6, Leading zero omitted, Abs format (unit mm)*
G04 Created by KiCad (PCBNEW 5.1.6) date 2020-07-28 17:06:22*
%MOMM*%
%LPD*%
G01*
G04 APERTURE LIST*
%TA.AperFunction,Profile*%
%ADD10C,0.050000*%
%TD*%
G04 APERTURE END LIST*
D10*
X116840000Y-134112000D02*
X116840000Y-139700000D01*
X119380000Y-134112000D02*
X116840000Y-134112000D01*
X119380000Y-132080000D02*
X119380000Y-134112000D01*
X116840000Y-132080000D02*
X119380000Y-132080000D01*
X116840000Y-128778000D02*
X116840000Y-132080000D01*
X119380000Y-128778000D02*
X116840000Y-128778000D01*
X119380000Y-127000000D02*
X119380000Y-128778000D01*
X116840000Y-127000000D02*
X119380000Y-127000000D01*
X116840000Y-123444000D02*
X116840000Y-127000000D01*
X119380000Y-123444000D02*
X116840000Y-123444000D01*
X119380000Y-121920000D02*
X119380000Y-123444000D01*
X116840000Y-121920000D02*
X119380000Y-121920000D01*
X116840000Y-118110000D02*
X116840000Y-121920000D01*
X119380000Y-118110000D02*
X116840000Y-118110000D01*
X119380000Y-116840000D02*
X119380000Y-118110000D01*
X116840000Y-116840000D02*
X119380000Y-116840000D01*
X116840000Y-114300000D02*
X116840000Y-116840000D01*
X116840000Y-112522000D02*
X116840000Y-114300000D01*
X119380000Y-112522000D02*
X116840000Y-112522000D01*
X119380000Y-111506000D02*
X119380000Y-112522000D01*
X116840000Y-111506000D02*
X119380000Y-111506000D01*
X116840000Y-107950000D02*
X116840000Y-111506000D01*
X149225000Y-139700000D02*
X116840000Y-139700000D01*
X149225000Y-107950000D02*
X149225000Y-139700000D01*
X116840000Y-107950000D02*
X149225000Y-107950000D01*
M02*
