M48
; DRILL file {KiCad 9.0.3} date 2025-08-20T17:47:25+0200
; FORMAT={-:-/ absolute / inch / decimal}
; #@! TF.CreationDate,2025-08-20T17:47:25+02:00
; #@! TF.GenerationSoftware,Kicad,Pcbnew,9.0.3
; #@! TF.FileFunction,Plated,1,2,PTH
FMAT,2
INCH
; #@! TA.AperFunction,Plated,PTH,ComponentDrill
T1C0.0394
%
G90
G05
T1
X4.0965Y-3.7667
X4.0965Y-3.8667
X4.0965Y-3.9667
X4.0965Y-4.0667
X4.0965Y-4.1667
X4.0965Y-4.2667
X4.0965Y-4.3667
X4.0965Y-4.4667
X4.1965Y-3.7667
X4.1965Y-3.8667
X4.1965Y-3.9667
X4.1965Y-4.0667
X4.1965Y-4.1667
X4.1965Y-4.2667
X4.1965Y-4.3667
X4.1965Y-4.4667
X5.0547Y-3.7667
X5.0547Y-3.8667
X5.0547Y-3.9667
X5.0547Y-4.0667
X5.0547Y-4.1667
X5.0547Y-4.2667
X5.0547Y-4.3667
X5.0547Y-4.4667
X5.1547Y-3.7667
X5.1547Y-3.8667
X5.1547Y-3.9667
X5.1547Y-4.0667
X5.1547Y-4.1667
X5.1547Y-4.2667
X5.1547Y-4.3667
X5.1547Y-4.4667
M30
