%TF.GenerationSoftware,KiCad,Pcbnew,9.0.3*%
%TF.CreationDate,2025-08-20T17:47:23+02:00*%
%TF.ProjectId,cederom-stlink-v3mods-adapter,63656465-726f-46d2-9d73-746c696e6b2d,1*%
%TF.SameCoordinates,Original*%
%TF.FileFunction,Legend,Top*%
%TF.FilePolarity,Positive*%
%FSLAX46Y46*%
G04 Gerber Fmt 4.6, Leading zero omitted, Abs format (unit mm)*
G04 Created by KiCad (PCBNEW 9.0.3) date 2025-08-20 17:47:23*
%MOMM*%
%LPD*%
G01*
G04 APERTURE LIST*
%ADD10C,0.250000*%
%ADD11C,0.300000*%
%ADD12C,0.150000*%
%ADD13C,0.100000*%
%ADD14C,0.120000*%
G04 APERTURE END LIST*
D10*
X102109523Y-108849619D02*
X101538095Y-108849619D01*
X101823809Y-108849619D02*
X101823809Y-107849619D01*
X101823809Y-107849619D02*
X101728571Y-107992476D01*
X101728571Y-107992476D02*
X101633333Y-108087714D01*
X101633333Y-108087714D02*
X101538095Y-108135333D01*
X103061904Y-108849619D02*
X102490476Y-108849619D01*
X102776190Y-108849619D02*
X102776190Y-107849619D01*
X102776190Y-107849619D02*
X102680952Y-107992476D01*
X102680952Y-107992476D02*
X102585714Y-108087714D01*
X102585714Y-108087714D02*
X102490476Y-108135333D01*
X102109523Y-111349619D02*
X101538095Y-111349619D01*
X101823809Y-111349619D02*
X101823809Y-110349619D01*
X101823809Y-110349619D02*
X101728571Y-110492476D01*
X101728571Y-110492476D02*
X101633333Y-110587714D01*
X101633333Y-110587714D02*
X101538095Y-110635333D01*
X102442857Y-110349619D02*
X103061904Y-110349619D01*
X103061904Y-110349619D02*
X102728571Y-110730571D01*
X102728571Y-110730571D02*
X102871428Y-110730571D01*
X102871428Y-110730571D02*
X102966666Y-110778190D01*
X102966666Y-110778190D02*
X103014285Y-110825809D01*
X103014285Y-110825809D02*
X103061904Y-110921047D01*
X103061904Y-110921047D02*
X103061904Y-111159142D01*
X103061904Y-111159142D02*
X103014285Y-111254380D01*
X103014285Y-111254380D02*
X102966666Y-111302000D01*
X102966666Y-111302000D02*
X102871428Y-111349619D01*
X102871428Y-111349619D02*
X102585714Y-111349619D01*
X102585714Y-111349619D02*
X102490476Y-111302000D01*
X102490476Y-111302000D02*
X102442857Y-111254380D01*
X101809524Y-106249619D02*
X102000000Y-106249619D01*
X102000000Y-106249619D02*
X102095238Y-106202000D01*
X102095238Y-106202000D02*
X102142857Y-106154380D01*
X102142857Y-106154380D02*
X102238095Y-106011523D01*
X102238095Y-106011523D02*
X102285714Y-105821047D01*
X102285714Y-105821047D02*
X102285714Y-105440095D01*
X102285714Y-105440095D02*
X102238095Y-105344857D01*
X102238095Y-105344857D02*
X102190476Y-105297238D01*
X102190476Y-105297238D02*
X102095238Y-105249619D01*
X102095238Y-105249619D02*
X101904762Y-105249619D01*
X101904762Y-105249619D02*
X101809524Y-105297238D01*
X101809524Y-105297238D02*
X101761905Y-105344857D01*
X101761905Y-105344857D02*
X101714286Y-105440095D01*
X101714286Y-105440095D02*
X101714286Y-105678190D01*
X101714286Y-105678190D02*
X101761905Y-105773428D01*
X101761905Y-105773428D02*
X101809524Y-105821047D01*
X101809524Y-105821047D02*
X101904762Y-105868666D01*
X101904762Y-105868666D02*
X102095238Y-105868666D01*
X102095238Y-105868666D02*
X102190476Y-105821047D01*
X102190476Y-105821047D02*
X102238095Y-105773428D01*
X102238095Y-105773428D02*
X102285714Y-105678190D01*
X101666667Y-102749619D02*
X102333333Y-102749619D01*
X102333333Y-102749619D02*
X101904762Y-103749619D01*
X102109523Y-113949619D02*
X101538095Y-113949619D01*
X101823809Y-113949619D02*
X101823809Y-112949619D01*
X101823809Y-112949619D02*
X101728571Y-113092476D01*
X101728571Y-113092476D02*
X101633333Y-113187714D01*
X101633333Y-113187714D02*
X101538095Y-113235333D01*
X103014285Y-112949619D02*
X102538095Y-112949619D01*
X102538095Y-112949619D02*
X102490476Y-113425809D01*
X102490476Y-113425809D02*
X102538095Y-113378190D01*
X102538095Y-113378190D02*
X102633333Y-113330571D01*
X102633333Y-113330571D02*
X102871428Y-113330571D01*
X102871428Y-113330571D02*
X102966666Y-113378190D01*
X102966666Y-113378190D02*
X103014285Y-113425809D01*
X103014285Y-113425809D02*
X103061904Y-113521047D01*
X103061904Y-113521047D02*
X103061904Y-113759142D01*
X103061904Y-113759142D02*
X103014285Y-113854380D01*
X103014285Y-113854380D02*
X102966666Y-113902000D01*
X102966666Y-113902000D02*
X102871428Y-113949619D01*
X102871428Y-113949619D02*
X102633333Y-113949619D01*
X102633333Y-113949619D02*
X102538095Y-113902000D01*
X102538095Y-113902000D02*
X102490476Y-113854380D01*
D11*
X113535714Y-93913223D02*
X113464286Y-93984652D01*
X113464286Y-93984652D02*
X113250000Y-94056080D01*
X113250000Y-94056080D02*
X113107143Y-94056080D01*
X113107143Y-94056080D02*
X112892857Y-93984652D01*
X112892857Y-93984652D02*
X112750000Y-93841794D01*
X112750000Y-93841794D02*
X112678571Y-93698937D01*
X112678571Y-93698937D02*
X112607143Y-93413223D01*
X112607143Y-93413223D02*
X112607143Y-93198937D01*
X112607143Y-93198937D02*
X112678571Y-92913223D01*
X112678571Y-92913223D02*
X112750000Y-92770366D01*
X112750000Y-92770366D02*
X112892857Y-92627509D01*
X112892857Y-92627509D02*
X113107143Y-92556080D01*
X113107143Y-92556080D02*
X113250000Y-92556080D01*
X113250000Y-92556080D02*
X113464286Y-92627509D01*
X113464286Y-92627509D02*
X113535714Y-92698937D01*
X114750000Y-93984652D02*
X114607143Y-94056080D01*
X114607143Y-94056080D02*
X114321429Y-94056080D01*
X114321429Y-94056080D02*
X114178571Y-93984652D01*
X114178571Y-93984652D02*
X114107143Y-93841794D01*
X114107143Y-93841794D02*
X114107143Y-93270366D01*
X114107143Y-93270366D02*
X114178571Y-93127509D01*
X114178571Y-93127509D02*
X114321429Y-93056080D01*
X114321429Y-93056080D02*
X114607143Y-93056080D01*
X114607143Y-93056080D02*
X114750000Y-93127509D01*
X114750000Y-93127509D02*
X114821429Y-93270366D01*
X114821429Y-93270366D02*
X114821429Y-93413223D01*
X114821429Y-93413223D02*
X114107143Y-93556080D01*
X115464285Y-94056080D02*
X115464285Y-92556080D01*
X115464285Y-92556080D02*
X115821428Y-92556080D01*
X115821428Y-92556080D02*
X116035714Y-92627509D01*
X116035714Y-92627509D02*
X116178571Y-92770366D01*
X116178571Y-92770366D02*
X116250000Y-92913223D01*
X116250000Y-92913223D02*
X116321428Y-93198937D01*
X116321428Y-93198937D02*
X116321428Y-93413223D01*
X116321428Y-93413223D02*
X116250000Y-93698937D01*
X116250000Y-93698937D02*
X116178571Y-93841794D01*
X116178571Y-93841794D02*
X116035714Y-93984652D01*
X116035714Y-93984652D02*
X115821428Y-94056080D01*
X115821428Y-94056080D02*
X115464285Y-94056080D01*
X117535714Y-93984652D02*
X117392857Y-94056080D01*
X117392857Y-94056080D02*
X117107143Y-94056080D01*
X117107143Y-94056080D02*
X116964285Y-93984652D01*
X116964285Y-93984652D02*
X116892857Y-93841794D01*
X116892857Y-93841794D02*
X116892857Y-93270366D01*
X116892857Y-93270366D02*
X116964285Y-93127509D01*
X116964285Y-93127509D02*
X117107143Y-93056080D01*
X117107143Y-93056080D02*
X117392857Y-93056080D01*
X117392857Y-93056080D02*
X117535714Y-93127509D01*
X117535714Y-93127509D02*
X117607143Y-93270366D01*
X117607143Y-93270366D02*
X117607143Y-93413223D01*
X117607143Y-93413223D02*
X116892857Y-93556080D01*
X119107142Y-94056080D02*
X118607142Y-93341794D01*
X118249999Y-94056080D02*
X118249999Y-92556080D01*
X118249999Y-92556080D02*
X118821428Y-92556080D01*
X118821428Y-92556080D02*
X118964285Y-92627509D01*
X118964285Y-92627509D02*
X119035714Y-92698937D01*
X119035714Y-92698937D02*
X119107142Y-92841794D01*
X119107142Y-92841794D02*
X119107142Y-93056080D01*
X119107142Y-93056080D02*
X119035714Y-93198937D01*
X119035714Y-93198937D02*
X118964285Y-93270366D01*
X118964285Y-93270366D02*
X118821428Y-93341794D01*
X118821428Y-93341794D02*
X118249999Y-93341794D01*
X120035714Y-92556080D02*
X120321428Y-92556080D01*
X120321428Y-92556080D02*
X120464285Y-92627509D01*
X120464285Y-92627509D02*
X120607142Y-92770366D01*
X120607142Y-92770366D02*
X120678571Y-93056080D01*
X120678571Y-93056080D02*
X120678571Y-93556080D01*
X120678571Y-93556080D02*
X120607142Y-93841794D01*
X120607142Y-93841794D02*
X120464285Y-93984652D01*
X120464285Y-93984652D02*
X120321428Y-94056080D01*
X120321428Y-94056080D02*
X120035714Y-94056080D01*
X120035714Y-94056080D02*
X119892857Y-93984652D01*
X119892857Y-93984652D02*
X119749999Y-93841794D01*
X119749999Y-93841794D02*
X119678571Y-93556080D01*
X119678571Y-93556080D02*
X119678571Y-93056080D01*
X119678571Y-93056080D02*
X119749999Y-92770366D01*
X119749999Y-92770366D02*
X119892857Y-92627509D01*
X119892857Y-92627509D02*
X120035714Y-92556080D01*
X121321428Y-94056080D02*
X121321428Y-92556080D01*
X121321428Y-92556080D02*
X121821428Y-93627509D01*
X121821428Y-93627509D02*
X122321428Y-92556080D01*
X122321428Y-92556080D02*
X122321428Y-94056080D01*
X114000000Y-96399568D02*
X114214286Y-96470996D01*
X114214286Y-96470996D02*
X114571428Y-96470996D01*
X114571428Y-96470996D02*
X114714286Y-96399568D01*
X114714286Y-96399568D02*
X114785714Y-96328139D01*
X114785714Y-96328139D02*
X114857143Y-96185282D01*
X114857143Y-96185282D02*
X114857143Y-96042425D01*
X114857143Y-96042425D02*
X114785714Y-95899568D01*
X114785714Y-95899568D02*
X114714286Y-95828139D01*
X114714286Y-95828139D02*
X114571428Y-95756710D01*
X114571428Y-95756710D02*
X114285714Y-95685282D01*
X114285714Y-95685282D02*
X114142857Y-95613853D01*
X114142857Y-95613853D02*
X114071428Y-95542425D01*
X114071428Y-95542425D02*
X114000000Y-95399568D01*
X114000000Y-95399568D02*
X114000000Y-95256710D01*
X114000000Y-95256710D02*
X114071428Y-95113853D01*
X114071428Y-95113853D02*
X114142857Y-95042425D01*
X114142857Y-95042425D02*
X114285714Y-94970996D01*
X114285714Y-94970996D02*
X114642857Y-94970996D01*
X114642857Y-94970996D02*
X114857143Y-95042425D01*
X115285714Y-94970996D02*
X116142857Y-94970996D01*
X115714285Y-96470996D02*
X115714285Y-94970996D01*
X117357142Y-96470996D02*
X116642856Y-96470996D01*
X116642856Y-96470996D02*
X116642856Y-94970996D01*
X117857142Y-96470996D02*
X117857142Y-94970996D01*
X118571428Y-96470996D02*
X118571428Y-94970996D01*
X118571428Y-94970996D02*
X119428571Y-96470996D01*
X119428571Y-96470996D02*
X119428571Y-94970996D01*
X120142857Y-96470996D02*
X120142857Y-94970996D01*
X121000000Y-96470996D02*
X120357143Y-95613853D01*
X121000000Y-94970996D02*
X120142857Y-95828139D01*
X113178572Y-97385912D02*
X113678572Y-98885912D01*
X113678572Y-98885912D02*
X114178572Y-97385912D01*
X114535714Y-97385912D02*
X115464286Y-97385912D01*
X115464286Y-97385912D02*
X114964286Y-97957341D01*
X114964286Y-97957341D02*
X115178571Y-97957341D01*
X115178571Y-97957341D02*
X115321429Y-98028769D01*
X115321429Y-98028769D02*
X115392857Y-98100198D01*
X115392857Y-98100198D02*
X115464286Y-98243055D01*
X115464286Y-98243055D02*
X115464286Y-98600198D01*
X115464286Y-98600198D02*
X115392857Y-98743055D01*
X115392857Y-98743055D02*
X115321429Y-98814484D01*
X115321429Y-98814484D02*
X115178571Y-98885912D01*
X115178571Y-98885912D02*
X114750000Y-98885912D01*
X114750000Y-98885912D02*
X114607143Y-98814484D01*
X114607143Y-98814484D02*
X114535714Y-98743055D01*
X116107142Y-98885912D02*
X116107142Y-97385912D01*
X116107142Y-97385912D02*
X116607142Y-98457341D01*
X116607142Y-98457341D02*
X117107142Y-97385912D01*
X117107142Y-97385912D02*
X117107142Y-98885912D01*
X118107143Y-97385912D02*
X118392857Y-97385912D01*
X118392857Y-97385912D02*
X118535714Y-97457341D01*
X118535714Y-97457341D02*
X118678571Y-97600198D01*
X118678571Y-97600198D02*
X118750000Y-97885912D01*
X118750000Y-97885912D02*
X118750000Y-98385912D01*
X118750000Y-98385912D02*
X118678571Y-98671626D01*
X118678571Y-98671626D02*
X118535714Y-98814484D01*
X118535714Y-98814484D02*
X118392857Y-98885912D01*
X118392857Y-98885912D02*
X118107143Y-98885912D01*
X118107143Y-98885912D02*
X117964286Y-98814484D01*
X117964286Y-98814484D02*
X117821428Y-98671626D01*
X117821428Y-98671626D02*
X117750000Y-98385912D01*
X117750000Y-98385912D02*
X117750000Y-97885912D01*
X117750000Y-97885912D02*
X117821428Y-97600198D01*
X117821428Y-97600198D02*
X117964286Y-97457341D01*
X117964286Y-97457341D02*
X118107143Y-97385912D01*
X119392857Y-98885912D02*
X119392857Y-97385912D01*
X119392857Y-97385912D02*
X119750000Y-97385912D01*
X119750000Y-97385912D02*
X119964286Y-97457341D01*
X119964286Y-97457341D02*
X120107143Y-97600198D01*
X120107143Y-97600198D02*
X120178572Y-97743055D01*
X120178572Y-97743055D02*
X120250000Y-98028769D01*
X120250000Y-98028769D02*
X120250000Y-98243055D01*
X120250000Y-98243055D02*
X120178572Y-98528769D01*
X120178572Y-98528769D02*
X120107143Y-98671626D01*
X120107143Y-98671626D02*
X119964286Y-98814484D01*
X119964286Y-98814484D02*
X119750000Y-98885912D01*
X119750000Y-98885912D02*
X119392857Y-98885912D01*
X120821429Y-98814484D02*
X121035715Y-98885912D01*
X121035715Y-98885912D02*
X121392857Y-98885912D01*
X121392857Y-98885912D02*
X121535715Y-98814484D01*
X121535715Y-98814484D02*
X121607143Y-98743055D01*
X121607143Y-98743055D02*
X121678572Y-98600198D01*
X121678572Y-98600198D02*
X121678572Y-98457341D01*
X121678572Y-98457341D02*
X121607143Y-98314484D01*
X121607143Y-98314484D02*
X121535715Y-98243055D01*
X121535715Y-98243055D02*
X121392857Y-98171626D01*
X121392857Y-98171626D02*
X121107143Y-98100198D01*
X121107143Y-98100198D02*
X120964286Y-98028769D01*
X120964286Y-98028769D02*
X120892857Y-97957341D01*
X120892857Y-97957341D02*
X120821429Y-97814484D01*
X120821429Y-97814484D02*
X120821429Y-97671626D01*
X120821429Y-97671626D02*
X120892857Y-97528769D01*
X120892857Y-97528769D02*
X120964286Y-97457341D01*
X120964286Y-97457341D02*
X121107143Y-97385912D01*
X121107143Y-97385912D02*
X121464286Y-97385912D01*
X121464286Y-97385912D02*
X121678572Y-97457341D01*
X113714286Y-100872257D02*
X114428572Y-100872257D01*
X113571429Y-101300828D02*
X114071429Y-99800828D01*
X114071429Y-99800828D02*
X114571429Y-101300828D01*
X115071428Y-101300828D02*
X115071428Y-99800828D01*
X115071428Y-99800828D02*
X115428571Y-99800828D01*
X115428571Y-99800828D02*
X115642857Y-99872257D01*
X115642857Y-99872257D02*
X115785714Y-100015114D01*
X115785714Y-100015114D02*
X115857143Y-100157971D01*
X115857143Y-100157971D02*
X115928571Y-100443685D01*
X115928571Y-100443685D02*
X115928571Y-100657971D01*
X115928571Y-100657971D02*
X115857143Y-100943685D01*
X115857143Y-100943685D02*
X115785714Y-101086542D01*
X115785714Y-101086542D02*
X115642857Y-101229400D01*
X115642857Y-101229400D02*
X115428571Y-101300828D01*
X115428571Y-101300828D02*
X115071428Y-101300828D01*
X116571428Y-101300828D02*
X116571428Y-99800828D01*
X116571428Y-99800828D02*
X117142857Y-99800828D01*
X117142857Y-99800828D02*
X117285714Y-99872257D01*
X117285714Y-99872257D02*
X117357143Y-99943685D01*
X117357143Y-99943685D02*
X117428571Y-100086542D01*
X117428571Y-100086542D02*
X117428571Y-100300828D01*
X117428571Y-100300828D02*
X117357143Y-100443685D01*
X117357143Y-100443685D02*
X117285714Y-100515114D01*
X117285714Y-100515114D02*
X117142857Y-100586542D01*
X117142857Y-100586542D02*
X116571428Y-100586542D01*
X119000000Y-99800828D02*
X119500000Y-101300828D01*
X119500000Y-101300828D02*
X120000000Y-99800828D01*
X121285714Y-101300828D02*
X120428571Y-101300828D01*
X120857142Y-101300828D02*
X120857142Y-99800828D01*
X120857142Y-99800828D02*
X120714285Y-100015114D01*
X120714285Y-100015114D02*
X120571428Y-100157971D01*
X120571428Y-100157971D02*
X120428571Y-100229400D01*
D10*
X102285714Y-96124619D02*
X101714286Y-96124619D01*
X102000000Y-96124619D02*
X102000000Y-95124619D01*
X102000000Y-95124619D02*
X101904762Y-95267476D01*
X101904762Y-95267476D02*
X101809524Y-95362714D01*
X101809524Y-95362714D02*
X101714286Y-95410333D01*
X102238095Y-100249619D02*
X101761905Y-100249619D01*
X101761905Y-100249619D02*
X101714286Y-100725809D01*
X101714286Y-100725809D02*
X101761905Y-100678190D01*
X101761905Y-100678190D02*
X101857143Y-100630571D01*
X101857143Y-100630571D02*
X102095238Y-100630571D01*
X102095238Y-100630571D02*
X102190476Y-100678190D01*
X102190476Y-100678190D02*
X102238095Y-100725809D01*
X102238095Y-100725809D02*
X102285714Y-100821047D01*
X102285714Y-100821047D02*
X102285714Y-101059142D01*
X102285714Y-101059142D02*
X102238095Y-101154380D01*
X102238095Y-101154380D02*
X102190476Y-101202000D01*
X102190476Y-101202000D02*
X102095238Y-101249619D01*
X102095238Y-101249619D02*
X101857143Y-101249619D01*
X101857143Y-101249619D02*
X101761905Y-101202000D01*
X101761905Y-101202000D02*
X101714286Y-101154380D01*
X131938095Y-105444857D02*
X131985714Y-105397238D01*
X131985714Y-105397238D02*
X132080952Y-105349619D01*
X132080952Y-105349619D02*
X132319047Y-105349619D01*
X132319047Y-105349619D02*
X132414285Y-105397238D01*
X132414285Y-105397238D02*
X132461904Y-105444857D01*
X132461904Y-105444857D02*
X132509523Y-105540095D01*
X132509523Y-105540095D02*
X132509523Y-105635333D01*
X132509523Y-105635333D02*
X132461904Y-105778190D01*
X132461904Y-105778190D02*
X131890476Y-106349619D01*
X131890476Y-106349619D02*
X132509523Y-106349619D01*
X132842857Y-105349619D02*
X133461904Y-105349619D01*
X133461904Y-105349619D02*
X133128571Y-105730571D01*
X133128571Y-105730571D02*
X133271428Y-105730571D01*
X133271428Y-105730571D02*
X133366666Y-105778190D01*
X133366666Y-105778190D02*
X133414285Y-105825809D01*
X133414285Y-105825809D02*
X133461904Y-105921047D01*
X133461904Y-105921047D02*
X133461904Y-106159142D01*
X133461904Y-106159142D02*
X133414285Y-106254380D01*
X133414285Y-106254380D02*
X133366666Y-106302000D01*
X133366666Y-106302000D02*
X133271428Y-106349619D01*
X133271428Y-106349619D02*
X132985714Y-106349619D01*
X132985714Y-106349619D02*
X132890476Y-106302000D01*
X132890476Y-106302000D02*
X132842857Y-106254380D01*
X131938095Y-100344857D02*
X131985714Y-100297238D01*
X131985714Y-100297238D02*
X132080952Y-100249619D01*
X132080952Y-100249619D02*
X132319047Y-100249619D01*
X132319047Y-100249619D02*
X132414285Y-100297238D01*
X132414285Y-100297238D02*
X132461904Y-100344857D01*
X132461904Y-100344857D02*
X132509523Y-100440095D01*
X132509523Y-100440095D02*
X132509523Y-100535333D01*
X132509523Y-100535333D02*
X132461904Y-100678190D01*
X132461904Y-100678190D02*
X131890476Y-101249619D01*
X131890476Y-101249619D02*
X132509523Y-101249619D01*
X132842857Y-100249619D02*
X133509523Y-100249619D01*
X133509523Y-100249619D02*
X133080952Y-101249619D01*
X131890476Y-95149619D02*
X132509523Y-95149619D01*
X132509523Y-95149619D02*
X132176190Y-95530571D01*
X132176190Y-95530571D02*
X132319047Y-95530571D01*
X132319047Y-95530571D02*
X132414285Y-95578190D01*
X132414285Y-95578190D02*
X132461904Y-95625809D01*
X132461904Y-95625809D02*
X132509523Y-95721047D01*
X132509523Y-95721047D02*
X132509523Y-95959142D01*
X132509523Y-95959142D02*
X132461904Y-96054380D01*
X132461904Y-96054380D02*
X132414285Y-96102000D01*
X132414285Y-96102000D02*
X132319047Y-96149619D01*
X132319047Y-96149619D02*
X132033333Y-96149619D01*
X132033333Y-96149619D02*
X131938095Y-96102000D01*
X131938095Y-96102000D02*
X131890476Y-96054380D01*
X133461904Y-96149619D02*
X132890476Y-96149619D01*
X133176190Y-96149619D02*
X133176190Y-95149619D01*
X133176190Y-95149619D02*
X133080952Y-95292476D01*
X133080952Y-95292476D02*
X132985714Y-95387714D01*
X132985714Y-95387714D02*
X132890476Y-95435333D01*
X101666667Y-97649619D02*
X102285714Y-97649619D01*
X102285714Y-97649619D02*
X101952381Y-98030571D01*
X101952381Y-98030571D02*
X102095238Y-98030571D01*
X102095238Y-98030571D02*
X102190476Y-98078190D01*
X102190476Y-98078190D02*
X102238095Y-98125809D01*
X102238095Y-98125809D02*
X102285714Y-98221047D01*
X102285714Y-98221047D02*
X102285714Y-98459142D01*
X102285714Y-98459142D02*
X102238095Y-98554380D01*
X102238095Y-98554380D02*
X102190476Y-98602000D01*
X102190476Y-98602000D02*
X102095238Y-98649619D01*
X102095238Y-98649619D02*
X101809524Y-98649619D01*
X101809524Y-98649619D02*
X101714286Y-98602000D01*
X101714286Y-98602000D02*
X101666667Y-98554380D01*
X131938095Y-97744857D02*
X131985714Y-97697238D01*
X131985714Y-97697238D02*
X132080952Y-97649619D01*
X132080952Y-97649619D02*
X132319047Y-97649619D01*
X132319047Y-97649619D02*
X132414285Y-97697238D01*
X132414285Y-97697238D02*
X132461904Y-97744857D01*
X132461904Y-97744857D02*
X132509523Y-97840095D01*
X132509523Y-97840095D02*
X132509523Y-97935333D01*
X132509523Y-97935333D02*
X132461904Y-98078190D01*
X132461904Y-98078190D02*
X131890476Y-98649619D01*
X131890476Y-98649619D02*
X132509523Y-98649619D01*
X132985714Y-98649619D02*
X133176190Y-98649619D01*
X133176190Y-98649619D02*
X133271428Y-98602000D01*
X133271428Y-98602000D02*
X133319047Y-98554380D01*
X133319047Y-98554380D02*
X133414285Y-98411523D01*
X133414285Y-98411523D02*
X133461904Y-98221047D01*
X133461904Y-98221047D02*
X133461904Y-97840095D01*
X133461904Y-97840095D02*
X133414285Y-97744857D01*
X133414285Y-97744857D02*
X133366666Y-97697238D01*
X133366666Y-97697238D02*
X133271428Y-97649619D01*
X133271428Y-97649619D02*
X133080952Y-97649619D01*
X133080952Y-97649619D02*
X132985714Y-97697238D01*
X132985714Y-97697238D02*
X132938095Y-97744857D01*
X132938095Y-97744857D02*
X132890476Y-97840095D01*
X132890476Y-97840095D02*
X132890476Y-98078190D01*
X132890476Y-98078190D02*
X132938095Y-98173428D01*
X132938095Y-98173428D02*
X132985714Y-98221047D01*
X132985714Y-98221047D02*
X133080952Y-98268666D01*
X133080952Y-98268666D02*
X133271428Y-98268666D01*
X133271428Y-98268666D02*
X133366666Y-98221047D01*
X133366666Y-98221047D02*
X133414285Y-98173428D01*
X133414285Y-98173428D02*
X133461904Y-98078190D01*
X132509523Y-111349619D02*
X131938095Y-111349619D01*
X132223809Y-111349619D02*
X132223809Y-110349619D01*
X132223809Y-110349619D02*
X132128571Y-110492476D01*
X132128571Y-110492476D02*
X132033333Y-110587714D01*
X132033333Y-110587714D02*
X131938095Y-110635333D01*
X132985714Y-111349619D02*
X133176190Y-111349619D01*
X133176190Y-111349619D02*
X133271428Y-111302000D01*
X133271428Y-111302000D02*
X133319047Y-111254380D01*
X133319047Y-111254380D02*
X133414285Y-111111523D01*
X133414285Y-111111523D02*
X133461904Y-110921047D01*
X133461904Y-110921047D02*
X133461904Y-110540095D01*
X133461904Y-110540095D02*
X133414285Y-110444857D01*
X133414285Y-110444857D02*
X133366666Y-110397238D01*
X133366666Y-110397238D02*
X133271428Y-110349619D01*
X133271428Y-110349619D02*
X133080952Y-110349619D01*
X133080952Y-110349619D02*
X132985714Y-110397238D01*
X132985714Y-110397238D02*
X132938095Y-110444857D01*
X132938095Y-110444857D02*
X132890476Y-110540095D01*
X132890476Y-110540095D02*
X132890476Y-110778190D01*
X132890476Y-110778190D02*
X132938095Y-110873428D01*
X132938095Y-110873428D02*
X132985714Y-110921047D01*
X132985714Y-110921047D02*
X133080952Y-110968666D01*
X133080952Y-110968666D02*
X133271428Y-110968666D01*
X133271428Y-110968666D02*
X133366666Y-110921047D01*
X133366666Y-110921047D02*
X133414285Y-110873428D01*
X133414285Y-110873428D02*
X133461904Y-110778190D01*
X131938095Y-107944857D02*
X131985714Y-107897238D01*
X131985714Y-107897238D02*
X132080952Y-107849619D01*
X132080952Y-107849619D02*
X132319047Y-107849619D01*
X132319047Y-107849619D02*
X132414285Y-107897238D01*
X132414285Y-107897238D02*
X132461904Y-107944857D01*
X132461904Y-107944857D02*
X132509523Y-108040095D01*
X132509523Y-108040095D02*
X132509523Y-108135333D01*
X132509523Y-108135333D02*
X132461904Y-108278190D01*
X132461904Y-108278190D02*
X131890476Y-108849619D01*
X131890476Y-108849619D02*
X132509523Y-108849619D01*
X133461904Y-108849619D02*
X132890476Y-108849619D01*
X133176190Y-108849619D02*
X133176190Y-107849619D01*
X133176190Y-107849619D02*
X133080952Y-107992476D01*
X133080952Y-107992476D02*
X132985714Y-108087714D01*
X132985714Y-108087714D02*
X132890476Y-108135333D01*
X131938095Y-102844857D02*
X131985714Y-102797238D01*
X131985714Y-102797238D02*
X132080952Y-102749619D01*
X132080952Y-102749619D02*
X132319047Y-102749619D01*
X132319047Y-102749619D02*
X132414285Y-102797238D01*
X132414285Y-102797238D02*
X132461904Y-102844857D01*
X132461904Y-102844857D02*
X132509523Y-102940095D01*
X132509523Y-102940095D02*
X132509523Y-103035333D01*
X132509523Y-103035333D02*
X132461904Y-103178190D01*
X132461904Y-103178190D02*
X131890476Y-103749619D01*
X131890476Y-103749619D02*
X132509523Y-103749619D01*
X133414285Y-102749619D02*
X132938095Y-102749619D01*
X132938095Y-102749619D02*
X132890476Y-103225809D01*
X132890476Y-103225809D02*
X132938095Y-103178190D01*
X132938095Y-103178190D02*
X133033333Y-103130571D01*
X133033333Y-103130571D02*
X133271428Y-103130571D01*
X133271428Y-103130571D02*
X133366666Y-103178190D01*
X133366666Y-103178190D02*
X133414285Y-103225809D01*
X133414285Y-103225809D02*
X133461904Y-103321047D01*
X133461904Y-103321047D02*
X133461904Y-103559142D01*
X133461904Y-103559142D02*
X133414285Y-103654380D01*
X133414285Y-103654380D02*
X133366666Y-103702000D01*
X133366666Y-103702000D02*
X133271428Y-103749619D01*
X133271428Y-103749619D02*
X133033333Y-103749619D01*
X133033333Y-103749619D02*
X132938095Y-103702000D01*
X132938095Y-103702000D02*
X132890476Y-103654380D01*
X132509523Y-113949619D02*
X131938095Y-113949619D01*
X132223809Y-113949619D02*
X132223809Y-112949619D01*
X132223809Y-112949619D02*
X132128571Y-113092476D01*
X132128571Y-113092476D02*
X132033333Y-113187714D01*
X132033333Y-113187714D02*
X131938095Y-113235333D01*
X132842857Y-112949619D02*
X133509523Y-112949619D01*
X133509523Y-112949619D02*
X133080952Y-113949619D01*
D12*
X129278095Y-86554819D02*
X129278095Y-85554819D01*
X129278095Y-86031009D02*
X129849523Y-86031009D01*
X129849523Y-86554819D02*
X129849523Y-85554819D01*
X130278095Y-85650057D02*
X130325714Y-85602438D01*
X130325714Y-85602438D02*
X130420952Y-85554819D01*
X130420952Y-85554819D02*
X130659047Y-85554819D01*
X130659047Y-85554819D02*
X130754285Y-85602438D01*
X130754285Y-85602438D02*
X130801904Y-85650057D01*
X130801904Y-85650057D02*
X130849523Y-85745295D01*
X130849523Y-85745295D02*
X130849523Y-85840533D01*
X130849523Y-85840533D02*
X130801904Y-85983390D01*
X130801904Y-85983390D02*
X130230476Y-86554819D01*
X130230476Y-86554819D02*
X130849523Y-86554819D01*
X129326666Y-92749819D02*
X129326666Y-93464104D01*
X129326666Y-93464104D02*
X129279047Y-93606961D01*
X129279047Y-93606961D02*
X129183809Y-93702200D01*
X129183809Y-93702200D02*
X129040952Y-93749819D01*
X129040952Y-93749819D02*
X128945714Y-93749819D01*
X129755238Y-92845057D02*
X129802857Y-92797438D01*
X129802857Y-92797438D02*
X129898095Y-92749819D01*
X129898095Y-92749819D02*
X130136190Y-92749819D01*
X130136190Y-92749819D02*
X130231428Y-92797438D01*
X130231428Y-92797438D02*
X130279047Y-92845057D01*
X130279047Y-92845057D02*
X130326666Y-92940295D01*
X130326666Y-92940295D02*
X130326666Y-93035533D01*
X130326666Y-93035533D02*
X130279047Y-93178390D01*
X130279047Y-93178390D02*
X129707619Y-93749819D01*
X129707619Y-93749819D02*
X130326666Y-93749819D01*
X116738095Y-111954819D02*
X116738095Y-112764342D01*
X116738095Y-112764342D02*
X116785714Y-112859580D01*
X116785714Y-112859580D02*
X116833333Y-112907200D01*
X116833333Y-112907200D02*
X116928571Y-112954819D01*
X116928571Y-112954819D02*
X117119047Y-112954819D01*
X117119047Y-112954819D02*
X117214285Y-112907200D01*
X117214285Y-112907200D02*
X117261904Y-112859580D01*
X117261904Y-112859580D02*
X117309523Y-112764342D01*
X117309523Y-112764342D02*
X117309523Y-111954819D01*
X118309523Y-112954819D02*
X117738095Y-112954819D01*
X118023809Y-112954819D02*
X118023809Y-111954819D01*
X118023809Y-111954819D02*
X117928571Y-112097676D01*
X117928571Y-112097676D02*
X117833333Y-112192914D01*
X117833333Y-112192914D02*
X117738095Y-112240533D01*
D13*
X123653014Y-85994360D02*
X122903014Y-85994360D01*
X122903014Y-85994360D02*
X123438728Y-86244360D01*
X123438728Y-86244360D02*
X122903014Y-86494360D01*
X122903014Y-86494360D02*
X123653014Y-86494360D01*
X123260157Y-87101503D02*
X123295871Y-87208646D01*
X123295871Y-87208646D02*
X123331585Y-87244360D01*
X123331585Y-87244360D02*
X123403014Y-87280074D01*
X123403014Y-87280074D02*
X123510157Y-87280074D01*
X123510157Y-87280074D02*
X123581585Y-87244360D01*
X123581585Y-87244360D02*
X123617300Y-87208646D01*
X123617300Y-87208646D02*
X123653014Y-87137217D01*
X123653014Y-87137217D02*
X123653014Y-86851503D01*
X123653014Y-86851503D02*
X122903014Y-86851503D01*
X122903014Y-86851503D02*
X122903014Y-87101503D01*
X122903014Y-87101503D02*
X122938728Y-87172932D01*
X122938728Y-87172932D02*
X122974442Y-87208646D01*
X122974442Y-87208646D02*
X123045871Y-87244360D01*
X123045871Y-87244360D02*
X123117300Y-87244360D01*
X123117300Y-87244360D02*
X123188728Y-87208646D01*
X123188728Y-87208646D02*
X123224442Y-87172932D01*
X123224442Y-87172932D02*
X123260157Y-87101503D01*
X123260157Y-87101503D02*
X123260157Y-86851503D01*
X123653014Y-87994360D02*
X123653014Y-87565789D01*
X123653014Y-87780074D02*
X122903014Y-87780074D01*
X122903014Y-87780074D02*
X123010157Y-87708646D01*
X123010157Y-87708646D02*
X123081585Y-87637217D01*
X123081585Y-87637217D02*
X123117300Y-87565789D01*
X123153014Y-88637218D02*
X123653014Y-88637218D01*
X122867300Y-88458646D02*
X123403014Y-88280075D01*
X123403014Y-88280075D02*
X123403014Y-88744360D01*
X122903014Y-89351504D02*
X122903014Y-89208646D01*
X122903014Y-89208646D02*
X122938728Y-89137218D01*
X122938728Y-89137218D02*
X122974442Y-89101504D01*
X122974442Y-89101504D02*
X123081585Y-89030075D01*
X123081585Y-89030075D02*
X123224442Y-88994361D01*
X123224442Y-88994361D02*
X123510157Y-88994361D01*
X123510157Y-88994361D02*
X123581585Y-89030075D01*
X123581585Y-89030075D02*
X123617300Y-89065789D01*
X123617300Y-89065789D02*
X123653014Y-89137218D01*
X123653014Y-89137218D02*
X123653014Y-89280075D01*
X123653014Y-89280075D02*
X123617300Y-89351504D01*
X123617300Y-89351504D02*
X123581585Y-89387218D01*
X123581585Y-89387218D02*
X123510157Y-89422932D01*
X123510157Y-89422932D02*
X123331585Y-89422932D01*
X123331585Y-89422932D02*
X123260157Y-89387218D01*
X123260157Y-89387218D02*
X123224442Y-89351504D01*
X123224442Y-89351504D02*
X123188728Y-89280075D01*
X123188728Y-89280075D02*
X123188728Y-89137218D01*
X123188728Y-89137218D02*
X123224442Y-89065789D01*
X123224442Y-89065789D02*
X123260157Y-89030075D01*
X123260157Y-89030075D02*
X123331585Y-88994361D01*
X122903014Y-89672932D02*
X122903014Y-90172932D01*
X122903014Y-90172932D02*
X123653014Y-89851504D01*
D12*
X104986666Y-92749819D02*
X104986666Y-93464104D01*
X104986666Y-93464104D02*
X104939047Y-93606961D01*
X104939047Y-93606961D02*
X104843809Y-93702200D01*
X104843809Y-93702200D02*
X104700952Y-93749819D01*
X104700952Y-93749819D02*
X104605714Y-93749819D01*
X105986666Y-93749819D02*
X105415238Y-93749819D01*
X105700952Y-93749819D02*
X105700952Y-92749819D01*
X105700952Y-92749819D02*
X105605714Y-92892676D01*
X105605714Y-92892676D02*
X105510476Y-92987914D01*
X105510476Y-92987914D02*
X105415238Y-93035533D01*
X104178095Y-86554819D02*
X104178095Y-85554819D01*
X104178095Y-86031009D02*
X104749523Y-86031009D01*
X104749523Y-86554819D02*
X104749523Y-85554819D01*
X105749523Y-86554819D02*
X105178095Y-86554819D01*
X105463809Y-86554819D02*
X105463809Y-85554819D01*
X105463809Y-85554819D02*
X105368571Y-85697676D01*
X105368571Y-85697676D02*
X105273333Y-85792914D01*
X105273333Y-85792914D02*
X105178095Y-85840533D01*
D14*
%TO.C,J2*%
X127010000Y-94295000D02*
X128390000Y-94295000D01*
X127010000Y-95675000D02*
X127010000Y-94295000D01*
X127010000Y-96945000D02*
X127010000Y-114835000D01*
X127010000Y-96945000D02*
X129660000Y-96945000D01*
X127010000Y-114835000D02*
X132310000Y-114835000D01*
X129660000Y-94295000D02*
X132310000Y-94295000D01*
X129660000Y-96945000D02*
X129660000Y-94295000D01*
X132310000Y-94295000D02*
X132310000Y-114835000D01*
%TO.C,U1*%
X111050000Y-86950000D02*
X113525000Y-84475000D01*
X111050000Y-115550000D02*
X111050000Y-85576841D01*
X111574716Y-85575000D02*
X111050000Y-85575000D01*
X112700000Y-84475000D02*
X122300000Y-84475000D01*
X113500000Y-83500000D02*
X113500000Y-84500000D01*
X113500000Y-83500000D02*
X121500000Y-83500000D01*
X121500000Y-83500000D02*
X121500000Y-84475000D01*
X123425284Y-85575000D02*
X123950000Y-85575000D01*
X123950000Y-85575000D02*
X123950000Y-115550000D01*
X123950000Y-115550000D02*
X111050000Y-115550000D01*
X112700000Y-84475000D02*
G75*
G02*
X111574716Y-85575000I-1100284J0D01*
G01*
X123425284Y-85575000D02*
G75*
G02*
X122299996Y-84475000I-25004J1100000D01*
G01*
%TO.C,J1*%
X102670000Y-94295000D02*
X104050000Y-94295000D01*
X102670000Y-95675000D02*
X102670000Y-94295000D01*
X102670000Y-96945000D02*
X102670000Y-114835000D01*
X102670000Y-96945000D02*
X105320000Y-96945000D01*
X102670000Y-114835000D02*
X107970000Y-114835000D01*
X105320000Y-94295000D02*
X107970000Y-94295000D01*
X105320000Y-96945000D02*
X105320000Y-94295000D01*
X107970000Y-94295000D02*
X107970000Y-114835000D01*
%TD*%
M02*
