%TF.GenerationSoftware,KiCad,Pcbnew,5.1.6*%
%TF.CreationDate,2020-07-28T17:06:22+02:00*%
%TF.ProjectId,cederom-vias-test,63656465-726f-46d2-9d76-6961732d7465,rev?*%
%TF.SameCoordinates,Original*%
%TF.FileFunction,Copper,L1,Top*%
%TF.FilePolarity,Positive*%
%FSLAX46Y46*%
G04 Gerber Fmt 4.6, Leading zero omitted, Abs format (unit mm)*
G04 Created by KiCad (PCBNEW 5.1.6) date 2020-07-28 17:06:22*
%MOMM*%
%LPD*%
G01*
G04 APERTURE LIST*
%TA.AperFunction,NonConductor*%
%ADD10C,0.150000*%
%TD*%
%TA.AperFunction,NonConductor*%
%ADD11C,0.250000*%
%TD*%
%TA.AperFunction,NonConductor*%
%ADD12C,0.300000*%
%TD*%
%TA.AperFunction,ViaPad*%
%ADD13C,0.800000*%
%TD*%
%TA.AperFunction,ViaPad*%
%ADD14C,1.000000*%
%TD*%
%TA.AperFunction,ViaPad*%
%ADD15C,0.900000*%
%TD*%
%TA.AperFunction,ViaPad*%
%ADD16C,1.100000*%
%TD*%
%TA.AperFunction,ViaPad*%
%ADD17C,1.250000*%
%TD*%
%TA.AperFunction,Conductor*%
%ADD18C,0.250000*%
%TD*%
%TA.AperFunction,Conductor*%
%ADD19C,0.200000*%
%TD*%
%TA.AperFunction,Conductor*%
%ADD20C,0.125000*%
%TD*%
%TA.AperFunction,Conductor*%
%ADD21C,0.100000*%
%TD*%
%TA.AperFunction,Conductor*%
%ADD22C,0.075000*%
%TD*%
%TA.AperFunction,Conductor*%
%ADD23C,0.050000*%
%TD*%
G04 APERTURE END LIST*
D10*
X117903809Y-130357619D02*
X117951428Y-130310000D01*
X118046666Y-130262380D01*
X118284761Y-130262380D01*
X118380000Y-130310000D01*
X118427619Y-130357619D01*
X118475238Y-130452857D01*
X118475238Y-130548095D01*
X118427619Y-130690952D01*
X117856190Y-131262380D01*
X118475238Y-131262380D01*
X118903809Y-131167142D02*
X118951428Y-131214761D01*
X118903809Y-131262380D01*
X118856190Y-131214761D01*
X118903809Y-131167142D01*
X118903809Y-131262380D01*
X119570476Y-130262380D02*
X119665714Y-130262380D01*
X119760952Y-130310000D01*
X119808571Y-130357619D01*
X119856190Y-130452857D01*
X119903809Y-130643333D01*
X119903809Y-130881428D01*
X119856190Y-131071904D01*
X119808571Y-131167142D01*
X119760952Y-131214761D01*
X119665714Y-131262380D01*
X119570476Y-131262380D01*
X119475238Y-131214761D01*
X119427619Y-131167142D01*
X119380000Y-131071904D01*
X119332380Y-130881428D01*
X119332380Y-130643333D01*
X119380000Y-130452857D01*
X119427619Y-130357619D01*
X119475238Y-130310000D01*
X119570476Y-130262380D01*
X120237142Y-130262380D02*
X120856190Y-130262380D01*
X120522857Y-130643333D01*
X120665714Y-130643333D01*
X120760952Y-130690952D01*
X120808571Y-130738571D01*
X120856190Y-130833809D01*
X120856190Y-131071904D01*
X120808571Y-131167142D01*
X120760952Y-131214761D01*
X120665714Y-131262380D01*
X120380000Y-131262380D01*
X120284761Y-131214761D01*
X120237142Y-131167142D01*
X118475238Y-126182380D02*
X117903809Y-126182380D01*
X118189523Y-126182380D02*
X118189523Y-125182380D01*
X118094285Y-125325238D01*
X117999047Y-125420476D01*
X117903809Y-125468095D01*
X118903809Y-126087142D02*
X118951428Y-126134761D01*
X118903809Y-126182380D01*
X118856190Y-126134761D01*
X118903809Y-126087142D01*
X118903809Y-126182380D01*
X119284761Y-125182380D02*
X119951428Y-125182380D01*
X119522857Y-126182380D01*
X120475238Y-125610952D02*
X120380000Y-125563333D01*
X120332380Y-125515714D01*
X120284761Y-125420476D01*
X120284761Y-125372857D01*
X120332380Y-125277619D01*
X120380000Y-125230000D01*
X120475238Y-125182380D01*
X120665714Y-125182380D01*
X120760952Y-125230000D01*
X120808571Y-125277619D01*
X120856190Y-125372857D01*
X120856190Y-125420476D01*
X120808571Y-125515714D01*
X120760952Y-125563333D01*
X120665714Y-125610952D01*
X120475238Y-125610952D01*
X120380000Y-125658571D01*
X120332380Y-125706190D01*
X120284761Y-125801428D01*
X120284761Y-125991904D01*
X120332380Y-126087142D01*
X120380000Y-126134761D01*
X120475238Y-126182380D01*
X120665714Y-126182380D01*
X120760952Y-126134761D01*
X120808571Y-126087142D01*
X120856190Y-125991904D01*
X120856190Y-125801428D01*
X120808571Y-125706190D01*
X120760952Y-125658571D01*
X120665714Y-125610952D01*
X118475238Y-121102380D02*
X117903809Y-121102380D01*
X118189523Y-121102380D02*
X118189523Y-120102380D01*
X118094285Y-120245238D01*
X117999047Y-120340476D01*
X117903809Y-120388095D01*
X118903809Y-121007142D02*
X118951428Y-121054761D01*
X118903809Y-121102380D01*
X118856190Y-121054761D01*
X118903809Y-121007142D01*
X118903809Y-121102380D01*
X119856190Y-120102380D02*
X119380000Y-120102380D01*
X119332380Y-120578571D01*
X119380000Y-120530952D01*
X119475238Y-120483333D01*
X119713333Y-120483333D01*
X119808571Y-120530952D01*
X119856190Y-120578571D01*
X119903809Y-120673809D01*
X119903809Y-120911904D01*
X119856190Y-121007142D01*
X119808571Y-121054761D01*
X119713333Y-121102380D01*
X119475238Y-121102380D01*
X119380000Y-121054761D01*
X119332380Y-121007142D01*
X120284761Y-120197619D02*
X120332380Y-120150000D01*
X120427619Y-120102380D01*
X120665714Y-120102380D01*
X120760952Y-120150000D01*
X120808571Y-120197619D01*
X120856190Y-120292857D01*
X120856190Y-120388095D01*
X120808571Y-120530952D01*
X120237142Y-121102380D01*
X120856190Y-121102380D01*
X118475238Y-116022380D02*
X117903809Y-116022380D01*
X118189523Y-116022380D02*
X118189523Y-115022380D01*
X118094285Y-115165238D01*
X117999047Y-115260476D01*
X117903809Y-115308095D01*
X118903809Y-115927142D02*
X118951428Y-115974761D01*
X118903809Y-116022380D01*
X118856190Y-115974761D01*
X118903809Y-115927142D01*
X118903809Y-116022380D01*
X119332380Y-115117619D02*
X119380000Y-115070000D01*
X119475238Y-115022380D01*
X119713333Y-115022380D01*
X119808571Y-115070000D01*
X119856190Y-115117619D01*
X119903809Y-115212857D01*
X119903809Y-115308095D01*
X119856190Y-115450952D01*
X119284761Y-116022380D01*
X119903809Y-116022380D01*
X120237142Y-115022380D02*
X120903809Y-115022380D01*
X120475238Y-116022380D01*
X118475238Y-110434380D02*
X117903809Y-110434380D01*
X118189523Y-110434380D02*
X118189523Y-109434380D01*
X118094285Y-109577238D01*
X117999047Y-109672476D01*
X117903809Y-109720095D01*
X118903809Y-110339142D02*
X118951428Y-110386761D01*
X118903809Y-110434380D01*
X118856190Y-110386761D01*
X118903809Y-110339142D01*
X118903809Y-110434380D01*
X119570476Y-109434380D02*
X119665714Y-109434380D01*
X119760952Y-109482000D01*
X119808571Y-109529619D01*
X119856190Y-109624857D01*
X119903809Y-109815333D01*
X119903809Y-110053428D01*
X119856190Y-110243904D01*
X119808571Y-110339142D01*
X119760952Y-110386761D01*
X119665714Y-110434380D01*
X119570476Y-110434380D01*
X119475238Y-110386761D01*
X119427619Y-110339142D01*
X119380000Y-110243904D01*
X119332380Y-110053428D01*
X119332380Y-109815333D01*
X119380000Y-109624857D01*
X119427619Y-109529619D01*
X119475238Y-109482000D01*
X119570476Y-109434380D01*
X120284761Y-109529619D02*
X120332380Y-109482000D01*
X120427619Y-109434380D01*
X120665714Y-109434380D01*
X120760952Y-109482000D01*
X120808571Y-109529619D01*
X120856190Y-109624857D01*
X120856190Y-109720095D01*
X120808571Y-109862952D01*
X120237142Y-110434380D01*
X120856190Y-110434380D01*
D11*
X125952571Y-137374380D02*
X126047809Y-137374380D01*
X126143047Y-137422000D01*
X126190666Y-137469619D01*
X126238285Y-137564857D01*
X126285904Y-137755333D01*
X126285904Y-137993428D01*
X126238285Y-138183904D01*
X126190666Y-138279142D01*
X126143047Y-138326761D01*
X126047809Y-138374380D01*
X125952571Y-138374380D01*
X125857333Y-138326761D01*
X125809714Y-138279142D01*
X125762095Y-138183904D01*
X125714476Y-137993428D01*
X125714476Y-137755333D01*
X125762095Y-137564857D01*
X125809714Y-137469619D01*
X125857333Y-137422000D01*
X125952571Y-137374380D01*
X126714476Y-138279142D02*
X126762095Y-138326761D01*
X126714476Y-138374380D01*
X126666857Y-138326761D01*
X126714476Y-138279142D01*
X126714476Y-138374380D01*
X127381142Y-137374380D02*
X127476380Y-137374380D01*
X127571619Y-137422000D01*
X127619238Y-137469619D01*
X127666857Y-137564857D01*
X127714476Y-137755333D01*
X127714476Y-137993428D01*
X127666857Y-138183904D01*
X127619238Y-138279142D01*
X127571619Y-138326761D01*
X127476380Y-138374380D01*
X127381142Y-138374380D01*
X127285904Y-138326761D01*
X127238285Y-138279142D01*
X127190666Y-138183904D01*
X127143047Y-137993428D01*
X127143047Y-137755333D01*
X127190666Y-137564857D01*
X127238285Y-137469619D01*
X127285904Y-137422000D01*
X127381142Y-137374380D01*
X128619238Y-137374380D02*
X128143047Y-137374380D01*
X128095428Y-137850571D01*
X128143047Y-137802952D01*
X128238285Y-137755333D01*
X128476380Y-137755333D01*
X128571619Y-137802952D01*
X128619238Y-137850571D01*
X128666857Y-137945809D01*
X128666857Y-138183904D01*
X128619238Y-138279142D01*
X128571619Y-138326761D01*
X128476380Y-138374380D01*
X128238285Y-138374380D01*
X128143047Y-138326761D01*
X128095428Y-138279142D01*
X129095428Y-138374380D02*
X129095428Y-137707714D01*
X129095428Y-137802952D02*
X129143047Y-137755333D01*
X129238285Y-137707714D01*
X129381142Y-137707714D01*
X129476380Y-137755333D01*
X129524000Y-137850571D01*
X129524000Y-138374380D01*
X129524000Y-137850571D02*
X129571619Y-137755333D01*
X129666857Y-137707714D01*
X129809714Y-137707714D01*
X129904952Y-137755333D01*
X129952571Y-137850571D01*
X129952571Y-138374380D01*
X130428761Y-138374380D02*
X130428761Y-137707714D01*
X130428761Y-137802952D02*
X130476380Y-137755333D01*
X130571619Y-137707714D01*
X130714476Y-137707714D01*
X130809714Y-137755333D01*
X130857333Y-137850571D01*
X130857333Y-138374380D01*
X130857333Y-137850571D02*
X130904952Y-137755333D01*
X131000190Y-137707714D01*
X131143047Y-137707714D01*
X131238285Y-137755333D01*
X131285904Y-137850571D01*
X131285904Y-138374380D01*
X132588380Y-137374380D02*
X132683619Y-137374380D01*
X132778857Y-137422000D01*
X132826476Y-137469619D01*
X132874095Y-137564857D01*
X132921714Y-137755333D01*
X132921714Y-137993428D01*
X132874095Y-138183904D01*
X132826476Y-138279142D01*
X132778857Y-138326761D01*
X132683619Y-138374380D01*
X132588380Y-138374380D01*
X132493142Y-138326761D01*
X132445523Y-138279142D01*
X132397904Y-138183904D01*
X132350285Y-137993428D01*
X132350285Y-137755333D01*
X132397904Y-137564857D01*
X132445523Y-137469619D01*
X132493142Y-137422000D01*
X132588380Y-137374380D01*
X133350285Y-138279142D02*
X133397904Y-138326761D01*
X133350285Y-138374380D01*
X133302666Y-138326761D01*
X133350285Y-138279142D01*
X133350285Y-138374380D01*
X134016952Y-137374380D02*
X134112190Y-137374380D01*
X134207428Y-137422000D01*
X134255047Y-137469619D01*
X134302666Y-137564857D01*
X134350285Y-137755333D01*
X134350285Y-137993428D01*
X134302666Y-138183904D01*
X134255047Y-138279142D01*
X134207428Y-138326761D01*
X134112190Y-138374380D01*
X134016952Y-138374380D01*
X133921714Y-138326761D01*
X133874095Y-138279142D01*
X133826476Y-138183904D01*
X133778857Y-137993428D01*
X133778857Y-137755333D01*
X133826476Y-137564857D01*
X133874095Y-137469619D01*
X133921714Y-137422000D01*
X134016952Y-137374380D01*
X134683619Y-137374380D02*
X135350285Y-137374380D01*
X134921714Y-138374380D01*
X136207428Y-137374380D02*
X135731238Y-137374380D01*
X135683619Y-137850571D01*
X135731238Y-137802952D01*
X135826476Y-137755333D01*
X136064571Y-137755333D01*
X136159809Y-137802952D01*
X136207428Y-137850571D01*
X136255047Y-137945809D01*
X136255047Y-138183904D01*
X136207428Y-138279142D01*
X136159809Y-138326761D01*
X136064571Y-138374380D01*
X135826476Y-138374380D01*
X135731238Y-138326761D01*
X135683619Y-138279142D01*
X136683619Y-138374380D02*
X136683619Y-137707714D01*
X136683619Y-137802952D02*
X136731238Y-137755333D01*
X136826476Y-137707714D01*
X136969333Y-137707714D01*
X137064571Y-137755333D01*
X137112190Y-137850571D01*
X137112190Y-138374380D01*
X137112190Y-137850571D02*
X137159809Y-137755333D01*
X137255047Y-137707714D01*
X137397904Y-137707714D01*
X137493142Y-137755333D01*
X137540761Y-137850571D01*
X137540761Y-138374380D01*
X138016952Y-138374380D02*
X138016952Y-137707714D01*
X138016952Y-137802952D02*
X138064571Y-137755333D01*
X138159809Y-137707714D01*
X138302666Y-137707714D01*
X138397904Y-137755333D01*
X138445523Y-137850571D01*
X138445523Y-138374380D01*
X138445523Y-137850571D02*
X138493142Y-137755333D01*
X138588380Y-137707714D01*
X138731238Y-137707714D01*
X138826476Y-137755333D01*
X138874095Y-137850571D01*
X138874095Y-138374380D01*
X140906761Y-137374380D02*
X141002000Y-137374380D01*
X141097238Y-137422000D01*
X141144857Y-137469619D01*
X141192476Y-137564857D01*
X141240095Y-137755333D01*
X141240095Y-137993428D01*
X141192476Y-138183904D01*
X141144857Y-138279142D01*
X141097238Y-138326761D01*
X141002000Y-138374380D01*
X140906761Y-138374380D01*
X140811523Y-138326761D01*
X140763904Y-138279142D01*
X140716285Y-138183904D01*
X140668666Y-137993428D01*
X140668666Y-137755333D01*
X140716285Y-137564857D01*
X140763904Y-137469619D01*
X140811523Y-137422000D01*
X140906761Y-137374380D01*
X141668666Y-138279142D02*
X141716285Y-138326761D01*
X141668666Y-138374380D01*
X141621047Y-138326761D01*
X141668666Y-138279142D01*
X141668666Y-138374380D01*
X142668666Y-138374380D02*
X142097238Y-138374380D01*
X142382952Y-138374380D02*
X142382952Y-137374380D01*
X142287714Y-137517238D01*
X142192476Y-137612476D01*
X142097238Y-137660095D01*
X143097238Y-138374380D02*
X143097238Y-137707714D01*
X143097238Y-137802952D02*
X143144857Y-137755333D01*
X143240095Y-137707714D01*
X143382952Y-137707714D01*
X143478190Y-137755333D01*
X143525809Y-137850571D01*
X143525809Y-138374380D01*
X143525809Y-137850571D02*
X143573428Y-137755333D01*
X143668666Y-137707714D01*
X143811523Y-137707714D01*
X143906761Y-137755333D01*
X143954380Y-137850571D01*
X143954380Y-138374380D01*
X144430571Y-138374380D02*
X144430571Y-137707714D01*
X144430571Y-137802952D02*
X144478190Y-137755333D01*
X144573428Y-137707714D01*
X144716285Y-137707714D01*
X144811523Y-137755333D01*
X144859142Y-137850571D01*
X144859142Y-138374380D01*
X144859142Y-137850571D02*
X144906761Y-137755333D01*
X145002000Y-137707714D01*
X145144857Y-137707714D01*
X145240095Y-137755333D01*
X145287714Y-137850571D01*
X145287714Y-138374380D01*
X138176380Y-109180380D02*
X138271619Y-109180380D01*
X138366857Y-109228000D01*
X138414476Y-109275619D01*
X138462095Y-109370857D01*
X138509714Y-109561333D01*
X138509714Y-109799428D01*
X138462095Y-109989904D01*
X138414476Y-110085142D01*
X138366857Y-110132761D01*
X138271619Y-110180380D01*
X138176380Y-110180380D01*
X138081142Y-110132761D01*
X138033523Y-110085142D01*
X137985904Y-109989904D01*
X137938285Y-109799428D01*
X137938285Y-109561333D01*
X137985904Y-109370857D01*
X138033523Y-109275619D01*
X138081142Y-109228000D01*
X138176380Y-109180380D01*
X138938285Y-110085142D02*
X138985904Y-110132761D01*
X138938285Y-110180380D01*
X138890666Y-110132761D01*
X138938285Y-110085142D01*
X138938285Y-110180380D01*
X139938285Y-110180380D02*
X139366857Y-110180380D01*
X139652571Y-110180380D02*
X139652571Y-109180380D01*
X139557333Y-109323238D01*
X139462095Y-109418476D01*
X139366857Y-109466095D01*
X140319238Y-109275619D02*
X140366857Y-109228000D01*
X140462095Y-109180380D01*
X140700190Y-109180380D01*
X140795428Y-109228000D01*
X140843047Y-109275619D01*
X140890666Y-109370857D01*
X140890666Y-109466095D01*
X140843047Y-109608952D01*
X140271619Y-110180380D01*
X140890666Y-110180380D01*
X141795428Y-109180380D02*
X141319238Y-109180380D01*
X141271619Y-109656571D01*
X141319238Y-109608952D01*
X141414476Y-109561333D01*
X141652571Y-109561333D01*
X141747809Y-109608952D01*
X141795428Y-109656571D01*
X141843047Y-109751809D01*
X141843047Y-109989904D01*
X141795428Y-110085142D01*
X141747809Y-110132761D01*
X141652571Y-110180380D01*
X141414476Y-110180380D01*
X141319238Y-110132761D01*
X141271619Y-110085142D01*
X142271619Y-110180380D02*
X142271619Y-109513714D01*
X142271619Y-109608952D02*
X142319238Y-109561333D01*
X142414476Y-109513714D01*
X142557333Y-109513714D01*
X142652571Y-109561333D01*
X142700190Y-109656571D01*
X142700190Y-110180380D01*
X142700190Y-109656571D02*
X142747809Y-109561333D01*
X142843047Y-109513714D01*
X142985904Y-109513714D01*
X143081142Y-109561333D01*
X143128761Y-109656571D01*
X143128761Y-110180380D01*
X143604952Y-110180380D02*
X143604952Y-109513714D01*
X143604952Y-109608952D02*
X143652571Y-109561333D01*
X143747809Y-109513714D01*
X143890666Y-109513714D01*
X143985904Y-109561333D01*
X144033523Y-109656571D01*
X144033523Y-110180380D01*
X144033523Y-109656571D02*
X144081142Y-109561333D01*
X144176380Y-109513714D01*
X144319238Y-109513714D01*
X144414476Y-109561333D01*
X144462095Y-109656571D01*
X144462095Y-110180380D01*
X132778761Y-109180380D02*
X132874000Y-109180380D01*
X132969238Y-109228000D01*
X133016857Y-109275619D01*
X133064476Y-109370857D01*
X133112095Y-109561333D01*
X133112095Y-109799428D01*
X133064476Y-109989904D01*
X133016857Y-110085142D01*
X132969238Y-110132761D01*
X132874000Y-110180380D01*
X132778761Y-110180380D01*
X132683523Y-110132761D01*
X132635904Y-110085142D01*
X132588285Y-109989904D01*
X132540666Y-109799428D01*
X132540666Y-109561333D01*
X132588285Y-109370857D01*
X132635904Y-109275619D01*
X132683523Y-109228000D01*
X132778761Y-109180380D01*
X133540666Y-110085142D02*
X133588285Y-110132761D01*
X133540666Y-110180380D01*
X133493047Y-110132761D01*
X133540666Y-110085142D01*
X133540666Y-110180380D01*
X133969238Y-109275619D02*
X134016857Y-109228000D01*
X134112095Y-109180380D01*
X134350190Y-109180380D01*
X134445428Y-109228000D01*
X134493047Y-109275619D01*
X134540666Y-109370857D01*
X134540666Y-109466095D01*
X134493047Y-109608952D01*
X133921619Y-110180380D01*
X134540666Y-110180380D01*
X134969238Y-110180380D02*
X134969238Y-109513714D01*
X134969238Y-109608952D02*
X135016857Y-109561333D01*
X135112095Y-109513714D01*
X135254952Y-109513714D01*
X135350190Y-109561333D01*
X135397809Y-109656571D01*
X135397809Y-110180380D01*
X135397809Y-109656571D02*
X135445428Y-109561333D01*
X135540666Y-109513714D01*
X135683523Y-109513714D01*
X135778761Y-109561333D01*
X135826380Y-109656571D01*
X135826380Y-110180380D01*
X136302571Y-110180380D02*
X136302571Y-109513714D01*
X136302571Y-109608952D02*
X136350190Y-109561333D01*
X136445428Y-109513714D01*
X136588285Y-109513714D01*
X136683523Y-109561333D01*
X136731142Y-109656571D01*
X136731142Y-110180380D01*
X136731142Y-109656571D02*
X136778761Y-109561333D01*
X136874000Y-109513714D01*
X137016857Y-109513714D01*
X137112095Y-109561333D01*
X137159714Y-109656571D01*
X137159714Y-110180380D01*
X125952571Y-109180380D02*
X126047809Y-109180380D01*
X126143047Y-109228000D01*
X126190666Y-109275619D01*
X126238285Y-109370857D01*
X126285904Y-109561333D01*
X126285904Y-109799428D01*
X126238285Y-109989904D01*
X126190666Y-110085142D01*
X126143047Y-110132761D01*
X126047809Y-110180380D01*
X125952571Y-110180380D01*
X125857333Y-110132761D01*
X125809714Y-110085142D01*
X125762095Y-109989904D01*
X125714476Y-109799428D01*
X125714476Y-109561333D01*
X125762095Y-109370857D01*
X125809714Y-109275619D01*
X125857333Y-109228000D01*
X125952571Y-109180380D01*
X126714476Y-110085142D02*
X126762095Y-110132761D01*
X126714476Y-110180380D01*
X126666857Y-110132761D01*
X126714476Y-110085142D01*
X126714476Y-110180380D01*
X127143047Y-109275619D02*
X127190666Y-109228000D01*
X127285904Y-109180380D01*
X127524000Y-109180380D01*
X127619238Y-109228000D01*
X127666857Y-109275619D01*
X127714476Y-109370857D01*
X127714476Y-109466095D01*
X127666857Y-109608952D01*
X127095428Y-110180380D01*
X127714476Y-110180380D01*
X128619238Y-109180380D02*
X128143047Y-109180380D01*
X128095428Y-109656571D01*
X128143047Y-109608952D01*
X128238285Y-109561333D01*
X128476380Y-109561333D01*
X128571619Y-109608952D01*
X128619238Y-109656571D01*
X128666857Y-109751809D01*
X128666857Y-109989904D01*
X128619238Y-110085142D01*
X128571619Y-110132761D01*
X128476380Y-110180380D01*
X128238285Y-110180380D01*
X128143047Y-110132761D01*
X128095428Y-110085142D01*
X129095428Y-110180380D02*
X129095428Y-109513714D01*
X129095428Y-109608952D02*
X129143047Y-109561333D01*
X129238285Y-109513714D01*
X129381142Y-109513714D01*
X129476380Y-109561333D01*
X129524000Y-109656571D01*
X129524000Y-110180380D01*
X129524000Y-109656571D02*
X129571619Y-109561333D01*
X129666857Y-109513714D01*
X129809714Y-109513714D01*
X129904952Y-109561333D01*
X129952571Y-109656571D01*
X129952571Y-110180380D01*
X130428761Y-110180380D02*
X130428761Y-109513714D01*
X130428761Y-109608952D02*
X130476380Y-109561333D01*
X130571619Y-109513714D01*
X130714476Y-109513714D01*
X130809714Y-109561333D01*
X130857333Y-109656571D01*
X130857333Y-110180380D01*
X130857333Y-109656571D02*
X130904952Y-109561333D01*
X131000190Y-109513714D01*
X131143047Y-109513714D01*
X131238285Y-109561333D01*
X131285904Y-109656571D01*
X131285904Y-110180380D01*
D12*
X123085714Y-133825000D02*
X123157142Y-133896428D01*
X123228571Y-134110714D01*
X123228571Y-134253571D01*
X123157142Y-134467857D01*
X123014285Y-134610714D01*
X122871428Y-134682142D01*
X122585714Y-134753571D01*
X122371428Y-134753571D01*
X122085714Y-134682142D01*
X121942857Y-134610714D01*
X121800000Y-134467857D01*
X121728571Y-134253571D01*
X121728571Y-134110714D01*
X121800000Y-133896428D01*
X121871428Y-133825000D01*
X123157142Y-132610714D02*
X123228571Y-132753571D01*
X123228571Y-133039285D01*
X123157142Y-133182142D01*
X123014285Y-133253571D01*
X122442857Y-133253571D01*
X122300000Y-133182142D01*
X122228571Y-133039285D01*
X122228571Y-132753571D01*
X122300000Y-132610714D01*
X122442857Y-132539285D01*
X122585714Y-132539285D01*
X122728571Y-133253571D01*
X123228571Y-131896428D02*
X121728571Y-131896428D01*
X121728571Y-131539285D01*
X121800000Y-131325000D01*
X121942857Y-131182142D01*
X122085714Y-131110714D01*
X122371428Y-131039285D01*
X122585714Y-131039285D01*
X122871428Y-131110714D01*
X123014285Y-131182142D01*
X123157142Y-131325000D01*
X123228571Y-131539285D01*
X123228571Y-131896428D01*
X123157142Y-129825000D02*
X123228571Y-129967857D01*
X123228571Y-130253571D01*
X123157142Y-130396428D01*
X123014285Y-130467857D01*
X122442857Y-130467857D01*
X122300000Y-130396428D01*
X122228571Y-130253571D01*
X122228571Y-129967857D01*
X122300000Y-129825000D01*
X122442857Y-129753571D01*
X122585714Y-129753571D01*
X122728571Y-130467857D01*
X123228571Y-128253571D02*
X122514285Y-128753571D01*
X123228571Y-129110714D02*
X121728571Y-129110714D01*
X121728571Y-128539285D01*
X121800000Y-128396428D01*
X121871428Y-128325000D01*
X122014285Y-128253571D01*
X122228571Y-128253571D01*
X122371428Y-128325000D01*
X122442857Y-128396428D01*
X122514285Y-128539285D01*
X122514285Y-129110714D01*
X121728571Y-127325000D02*
X121728571Y-127039285D01*
X121800000Y-126896428D01*
X121942857Y-126753571D01*
X122228571Y-126682142D01*
X122728571Y-126682142D01*
X123014285Y-126753571D01*
X123157142Y-126896428D01*
X123228571Y-127039285D01*
X123228571Y-127325000D01*
X123157142Y-127467857D01*
X123014285Y-127610714D01*
X122728571Y-127682142D01*
X122228571Y-127682142D01*
X121942857Y-127610714D01*
X121800000Y-127467857D01*
X121728571Y-127325000D01*
X123228571Y-126039285D02*
X121728571Y-126039285D01*
X122800000Y-125539285D01*
X121728571Y-125039285D01*
X123228571Y-125039285D01*
X121728571Y-123396428D02*
X123228571Y-122896428D01*
X121728571Y-122396428D01*
X123228571Y-121896428D02*
X121728571Y-121896428D01*
X122800000Y-121253571D02*
X122800000Y-120539285D01*
X123228571Y-121396428D02*
X121728571Y-120896428D01*
X123228571Y-120396428D01*
X123157142Y-119967857D02*
X123228571Y-119753571D01*
X123228571Y-119396428D01*
X123157142Y-119253571D01*
X123085714Y-119182142D01*
X122942857Y-119110714D01*
X122800000Y-119110714D01*
X122657142Y-119182142D01*
X122585714Y-119253571D01*
X122514285Y-119396428D01*
X122442857Y-119682142D01*
X122371428Y-119825000D01*
X122300000Y-119896428D01*
X122157142Y-119967857D01*
X122014285Y-119967857D01*
X121871428Y-119896428D01*
X121800000Y-119825000D01*
X121728571Y-119682142D01*
X121728571Y-119325000D01*
X121800000Y-119110714D01*
X121728571Y-117539285D02*
X121728571Y-116682142D01*
X123228571Y-117110714D02*
X121728571Y-117110714D01*
X122442857Y-116182142D02*
X122442857Y-115682142D01*
X123228571Y-115467857D02*
X123228571Y-116182142D01*
X121728571Y-116182142D01*
X121728571Y-115467857D01*
X123157142Y-114896428D02*
X123228571Y-114682142D01*
X123228571Y-114325000D01*
X123157142Y-114182142D01*
X123085714Y-114110714D01*
X122942857Y-114039285D01*
X122800000Y-114039285D01*
X122657142Y-114110714D01*
X122585714Y-114182142D01*
X122514285Y-114325000D01*
X122442857Y-114610714D01*
X122371428Y-114753571D01*
X122300000Y-114825000D01*
X122157142Y-114896428D01*
X122014285Y-114896428D01*
X121871428Y-114825000D01*
X121800000Y-114753571D01*
X121728571Y-114610714D01*
X121728571Y-114253571D01*
X121800000Y-114039285D01*
X121728571Y-113610714D02*
X121728571Y-112753571D01*
X123228571Y-113182142D02*
X121728571Y-113182142D01*
X124421428Y-129253571D02*
X124350000Y-129182142D01*
X124278571Y-129039285D01*
X124278571Y-128682142D01*
X124350000Y-128539285D01*
X124421428Y-128467857D01*
X124564285Y-128396428D01*
X124707142Y-128396428D01*
X124921428Y-128467857D01*
X125778571Y-129325000D01*
X125778571Y-128396428D01*
X124278571Y-127467857D02*
X124278571Y-127325000D01*
X124350000Y-127182142D01*
X124421428Y-127110714D01*
X124564285Y-127039285D01*
X124850000Y-126967857D01*
X125207142Y-126967857D01*
X125492857Y-127039285D01*
X125635714Y-127110714D01*
X125707142Y-127182142D01*
X125778571Y-127325000D01*
X125778571Y-127467857D01*
X125707142Y-127610714D01*
X125635714Y-127682142D01*
X125492857Y-127753571D01*
X125207142Y-127825000D01*
X124850000Y-127825000D01*
X124564285Y-127753571D01*
X124421428Y-127682142D01*
X124350000Y-127610714D01*
X124278571Y-127467857D01*
X124421428Y-126396428D02*
X124350000Y-126325000D01*
X124278571Y-126182142D01*
X124278571Y-125825000D01*
X124350000Y-125682142D01*
X124421428Y-125610714D01*
X124564285Y-125539285D01*
X124707142Y-125539285D01*
X124921428Y-125610714D01*
X125778571Y-126467857D01*
X125778571Y-125539285D01*
X124278571Y-124610714D02*
X124278571Y-124467857D01*
X124350000Y-124325000D01*
X124421428Y-124253571D01*
X124564285Y-124182142D01*
X124850000Y-124110714D01*
X125207142Y-124110714D01*
X125492857Y-124182142D01*
X125635714Y-124253571D01*
X125707142Y-124325000D01*
X125778571Y-124467857D01*
X125778571Y-124610714D01*
X125707142Y-124753571D01*
X125635714Y-124825000D01*
X125492857Y-124896428D01*
X125207142Y-124967857D01*
X124850000Y-124967857D01*
X124564285Y-124896428D01*
X124421428Y-124825000D01*
X124350000Y-124753571D01*
X124278571Y-124610714D01*
X124278571Y-123182142D02*
X124278571Y-123039285D01*
X124350000Y-122896428D01*
X124421428Y-122825000D01*
X124564285Y-122753571D01*
X124850000Y-122682142D01*
X125207142Y-122682142D01*
X125492857Y-122753571D01*
X125635714Y-122825000D01*
X125707142Y-122896428D01*
X125778571Y-123039285D01*
X125778571Y-123182142D01*
X125707142Y-123325000D01*
X125635714Y-123396428D01*
X125492857Y-123467857D01*
X125207142Y-123539285D01*
X124850000Y-123539285D01*
X124564285Y-123467857D01*
X124421428Y-123396428D01*
X124350000Y-123325000D01*
X124278571Y-123182142D01*
X124278571Y-122182142D02*
X124278571Y-121182142D01*
X125778571Y-121825000D01*
X124421428Y-120682142D02*
X124350000Y-120610714D01*
X124278571Y-120467857D01*
X124278571Y-120110714D01*
X124350000Y-119967857D01*
X124421428Y-119896428D01*
X124564285Y-119825000D01*
X124707142Y-119825000D01*
X124921428Y-119896428D01*
X125778571Y-120753571D01*
X125778571Y-119825000D01*
X124921428Y-118967857D02*
X124850000Y-119110714D01*
X124778571Y-119182142D01*
X124635714Y-119253571D01*
X124564285Y-119253571D01*
X124421428Y-119182142D01*
X124350000Y-119110714D01*
X124278571Y-118967857D01*
X124278571Y-118682142D01*
X124350000Y-118539285D01*
X124421428Y-118467857D01*
X124564285Y-118396428D01*
X124635714Y-118396428D01*
X124778571Y-118467857D01*
X124850000Y-118539285D01*
X124921428Y-118682142D01*
X124921428Y-118967857D01*
X124992857Y-119110714D01*
X125064285Y-119182142D01*
X125207142Y-119253571D01*
X125492857Y-119253571D01*
X125635714Y-119182142D01*
X125707142Y-119110714D01*
X125778571Y-118967857D01*
X125778571Y-118682142D01*
X125707142Y-118539285D01*
X125635714Y-118467857D01*
X125492857Y-118396428D01*
X125207142Y-118396428D01*
X125064285Y-118467857D01*
X124992857Y-118539285D01*
X124921428Y-118682142D01*
X146093571Y-127753571D02*
X146093571Y-128610714D01*
X146093571Y-128182142D02*
X144593571Y-128182142D01*
X144807857Y-128325000D01*
X144950714Y-128467857D01*
X145022142Y-128610714D01*
X145950714Y-127110714D02*
X146022142Y-127039285D01*
X146093571Y-127110714D01*
X146022142Y-127182142D01*
X145950714Y-127110714D01*
X146093571Y-127110714D01*
X144736428Y-126467857D02*
X144665000Y-126396428D01*
X144593571Y-126253571D01*
X144593571Y-125896428D01*
X144665000Y-125753571D01*
X144736428Y-125682142D01*
X144879285Y-125610714D01*
X145022142Y-125610714D01*
X145236428Y-125682142D01*
X146093571Y-126539285D01*
X146093571Y-125610714D01*
X144593571Y-124253571D02*
X144593571Y-124967857D01*
X145307857Y-125039285D01*
X145236428Y-124967857D01*
X145165000Y-124825000D01*
X145165000Y-124467857D01*
X145236428Y-124325000D01*
X145307857Y-124253571D01*
X145450714Y-124182142D01*
X145807857Y-124182142D01*
X145950714Y-124253571D01*
X146022142Y-124325000D01*
X146093571Y-124467857D01*
X146093571Y-124825000D01*
X146022142Y-124967857D01*
X145950714Y-125039285D01*
X144522142Y-122467857D02*
X146450714Y-123753571D01*
X144593571Y-121682142D02*
X144593571Y-121539285D01*
X144665000Y-121396428D01*
X144736428Y-121325000D01*
X144879285Y-121253571D01*
X145165000Y-121182142D01*
X145522142Y-121182142D01*
X145807857Y-121253571D01*
X145950714Y-121325000D01*
X146022142Y-121396428D01*
X146093571Y-121539285D01*
X146093571Y-121682142D01*
X146022142Y-121825000D01*
X145950714Y-121896428D01*
X145807857Y-121967857D01*
X145522142Y-122039285D01*
X145165000Y-122039285D01*
X144879285Y-121967857D01*
X144736428Y-121896428D01*
X144665000Y-121825000D01*
X144593571Y-121682142D01*
X145950714Y-120539285D02*
X146022142Y-120467857D01*
X146093571Y-120539285D01*
X146022142Y-120610714D01*
X145950714Y-120539285D01*
X146093571Y-120539285D01*
X144593571Y-119967857D02*
X144593571Y-118967857D01*
X146093571Y-119610714D01*
X142283571Y-135294285D02*
X142283571Y-136151428D01*
X142283571Y-135722857D02*
X140783571Y-135722857D01*
X140997857Y-135865714D01*
X141140714Y-136008571D01*
X141212142Y-136151428D01*
X142140714Y-134651428D02*
X142212142Y-134580000D01*
X142283571Y-134651428D01*
X142212142Y-134722857D01*
X142140714Y-134651428D01*
X142283571Y-134651428D01*
X142283571Y-133151428D02*
X142283571Y-134008571D01*
X142283571Y-133580000D02*
X140783571Y-133580000D01*
X140997857Y-133722857D01*
X141140714Y-133865714D01*
X141212142Y-134008571D01*
X140712142Y-131437142D02*
X142640714Y-132722857D01*
X140783571Y-130651428D02*
X140783571Y-130508571D01*
X140855000Y-130365714D01*
X140926428Y-130294285D01*
X141069285Y-130222857D01*
X141355000Y-130151428D01*
X141712142Y-130151428D01*
X141997857Y-130222857D01*
X142140714Y-130294285D01*
X142212142Y-130365714D01*
X142283571Y-130508571D01*
X142283571Y-130651428D01*
X142212142Y-130794285D01*
X142140714Y-130865714D01*
X141997857Y-130937142D01*
X141712142Y-131008571D01*
X141355000Y-131008571D01*
X141069285Y-130937142D01*
X140926428Y-130865714D01*
X140855000Y-130794285D01*
X140783571Y-130651428D01*
X142140714Y-129508571D02*
X142212142Y-129437142D01*
X142283571Y-129508571D01*
X142212142Y-129580000D01*
X142140714Y-129508571D01*
X142283571Y-129508571D01*
X140783571Y-128937142D02*
X140783571Y-127937142D01*
X142283571Y-128580000D01*
X135933571Y-135294285D02*
X135933571Y-136151428D01*
X135933571Y-135722857D02*
X134433571Y-135722857D01*
X134647857Y-135865714D01*
X134790714Y-136008571D01*
X134862142Y-136151428D01*
X135790714Y-134651428D02*
X135862142Y-134580000D01*
X135933571Y-134651428D01*
X135862142Y-134722857D01*
X135790714Y-134651428D01*
X135933571Y-134651428D01*
X134433571Y-133651428D02*
X134433571Y-133508571D01*
X134505000Y-133365714D01*
X134576428Y-133294285D01*
X134719285Y-133222857D01*
X135005000Y-133151428D01*
X135362142Y-133151428D01*
X135647857Y-133222857D01*
X135790714Y-133294285D01*
X135862142Y-133365714D01*
X135933571Y-133508571D01*
X135933571Y-133651428D01*
X135862142Y-133794285D01*
X135790714Y-133865714D01*
X135647857Y-133937142D01*
X135362142Y-134008571D01*
X135005000Y-134008571D01*
X134719285Y-133937142D01*
X134576428Y-133865714D01*
X134505000Y-133794285D01*
X134433571Y-133651428D01*
X134362142Y-131437142D02*
X136290714Y-132722857D01*
X134433571Y-130651428D02*
X134433571Y-130508571D01*
X134505000Y-130365714D01*
X134576428Y-130294285D01*
X134719285Y-130222857D01*
X135005000Y-130151428D01*
X135362142Y-130151428D01*
X135647857Y-130222857D01*
X135790714Y-130294285D01*
X135862142Y-130365714D01*
X135933571Y-130508571D01*
X135933571Y-130651428D01*
X135862142Y-130794285D01*
X135790714Y-130865714D01*
X135647857Y-130937142D01*
X135362142Y-131008571D01*
X135005000Y-131008571D01*
X134719285Y-130937142D01*
X134576428Y-130865714D01*
X134505000Y-130794285D01*
X134433571Y-130651428D01*
X135790714Y-129508571D02*
X135862142Y-129437142D01*
X135933571Y-129508571D01*
X135862142Y-129580000D01*
X135790714Y-129508571D01*
X135933571Y-129508571D01*
X134433571Y-128937142D02*
X134433571Y-127937142D01*
X135933571Y-128580000D01*
X128083571Y-135794285D02*
X128083571Y-135651428D01*
X128155000Y-135508571D01*
X128226428Y-135437142D01*
X128369285Y-135365714D01*
X128655000Y-135294285D01*
X129012142Y-135294285D01*
X129297857Y-135365714D01*
X129440714Y-135437142D01*
X129512142Y-135508571D01*
X129583571Y-135651428D01*
X129583571Y-135794285D01*
X129512142Y-135937142D01*
X129440714Y-136008571D01*
X129297857Y-136080000D01*
X129012142Y-136151428D01*
X128655000Y-136151428D01*
X128369285Y-136080000D01*
X128226428Y-136008571D01*
X128155000Y-135937142D01*
X128083571Y-135794285D01*
X129440714Y-134651428D02*
X129512142Y-134580000D01*
X129583571Y-134651428D01*
X129512142Y-134722857D01*
X129440714Y-134651428D01*
X129583571Y-134651428D01*
X129583571Y-133865714D02*
X129583571Y-133580000D01*
X129512142Y-133437142D01*
X129440714Y-133365714D01*
X129226428Y-133222857D01*
X128940714Y-133151428D01*
X128369285Y-133151428D01*
X128226428Y-133222857D01*
X128155000Y-133294285D01*
X128083571Y-133437142D01*
X128083571Y-133722857D01*
X128155000Y-133865714D01*
X128226428Y-133937142D01*
X128369285Y-134008571D01*
X128726428Y-134008571D01*
X128869285Y-133937142D01*
X128940714Y-133865714D01*
X129012142Y-133722857D01*
X129012142Y-133437142D01*
X128940714Y-133294285D01*
X128869285Y-133222857D01*
X128726428Y-133151428D01*
X128012142Y-131437142D02*
X129940714Y-132722857D01*
X128083571Y-130651428D02*
X128083571Y-130508571D01*
X128155000Y-130365714D01*
X128226428Y-130294285D01*
X128369285Y-130222857D01*
X128655000Y-130151428D01*
X129012142Y-130151428D01*
X129297857Y-130222857D01*
X129440714Y-130294285D01*
X129512142Y-130365714D01*
X129583571Y-130508571D01*
X129583571Y-130651428D01*
X129512142Y-130794285D01*
X129440714Y-130865714D01*
X129297857Y-130937142D01*
X129012142Y-131008571D01*
X128655000Y-131008571D01*
X128369285Y-130937142D01*
X128226428Y-130865714D01*
X128155000Y-130794285D01*
X128083571Y-130651428D01*
X129440714Y-129508571D02*
X129512142Y-129437142D01*
X129583571Y-129508571D01*
X129512142Y-129580000D01*
X129440714Y-129508571D01*
X129583571Y-129508571D01*
X128083571Y-128937142D02*
X128083571Y-127937142D01*
X129583571Y-128580000D01*
X141648571Y-118784285D02*
X141648571Y-119641428D01*
X141648571Y-119212857D02*
X140148571Y-119212857D01*
X140362857Y-119355714D01*
X140505714Y-119498571D01*
X140577142Y-119641428D01*
X141505714Y-118141428D02*
X141577142Y-118070000D01*
X141648571Y-118141428D01*
X141577142Y-118212857D01*
X141505714Y-118141428D01*
X141648571Y-118141428D01*
X140148571Y-117141428D02*
X140148571Y-116998571D01*
X140220000Y-116855714D01*
X140291428Y-116784285D01*
X140434285Y-116712857D01*
X140720000Y-116641428D01*
X141077142Y-116641428D01*
X141362857Y-116712857D01*
X141505714Y-116784285D01*
X141577142Y-116855714D01*
X141648571Y-116998571D01*
X141648571Y-117141428D01*
X141577142Y-117284285D01*
X141505714Y-117355714D01*
X141362857Y-117427142D01*
X141077142Y-117498571D01*
X140720000Y-117498571D01*
X140434285Y-117427142D01*
X140291428Y-117355714D01*
X140220000Y-117284285D01*
X140148571Y-117141428D01*
X140077142Y-114927142D02*
X142005714Y-116212857D01*
X140148571Y-114141428D02*
X140148571Y-113998571D01*
X140220000Y-113855714D01*
X140291428Y-113784285D01*
X140434285Y-113712857D01*
X140720000Y-113641428D01*
X141077142Y-113641428D01*
X141362857Y-113712857D01*
X141505714Y-113784285D01*
X141577142Y-113855714D01*
X141648571Y-113998571D01*
X141648571Y-114141428D01*
X141577142Y-114284285D01*
X141505714Y-114355714D01*
X141362857Y-114427142D01*
X141077142Y-114498571D01*
X140720000Y-114498571D01*
X140434285Y-114427142D01*
X140291428Y-114355714D01*
X140220000Y-114284285D01*
X140148571Y-114141428D01*
X141505714Y-112998571D02*
X141577142Y-112927142D01*
X141648571Y-112998571D01*
X141577142Y-113070000D01*
X141505714Y-112998571D01*
X141648571Y-112998571D01*
X140148571Y-111641428D02*
X140148571Y-111927142D01*
X140220000Y-112070000D01*
X140291428Y-112141428D01*
X140505714Y-112284285D01*
X140791428Y-112355714D01*
X141362857Y-112355714D01*
X141505714Y-112284285D01*
X141577142Y-112212857D01*
X141648571Y-112070000D01*
X141648571Y-111784285D01*
X141577142Y-111641428D01*
X141505714Y-111570000D01*
X141362857Y-111498571D01*
X141005714Y-111498571D01*
X140862857Y-111570000D01*
X140791428Y-111641428D01*
X140720000Y-111784285D01*
X140720000Y-112070000D01*
X140791428Y-112212857D01*
X140862857Y-112284285D01*
X141005714Y-112355714D01*
X133798571Y-119284285D02*
X133798571Y-119141428D01*
X133870000Y-118998571D01*
X133941428Y-118927142D01*
X134084285Y-118855714D01*
X134370000Y-118784285D01*
X134727142Y-118784285D01*
X135012857Y-118855714D01*
X135155714Y-118927142D01*
X135227142Y-118998571D01*
X135298571Y-119141428D01*
X135298571Y-119284285D01*
X135227142Y-119427142D01*
X135155714Y-119498571D01*
X135012857Y-119570000D01*
X134727142Y-119641428D01*
X134370000Y-119641428D01*
X134084285Y-119570000D01*
X133941428Y-119498571D01*
X133870000Y-119427142D01*
X133798571Y-119284285D01*
X135155714Y-118141428D02*
X135227142Y-118070000D01*
X135298571Y-118141428D01*
X135227142Y-118212857D01*
X135155714Y-118141428D01*
X135298571Y-118141428D01*
X134441428Y-117212857D02*
X134370000Y-117355714D01*
X134298571Y-117427142D01*
X134155714Y-117498571D01*
X134084285Y-117498571D01*
X133941428Y-117427142D01*
X133870000Y-117355714D01*
X133798571Y-117212857D01*
X133798571Y-116927142D01*
X133870000Y-116784285D01*
X133941428Y-116712857D01*
X134084285Y-116641428D01*
X134155714Y-116641428D01*
X134298571Y-116712857D01*
X134370000Y-116784285D01*
X134441428Y-116927142D01*
X134441428Y-117212857D01*
X134512857Y-117355714D01*
X134584285Y-117427142D01*
X134727142Y-117498571D01*
X135012857Y-117498571D01*
X135155714Y-117427142D01*
X135227142Y-117355714D01*
X135298571Y-117212857D01*
X135298571Y-116927142D01*
X135227142Y-116784285D01*
X135155714Y-116712857D01*
X135012857Y-116641428D01*
X134727142Y-116641428D01*
X134584285Y-116712857D01*
X134512857Y-116784285D01*
X134441428Y-116927142D01*
X133727142Y-114927142D02*
X135655714Y-116212857D01*
X133798571Y-114141428D02*
X133798571Y-113998571D01*
X133870000Y-113855714D01*
X133941428Y-113784285D01*
X134084285Y-113712857D01*
X134370000Y-113641428D01*
X134727142Y-113641428D01*
X135012857Y-113712857D01*
X135155714Y-113784285D01*
X135227142Y-113855714D01*
X135298571Y-113998571D01*
X135298571Y-114141428D01*
X135227142Y-114284285D01*
X135155714Y-114355714D01*
X135012857Y-114427142D01*
X134727142Y-114498571D01*
X134370000Y-114498571D01*
X134084285Y-114427142D01*
X133941428Y-114355714D01*
X133870000Y-114284285D01*
X133798571Y-114141428D01*
X135155714Y-112998571D02*
X135227142Y-112927142D01*
X135298571Y-112998571D01*
X135227142Y-113070000D01*
X135155714Y-112998571D01*
X135298571Y-112998571D01*
X133798571Y-111641428D02*
X133798571Y-111927142D01*
X133870000Y-112070000D01*
X133941428Y-112141428D01*
X134155714Y-112284285D01*
X134441428Y-112355714D01*
X135012857Y-112355714D01*
X135155714Y-112284285D01*
X135227142Y-112212857D01*
X135298571Y-112070000D01*
X135298571Y-111784285D01*
X135227142Y-111641428D01*
X135155714Y-111570000D01*
X135012857Y-111498571D01*
X134655714Y-111498571D01*
X134512857Y-111570000D01*
X134441428Y-111641428D01*
X134370000Y-111784285D01*
X134370000Y-112070000D01*
X134441428Y-112212857D01*
X134512857Y-112284285D01*
X134655714Y-112355714D01*
X127448571Y-119284285D02*
X127448571Y-119141428D01*
X127520000Y-118998571D01*
X127591428Y-118927142D01*
X127734285Y-118855714D01*
X128020000Y-118784285D01*
X128377142Y-118784285D01*
X128662857Y-118855714D01*
X128805714Y-118927142D01*
X128877142Y-118998571D01*
X128948571Y-119141428D01*
X128948571Y-119284285D01*
X128877142Y-119427142D01*
X128805714Y-119498571D01*
X128662857Y-119570000D01*
X128377142Y-119641428D01*
X128020000Y-119641428D01*
X127734285Y-119570000D01*
X127591428Y-119498571D01*
X127520000Y-119427142D01*
X127448571Y-119284285D01*
X128805714Y-118141428D02*
X128877142Y-118070000D01*
X128948571Y-118141428D01*
X128877142Y-118212857D01*
X128805714Y-118141428D01*
X128948571Y-118141428D01*
X128091428Y-117212857D02*
X128020000Y-117355714D01*
X127948571Y-117427142D01*
X127805714Y-117498571D01*
X127734285Y-117498571D01*
X127591428Y-117427142D01*
X127520000Y-117355714D01*
X127448571Y-117212857D01*
X127448571Y-116927142D01*
X127520000Y-116784285D01*
X127591428Y-116712857D01*
X127734285Y-116641428D01*
X127805714Y-116641428D01*
X127948571Y-116712857D01*
X128020000Y-116784285D01*
X128091428Y-116927142D01*
X128091428Y-117212857D01*
X128162857Y-117355714D01*
X128234285Y-117427142D01*
X128377142Y-117498571D01*
X128662857Y-117498571D01*
X128805714Y-117427142D01*
X128877142Y-117355714D01*
X128948571Y-117212857D01*
X128948571Y-116927142D01*
X128877142Y-116784285D01*
X128805714Y-116712857D01*
X128662857Y-116641428D01*
X128377142Y-116641428D01*
X128234285Y-116712857D01*
X128162857Y-116784285D01*
X128091428Y-116927142D01*
X127377142Y-114927142D02*
X129305714Y-116212857D01*
X127448571Y-114141428D02*
X127448571Y-113998571D01*
X127520000Y-113855714D01*
X127591428Y-113784285D01*
X127734285Y-113712857D01*
X128020000Y-113641428D01*
X128377142Y-113641428D01*
X128662857Y-113712857D01*
X128805714Y-113784285D01*
X128877142Y-113855714D01*
X128948571Y-113998571D01*
X128948571Y-114141428D01*
X128877142Y-114284285D01*
X128805714Y-114355714D01*
X128662857Y-114427142D01*
X128377142Y-114498571D01*
X128020000Y-114498571D01*
X127734285Y-114427142D01*
X127591428Y-114355714D01*
X127520000Y-114284285D01*
X127448571Y-114141428D01*
X128805714Y-112998571D02*
X128877142Y-112927142D01*
X128948571Y-112998571D01*
X128877142Y-113070000D01*
X128805714Y-112998571D01*
X128948571Y-112998571D01*
X127948571Y-111641428D02*
X128948571Y-111641428D01*
X127377142Y-111998571D02*
X128448571Y-112355714D01*
X128448571Y-111427142D01*
D13*
%TO.N,*%
X127000000Y-120650000D03*
X130175000Y-120650000D03*
X136525000Y-120650000D03*
X133350000Y-120650000D03*
D14*
X142875000Y-120650000D03*
D15*
X130175000Y-127000000D03*
D14*
X133350000Y-127000000D03*
X136525000Y-127000000D03*
D16*
X142875000Y-127000000D03*
D17*
X139700000Y-123825000D03*
X136525000Y-123825000D03*
X130175000Y-123825000D03*
D14*
X139700000Y-120650000D03*
D15*
X127000000Y-127000000D03*
D16*
X139700000Y-127000000D03*
D17*
X133350000Y-123825000D03*
%TD*%
D18*
%TO.N,*%
X143510000Y-123825000D02*
X140970000Y-123825000D01*
X140970000Y-123825000D02*
X141605000Y-124460000D01*
X140970000Y-123825000D02*
X141605000Y-123190000D01*
X129540000Y-120015000D02*
X130175000Y-120650000D01*
X132080000Y-119634000D02*
X129540000Y-119634000D01*
X132080000Y-119126000D02*
X132080000Y-119634000D01*
X129540000Y-119126000D02*
X132080000Y-119126000D01*
X129540000Y-118618000D02*
X129540000Y-119126000D01*
X132080000Y-118618000D02*
X129540000Y-118618000D01*
X132080000Y-118110000D02*
X132080000Y-118618000D01*
X129540000Y-118110000D02*
X132080000Y-118110000D01*
X129540000Y-117602000D02*
X129540000Y-118110000D01*
X129540000Y-119634000D02*
X129540000Y-120015000D01*
X132080000Y-116586000D02*
X129794000Y-116586000D01*
X132080000Y-116078000D02*
X132080000Y-116586000D01*
X129794000Y-116078000D02*
X132080000Y-116078000D01*
X129794000Y-115824000D02*
X129794000Y-116078000D01*
X129540000Y-115570000D02*
X129794000Y-115824000D01*
X132080000Y-115570000D02*
X129540000Y-115570000D01*
X129540000Y-115062000D02*
X132080000Y-115062000D01*
X126746000Y-111506000D02*
X124460000Y-111506000D01*
X132080000Y-114046000D02*
X132080000Y-114554000D01*
X129540000Y-117094000D02*
X132080000Y-117094000D01*
X132080000Y-113538000D02*
X129540000Y-113538000D01*
X132080000Y-113030000D02*
X132080000Y-113538000D01*
X124460000Y-117094000D02*
X126746000Y-117094000D01*
X129540000Y-113030000D02*
X132080000Y-113030000D01*
X126746000Y-114554000D02*
X124460000Y-114554000D01*
X132080000Y-114554000D02*
X129540000Y-114554000D01*
X129794000Y-116586000D02*
X129794000Y-116840000D01*
X129540000Y-113538000D02*
X129540000Y-114046000D01*
X132080000Y-112522000D02*
X129540000Y-112522000D01*
X132080000Y-112014000D02*
X132080000Y-112522000D01*
X126746000Y-114046000D02*
X126746000Y-113538000D01*
X127000000Y-119888000D02*
X126746000Y-119634000D01*
X132080000Y-111506000D02*
X129540000Y-111506000D01*
X126746000Y-117602000D02*
X124460000Y-117602000D01*
X132080000Y-115062000D02*
X132080000Y-115570000D01*
X129540000Y-114554000D02*
X129540000Y-115062000D01*
X124460000Y-111506000D02*
X124460000Y-110744000D01*
X129540000Y-114046000D02*
X132080000Y-114046000D01*
X124460000Y-112522000D02*
X124460000Y-112014000D01*
X132080000Y-110744000D02*
X132080000Y-111506000D01*
X126746000Y-112522000D02*
X124460000Y-112522000D01*
X126746000Y-113030000D02*
X126746000Y-112522000D01*
X126746000Y-113538000D02*
X124460000Y-113538000D01*
X124460000Y-113538000D02*
X124460000Y-113030000D01*
X126746000Y-117094000D02*
X126746000Y-116586000D01*
X126746000Y-116078000D02*
X126746000Y-115570000D01*
X124460000Y-114554000D02*
X124460000Y-114046000D01*
X129540000Y-111506000D02*
X129540000Y-112014000D01*
X132080000Y-117094000D02*
X132080000Y-117602000D01*
X126746000Y-115570000D02*
X124460000Y-115570000D01*
X124460000Y-110744000D02*
X132080000Y-110744000D01*
X126746000Y-115062000D02*
X126746000Y-114554000D01*
X129794000Y-116840000D02*
X129540000Y-117094000D01*
X129540000Y-112522000D02*
X129540000Y-113030000D01*
X132080000Y-117602000D02*
X129540000Y-117602000D01*
X124460000Y-115062000D02*
X126746000Y-115062000D01*
X124460000Y-116586000D02*
X124460000Y-116078000D01*
X124460000Y-114046000D02*
X126746000Y-114046000D01*
X124460000Y-116078000D02*
X126746000Y-116078000D01*
X124460000Y-117602000D02*
X124460000Y-117094000D01*
X126746000Y-116586000D02*
X124460000Y-116586000D01*
X127000000Y-120650000D02*
X127000000Y-119888000D01*
X124460000Y-115570000D02*
X124460000Y-115062000D01*
X129540000Y-112014000D02*
X132080000Y-112014000D01*
X124460000Y-112014000D02*
X126746000Y-112014000D01*
X126746000Y-112014000D02*
X126746000Y-111506000D01*
X126746000Y-119634000D02*
X126746000Y-117602000D01*
X124460000Y-113030000D02*
X126746000Y-113030000D01*
D19*
X136398000Y-120523000D02*
X136525000Y-120650000D01*
X135890000Y-120142000D02*
X136398000Y-120142000D01*
X135890000Y-119888000D02*
X135890000Y-120142000D01*
X137160000Y-119888000D02*
X135890000Y-119888000D01*
X137160000Y-119380000D02*
X135890000Y-119380000D01*
X137160000Y-119126000D02*
X137160000Y-119380000D01*
X137160000Y-118872000D02*
X135890000Y-118872000D01*
X137160000Y-118618000D02*
X137160000Y-118872000D01*
X137160000Y-118364000D02*
X135890000Y-118364000D01*
X137160000Y-118110000D02*
X137160000Y-118364000D01*
X135890000Y-118110000D02*
X137160000Y-118110000D01*
X135890000Y-117856000D02*
X135890000Y-118110000D01*
X137160000Y-117602000D02*
X137160000Y-117856000D01*
X137160000Y-117348000D02*
X135890000Y-117348000D01*
X132588000Y-113030000D02*
X133350000Y-113030000D01*
X135890000Y-116840000D02*
X135890000Y-117094000D01*
X137160000Y-116840000D02*
X135890000Y-116840000D01*
X136047243Y-116436828D02*
X136196415Y-116586000D01*
X133288156Y-118618000D02*
X132588000Y-118618000D01*
X137160000Y-116332000D02*
X136117129Y-116332000D01*
X136117129Y-116332000D02*
X136047243Y-116436828D01*
X137160000Y-116586000D02*
X137160000Y-116840000D01*
X136144000Y-116078000D02*
X137160000Y-116078000D01*
X137160000Y-117094000D02*
X137160000Y-117348000D01*
X137160000Y-115824000D02*
X136178251Y-115824000D01*
X137160000Y-115570000D02*
X137160000Y-115824000D01*
X135890000Y-115570000D02*
X137160000Y-115570000D01*
X135890000Y-115316000D02*
X135890000Y-115570000D01*
X135890000Y-114554000D02*
X137160000Y-114554000D01*
X135890000Y-117348000D02*
X135890000Y-117602000D01*
X137160000Y-114554000D02*
X137160000Y-114808000D01*
X133350000Y-112522000D02*
X132588000Y-112522000D01*
X135890000Y-114300000D02*
X135890000Y-114554000D01*
X135890000Y-113792000D02*
X135890000Y-114046000D01*
X135890000Y-117602000D02*
X137160000Y-117602000D01*
X136178251Y-115824000D02*
X136060428Y-115941823D01*
X137160000Y-113792000D02*
X135890000Y-113792000D01*
X133350000Y-120650000D02*
X133350000Y-119634000D01*
X135890000Y-113538000D02*
X137160000Y-113538000D01*
X135890000Y-114808000D02*
X135890000Y-115062000D01*
X135890000Y-112014000D02*
X137160000Y-112014000D01*
X135890000Y-113284000D02*
X135890000Y-113538000D01*
X137160000Y-113284000D02*
X135890000Y-113284000D01*
X137160000Y-115062000D02*
X137160000Y-115316000D01*
X133148632Y-114554000D02*
X132588000Y-114554000D01*
X137160000Y-113030000D02*
X137160000Y-113284000D01*
X135890000Y-112776000D02*
X135890000Y-113030000D01*
X137160000Y-112776000D02*
X135890000Y-112776000D01*
X136398000Y-120142000D02*
X136398000Y-120523000D01*
X137160000Y-112522000D02*
X137160000Y-112776000D01*
X135890000Y-112522000D02*
X137160000Y-112522000D01*
X135890000Y-112268000D02*
X135890000Y-112522000D01*
X137160000Y-119634000D02*
X137160000Y-119888000D01*
X132588000Y-111506000D02*
X132588000Y-110744000D01*
X137160000Y-116078000D02*
X137160000Y-116332000D01*
X135890000Y-113030000D02*
X137160000Y-113030000D01*
X137160000Y-112268000D02*
X135890000Y-112268000D01*
X135890000Y-111760000D02*
X135890000Y-112014000D01*
X137160000Y-111760000D02*
X135890000Y-111760000D01*
X135890000Y-118618000D02*
X137160000Y-118618000D01*
X132588000Y-114046000D02*
X133348561Y-114046000D01*
X137160000Y-111252000D02*
X135890000Y-111252000D01*
X133350000Y-115570000D02*
X132588000Y-115570000D01*
X137160000Y-110744000D02*
X137160000Y-111252000D01*
X132588000Y-110744000D02*
X137160000Y-110744000D01*
X133348561Y-116587439D02*
X133347122Y-116586000D01*
X132588000Y-112014000D02*
X133350000Y-112014000D01*
X136196415Y-116586000D02*
X137160000Y-116586000D01*
X133350000Y-113030000D02*
X133350000Y-112522000D01*
X136060428Y-115941823D02*
X136060428Y-115994428D01*
X137160000Y-111506000D02*
X137160000Y-111760000D01*
X135890000Y-111506000D02*
X137160000Y-111506000D01*
X133348561Y-113539439D02*
X133347122Y-113538000D01*
X132588000Y-118618000D02*
X132588000Y-118110000D01*
X132588000Y-114554000D02*
X132588000Y-114046000D01*
X133096000Y-111506000D02*
X132588000Y-111506000D01*
X135890000Y-111252000D02*
X135890000Y-111506000D01*
X133249316Y-114832616D02*
X133249316Y-114654684D01*
X137160000Y-113538000D02*
X137160000Y-113792000D01*
X133350000Y-112014000D02*
X133096000Y-111760000D01*
X137160000Y-115316000D02*
X135890000Y-115316000D01*
X135890000Y-118364000D02*
X135890000Y-118618000D01*
X133096000Y-111760000D02*
X133096000Y-111506000D01*
X133347122Y-113538000D02*
X132588000Y-113538000D01*
X132588000Y-116078000D02*
X133350000Y-116078000D01*
X133348561Y-114046000D02*
X133348561Y-113539439D01*
X132588000Y-115570000D02*
X132588000Y-115062000D01*
X135890000Y-119380000D02*
X135890000Y-119634000D01*
X135890000Y-117094000D02*
X137160000Y-117094000D01*
X135890000Y-119126000D02*
X137160000Y-119126000D01*
X133295193Y-115062000D02*
X133249316Y-114832616D01*
X137160000Y-114808000D02*
X135890000Y-114808000D01*
X133348561Y-117094000D02*
X133348561Y-116587439D01*
X132588000Y-112522000D02*
X132588000Y-112014000D01*
X132588000Y-117094000D02*
X133348561Y-117094000D01*
X135890000Y-115062000D02*
X137160000Y-115062000D01*
X133347122Y-116586000D02*
X132588000Y-116586000D01*
X132588000Y-118110000D02*
X133350000Y-118110000D01*
X137160000Y-114046000D02*
X137160000Y-114300000D01*
X135890000Y-118872000D02*
X135890000Y-119126000D01*
X135890000Y-114046000D02*
X137160000Y-114046000D01*
X132588000Y-115062000D02*
X133295193Y-115062000D01*
X133350000Y-117602000D02*
X132588000Y-117602000D01*
X136060428Y-115994428D02*
X136144000Y-116078000D01*
X133350000Y-116078000D02*
X133350000Y-115570000D01*
X132588000Y-117602000D02*
X132588000Y-117094000D01*
X133350000Y-119634000D02*
X132588000Y-119634000D01*
X132588000Y-119634000D02*
X132588000Y-119126000D01*
X137160000Y-117856000D02*
X135890000Y-117856000D01*
X133350000Y-118110000D02*
X133350000Y-117602000D01*
X133319078Y-118648922D02*
X133288156Y-118618000D01*
X132588000Y-113538000D02*
X132588000Y-113030000D01*
X133249316Y-114654684D02*
X133148632Y-114554000D01*
X137160000Y-112014000D02*
X137160000Y-112268000D01*
X132588000Y-116586000D02*
X132588000Y-116078000D01*
X133319078Y-119126000D02*
X133319078Y-118648922D01*
X137160000Y-114300000D02*
X135890000Y-114300000D01*
X135890000Y-119634000D02*
X137160000Y-119634000D01*
X132588000Y-119126000D02*
X133319078Y-119126000D01*
D20*
X142367000Y-120142000D02*
X142875000Y-120650000D01*
X142240000Y-119888000D02*
X142240000Y-120142000D01*
X144181061Y-119888000D02*
X142240000Y-119888000D01*
X144181061Y-119634000D02*
X144181061Y-119888000D01*
X142240000Y-119634000D02*
X144181061Y-119634000D01*
X144181061Y-119380000D02*
X142240000Y-119380000D01*
X142240000Y-119126000D02*
X144181061Y-119126000D01*
X142315010Y-118796990D02*
X142240000Y-118872000D01*
X144181061Y-118796990D02*
X142315010Y-118796990D01*
X142240000Y-118618000D02*
X144002071Y-118618000D01*
X142240000Y-118364000D02*
X142240000Y-118618000D01*
X144780000Y-118110000D02*
X144780000Y-118364000D01*
X142240000Y-118110000D02*
X144780000Y-118110000D01*
X142240000Y-117856000D02*
X142240000Y-118110000D01*
X142240000Y-117348000D02*
X142240000Y-117602000D01*
X142240000Y-117094000D02*
X144780000Y-117094000D01*
X142240000Y-116840000D02*
X142240000Y-117094000D01*
X144780000Y-116586000D02*
X144780000Y-116840000D01*
X142422061Y-116332000D02*
X142366042Y-116416027D01*
X142494000Y-116078000D02*
X144780000Y-116078000D01*
X142240000Y-119380000D02*
X142240000Y-119634000D01*
X142463342Y-116047342D02*
X142494000Y-116078000D01*
X142393289Y-116047342D02*
X142463342Y-116047342D01*
X142240000Y-115873272D02*
X142376702Y-115964407D01*
X142240000Y-115824000D02*
X142240000Y-115873272D01*
X144780000Y-115824000D02*
X142240000Y-115824000D01*
X142240000Y-115316000D02*
X142240000Y-115570000D01*
X144780000Y-115062000D02*
X144780000Y-115316000D01*
X144780000Y-114554000D02*
X144780000Y-114808000D01*
X142240000Y-114554000D02*
X144780000Y-114554000D01*
X142240000Y-114300000D02*
X142240000Y-114554000D01*
X144780000Y-114300000D02*
X142240000Y-114300000D01*
X142240000Y-111252000D02*
X142240000Y-111506000D01*
X137668000Y-111252000D02*
X137668000Y-110744000D01*
X142240000Y-114046000D02*
X144780000Y-114046000D01*
X144780000Y-113792000D02*
X142240000Y-113792000D01*
X142240000Y-113538000D02*
X144780000Y-113538000D01*
X142240000Y-112776000D02*
X142240000Y-113030000D01*
X144780000Y-112014000D02*
X144780000Y-112268000D01*
X142240000Y-111760000D02*
X142240000Y-112014000D01*
X144780000Y-113284000D02*
X142240000Y-113284000D01*
X144780000Y-118364000D02*
X142240000Y-118364000D01*
X144737985Y-116543985D02*
X144780000Y-116586000D01*
X137668000Y-119888000D02*
X137668000Y-119634000D01*
X144780000Y-111506000D02*
X144780000Y-111760000D01*
X137668000Y-110744000D02*
X144780000Y-110744000D01*
X144780000Y-113538000D02*
X144780000Y-113792000D01*
X139700000Y-111760000D02*
X137668000Y-111760000D01*
X139700000Y-118364000D02*
X137668000Y-118364000D01*
X144780000Y-112268000D02*
X142240000Y-112268000D01*
X144780000Y-110744000D02*
X144780000Y-111252000D01*
X144780000Y-114808000D02*
X142240000Y-114808000D01*
X139700000Y-116332000D02*
X137668000Y-116332000D01*
X137668000Y-111760000D02*
X137668000Y-111506000D01*
X137668000Y-112014000D02*
X139700000Y-112014000D01*
X137668000Y-112268000D02*
X137668000Y-112014000D01*
X142240000Y-114808000D02*
X142240000Y-115062000D01*
X137668000Y-114046000D02*
X139700000Y-114046000D01*
X142240000Y-113284000D02*
X142240000Y-113538000D01*
X142240000Y-111506000D02*
X144780000Y-111506000D01*
X139700000Y-112268000D02*
X137668000Y-112268000D01*
X139700000Y-111252000D02*
X137668000Y-111252000D01*
X137668000Y-113030000D02*
X139700000Y-113030000D01*
X139700000Y-112776000D02*
X137668000Y-112776000D01*
X139700000Y-113030000D02*
X139700000Y-112776000D01*
X144780000Y-115570000D02*
X144780000Y-115824000D01*
X142240000Y-112268000D02*
X142240000Y-112522000D01*
X137668000Y-113284000D02*
X137668000Y-113030000D01*
X139700000Y-113284000D02*
X137668000Y-113284000D01*
X137668000Y-113792000D02*
X137668000Y-113538000D01*
X139700000Y-113792000D02*
X137668000Y-113792000D01*
X139700000Y-114046000D02*
X139700000Y-113792000D01*
X137668000Y-114300000D02*
X137668000Y-114046000D01*
X139700000Y-114554000D02*
X139700000Y-114300000D01*
X142240000Y-115570000D02*
X144780000Y-115570000D01*
X144780000Y-115316000D02*
X142240000Y-115316000D01*
X137668000Y-118110000D02*
X139700000Y-118110000D01*
X137668000Y-114808000D02*
X137668000Y-114554000D01*
X139700000Y-117348000D02*
X137668000Y-117348000D01*
X139700000Y-113538000D02*
X139700000Y-113284000D01*
X142366042Y-116416027D02*
X142494000Y-116543985D01*
X144780000Y-114046000D02*
X144780000Y-114300000D01*
X137668000Y-114554000D02*
X139700000Y-114554000D01*
X139446000Y-114808000D02*
X137668000Y-114808000D01*
X137668000Y-115316000D02*
X137668000Y-115062000D01*
X142240000Y-113792000D02*
X142240000Y-114046000D01*
X137668000Y-116078000D02*
X139700000Y-116078000D01*
X144780000Y-116840000D02*
X142240000Y-116840000D01*
X137668000Y-117094000D02*
X139700000Y-117094000D01*
X139700000Y-115316000D02*
X137668000Y-115316000D01*
X137668000Y-117602000D02*
X139700000Y-117602000D01*
X139700000Y-115570000D02*
X139700000Y-115316000D01*
X139700000Y-119888000D02*
X137668000Y-119888000D01*
X137668000Y-115570000D02*
X139700000Y-115570000D01*
X144780000Y-111252000D02*
X142240000Y-111252000D01*
X137668000Y-115824000D02*
X137668000Y-115570000D01*
X137668000Y-116332000D02*
X137668000Y-116078000D01*
X137668000Y-111506000D02*
X139700000Y-111506000D01*
X144780000Y-117856000D02*
X142240000Y-117856000D01*
X139700000Y-115824000D02*
X137668000Y-115824000D01*
X139700000Y-114300000D02*
X137668000Y-114300000D01*
X139700000Y-117094000D02*
X139700000Y-116840000D01*
X144780000Y-112522000D02*
X144780000Y-112776000D01*
X137668000Y-112522000D02*
X139700000Y-112522000D01*
X142240000Y-118872000D02*
X142240000Y-119126000D01*
X139683436Y-115062000D02*
X139679295Y-115041295D01*
X142240000Y-112522000D02*
X144780000Y-112522000D01*
X144002071Y-118618000D02*
X144181061Y-118796990D01*
X137668000Y-113538000D02*
X139700000Y-113538000D01*
X139700000Y-116586000D02*
X139700000Y-116332000D01*
X144780000Y-116078000D02*
X144780000Y-116332000D01*
X142376702Y-115964407D02*
X142393289Y-116047342D01*
X139700000Y-120650000D02*
X139700000Y-119888000D01*
X137668000Y-116840000D02*
X137668000Y-116586000D01*
X139700000Y-116840000D02*
X137668000Y-116840000D01*
X144780000Y-117602000D02*
X144780000Y-117856000D01*
X139700000Y-117602000D02*
X139700000Y-117348000D01*
X137668000Y-118364000D02*
X137668000Y-118110000D01*
X142240000Y-120142000D02*
X142367000Y-120142000D01*
X137668000Y-117348000D02*
X137668000Y-117094000D01*
X137668000Y-119634000D02*
X139700000Y-119634000D01*
X137668000Y-119126000D02*
X139700000Y-119126000D01*
X137668000Y-119380000D02*
X137668000Y-119126000D01*
X144780000Y-113030000D02*
X144780000Y-113284000D01*
X142240000Y-117602000D02*
X144780000Y-117602000D01*
X144780000Y-112776000D02*
X142240000Y-112776000D01*
X139700000Y-119634000D02*
X139700000Y-119380000D01*
X139700000Y-112522000D02*
X139700000Y-112268000D01*
X139700000Y-112014000D02*
X139700000Y-111760000D01*
X139700000Y-118872000D02*
X137668000Y-118872000D01*
X142494000Y-116543985D02*
X144737985Y-116543985D01*
X139700000Y-117856000D02*
X137668000Y-117856000D01*
X144181061Y-119126000D02*
X144181061Y-119380000D01*
X142240000Y-113030000D02*
X144780000Y-113030000D01*
X144780000Y-117348000D02*
X142240000Y-117348000D01*
X137668000Y-117856000D02*
X137668000Y-117602000D01*
X139700000Y-118110000D02*
X139700000Y-117856000D01*
X137668000Y-115062000D02*
X139683436Y-115062000D01*
X139700000Y-119126000D02*
X139700000Y-118872000D01*
X139700000Y-116078000D02*
X139700000Y-115824000D01*
X144780000Y-116332000D02*
X142422061Y-116332000D01*
X139700000Y-118618000D02*
X139700000Y-118364000D01*
X137668000Y-118618000D02*
X139700000Y-118618000D01*
X137668000Y-118872000D02*
X137668000Y-118618000D01*
X139679295Y-115041295D02*
X139446000Y-114808000D01*
X142240000Y-112014000D02*
X144780000Y-112014000D01*
X139700000Y-119380000D02*
X137668000Y-119380000D01*
X144780000Y-117094000D02*
X144780000Y-117348000D01*
X144780000Y-111760000D02*
X142240000Y-111760000D01*
X142240000Y-115062000D02*
X144780000Y-115062000D01*
X139700000Y-111506000D02*
X139700000Y-111252000D01*
X137668000Y-112776000D02*
X137668000Y-112522000D01*
X137668000Y-116586000D02*
X139700000Y-116586000D01*
D21*
X142875000Y-127000000D02*
X142875000Y-129413000D01*
X142875000Y-129413000D02*
X143002000Y-129540000D01*
X143002000Y-129540000D02*
X147320000Y-129540000D01*
X147320000Y-129540000D02*
X147320000Y-129794000D01*
X147320000Y-129794000D02*
X142748000Y-129794000D01*
X142748000Y-129794000D02*
X142748000Y-130048000D01*
X142748000Y-130048000D02*
X147320000Y-130048000D01*
X147320000Y-130048000D02*
X147320000Y-130302000D01*
X147320000Y-130302000D02*
X142748000Y-130302000D01*
X142748000Y-130302000D02*
X142748000Y-130556000D01*
X142748000Y-130556000D02*
X147320000Y-130556000D01*
X147320000Y-130556000D02*
X147320000Y-130810000D01*
X147320000Y-130810000D02*
X142748000Y-130810000D01*
X142748000Y-130810000D02*
X142748000Y-131064000D01*
X142748000Y-131064000D02*
X147320000Y-131064000D01*
X147320000Y-131064000D02*
X147320000Y-131318000D01*
X147320000Y-131318000D02*
X142748000Y-131318000D01*
X142748000Y-131318000D02*
X142748000Y-131572000D01*
X142748000Y-131572000D02*
X147320000Y-131572000D01*
X147320000Y-131572000D02*
X147320000Y-131826000D01*
X147320000Y-131826000D02*
X142748000Y-131826000D01*
X142748000Y-131826000D02*
X142748000Y-132080000D01*
X142748000Y-132080000D02*
X147320000Y-132080000D01*
X147320000Y-132080000D02*
X147320000Y-132334000D01*
X143256000Y-132334000D02*
X143018394Y-132571606D01*
X147320000Y-132334000D02*
X143256000Y-132334000D01*
X143018394Y-132571606D02*
X147303606Y-132571606D01*
X147303606Y-132571606D02*
X147320000Y-132588000D01*
X147320000Y-132588000D02*
X147320000Y-132842000D01*
X147320000Y-132842000D02*
X143042037Y-132842000D01*
X143042037Y-132842000D02*
X143002000Y-132902054D01*
X143002000Y-132902054D02*
X143002000Y-133096000D01*
X143002000Y-133096000D02*
X147320000Y-133096000D01*
X147320000Y-133096000D02*
X147320000Y-133350000D01*
X147320000Y-133350000D02*
X142748000Y-133350000D01*
X142748000Y-133350000D02*
X142748000Y-133604000D01*
X142748000Y-133604000D02*
X147320000Y-133604000D01*
X147320000Y-133604000D02*
X147320000Y-133858000D01*
X147320000Y-133858000D02*
X142748000Y-133858000D01*
X142748000Y-133858000D02*
X142748000Y-134112000D01*
X142748000Y-134112000D02*
X147320000Y-134112000D01*
X147320000Y-134112000D02*
X147320000Y-134366000D01*
X147320000Y-134366000D02*
X142748000Y-134366000D01*
X142748000Y-134366000D02*
X142748000Y-134620000D01*
X142748000Y-134620000D02*
X147320000Y-134620000D01*
X147320000Y-134620000D02*
X147320000Y-134874000D01*
X147320000Y-134874000D02*
X142748000Y-134874000D01*
X142748000Y-134874000D02*
X142748000Y-135128000D01*
X142748000Y-135128000D02*
X147320000Y-135128000D01*
X147320000Y-135128000D02*
X147320000Y-135382000D01*
X147320000Y-135382000D02*
X142748000Y-135382000D01*
X142748000Y-135382000D02*
X142748000Y-135636000D01*
X142748000Y-135636000D02*
X147320000Y-135636000D01*
X147320000Y-135636000D02*
X147320000Y-135890000D01*
X147320000Y-135890000D02*
X142748000Y-135890000D01*
X142748000Y-135890000D02*
X142748000Y-136144000D01*
X142748000Y-136144000D02*
X147320000Y-136144000D01*
X147320000Y-136144000D02*
X147320000Y-136398000D01*
X147320000Y-136398000D02*
X142748000Y-136398000D01*
X142748000Y-136398000D02*
X142748000Y-136652000D01*
X142748000Y-136652000D02*
X147320000Y-136652000D01*
X147320000Y-136652000D02*
X147320000Y-136906000D01*
X147320000Y-136906000D02*
X137922000Y-136906000D01*
X137922000Y-136906000D02*
X137922000Y-136652000D01*
X137922000Y-136652000D02*
X140462000Y-136652000D01*
X140462000Y-136652000D02*
X140462000Y-136398000D01*
X140462000Y-136398000D02*
X137922000Y-136398000D01*
X137922000Y-136398000D02*
X137922000Y-136144000D01*
X137922000Y-136144000D02*
X140462000Y-136144000D01*
X140462000Y-135989228D02*
X140423825Y-135963778D01*
X140462000Y-136144000D02*
X140462000Y-135989228D01*
X140423825Y-135963778D02*
X137995778Y-135963778D01*
X137995778Y-135963778D02*
X137922000Y-135890000D01*
X137922000Y-135890000D02*
X137922000Y-135636000D01*
X137922000Y-135636000D02*
X140360724Y-135636000D01*
X140360724Y-135636000D02*
X140462000Y-135484087D01*
X140462000Y-135484087D02*
X138024087Y-135484087D01*
X138024087Y-135484087D02*
X137922000Y-135382000D01*
X137922000Y-135382000D02*
X137922000Y-135128000D01*
X137922000Y-135128000D02*
X140462000Y-135128000D01*
X140462000Y-135128000D02*
X140462000Y-134874000D01*
X140462000Y-134874000D02*
X137922000Y-134874000D01*
X137922000Y-134874000D02*
X137922000Y-134620000D01*
X137922000Y-134620000D02*
X140462000Y-134620000D01*
X140462000Y-134620000D02*
X140462000Y-134366000D01*
X140462000Y-134366000D02*
X137922000Y-134366000D01*
X137922000Y-134366000D02*
X137922000Y-134112000D01*
X137922000Y-134112000D02*
X140462000Y-134112000D01*
X140462000Y-134112000D02*
X140462000Y-133858000D01*
X140462000Y-133858000D02*
X137922000Y-133858000D01*
X137922000Y-133858000D02*
X137922000Y-133604000D01*
X137922000Y-133604000D02*
X140380441Y-133604000D01*
X140380441Y-133604000D02*
X140358836Y-133495976D01*
X140358836Y-133495976D02*
X140457952Y-133347302D01*
X140457952Y-133347302D02*
X140455254Y-133350000D01*
X140455254Y-133350000D02*
X137922000Y-133350000D01*
X137922000Y-133350000D02*
X137922000Y-133096000D01*
X137922000Y-133096000D02*
X140462000Y-133096000D01*
X140462000Y-133096000D02*
X140462000Y-132842000D01*
X140462000Y-132842000D02*
X137922000Y-132842000D01*
X137922000Y-132842000D02*
X137922000Y-132588000D01*
X137922000Y-132588000D02*
X140462000Y-132588000D01*
X140462000Y-132588000D02*
X140462000Y-132334000D01*
X140462000Y-132334000D02*
X137922000Y-132334000D01*
X137922000Y-132334000D02*
X137922000Y-132080000D01*
X137922000Y-132080000D02*
X140462000Y-132080000D01*
X140462000Y-132080000D02*
X140462000Y-131826000D01*
X140462000Y-131826000D02*
X137922000Y-131826000D01*
X137922000Y-131826000D02*
X137922000Y-131572000D01*
X137922000Y-131572000D02*
X140331184Y-131572000D01*
X140331184Y-131572000D02*
X140298480Y-131408480D01*
X140298480Y-131408480D02*
X140208000Y-131318000D01*
X140208000Y-131318000D02*
X137922000Y-131318000D01*
X137922000Y-131318000D02*
X137922000Y-131064000D01*
X137922000Y-131064000D02*
X140462000Y-131064000D01*
X140462000Y-130966982D02*
X140454991Y-130959972D01*
X140462000Y-131064000D02*
X140462000Y-130966982D01*
X140454991Y-130959972D02*
X140357972Y-130959972D01*
X140357972Y-130959972D02*
X140208000Y-130810000D01*
X140208000Y-130810000D02*
X137922000Y-130810000D01*
X137922000Y-130810000D02*
X137922000Y-130556000D01*
X137922000Y-130556000D02*
X140170443Y-130556000D01*
X140170443Y-130556000D02*
X140383561Y-130342882D01*
X140383561Y-130342882D02*
X140342679Y-130302000D01*
X140342679Y-130302000D02*
X137922000Y-130302000D01*
X137922000Y-130302000D02*
X137922000Y-130048000D01*
X137922000Y-130048000D02*
X140462000Y-130048000D01*
X140462000Y-130048000D02*
X140462000Y-129794000D01*
X140462000Y-129794000D02*
X137922000Y-129794000D01*
X137922000Y-129794000D02*
X137922000Y-129540000D01*
X137922000Y-129540000D02*
X140462000Y-129540000D01*
X140462000Y-129540000D02*
X140462000Y-129286000D01*
X140462000Y-129286000D02*
X137922000Y-129286000D01*
X137922000Y-129286000D02*
X137922000Y-129032000D01*
X137922000Y-129032000D02*
X140383561Y-129032000D01*
X140383561Y-129032000D02*
X140383561Y-128778000D01*
X140383561Y-128778000D02*
X137922000Y-128778000D01*
X137922000Y-128778000D02*
X137922000Y-128524000D01*
X137922000Y-128524000D02*
X140383561Y-128524000D01*
X140383561Y-128524000D02*
X140383561Y-128270000D01*
X140383561Y-128270000D02*
X137922000Y-128270000D01*
X137922000Y-128270000D02*
X137922000Y-128016000D01*
X137922000Y-128016000D02*
X140383561Y-128016000D01*
X140383561Y-128016000D02*
X140383561Y-127771453D01*
X140383561Y-127771453D02*
X140374108Y-127762000D01*
X140374108Y-127762000D02*
X139954000Y-127762000D01*
X139954000Y-127762000D02*
X139700000Y-127508000D01*
X139700000Y-127508000D02*
X139700000Y-127000000D01*
D22*
X136525000Y-127000000D02*
X136525000Y-127889000D01*
X136525000Y-127889000D02*
X136652000Y-128016000D01*
X136652000Y-128016000D02*
X137668000Y-128016000D01*
X137668000Y-128016000D02*
X137668000Y-128270000D01*
X137668000Y-128270000D02*
X136398000Y-128270000D01*
X136398000Y-128270000D02*
X136398000Y-128524000D01*
X136398000Y-128524000D02*
X137668000Y-128524000D01*
X137668000Y-128524000D02*
X137668000Y-128778000D01*
X137668000Y-128778000D02*
X136398000Y-128778000D01*
X136398000Y-128778000D02*
X136398000Y-129032000D01*
X136398000Y-129032000D02*
X137668000Y-129032000D01*
X137668000Y-129032000D02*
X137668000Y-129286000D01*
X137668000Y-129286000D02*
X136398000Y-129286000D01*
X136398000Y-129286000D02*
X136398000Y-129540000D01*
X136398000Y-129540000D02*
X137668000Y-129540000D01*
X137668000Y-129540000D02*
X137668000Y-129794000D01*
X137668000Y-129794000D02*
X136398000Y-129794000D01*
X136398000Y-129794000D02*
X136398000Y-130048000D01*
X136398000Y-130048000D02*
X137668000Y-130048000D01*
X137668000Y-130048000D02*
X137668000Y-130302000D01*
X137668000Y-130302000D02*
X136398000Y-130302000D01*
X136398000Y-130302000D02*
X136398000Y-130556000D01*
X136398000Y-130556000D02*
X137668000Y-130556000D01*
X137668000Y-130556000D02*
X137668000Y-130810000D01*
X137668000Y-130810000D02*
X136398000Y-130810000D01*
X136398000Y-130810000D02*
X136398000Y-131064000D01*
X136398000Y-131064000D02*
X137668000Y-131064000D01*
X137668000Y-131064000D02*
X137668000Y-131318000D01*
X137668000Y-131318000D02*
X136398000Y-131318000D01*
X136398000Y-131318000D02*
X136398000Y-131572000D01*
X136398000Y-131572000D02*
X137668000Y-131572000D01*
X137668000Y-131572000D02*
X137668000Y-131826000D01*
X137668000Y-131826000D02*
X136398000Y-131826000D01*
X136398000Y-131826000D02*
X136398000Y-132080000D01*
X136398000Y-132080000D02*
X137668000Y-132080000D01*
X137668000Y-132080000D02*
X137668000Y-132334000D01*
X137668000Y-132334000D02*
X136406020Y-132334000D01*
X136639218Y-132489465D02*
X136737753Y-132588000D01*
X136406020Y-132334000D02*
X136639218Y-132489465D01*
X136737753Y-132588000D02*
X137668000Y-132588000D01*
X137668000Y-132588000D02*
X137668000Y-132842000D01*
X137668000Y-132842000D02*
X136677013Y-132842000D01*
X136677013Y-132842000D02*
X136652000Y-132867013D01*
X136677013Y-132842000D02*
X136524106Y-133071361D01*
X136524106Y-133071361D02*
X136398112Y-133096559D01*
X136398112Y-133096559D02*
X137667441Y-133096559D01*
X137667441Y-133096559D02*
X137668000Y-133097118D01*
X137668000Y-133097118D02*
X137668000Y-133350000D01*
X137668000Y-133350000D02*
X136398000Y-133350000D01*
X136398000Y-133350000D02*
X136398000Y-133604000D01*
X136398000Y-133604000D02*
X137668000Y-133604000D01*
X137668000Y-133604000D02*
X137668000Y-133858000D01*
X137668000Y-133858000D02*
X136398000Y-133858000D01*
X136398000Y-133858000D02*
X136398000Y-134112000D01*
X136398000Y-134112000D02*
X137668000Y-134112000D01*
X137668000Y-134112000D02*
X137668000Y-134366000D01*
X137668000Y-134366000D02*
X136398000Y-134366000D01*
X136398000Y-134366000D02*
X136398000Y-134620000D01*
X136398000Y-134620000D02*
X137668000Y-134620000D01*
X137668000Y-134620000D02*
X137668000Y-134874000D01*
X137668000Y-134874000D02*
X136398000Y-134874000D01*
X136398000Y-134874000D02*
X136398000Y-135128000D01*
X136398000Y-135128000D02*
X137668000Y-135128000D01*
X137668000Y-135128000D02*
X137668000Y-135382000D01*
X137668000Y-135382000D02*
X136398000Y-135382000D01*
X136398000Y-135382000D02*
X136398000Y-135636000D01*
X136398000Y-135636000D02*
X137668000Y-135636000D01*
X137668000Y-135636000D02*
X137668000Y-135890000D01*
X137668000Y-135890000D02*
X136398000Y-135890000D01*
X136398000Y-135890000D02*
X136398000Y-136144000D01*
X136398000Y-136144000D02*
X137668000Y-136144000D01*
X137668000Y-136144000D02*
X137668000Y-136398000D01*
X137668000Y-136398000D02*
X136398000Y-136398000D01*
X136398000Y-136398000D02*
X136398000Y-136652000D01*
X136398000Y-136652000D02*
X137668000Y-136652000D01*
X137668000Y-136652000D02*
X137668000Y-136906000D01*
X137668000Y-136906000D02*
X132334000Y-136906000D01*
X132334000Y-136906000D02*
X132334000Y-136652000D01*
X132334000Y-136652000D02*
X134112000Y-136652000D01*
X134112000Y-136652000D02*
X134112000Y-136398000D01*
X134112000Y-136398000D02*
X132334000Y-136398000D01*
X132334000Y-136398000D02*
X132334000Y-136144000D01*
X132334000Y-136144000D02*
X134112000Y-136144000D01*
X134112000Y-135974206D02*
X134085067Y-135956250D01*
X134112000Y-136144000D02*
X134112000Y-135974206D01*
X134085067Y-135956250D02*
X132400250Y-135956250D01*
X132400250Y-135956250D02*
X132334000Y-135890000D01*
X132334000Y-135890000D02*
X132334000Y-135636000D01*
X132334000Y-135636000D02*
X134025747Y-135636000D01*
X134025747Y-135636000D02*
X134112000Y-135506621D01*
X134112000Y-135506621D02*
X134112000Y-135382000D01*
X134112000Y-135382000D02*
X132334000Y-135382000D01*
X132334000Y-135382000D02*
X132334000Y-135128000D01*
X132334000Y-135128000D02*
X134112000Y-135128000D01*
X134112000Y-135128000D02*
X134112000Y-134874000D01*
X134112000Y-134874000D02*
X132334000Y-134874000D01*
X132334000Y-134874000D02*
X132334000Y-134620000D01*
X132334000Y-134620000D02*
X134112000Y-134620000D01*
X134112000Y-134620000D02*
X134112000Y-134366000D01*
X134112000Y-134366000D02*
X132334000Y-134366000D01*
X132334000Y-134366000D02*
X132334000Y-134112000D01*
X132334000Y-134112000D02*
X134112000Y-134112000D01*
X134112000Y-134112000D02*
X134112000Y-133877878D01*
X134112000Y-133877878D02*
X134092122Y-133858000D01*
X134092122Y-133858000D02*
X132334000Y-133858000D01*
X132334000Y-133858000D02*
X132334000Y-133604000D01*
X132334000Y-133604000D02*
X134040910Y-133604000D01*
X134040910Y-133555997D02*
X134015190Y-133478836D01*
X134040910Y-133604000D02*
X134040910Y-133555997D01*
X134015190Y-133478836D02*
X134086086Y-133337044D01*
X134086086Y-133337044D02*
X134073130Y-133350000D01*
X134073130Y-133350000D02*
X132334000Y-133350000D01*
X132334000Y-133350000D02*
X132334000Y-133096000D01*
X132334000Y-133096000D02*
X134112000Y-133096000D01*
X134112000Y-133096000D02*
X134112000Y-132842000D01*
X134112000Y-132842000D02*
X132334000Y-132842000D01*
X132334000Y-132842000D02*
X132334000Y-132588000D01*
X132334000Y-132588000D02*
X134112000Y-132588000D01*
X134112000Y-132588000D02*
X134112000Y-132334000D01*
X134112000Y-132334000D02*
X132334000Y-132334000D01*
X132334000Y-132334000D02*
X132334000Y-132080000D01*
X132334000Y-132080000D02*
X134112000Y-132080000D01*
X134112000Y-132080000D02*
X134112000Y-131826000D01*
X134112000Y-131826000D02*
X132334000Y-131826000D01*
X132334000Y-131826000D02*
X132334000Y-131572000D01*
X133734424Y-131572000D02*
X133950680Y-131355744D01*
X132334000Y-131572000D02*
X133734424Y-131572000D01*
X133950680Y-131355744D02*
X134017736Y-131255159D01*
X134017736Y-131255159D02*
X133954895Y-131318000D01*
X133954895Y-131318000D02*
X132334000Y-131318000D01*
X132334000Y-131318000D02*
X132334000Y-131064000D01*
X132334000Y-131064000D02*
X134112000Y-131064000D01*
X134112000Y-131064000D02*
X134112000Y-130877878D01*
X134112000Y-130877878D02*
X134044122Y-130810000D01*
X134044122Y-130810000D02*
X132334000Y-130810000D01*
X132334000Y-130810000D02*
X132334000Y-130556000D01*
X132334000Y-130556000D02*
X133838121Y-130556000D01*
X133838121Y-130556000D02*
X134046061Y-130348060D01*
X134046061Y-130348060D02*
X134000001Y-130302000D01*
X134000001Y-130302000D02*
X132334000Y-130302000D01*
X132334000Y-130302000D02*
X132334000Y-130048000D01*
X132334000Y-130048000D02*
X134112000Y-130048000D01*
X134112000Y-130048000D02*
X134112000Y-129794000D01*
X134112000Y-129794000D02*
X132334000Y-129794000D01*
X132334000Y-129794000D02*
X132334000Y-129540000D01*
X132334000Y-129540000D02*
X134112000Y-129540000D01*
X134112000Y-129540000D02*
X134112000Y-129286000D01*
X134112000Y-129286000D02*
X132334000Y-129286000D01*
X132334000Y-129286000D02*
X132334000Y-129032000D01*
X132334000Y-129032000D02*
X134046061Y-129032000D01*
X134046061Y-129032000D02*
X134046061Y-128778000D01*
X134046061Y-128778000D02*
X132334000Y-128778000D01*
X132334000Y-128778000D02*
X132334000Y-128524000D01*
X132334000Y-128524000D02*
X134046061Y-128524000D01*
X134046061Y-128524000D02*
X134046061Y-128270000D01*
X134046061Y-128270000D02*
X132334000Y-128270000D01*
X132334000Y-128270000D02*
X132334000Y-128016000D01*
X132334000Y-128016000D02*
X134046061Y-128016000D01*
X134046061Y-128016000D02*
X134046061Y-127776631D01*
X134046061Y-127776631D02*
X134031430Y-127762000D01*
X134031430Y-127762000D02*
X133604000Y-127762000D01*
X133604000Y-127762000D02*
X133350000Y-127508000D01*
X133350000Y-127508000D02*
X133350000Y-127000000D01*
D23*
X127508000Y-128016000D02*
X127508000Y-127762000D01*
X126238000Y-128016000D02*
X127508000Y-128016000D01*
X127508000Y-128270000D02*
X126238000Y-128270000D01*
X126238000Y-128524000D02*
X127508000Y-128524000D01*
X126238000Y-128778000D02*
X126238000Y-128524000D01*
X126238000Y-129032000D02*
X127508000Y-129032000D01*
X127508000Y-129540000D02*
X127508000Y-129286000D01*
X126238000Y-129540000D02*
X127508000Y-129540000D01*
X127508000Y-129794000D02*
X126238000Y-129794000D01*
X124460000Y-130048000D02*
X127508000Y-130048000D01*
X124460000Y-130302000D02*
X124460000Y-130048000D01*
X127508000Y-130302000D02*
X124460000Y-130302000D01*
X127508000Y-130556000D02*
X127508000Y-130302000D01*
X127508000Y-129032000D02*
X127508000Y-128778000D01*
X124460000Y-130810000D02*
X124460000Y-130556000D01*
X127508000Y-130810000D02*
X124460000Y-130810000D01*
X127508000Y-127762000D02*
X127000000Y-127762000D01*
X124460000Y-131064000D02*
X127508000Y-131064000D01*
X127508000Y-131572000D02*
X127508000Y-131318000D01*
X124460000Y-131826000D02*
X124460000Y-131572000D01*
X127508000Y-131826000D02*
X124460000Y-131826000D01*
X127508000Y-132080000D02*
X127508000Y-131826000D01*
X124460000Y-132080000D02*
X127508000Y-132080000D01*
X124460000Y-132334000D02*
X124460000Y-132080000D01*
X127508000Y-132334000D02*
X124460000Y-132334000D01*
X127508000Y-132588000D02*
X127508000Y-132334000D01*
X124460000Y-132588000D02*
X127508000Y-132588000D01*
X124460000Y-132842000D02*
X124460000Y-132588000D01*
X127508000Y-131318000D02*
X124460000Y-131318000D01*
X124460000Y-133096000D02*
X127508000Y-133096000D01*
X124460000Y-133350000D02*
X124460000Y-133096000D01*
X127508000Y-129286000D02*
X126238000Y-129286000D01*
X127508000Y-133350000D02*
X124460000Y-133350000D01*
X127508000Y-133604000D02*
X127508000Y-133350000D01*
X124460000Y-133858000D02*
X124460000Y-133604000D01*
X127508000Y-133858000D02*
X124460000Y-133858000D01*
X127000000Y-127762000D02*
X127000000Y-127000000D01*
X127508000Y-134112000D02*
X127508000Y-133858000D01*
X124460000Y-134366000D02*
X124460000Y-134112000D01*
X127508000Y-134366000D02*
X124460000Y-134366000D01*
X127508000Y-134874000D02*
X124460000Y-134874000D01*
X132080000Y-128016000D02*
X132080000Y-128270000D01*
X130048000Y-133858000D02*
X130048000Y-134112000D01*
X132080000Y-134874000D02*
X130048000Y-134874000D01*
X124460000Y-135128000D02*
X127508000Y-135128000D01*
X127508000Y-133096000D02*
X127508000Y-132842000D01*
X124460000Y-135382000D02*
X124460000Y-135128000D01*
X124460000Y-133604000D02*
X127508000Y-133604000D01*
X127508000Y-135636000D02*
X127508000Y-135382000D01*
X132080000Y-131826000D02*
X130048000Y-131826000D01*
X124460000Y-135890000D02*
X124460000Y-135636000D01*
X124460000Y-135636000D02*
X127508000Y-135636000D01*
X127508000Y-136144000D02*
X127508000Y-135890000D01*
X132080000Y-130556000D02*
X132080000Y-130810000D01*
X130048000Y-130048000D02*
X132080000Y-130048000D01*
X124460000Y-134874000D02*
X124460000Y-134620000D01*
X127508000Y-136652000D02*
X127508000Y-136398000D01*
X124460000Y-136652000D02*
X127508000Y-136652000D01*
X132080000Y-136906000D02*
X124460000Y-136906000D01*
X130048000Y-136398000D02*
X130048000Y-136652000D01*
X132080000Y-135890000D02*
X129958581Y-135890000D01*
X132080000Y-132334000D02*
X130048000Y-132334000D01*
X130048000Y-136144000D02*
X132080000Y-136144000D01*
X132080000Y-131064000D02*
X132080000Y-131318000D01*
X132080000Y-135636000D02*
X132080000Y-135890000D01*
X130048000Y-135382000D02*
X130048000Y-135636000D01*
X132080000Y-135382000D02*
X130048000Y-135382000D01*
X127508000Y-134620000D02*
X127508000Y-134366000D01*
X132080000Y-136652000D02*
X132080000Y-136906000D01*
X132080000Y-135128000D02*
X132080000Y-135382000D01*
X130048000Y-135128000D02*
X132080000Y-135128000D01*
X124460000Y-134112000D02*
X127508000Y-134112000D01*
X132080000Y-134620000D02*
X132080000Y-134874000D01*
X124460000Y-134620000D02*
X127508000Y-134620000D01*
X126238000Y-129794000D02*
X126238000Y-129540000D01*
X132080000Y-134112000D02*
X132080000Y-134366000D01*
X130048000Y-134112000D02*
X132080000Y-134112000D01*
X132080000Y-133858000D02*
X130048000Y-133858000D01*
X130302000Y-132842000D02*
X130302000Y-133096000D01*
X132080000Y-134366000D02*
X130048000Y-134366000D01*
X132080000Y-133604000D02*
X132080000Y-133858000D01*
X127508000Y-128778000D02*
X126238000Y-128778000D01*
X127508000Y-130048000D02*
X127508000Y-129794000D01*
X132080000Y-133350000D02*
X130048000Y-133350000D01*
X132080000Y-129540000D02*
X132080000Y-129794000D01*
X132080000Y-132080000D02*
X132080000Y-132334000D01*
X130302000Y-133096000D02*
X132080000Y-133096000D01*
X130302000Y-132521016D02*
X132013016Y-132521016D01*
X130048000Y-134874000D02*
X130048000Y-135128000D01*
X130077025Y-132363025D02*
X130277977Y-132496993D01*
X130048000Y-132080000D02*
X132080000Y-132080000D01*
X124460000Y-130556000D02*
X127508000Y-130556000D01*
X124460000Y-136398000D02*
X124460000Y-136144000D01*
X130048000Y-132334000D02*
X130077025Y-132363025D01*
X129958581Y-136054581D02*
X130048000Y-136144000D01*
X130048000Y-134366000D02*
X130048000Y-134620000D01*
X130048000Y-128270000D02*
X130048000Y-128524000D01*
X132080000Y-131572000D02*
X132080000Y-131826000D01*
X130048000Y-131826000D02*
X130048000Y-132080000D01*
X132013016Y-132521016D02*
X132080000Y-132588000D01*
X124460000Y-131318000D02*
X124460000Y-131064000D01*
X130048000Y-129540000D02*
X132080000Y-129540000D01*
X127508000Y-135890000D02*
X124460000Y-135890000D01*
X130048000Y-131318000D02*
X130048000Y-131572000D01*
X127508000Y-128524000D02*
X127508000Y-128270000D01*
X132080000Y-131318000D02*
X130048000Y-131318000D01*
X132080000Y-130810000D02*
X130048000Y-130810000D01*
X127508000Y-132842000D02*
X124460000Y-132842000D01*
X132080000Y-132842000D02*
X130302000Y-132842000D01*
X130048000Y-133350000D02*
X130048000Y-133604000D01*
X132080000Y-130048000D02*
X132080000Y-130302000D01*
X130048000Y-129286000D02*
X130048000Y-129540000D01*
X130175000Y-127889000D02*
X130302000Y-128016000D01*
X130048000Y-135636000D02*
X132080000Y-135636000D01*
X130048000Y-129794000D02*
X130048000Y-130048000D01*
X130048000Y-130810000D02*
X130048000Y-131064000D01*
X130175000Y-127000000D02*
X130175000Y-127889000D01*
X126238000Y-128270000D02*
X126238000Y-128016000D01*
X132080000Y-132588000D02*
X132080000Y-132842000D01*
X132080000Y-136144000D02*
X132080000Y-136398000D01*
X127508000Y-131064000D02*
X127508000Y-130810000D01*
X127508000Y-136398000D02*
X124460000Y-136398000D01*
X130048000Y-131572000D02*
X132080000Y-131572000D01*
X132080000Y-133096000D02*
X132080000Y-133350000D01*
X126238000Y-129286000D02*
X126238000Y-129032000D01*
X130048000Y-128778000D02*
X130048000Y-129032000D01*
X132080000Y-129794000D02*
X130048000Y-129794000D01*
X132080000Y-129032000D02*
X132080000Y-129286000D01*
X130048000Y-130556000D02*
X132080000Y-130556000D01*
X132080000Y-130302000D02*
X130048000Y-130302000D01*
X132080000Y-136398000D02*
X130048000Y-136398000D01*
X124460000Y-136144000D02*
X127508000Y-136144000D01*
X130048000Y-129032000D02*
X132080000Y-129032000D01*
X127508000Y-135382000D02*
X124460000Y-135382000D01*
X130302000Y-128016000D02*
X132080000Y-128016000D01*
X130277977Y-132496993D02*
X130302000Y-132521016D01*
X124460000Y-136906000D02*
X124460000Y-136652000D01*
X129958581Y-135890000D02*
X129958581Y-136054581D01*
X132080000Y-129286000D02*
X130048000Y-129286000D01*
X132080000Y-128778000D02*
X130048000Y-128778000D01*
X130048000Y-131064000D02*
X132080000Y-131064000D01*
X130048000Y-136652000D02*
X132080000Y-136652000D01*
X132080000Y-128524000D02*
X132080000Y-128778000D01*
X130048000Y-128524000D02*
X132080000Y-128524000D01*
X130048000Y-134620000D02*
X132080000Y-134620000D01*
X124460000Y-131572000D02*
X127508000Y-131572000D01*
X130048000Y-133604000D02*
X132080000Y-133604000D01*
X132080000Y-128270000D02*
X130048000Y-128270000D01*
X127508000Y-135128000D02*
X127508000Y-134874000D01*
X130048000Y-130302000D02*
X130048000Y-130556000D01*
%TD*%
M02*
