%TF.GenerationSoftware,KiCad,Pcbnew,6.0.4*%
%TF.CreationDate,2022-03-30T22:58:47+02:00*%
%TF.ProjectId,cederom-ap3012-test,63656465-726f-46d2-9d61-70333031322d,2022-03-30*%
%TF.SameCoordinates,Original*%
%TF.FileFunction,Copper,L2,Bot*%
%TF.FilePolarity,Positive*%
%FSLAX46Y46*%
G04 Gerber Fmt 4.6, Leading zero omitted, Abs format (unit mm)*
G04 Created by KiCad (PCBNEW 6.0.4) date 2022-03-30 22:58:47*
%MOMM*%
%LPD*%
G01*
G04 APERTURE LIST*
%ADD10C,0.187500*%
%TA.AperFunction,NonConductor*%
%ADD11C,0.187500*%
%TD*%
%TA.AperFunction,ComponentPad*%
%ADD12R,1.700000X1.700000*%
%TD*%
%TA.AperFunction,ComponentPad*%
%ADD13O,1.700000X1.700000*%
%TD*%
%TA.AperFunction,ComponentPad*%
%ADD14R,2.000000X2.000000*%
%TD*%
%TA.AperFunction,ViaPad*%
%ADD15C,1.200000*%
%TD*%
%TA.AperFunction,Conductor*%
%ADD16C,0.500000*%
%TD*%
G04 APERTURE END LIST*
D10*
D11*
X102690857Y-55067357D02*
X102726571Y-55103071D01*
X102833714Y-55138785D01*
X102905142Y-55138785D01*
X103012285Y-55103071D01*
X103083714Y-55031642D01*
X103119428Y-54960214D01*
X103155142Y-54817357D01*
X103155142Y-54710214D01*
X103119428Y-54567357D01*
X103083714Y-54495928D01*
X103012285Y-54424500D01*
X102905142Y-54388785D01*
X102833714Y-54388785D01*
X102726571Y-54424500D01*
X102690857Y-54460214D01*
X102083714Y-55103071D02*
X102155142Y-55138785D01*
X102298000Y-55138785D01*
X102369428Y-55103071D01*
X102405142Y-55031642D01*
X102405142Y-54745928D01*
X102369428Y-54674500D01*
X102298000Y-54638785D01*
X102155142Y-54638785D01*
X102083714Y-54674500D01*
X102048000Y-54745928D01*
X102048000Y-54817357D01*
X102405142Y-54888785D01*
X101726571Y-55138785D02*
X101726571Y-54388785D01*
X101548000Y-54388785D01*
X101440857Y-54424500D01*
X101369428Y-54495928D01*
X101333714Y-54567357D01*
X101298000Y-54710214D01*
X101298000Y-54817357D01*
X101333714Y-54960214D01*
X101369428Y-55031642D01*
X101440857Y-55103071D01*
X101548000Y-55138785D01*
X101726571Y-55138785D01*
X100690857Y-55103071D02*
X100762285Y-55138785D01*
X100905142Y-55138785D01*
X100976571Y-55103071D01*
X101012285Y-55031642D01*
X101012285Y-54745928D01*
X100976571Y-54674500D01*
X100905142Y-54638785D01*
X100762285Y-54638785D01*
X100690857Y-54674500D01*
X100655142Y-54745928D01*
X100655142Y-54817357D01*
X101012285Y-54888785D01*
X99905142Y-55138785D02*
X100155142Y-54781642D01*
X100333714Y-55138785D02*
X100333714Y-54388785D01*
X100048000Y-54388785D01*
X99976571Y-54424500D01*
X99940857Y-54460214D01*
X99905142Y-54531642D01*
X99905142Y-54638785D01*
X99940857Y-54710214D01*
X99976571Y-54745928D01*
X100048000Y-54781642D01*
X100333714Y-54781642D01*
X99440857Y-54388785D02*
X99298000Y-54388785D01*
X99226571Y-54424500D01*
X99155142Y-54495928D01*
X99119428Y-54638785D01*
X99119428Y-54888785D01*
X99155142Y-55031642D01*
X99226571Y-55103071D01*
X99298000Y-55138785D01*
X99440857Y-55138785D01*
X99512285Y-55103071D01*
X99583714Y-55031642D01*
X99619428Y-54888785D01*
X99619428Y-54638785D01*
X99583714Y-54495928D01*
X99512285Y-54424500D01*
X99440857Y-54388785D01*
X98798000Y-55138785D02*
X98798000Y-54388785D01*
X98548000Y-54924500D01*
X98298000Y-54388785D01*
X98298000Y-55138785D01*
X97405142Y-54924500D02*
X97048000Y-54924500D01*
X97476571Y-55138785D02*
X97226571Y-54388785D01*
X96976571Y-55138785D01*
X96726571Y-55138785D02*
X96726571Y-54388785D01*
X96440857Y-54388785D01*
X96369428Y-54424500D01*
X96333714Y-54460214D01*
X96298000Y-54531642D01*
X96298000Y-54638785D01*
X96333714Y-54710214D01*
X96369428Y-54745928D01*
X96440857Y-54781642D01*
X96726571Y-54781642D01*
X96048000Y-54388785D02*
X95583714Y-54388785D01*
X95833714Y-54674500D01*
X95726571Y-54674500D01*
X95655142Y-54710214D01*
X95619428Y-54745928D01*
X95583714Y-54817357D01*
X95583714Y-54995928D01*
X95619428Y-55067357D01*
X95655142Y-55103071D01*
X95726571Y-55138785D01*
X95940857Y-55138785D01*
X96012285Y-55103071D01*
X96048000Y-55067357D01*
X95119428Y-54388785D02*
X95048000Y-54388785D01*
X94976571Y-54424500D01*
X94940857Y-54460214D01*
X94905142Y-54531642D01*
X94869428Y-54674500D01*
X94869428Y-54853071D01*
X94905142Y-54995928D01*
X94940857Y-55067357D01*
X94976571Y-55103071D01*
X95048000Y-55138785D01*
X95119428Y-55138785D01*
X95190857Y-55103071D01*
X95226571Y-55067357D01*
X95262285Y-54995928D01*
X95298000Y-54853071D01*
X95298000Y-54674500D01*
X95262285Y-54531642D01*
X95226571Y-54460214D01*
X95190857Y-54424500D01*
X95119428Y-54388785D01*
X94155142Y-55138785D02*
X94583714Y-55138785D01*
X94369428Y-55138785D02*
X94369428Y-54388785D01*
X94440857Y-54495928D01*
X94512285Y-54567357D01*
X94583714Y-54603071D01*
X93869428Y-54460214D02*
X93833714Y-54424500D01*
X93762285Y-54388785D01*
X93583714Y-54388785D01*
X93512285Y-54424500D01*
X93476571Y-54460214D01*
X93440857Y-54531642D01*
X93440857Y-54603071D01*
X93476571Y-54710214D01*
X93905142Y-55138785D01*
X93440857Y-55138785D01*
X101619428Y-55596285D02*
X101190857Y-55596285D01*
X101405142Y-56346285D02*
X101405142Y-55596285D01*
X100940857Y-55953428D02*
X100690857Y-55953428D01*
X100583714Y-56346285D02*
X100940857Y-56346285D01*
X100940857Y-55596285D01*
X100583714Y-55596285D01*
X100298000Y-56310571D02*
X100190857Y-56346285D01*
X100012285Y-56346285D01*
X99940857Y-56310571D01*
X99905142Y-56274857D01*
X99869428Y-56203428D01*
X99869428Y-56132000D01*
X99905142Y-56060571D01*
X99940857Y-56024857D01*
X100012285Y-55989142D01*
X100155142Y-55953428D01*
X100226571Y-55917714D01*
X100262285Y-55882000D01*
X100298000Y-55810571D01*
X100298000Y-55739142D01*
X100262285Y-55667714D01*
X100226571Y-55632000D01*
X100155142Y-55596285D01*
X99976571Y-55596285D01*
X99869428Y-55632000D01*
X99655142Y-55596285D02*
X99226571Y-55596285D01*
X99440857Y-56346285D02*
X99440857Y-55596285D01*
X98155142Y-55953428D02*
X98047999Y-55989142D01*
X98012285Y-56024857D01*
X97976571Y-56096285D01*
X97976571Y-56203428D01*
X98012285Y-56274857D01*
X98047999Y-56310571D01*
X98119428Y-56346285D01*
X98405142Y-56346285D01*
X98405142Y-55596285D01*
X98155142Y-55596285D01*
X98083714Y-55632000D01*
X98047999Y-55667714D01*
X98012285Y-55739142D01*
X98012285Y-55810571D01*
X98047999Y-55882000D01*
X98083714Y-55917714D01*
X98155142Y-55953428D01*
X98405142Y-55953428D01*
X97512285Y-55596285D02*
X97369428Y-55596285D01*
X97297999Y-55632000D01*
X97226571Y-55703428D01*
X97190857Y-55846285D01*
X97190857Y-56096285D01*
X97226571Y-56239142D01*
X97297999Y-56310571D01*
X97369428Y-56346285D01*
X97512285Y-56346285D01*
X97583714Y-56310571D01*
X97655142Y-56239142D01*
X97690857Y-56096285D01*
X97690857Y-55846285D01*
X97655142Y-55703428D01*
X97583714Y-55632000D01*
X97512285Y-55596285D01*
X96905142Y-56132000D02*
X96547999Y-56132000D01*
X96976571Y-56346285D02*
X96726571Y-55596285D01*
X96476571Y-56346285D01*
X95797999Y-56346285D02*
X96047999Y-55989142D01*
X96226571Y-56346285D02*
X96226571Y-55596285D01*
X95940857Y-55596285D01*
X95869428Y-55632000D01*
X95833714Y-55667714D01*
X95797999Y-55739142D01*
X95797999Y-55846285D01*
X95833714Y-55917714D01*
X95869428Y-55953428D01*
X95940857Y-55989142D01*
X96226571Y-55989142D01*
X95476571Y-56346285D02*
X95476571Y-55596285D01*
X95297999Y-55596285D01*
X95190857Y-55632000D01*
X95119428Y-55703428D01*
X95083714Y-55774857D01*
X95047999Y-55917714D01*
X95047999Y-56024857D01*
X95083714Y-56167714D01*
X95119428Y-56239142D01*
X95190857Y-56310571D01*
X95297999Y-56346285D01*
X95476571Y-56346285D01*
X101012285Y-56875214D02*
X100976571Y-56839500D01*
X100905142Y-56803785D01*
X100726571Y-56803785D01*
X100655142Y-56839500D01*
X100619428Y-56875214D01*
X100583714Y-56946642D01*
X100583714Y-57018071D01*
X100619428Y-57125214D01*
X101048000Y-57553785D01*
X100583714Y-57553785D01*
X100119428Y-56803785D02*
X100048000Y-56803785D01*
X99976571Y-56839500D01*
X99940857Y-56875214D01*
X99905142Y-56946642D01*
X99869428Y-57089500D01*
X99869428Y-57268071D01*
X99905142Y-57410928D01*
X99940857Y-57482357D01*
X99976571Y-57518071D01*
X100048000Y-57553785D01*
X100119428Y-57553785D01*
X100190857Y-57518071D01*
X100226571Y-57482357D01*
X100262285Y-57410928D01*
X100298000Y-57268071D01*
X100298000Y-57089500D01*
X100262285Y-56946642D01*
X100226571Y-56875214D01*
X100190857Y-56839500D01*
X100119428Y-56803785D01*
X99583714Y-56875214D02*
X99548000Y-56839500D01*
X99476571Y-56803785D01*
X99298000Y-56803785D01*
X99226571Y-56839500D01*
X99190857Y-56875214D01*
X99155142Y-56946642D01*
X99155142Y-57018071D01*
X99190857Y-57125214D01*
X99619428Y-57553785D01*
X99155142Y-57553785D01*
X98869428Y-56875214D02*
X98833714Y-56839500D01*
X98762285Y-56803785D01*
X98583714Y-56803785D01*
X98512285Y-56839500D01*
X98476571Y-56875214D01*
X98440857Y-56946642D01*
X98440857Y-57018071D01*
X98476571Y-57125214D01*
X98905142Y-57553785D01*
X98440857Y-57553785D01*
X97976571Y-56803785D02*
X97905142Y-56803785D01*
X97833714Y-56839500D01*
X97798000Y-56875214D01*
X97762285Y-56946642D01*
X97726571Y-57089500D01*
X97726571Y-57268071D01*
X97762285Y-57410928D01*
X97798000Y-57482357D01*
X97833714Y-57518071D01*
X97905142Y-57553785D01*
X97976571Y-57553785D01*
X98048000Y-57518071D01*
X98083714Y-57482357D01*
X98119428Y-57410928D01*
X98155142Y-57268071D01*
X98155142Y-57089500D01*
X98119428Y-56946642D01*
X98083714Y-56875214D01*
X98048000Y-56839500D01*
X97976571Y-56803785D01*
X97476571Y-56803785D02*
X97012285Y-56803785D01*
X97262285Y-57089500D01*
X97155142Y-57089500D01*
X97083714Y-57125214D01*
X97048000Y-57160928D01*
X97012285Y-57232357D01*
X97012285Y-57410928D01*
X97048000Y-57482357D01*
X97083714Y-57518071D01*
X97155142Y-57553785D01*
X97369428Y-57553785D01*
X97440857Y-57518071D01*
X97476571Y-57482357D01*
X96762285Y-56803785D02*
X96298000Y-56803785D01*
X96548000Y-57089500D01*
X96440857Y-57089500D01*
X96369428Y-57125214D01*
X96333714Y-57160928D01*
X96298000Y-57232357D01*
X96298000Y-57410928D01*
X96333714Y-57482357D01*
X96369428Y-57518071D01*
X96440857Y-57553785D01*
X96655142Y-57553785D01*
X96726571Y-57518071D01*
X96762285Y-57482357D01*
X95833714Y-56803785D02*
X95762285Y-56803785D01*
X95690857Y-56839500D01*
X95655142Y-56875214D01*
X95619428Y-56946642D01*
X95583714Y-57089500D01*
X95583714Y-57268071D01*
X95619428Y-57410928D01*
X95655142Y-57482357D01*
X95690857Y-57518071D01*
X95762285Y-57553785D01*
X95833714Y-57553785D01*
X95905142Y-57518071D01*
X95940857Y-57482357D01*
X95976571Y-57410928D01*
X96012285Y-57268071D01*
X96012285Y-57089500D01*
X95976571Y-56946642D01*
X95940857Y-56875214D01*
X95905142Y-56839500D01*
X95833714Y-56803785D01*
D12*
%TO.P,R`1,1,Pin_1*%
%TO.N,Net-(JP3-Pad1)*%
X97795000Y-64770000D03*
D13*
%TO.P,R`1,2,Pin_2*%
%TO.N,Net-(R`1-Pad2)*%
X95255000Y-64770000D03*
%TD*%
D12*
%TO.P,JP2,1,A*%
%TO.N,Net-(D1-Pad2)*%
X90170000Y-50815000D03*
D13*
%TO.P,JP2,2,C*%
%TO.N,Net-(JP2-Pad2)*%
X90170000Y-53355000D03*
%TO.P,JP2,3,B*%
%TO.N,Net-(D2-Pad2)*%
X90170000Y-55895000D03*
%TD*%
D12*
%TO.P,JP4,1,A*%
%TO.N,GND*%
X80010000Y-64755000D03*
D13*
%TO.P,JP4,2,C*%
%TO.N,Net-(JP4-Pad2)*%
X80010000Y-62215000D03*
%TO.P,JP4,3,B*%
%TO.N,Net-(C1-Pad1)*%
X80010000Y-59675000D03*
%TD*%
%TO.P,JP3,3,B*%
%TO.N,Net-(JP3-Pad3)*%
X93980000Y-60960000D03*
%TO.P,JP3,2,C*%
%TO.N,Net-(C2-Pad1)*%
X96520000Y-60960000D03*
D12*
%TO.P,JP3,1,A*%
%TO.N,Net-(JP3-Pad1)*%
X99060000Y-60960000D03*
%TD*%
%TO.P,JP1,1,A*%
%TO.N,Net-(JP1-Pad1)*%
X80010000Y-50800000D03*
D13*
%TO.P,JP1,2,C*%
%TO.N,Net-(C1-Pad1)*%
X80010000Y-53340000D03*
%TO.P,JP1,3,B*%
%TO.N,Net-(JP1-Pad3)*%
X80010000Y-55880000D03*
%TD*%
D14*
%TO.P,TP4,1,1*%
%TO.N,GND*%
X101600000Y-64770000D03*
%TD*%
%TO.P,TP1,1,1*%
%TO.N,Net-(C1-Pad1)*%
X76200000Y-50800000D03*
%TD*%
%TO.P,TP3,1,1*%
%TO.N,Net-(C2-Pad1)*%
X101600000Y-50800000D03*
%TD*%
%TO.P,TP2,1,1*%
%TO.N,GND*%
X76200000Y-64770000D03*
%TD*%
D15*
%TO.N,Net-(JP4-Pad2)*%
X83947000Y-58547000D03*
%TD*%
D16*
%TO.N,Net-(JP4-Pad2)*%
X83947000Y-58547000D02*
X83947000Y-60960000D01*
X83947000Y-60960000D02*
X82692000Y-62215000D01*
X82692000Y-62215000D02*
X80010000Y-62215000D01*
%TD*%
%TA.AperFunction,Conductor*%
%TO.N,GND*%
G36*
X103573621Y-48788502D02*
G01*
X103620114Y-48842158D01*
X103631500Y-48894500D01*
X103631500Y-53420625D01*
X103611498Y-53488746D01*
X103557842Y-53535239D01*
X103505500Y-53546625D01*
X92695750Y-53546625D01*
X92695750Y-58467375D01*
X103505500Y-58467375D01*
X103573621Y-58487377D01*
X103620114Y-58541033D01*
X103631500Y-58593375D01*
X103631500Y-66675500D01*
X103611498Y-66743621D01*
X103557842Y-66790114D01*
X103505500Y-66801500D01*
X74294500Y-66801500D01*
X74226379Y-66781498D01*
X74179886Y-66727842D01*
X74168500Y-66675500D01*
X74168500Y-65814669D01*
X74692001Y-65814669D01*
X74692371Y-65821490D01*
X74697895Y-65872352D01*
X74701521Y-65887604D01*
X74746676Y-66008054D01*
X74755214Y-66023649D01*
X74831715Y-66125724D01*
X74844276Y-66138285D01*
X74946351Y-66214786D01*
X74961946Y-66223324D01*
X75082394Y-66268478D01*
X75097649Y-66272105D01*
X75148514Y-66277631D01*
X75155328Y-66278000D01*
X75927885Y-66278000D01*
X75943124Y-66273525D01*
X75944329Y-66272135D01*
X75946000Y-66264452D01*
X75946000Y-66259884D01*
X76454000Y-66259884D01*
X76458475Y-66275123D01*
X76459865Y-66276328D01*
X76467548Y-66277999D01*
X77244669Y-66277999D01*
X77251490Y-66277629D01*
X77302352Y-66272105D01*
X77317604Y-66268479D01*
X77438054Y-66223324D01*
X77453649Y-66214786D01*
X77555724Y-66138285D01*
X77568285Y-66125724D01*
X77644786Y-66023649D01*
X77653324Y-66008054D01*
X77698478Y-65887606D01*
X77702105Y-65872351D01*
X77707631Y-65821486D01*
X77708000Y-65814672D01*
X77708000Y-65649669D01*
X78652001Y-65649669D01*
X78652371Y-65656490D01*
X78657895Y-65707352D01*
X78661521Y-65722604D01*
X78706676Y-65843054D01*
X78715214Y-65858649D01*
X78791715Y-65960724D01*
X78804276Y-65973285D01*
X78906351Y-66049786D01*
X78921946Y-66058324D01*
X79042394Y-66103478D01*
X79057649Y-66107105D01*
X79108514Y-66112631D01*
X79115328Y-66113000D01*
X79737885Y-66113000D01*
X79753124Y-66108525D01*
X79754329Y-66107135D01*
X79756000Y-66099452D01*
X79756000Y-66094884D01*
X80264000Y-66094884D01*
X80268475Y-66110123D01*
X80269865Y-66111328D01*
X80277548Y-66112999D01*
X80904669Y-66112999D01*
X80911490Y-66112629D01*
X80962352Y-66107105D01*
X80977604Y-66103479D01*
X81098054Y-66058324D01*
X81113649Y-66049786D01*
X81215724Y-65973285D01*
X81228285Y-65960724D01*
X81304786Y-65858649D01*
X81313324Y-65843054D01*
X81358478Y-65722606D01*
X81362105Y-65707351D01*
X81367631Y-65656486D01*
X81368000Y-65649672D01*
X81368000Y-65027115D01*
X81363525Y-65011876D01*
X81362135Y-65010671D01*
X81354452Y-65009000D01*
X80282115Y-65009000D01*
X80266876Y-65013475D01*
X80265671Y-65014865D01*
X80264000Y-65022548D01*
X80264000Y-66094884D01*
X79756000Y-66094884D01*
X79756000Y-65027115D01*
X79751525Y-65011876D01*
X79750135Y-65010671D01*
X79742452Y-65009000D01*
X78670116Y-65009000D01*
X78654877Y-65013475D01*
X78653672Y-65014865D01*
X78652001Y-65022548D01*
X78652001Y-65649669D01*
X77708000Y-65649669D01*
X77708000Y-65042115D01*
X77703525Y-65026876D01*
X77702135Y-65025671D01*
X77694452Y-65024000D01*
X76472115Y-65024000D01*
X76456876Y-65028475D01*
X76455671Y-65029865D01*
X76454000Y-65037548D01*
X76454000Y-66259884D01*
X75946000Y-66259884D01*
X75946000Y-65042115D01*
X75941525Y-65026876D01*
X75940135Y-65025671D01*
X75932452Y-65024000D01*
X74710116Y-65024000D01*
X74694877Y-65028475D01*
X74693672Y-65029865D01*
X74692001Y-65037548D01*
X74692001Y-65814669D01*
X74168500Y-65814669D01*
X74168500Y-64736695D01*
X93892251Y-64736695D01*
X93905110Y-64959715D01*
X93906247Y-64964761D01*
X93906248Y-64964767D01*
X93920299Y-65027115D01*
X93954222Y-65177639D01*
X94038266Y-65384616D01*
X94154987Y-65575088D01*
X94301250Y-65743938D01*
X94473126Y-65886632D01*
X94666000Y-65999338D01*
X94874692Y-66079030D01*
X94879760Y-66080061D01*
X94879763Y-66080062D01*
X94952616Y-66094884D01*
X95093597Y-66123567D01*
X95098772Y-66123757D01*
X95098774Y-66123757D01*
X95311673Y-66131564D01*
X95311677Y-66131564D01*
X95316837Y-66131753D01*
X95321957Y-66131097D01*
X95321959Y-66131097D01*
X95533288Y-66104025D01*
X95533289Y-66104025D01*
X95538416Y-66103368D01*
X95551469Y-66099452D01*
X95747429Y-66040661D01*
X95747434Y-66040659D01*
X95752384Y-66039174D01*
X95952994Y-65940896D01*
X96134860Y-65811173D01*
X96243091Y-65703319D01*
X96305462Y-65669404D01*
X96376268Y-65674592D01*
X96433030Y-65717238D01*
X96450012Y-65748341D01*
X96474879Y-65814672D01*
X96494385Y-65866705D01*
X96581739Y-65983261D01*
X96698295Y-66070615D01*
X96834684Y-66121745D01*
X96896866Y-66128500D01*
X98693134Y-66128500D01*
X98755316Y-66121745D01*
X98891705Y-66070615D01*
X99008261Y-65983261D01*
X99095615Y-65866705D01*
X99115122Y-65814669D01*
X100092001Y-65814669D01*
X100092371Y-65821490D01*
X100097895Y-65872352D01*
X100101521Y-65887604D01*
X100146676Y-66008054D01*
X100155214Y-66023649D01*
X100231715Y-66125724D01*
X100244276Y-66138285D01*
X100346351Y-66214786D01*
X100361946Y-66223324D01*
X100482394Y-66268478D01*
X100497649Y-66272105D01*
X100548514Y-66277631D01*
X100555328Y-66278000D01*
X101327885Y-66278000D01*
X101343124Y-66273525D01*
X101344329Y-66272135D01*
X101346000Y-66264452D01*
X101346000Y-66259884D01*
X101854000Y-66259884D01*
X101858475Y-66275123D01*
X101859865Y-66276328D01*
X101867548Y-66277999D01*
X102644669Y-66277999D01*
X102651490Y-66277629D01*
X102702352Y-66272105D01*
X102717604Y-66268479D01*
X102838054Y-66223324D01*
X102853649Y-66214786D01*
X102955724Y-66138285D01*
X102968285Y-66125724D01*
X103044786Y-66023649D01*
X103053324Y-66008054D01*
X103098478Y-65887606D01*
X103102105Y-65872351D01*
X103107631Y-65821486D01*
X103108000Y-65814672D01*
X103108000Y-65042115D01*
X103103525Y-65026876D01*
X103102135Y-65025671D01*
X103094452Y-65024000D01*
X101872115Y-65024000D01*
X101856876Y-65028475D01*
X101855671Y-65029865D01*
X101854000Y-65037548D01*
X101854000Y-66259884D01*
X101346000Y-66259884D01*
X101346000Y-65042115D01*
X101341525Y-65026876D01*
X101340135Y-65025671D01*
X101332452Y-65024000D01*
X100110116Y-65024000D01*
X100094877Y-65028475D01*
X100093672Y-65029865D01*
X100092001Y-65037548D01*
X100092001Y-65814669D01*
X99115122Y-65814669D01*
X99146745Y-65730316D01*
X99153500Y-65668134D01*
X99153500Y-64497885D01*
X100092000Y-64497885D01*
X100096475Y-64513124D01*
X100097865Y-64514329D01*
X100105548Y-64516000D01*
X101327885Y-64516000D01*
X101343124Y-64511525D01*
X101344329Y-64510135D01*
X101346000Y-64502452D01*
X101346000Y-64497885D01*
X101854000Y-64497885D01*
X101858475Y-64513124D01*
X101859865Y-64514329D01*
X101867548Y-64516000D01*
X103089884Y-64516000D01*
X103105123Y-64511525D01*
X103106328Y-64510135D01*
X103107999Y-64502452D01*
X103107999Y-63725331D01*
X103107629Y-63718510D01*
X103102105Y-63667648D01*
X103098479Y-63652396D01*
X103053324Y-63531946D01*
X103044786Y-63516351D01*
X102968285Y-63414276D01*
X102955724Y-63401715D01*
X102853649Y-63325214D01*
X102838054Y-63316676D01*
X102717606Y-63271522D01*
X102702351Y-63267895D01*
X102651486Y-63262369D01*
X102644672Y-63262000D01*
X101872115Y-63262000D01*
X101856876Y-63266475D01*
X101855671Y-63267865D01*
X101854000Y-63275548D01*
X101854000Y-64497885D01*
X101346000Y-64497885D01*
X101346000Y-63280116D01*
X101341525Y-63264877D01*
X101340135Y-63263672D01*
X101332452Y-63262001D01*
X100555331Y-63262001D01*
X100548510Y-63262371D01*
X100497648Y-63267895D01*
X100482396Y-63271521D01*
X100361946Y-63316676D01*
X100346351Y-63325214D01*
X100244276Y-63401715D01*
X100231715Y-63414276D01*
X100155214Y-63516351D01*
X100146676Y-63531946D01*
X100101522Y-63652394D01*
X100097895Y-63667649D01*
X100092369Y-63718514D01*
X100092000Y-63725328D01*
X100092000Y-64497885D01*
X99153500Y-64497885D01*
X99153500Y-63871866D01*
X99146745Y-63809684D01*
X99095615Y-63673295D01*
X99008261Y-63556739D01*
X98891705Y-63469385D01*
X98755316Y-63418255D01*
X98693134Y-63411500D01*
X96896866Y-63411500D01*
X96834684Y-63418255D01*
X96698295Y-63469385D01*
X96581739Y-63556739D01*
X96494385Y-63673295D01*
X96491233Y-63681703D01*
X96449919Y-63791907D01*
X96407277Y-63848671D01*
X96340716Y-63873371D01*
X96271367Y-63858163D01*
X96238743Y-63832476D01*
X96188151Y-63776875D01*
X96188142Y-63776866D01*
X96184670Y-63773051D01*
X96180619Y-63769852D01*
X96180615Y-63769848D01*
X96013414Y-63637800D01*
X96013410Y-63637798D01*
X96009359Y-63634598D01*
X95813789Y-63526638D01*
X95808920Y-63524914D01*
X95808916Y-63524912D01*
X95608087Y-63453795D01*
X95608083Y-63453794D01*
X95603212Y-63452069D01*
X95598119Y-63451162D01*
X95598116Y-63451161D01*
X95388373Y-63413800D01*
X95388367Y-63413799D01*
X95383284Y-63412894D01*
X95309452Y-63411992D01*
X95165081Y-63410228D01*
X95165079Y-63410228D01*
X95159911Y-63410165D01*
X94939091Y-63443955D01*
X94726756Y-63513357D01*
X94528607Y-63616507D01*
X94524474Y-63619610D01*
X94524471Y-63619612D01*
X94354100Y-63747530D01*
X94349965Y-63750635D01*
X94314837Y-63787394D01*
X94256280Y-63848671D01*
X94195629Y-63912138D01*
X94069743Y-64096680D01*
X93975688Y-64299305D01*
X93915989Y-64514570D01*
X93892251Y-64736695D01*
X74168500Y-64736695D01*
X74168500Y-64497885D01*
X74692000Y-64497885D01*
X74696475Y-64513124D01*
X74697865Y-64514329D01*
X74705548Y-64516000D01*
X75927885Y-64516000D01*
X75943124Y-64511525D01*
X75944329Y-64510135D01*
X75946000Y-64502452D01*
X75946000Y-64497885D01*
X76454000Y-64497885D01*
X76458475Y-64513124D01*
X76459865Y-64514329D01*
X76467548Y-64516000D01*
X77689884Y-64516000D01*
X77705123Y-64511525D01*
X77706328Y-64510135D01*
X77707999Y-64502452D01*
X77707999Y-63725331D01*
X77707629Y-63718510D01*
X77702105Y-63667648D01*
X77698479Y-63652396D01*
X77653324Y-63531946D01*
X77644786Y-63516351D01*
X77568285Y-63414276D01*
X77555724Y-63401715D01*
X77453649Y-63325214D01*
X77438054Y-63316676D01*
X77317606Y-63271522D01*
X77302351Y-63267895D01*
X77251486Y-63262369D01*
X77244672Y-63262000D01*
X76472115Y-63262000D01*
X76456876Y-63266475D01*
X76455671Y-63267865D01*
X76454000Y-63275548D01*
X76454000Y-64497885D01*
X75946000Y-64497885D01*
X75946000Y-63280116D01*
X75941525Y-63264877D01*
X75940135Y-63263672D01*
X75932452Y-63262001D01*
X75155331Y-63262001D01*
X75148510Y-63262371D01*
X75097648Y-63267895D01*
X75082396Y-63271521D01*
X74961946Y-63316676D01*
X74946351Y-63325214D01*
X74844276Y-63401715D01*
X74831715Y-63414276D01*
X74755214Y-63516351D01*
X74746676Y-63531946D01*
X74701522Y-63652394D01*
X74697895Y-63667649D01*
X74692369Y-63718514D01*
X74692000Y-63725328D01*
X74692000Y-64497885D01*
X74168500Y-64497885D01*
X74168500Y-62181695D01*
X78647251Y-62181695D01*
X78647548Y-62186848D01*
X78647548Y-62186851D01*
X78659812Y-62399547D01*
X78660110Y-62404715D01*
X78661247Y-62409761D01*
X78661248Y-62409767D01*
X78685304Y-62516508D01*
X78709222Y-62622639D01*
X78758752Y-62744617D01*
X78786876Y-62813878D01*
X78793266Y-62829616D01*
X78809808Y-62856610D01*
X78875895Y-62964454D01*
X78909987Y-63020088D01*
X79056250Y-63188938D01*
X79060225Y-63192238D01*
X79060231Y-63192244D01*
X79065425Y-63196556D01*
X79105059Y-63255460D01*
X79106555Y-63326441D01*
X79069439Y-63386962D01*
X79029168Y-63411480D01*
X78921946Y-63451676D01*
X78906351Y-63460214D01*
X78804276Y-63536715D01*
X78791715Y-63549276D01*
X78715214Y-63651351D01*
X78706676Y-63666946D01*
X78661522Y-63787394D01*
X78657895Y-63802649D01*
X78652369Y-63853514D01*
X78652000Y-63860328D01*
X78652000Y-64482885D01*
X78656475Y-64498124D01*
X78657865Y-64499329D01*
X78665548Y-64501000D01*
X81349884Y-64501000D01*
X81365123Y-64496525D01*
X81366328Y-64495135D01*
X81367999Y-64487452D01*
X81367999Y-63860331D01*
X81367629Y-63853510D01*
X81362105Y-63802648D01*
X81358479Y-63787396D01*
X81313324Y-63666946D01*
X81304786Y-63651351D01*
X81228285Y-63549276D01*
X81215724Y-63536715D01*
X81113649Y-63460214D01*
X81098054Y-63451676D01*
X80987813Y-63410348D01*
X80931049Y-63367706D01*
X80906349Y-63301145D01*
X80921557Y-63231796D01*
X80943104Y-63203115D01*
X81044430Y-63102144D01*
X81044440Y-63102132D01*
X81048096Y-63098489D01*
X81100203Y-63025974D01*
X81156198Y-62982326D01*
X81202526Y-62973500D01*
X82624930Y-62973500D01*
X82643880Y-62974933D01*
X82658115Y-62977099D01*
X82658119Y-62977099D01*
X82665349Y-62978199D01*
X82672641Y-62977606D01*
X82672644Y-62977606D01*
X82718018Y-62973915D01*
X82728233Y-62973500D01*
X82736293Y-62973500D01*
X82749583Y-62971951D01*
X82764507Y-62970211D01*
X82768882Y-62969778D01*
X82834339Y-62964454D01*
X82834342Y-62964453D01*
X82841637Y-62963860D01*
X82848601Y-62961604D01*
X82854560Y-62960413D01*
X82860415Y-62959029D01*
X82867681Y-62958182D01*
X82936327Y-62933265D01*
X82940455Y-62931848D01*
X83002936Y-62911607D01*
X83002938Y-62911606D01*
X83009899Y-62909351D01*
X83016154Y-62905555D01*
X83021628Y-62903049D01*
X83027058Y-62900330D01*
X83033937Y-62897833D01*
X83094976Y-62857814D01*
X83098680Y-62855477D01*
X83161107Y-62817595D01*
X83169484Y-62810197D01*
X83169508Y-62810224D01*
X83172500Y-62807571D01*
X83175733Y-62804868D01*
X83181852Y-62800856D01*
X83235128Y-62744617D01*
X83237506Y-62742175D01*
X84435911Y-61543770D01*
X84450323Y-61531384D01*
X84461918Y-61522851D01*
X84461923Y-61522846D01*
X84467818Y-61518508D01*
X84472557Y-61512930D01*
X84472560Y-61512927D01*
X84502035Y-61478232D01*
X84508965Y-61470716D01*
X84514660Y-61465021D01*
X84523679Y-61453621D01*
X84532281Y-61442749D01*
X84535072Y-61439345D01*
X84577591Y-61389297D01*
X84577592Y-61389295D01*
X84582333Y-61383715D01*
X84585661Y-61377199D01*
X84589028Y-61372150D01*
X84592195Y-61367021D01*
X84596734Y-61361284D01*
X84627655Y-61295125D01*
X84629561Y-61291225D01*
X84662769Y-61226192D01*
X84664508Y-61219084D01*
X84666607Y-61213441D01*
X84668524Y-61207678D01*
X84671622Y-61201050D01*
X84686487Y-61129583D01*
X84687457Y-61125299D01*
X84702307Y-61064612D01*
X84704808Y-61054390D01*
X84705500Y-61043236D01*
X84705536Y-61043238D01*
X84705775Y-61039245D01*
X84706149Y-61035053D01*
X84707640Y-61027885D01*
X84705546Y-60950479D01*
X84705500Y-60947072D01*
X84705500Y-60926695D01*
X92617251Y-60926695D01*
X92617548Y-60931848D01*
X92617548Y-60931851D01*
X92629812Y-61144547D01*
X92630110Y-61149715D01*
X92631247Y-61154761D01*
X92631248Y-61154767D01*
X92645510Y-61218051D01*
X92679222Y-61367639D01*
X92719819Y-61467617D01*
X92751799Y-61546375D01*
X92763266Y-61574616D01*
X92800685Y-61635678D01*
X92877291Y-61760688D01*
X92879987Y-61765088D01*
X93026250Y-61933938D01*
X93198126Y-62076632D01*
X93391000Y-62189338D01*
X93599692Y-62269030D01*
X93604760Y-62270061D01*
X93604763Y-62270062D01*
X93712017Y-62291883D01*
X93818597Y-62313567D01*
X93823772Y-62313757D01*
X93823774Y-62313757D01*
X94036673Y-62321564D01*
X94036677Y-62321564D01*
X94041837Y-62321753D01*
X94046957Y-62321097D01*
X94046959Y-62321097D01*
X94258288Y-62294025D01*
X94258289Y-62294025D01*
X94263416Y-62293368D01*
X94268366Y-62291883D01*
X94472429Y-62230661D01*
X94472434Y-62230659D01*
X94477384Y-62229174D01*
X94677994Y-62130896D01*
X94859860Y-62001173D01*
X95018096Y-61843489D01*
X95077594Y-61760689D01*
X95148453Y-61662077D01*
X95149776Y-61663028D01*
X95196645Y-61619857D01*
X95266580Y-61607625D01*
X95332026Y-61635144D01*
X95359875Y-61666994D01*
X95419987Y-61765088D01*
X95566250Y-61933938D01*
X95738126Y-62076632D01*
X95931000Y-62189338D01*
X96139692Y-62269030D01*
X96144760Y-62270061D01*
X96144763Y-62270062D01*
X96252017Y-62291883D01*
X96358597Y-62313567D01*
X96363772Y-62313757D01*
X96363774Y-62313757D01*
X96576673Y-62321564D01*
X96576677Y-62321564D01*
X96581837Y-62321753D01*
X96586957Y-62321097D01*
X96586959Y-62321097D01*
X96798288Y-62294025D01*
X96798289Y-62294025D01*
X96803416Y-62293368D01*
X96808366Y-62291883D01*
X97012429Y-62230661D01*
X97012434Y-62230659D01*
X97017384Y-62229174D01*
X97217994Y-62130896D01*
X97399860Y-62001173D01*
X97508091Y-61893319D01*
X97570462Y-61859404D01*
X97641268Y-61864592D01*
X97698030Y-61907238D01*
X97715012Y-61938341D01*
X97724896Y-61964707D01*
X97759385Y-62056705D01*
X97846739Y-62173261D01*
X97963295Y-62260615D01*
X98099684Y-62311745D01*
X98161866Y-62318500D01*
X99958134Y-62318500D01*
X100020316Y-62311745D01*
X100156705Y-62260615D01*
X100273261Y-62173261D01*
X100360615Y-62056705D01*
X100411745Y-61920316D01*
X100418500Y-61858134D01*
X100418500Y-60061866D01*
X100411745Y-59999684D01*
X100360615Y-59863295D01*
X100273261Y-59746739D01*
X100156705Y-59659385D01*
X100020316Y-59608255D01*
X99958134Y-59601500D01*
X98161866Y-59601500D01*
X98099684Y-59608255D01*
X97963295Y-59659385D01*
X97846739Y-59746739D01*
X97759385Y-59863295D01*
X97756233Y-59871703D01*
X97714919Y-59981907D01*
X97672277Y-60038671D01*
X97605716Y-60063371D01*
X97536367Y-60048163D01*
X97503743Y-60022476D01*
X97453151Y-59966875D01*
X97453142Y-59966866D01*
X97449670Y-59963051D01*
X97445619Y-59959852D01*
X97445615Y-59959848D01*
X97278414Y-59827800D01*
X97278410Y-59827798D01*
X97274359Y-59824598D01*
X97078789Y-59716638D01*
X97073920Y-59714914D01*
X97073916Y-59714912D01*
X96873087Y-59643795D01*
X96873083Y-59643794D01*
X96868212Y-59642069D01*
X96863119Y-59641162D01*
X96863116Y-59641161D01*
X96653373Y-59603800D01*
X96653367Y-59603799D01*
X96648284Y-59602894D01*
X96574452Y-59601992D01*
X96430081Y-59600228D01*
X96430079Y-59600228D01*
X96424911Y-59600165D01*
X96204091Y-59633955D01*
X95991756Y-59703357D01*
X95793607Y-59806507D01*
X95789474Y-59809610D01*
X95789471Y-59809612D01*
X95619100Y-59937530D01*
X95614965Y-59940635D01*
X95588792Y-59968023D01*
X95521280Y-60038671D01*
X95460629Y-60102138D01*
X95353201Y-60259621D01*
X95298293Y-60304621D01*
X95227768Y-60312792D01*
X95164021Y-60281538D01*
X95143324Y-60257054D01*
X95062822Y-60132617D01*
X95062820Y-60132614D01*
X95060014Y-60128277D01*
X94909670Y-59963051D01*
X94905619Y-59959852D01*
X94905615Y-59959848D01*
X94738414Y-59827800D01*
X94738410Y-59827798D01*
X94734359Y-59824598D01*
X94538789Y-59716638D01*
X94533920Y-59714914D01*
X94533916Y-59714912D01*
X94333087Y-59643795D01*
X94333083Y-59643794D01*
X94328212Y-59642069D01*
X94323119Y-59641162D01*
X94323116Y-59641161D01*
X94113373Y-59603800D01*
X94113367Y-59603799D01*
X94108284Y-59602894D01*
X94034452Y-59601992D01*
X93890081Y-59600228D01*
X93890079Y-59600228D01*
X93884911Y-59600165D01*
X93664091Y-59633955D01*
X93451756Y-59703357D01*
X93253607Y-59806507D01*
X93249474Y-59809610D01*
X93249471Y-59809612D01*
X93079100Y-59937530D01*
X93074965Y-59940635D01*
X93048792Y-59968023D01*
X92981280Y-60038671D01*
X92920629Y-60102138D01*
X92917720Y-60106403D01*
X92917714Y-60106411D01*
X92866524Y-60181453D01*
X92794743Y-60286680D01*
X92700688Y-60489305D01*
X92640989Y-60704570D01*
X92617251Y-60926695D01*
X84705500Y-60926695D01*
X84705500Y-59414226D01*
X84725502Y-59346105D01*
X84734626Y-59333657D01*
X84747887Y-59317713D01*
X84864458Y-59177551D01*
X84964004Y-58999799D01*
X84965860Y-58994332D01*
X84965862Y-58994327D01*
X85027634Y-58812352D01*
X85027635Y-58812347D01*
X85029490Y-58806883D01*
X85058723Y-58605263D01*
X85060249Y-58547000D01*
X85042956Y-58358795D01*
X85042137Y-58349880D01*
X85042136Y-58349877D01*
X85041608Y-58344126D01*
X84986307Y-58148047D01*
X84975680Y-58126496D01*
X84898756Y-57970510D01*
X84896201Y-57965329D01*
X84877796Y-57940681D01*
X84777758Y-57806715D01*
X84777758Y-57806714D01*
X84774305Y-57802091D01*
X84624703Y-57663800D01*
X84578675Y-57634759D01*
X84457288Y-57558169D01*
X84457283Y-57558167D01*
X84452404Y-57555088D01*
X84263180Y-57479595D01*
X84063366Y-57439849D01*
X84057592Y-57439773D01*
X84057588Y-57439773D01*
X83954452Y-57438424D01*
X83859655Y-57437183D01*
X83853958Y-57438162D01*
X83853957Y-57438162D01*
X83664567Y-57470705D01*
X83658870Y-57471684D01*
X83467734Y-57542198D01*
X83292649Y-57646363D01*
X83139478Y-57780690D01*
X83135911Y-57785215D01*
X83135906Y-57785220D01*
X83049331Y-57895040D01*
X83013351Y-57940681D01*
X82918492Y-58120978D01*
X82858078Y-58315543D01*
X82834132Y-58517859D01*
X82847457Y-58721151D01*
X82897605Y-58918610D01*
X82982898Y-59103624D01*
X82986231Y-59108340D01*
X83076242Y-59235702D01*
X83100479Y-59269997D01*
X83104621Y-59274032D01*
X83150421Y-59318648D01*
X83185259Y-59380509D01*
X83188500Y-59408902D01*
X83188500Y-60593629D01*
X83168498Y-60661750D01*
X83151595Y-60682724D01*
X82414724Y-61419595D01*
X82352412Y-61453621D01*
X82325629Y-61456500D01*
X81205939Y-61456500D01*
X81137818Y-61436498D01*
X81100147Y-61398941D01*
X81093909Y-61389297D01*
X81090014Y-61383277D01*
X80939670Y-61218051D01*
X80935619Y-61214852D01*
X80935615Y-61214848D01*
X80768414Y-61082800D01*
X80768410Y-61082798D01*
X80764359Y-61079598D01*
X80723053Y-61056796D01*
X80673084Y-61006364D01*
X80658312Y-60936921D01*
X80683428Y-60870516D01*
X80710780Y-60843909D01*
X80754603Y-60812650D01*
X80889860Y-60716173D01*
X81048096Y-60558489D01*
X81097810Y-60489305D01*
X81175435Y-60381277D01*
X81178453Y-60377077D01*
X81210225Y-60312792D01*
X81275136Y-60181453D01*
X81275137Y-60181451D01*
X81277430Y-60176811D01*
X81328859Y-60007540D01*
X81340865Y-59968023D01*
X81340865Y-59968021D01*
X81342370Y-59963069D01*
X81371529Y-59741590D01*
X81372463Y-59703357D01*
X81373074Y-59678365D01*
X81373074Y-59678361D01*
X81373156Y-59675000D01*
X81354852Y-59452361D01*
X81300431Y-59235702D01*
X81211354Y-59030840D01*
X81090014Y-58843277D01*
X80939670Y-58678051D01*
X80935619Y-58674852D01*
X80935615Y-58674848D01*
X80768414Y-58542800D01*
X80768410Y-58542798D01*
X80764359Y-58539598D01*
X80568789Y-58431638D01*
X80563920Y-58429914D01*
X80563916Y-58429912D01*
X80363087Y-58358795D01*
X80363083Y-58358794D01*
X80358212Y-58357069D01*
X80353119Y-58356162D01*
X80353116Y-58356161D01*
X80143373Y-58318800D01*
X80143367Y-58318799D01*
X80138284Y-58317894D01*
X80064452Y-58316992D01*
X79920081Y-58315228D01*
X79920079Y-58315228D01*
X79914911Y-58315165D01*
X79694091Y-58348955D01*
X79481756Y-58418357D01*
X79451443Y-58434137D01*
X79301632Y-58512124D01*
X79283607Y-58521507D01*
X79279474Y-58524610D01*
X79279471Y-58524612D01*
X79109100Y-58652530D01*
X79104965Y-58655635D01*
X79101393Y-58659373D01*
X78955203Y-58812352D01*
X78950629Y-58817138D01*
X78947715Y-58821410D01*
X78947714Y-58821411D01*
X78877831Y-58923856D01*
X78824743Y-59001680D01*
X78809003Y-59035590D01*
X78743107Y-59177551D01*
X78730688Y-59204305D01*
X78670989Y-59419570D01*
X78647251Y-59641695D01*
X78647548Y-59646848D01*
X78647548Y-59646851D01*
X78659614Y-59856109D01*
X78660110Y-59864715D01*
X78661247Y-59869761D01*
X78661248Y-59869767D01*
X78678062Y-59944373D01*
X78709222Y-60082639D01*
X78793266Y-60289616D01*
X78795965Y-60294020D01*
X78904667Y-60471406D01*
X78909987Y-60480088D01*
X79056250Y-60648938D01*
X79228126Y-60791632D01*
X79298595Y-60832811D01*
X79301445Y-60834476D01*
X79350169Y-60886114D01*
X79363240Y-60955897D01*
X79336509Y-61021669D01*
X79296055Y-61055027D01*
X79283607Y-61061507D01*
X79279474Y-61064610D01*
X79279471Y-61064612D01*
X79159396Y-61154767D01*
X79104965Y-61195635D01*
X78950629Y-61357138D01*
X78947715Y-61361410D01*
X78947714Y-61361411D01*
X78922113Y-61398941D01*
X78824743Y-61541680D01*
X78730688Y-61744305D01*
X78670989Y-61959570D01*
X78647251Y-62181695D01*
X74168500Y-62181695D01*
X74168500Y-55846695D01*
X78647251Y-55846695D01*
X78647548Y-55851848D01*
X78647548Y-55851851D01*
X78653876Y-55961590D01*
X78660110Y-56069715D01*
X78661247Y-56074761D01*
X78661248Y-56074767D01*
X78663490Y-56084715D01*
X78709222Y-56287639D01*
X78793266Y-56494616D01*
X78909987Y-56685088D01*
X79056250Y-56853938D01*
X79228126Y-56996632D01*
X79421000Y-57109338D01*
X79629692Y-57189030D01*
X79634760Y-57190061D01*
X79634763Y-57190062D01*
X79708491Y-57205062D01*
X79848597Y-57233567D01*
X79853772Y-57233757D01*
X79853774Y-57233757D01*
X80066673Y-57241564D01*
X80066677Y-57241564D01*
X80071837Y-57241753D01*
X80076957Y-57241097D01*
X80076959Y-57241097D01*
X80288288Y-57214025D01*
X80288289Y-57214025D01*
X80293416Y-57213368D01*
X80298366Y-57211883D01*
X80502429Y-57150661D01*
X80502434Y-57150659D01*
X80507384Y-57149174D01*
X80707994Y-57050896D01*
X80889860Y-56921173D01*
X81048096Y-56763489D01*
X81107594Y-56680689D01*
X81175435Y-56586277D01*
X81178453Y-56582077D01*
X81267723Y-56401453D01*
X81275136Y-56386453D01*
X81275137Y-56386451D01*
X81277430Y-56381811D01*
X81309900Y-56274940D01*
X81340865Y-56173023D01*
X81340865Y-56173021D01*
X81342370Y-56168069D01*
X81371529Y-55946590D01*
X81372790Y-55895000D01*
X81373074Y-55883365D01*
X81373074Y-55883361D01*
X81373156Y-55880000D01*
X81371651Y-55861695D01*
X88807251Y-55861695D01*
X88807548Y-55866848D01*
X88807548Y-55866851D01*
X88813011Y-55961590D01*
X88820110Y-56084715D01*
X88821247Y-56089761D01*
X88821248Y-56089767D01*
X88837739Y-56162939D01*
X88869222Y-56302639D01*
X88953266Y-56509616D01*
X89069987Y-56700088D01*
X89216250Y-56868938D01*
X89388126Y-57011632D01*
X89581000Y-57124338D01*
X89789692Y-57204030D01*
X89794760Y-57205061D01*
X89794763Y-57205062D01*
X89902017Y-57226883D01*
X90008597Y-57248567D01*
X90013772Y-57248757D01*
X90013774Y-57248757D01*
X90226673Y-57256564D01*
X90226677Y-57256564D01*
X90231837Y-57256753D01*
X90236957Y-57256097D01*
X90236959Y-57256097D01*
X90448288Y-57229025D01*
X90448289Y-57229025D01*
X90453416Y-57228368D01*
X90458366Y-57226883D01*
X90662429Y-57165661D01*
X90662434Y-57165659D01*
X90667384Y-57164174D01*
X90867994Y-57065896D01*
X91049860Y-56936173D01*
X91208096Y-56778489D01*
X91221891Y-56759292D01*
X91335435Y-56601277D01*
X91338453Y-56597077D01*
X91345867Y-56582077D01*
X91435136Y-56401453D01*
X91435137Y-56401451D01*
X91437430Y-56396811D01*
X91502370Y-56183069D01*
X91531529Y-55961590D01*
X91531611Y-55958240D01*
X91533074Y-55898365D01*
X91533074Y-55898361D01*
X91533156Y-55895000D01*
X91514852Y-55672361D01*
X91460431Y-55455702D01*
X91371354Y-55250840D01*
X91250014Y-55063277D01*
X91099670Y-54898051D01*
X91095619Y-54894852D01*
X91095615Y-54894848D01*
X90928414Y-54762800D01*
X90928410Y-54762798D01*
X90924359Y-54759598D01*
X90883053Y-54736796D01*
X90833084Y-54686364D01*
X90818312Y-54616921D01*
X90843428Y-54550516D01*
X90870780Y-54523909D01*
X90914603Y-54492650D01*
X91049860Y-54396173D01*
X91208096Y-54238489D01*
X91221891Y-54219292D01*
X91335435Y-54061277D01*
X91338453Y-54057077D01*
X91345867Y-54042077D01*
X91435136Y-53861453D01*
X91435137Y-53861451D01*
X91437430Y-53856811D01*
X91502370Y-53643069D01*
X91531529Y-53421590D01*
X91531611Y-53418240D01*
X91533074Y-53358365D01*
X91533074Y-53358361D01*
X91533156Y-53355000D01*
X91514852Y-53132361D01*
X91460431Y-52915702D01*
X91371354Y-52710840D01*
X91250014Y-52523277D01*
X91232883Y-52504450D01*
X91102798Y-52361488D01*
X91071746Y-52297642D01*
X91080141Y-52227143D01*
X91125317Y-52172375D01*
X91151761Y-52158706D01*
X91258297Y-52118767D01*
X91266705Y-52115615D01*
X91383261Y-52028261D01*
X91470615Y-51911705D01*
X91494447Y-51848134D01*
X100091500Y-51848134D01*
X100098255Y-51910316D01*
X100149385Y-52046705D01*
X100236739Y-52163261D01*
X100353295Y-52250615D01*
X100489684Y-52301745D01*
X100551866Y-52308500D01*
X102648134Y-52308500D01*
X102710316Y-52301745D01*
X102846705Y-52250615D01*
X102963261Y-52163261D01*
X103050615Y-52046705D01*
X103101745Y-51910316D01*
X103108500Y-51848134D01*
X103108500Y-49751866D01*
X103101745Y-49689684D01*
X103050615Y-49553295D01*
X102963261Y-49436739D01*
X102846705Y-49349385D01*
X102710316Y-49298255D01*
X102648134Y-49291500D01*
X100551866Y-49291500D01*
X100489684Y-49298255D01*
X100353295Y-49349385D01*
X100236739Y-49436739D01*
X100149385Y-49553295D01*
X100098255Y-49689684D01*
X100091500Y-49751866D01*
X100091500Y-51848134D01*
X91494447Y-51848134D01*
X91521745Y-51775316D01*
X91528500Y-51713134D01*
X91528500Y-49916866D01*
X91521745Y-49854684D01*
X91470615Y-49718295D01*
X91383261Y-49601739D01*
X91266705Y-49514385D01*
X91130316Y-49463255D01*
X91068134Y-49456500D01*
X89271866Y-49456500D01*
X89209684Y-49463255D01*
X89073295Y-49514385D01*
X88956739Y-49601739D01*
X88869385Y-49718295D01*
X88818255Y-49854684D01*
X88811500Y-49916866D01*
X88811500Y-51713134D01*
X88818255Y-51775316D01*
X88869385Y-51911705D01*
X88956739Y-52028261D01*
X89073295Y-52115615D01*
X89081704Y-52118767D01*
X89081705Y-52118768D01*
X89190451Y-52159535D01*
X89247216Y-52202176D01*
X89271916Y-52268738D01*
X89256709Y-52338087D01*
X89237316Y-52364568D01*
X89128535Y-52478401D01*
X89110629Y-52497138D01*
X88984743Y-52681680D01*
X88969003Y-52715590D01*
X88895334Y-52874297D01*
X88890688Y-52884305D01*
X88830989Y-53099570D01*
X88807251Y-53321695D01*
X88807548Y-53326848D01*
X88807548Y-53326851D01*
X88812955Y-53420625D01*
X88820110Y-53544715D01*
X88821247Y-53549761D01*
X88821248Y-53549767D01*
X88837739Y-53622939D01*
X88869222Y-53762639D01*
X88953266Y-53969616D01*
X89069987Y-54160088D01*
X89216250Y-54328938D01*
X89388126Y-54471632D01*
X89451918Y-54508909D01*
X89461445Y-54514476D01*
X89510169Y-54566114D01*
X89523240Y-54635897D01*
X89496509Y-54701669D01*
X89456055Y-54735027D01*
X89443607Y-54741507D01*
X89439474Y-54744610D01*
X89439471Y-54744612D01*
X89269100Y-54872530D01*
X89264965Y-54875635D01*
X89261393Y-54879373D01*
X89128535Y-55018401D01*
X89110629Y-55037138D01*
X88984743Y-55221680D01*
X88969003Y-55255590D01*
X88895334Y-55414297D01*
X88890688Y-55424305D01*
X88830989Y-55639570D01*
X88807251Y-55861695D01*
X81371651Y-55861695D01*
X81354852Y-55657361D01*
X81300431Y-55440702D01*
X81211354Y-55235840D01*
X81090014Y-55048277D01*
X80939670Y-54883051D01*
X80935619Y-54879852D01*
X80935615Y-54879848D01*
X80768414Y-54747800D01*
X80768410Y-54747798D01*
X80764359Y-54744598D01*
X80723053Y-54721796D01*
X80673084Y-54671364D01*
X80658312Y-54601921D01*
X80683428Y-54535516D01*
X80710780Y-54508909D01*
X80767674Y-54468327D01*
X80889860Y-54381173D01*
X81048096Y-54223489D01*
X81107594Y-54140689D01*
X81175435Y-54046277D01*
X81178453Y-54042077D01*
X81267723Y-53861453D01*
X81275136Y-53846453D01*
X81275137Y-53846451D01*
X81277430Y-53841811D01*
X81309900Y-53734940D01*
X81340865Y-53633023D01*
X81340865Y-53633021D01*
X81342370Y-53628069D01*
X81371529Y-53406590D01*
X81372790Y-53355000D01*
X81373074Y-53343365D01*
X81373074Y-53343361D01*
X81373156Y-53340000D01*
X81354852Y-53117361D01*
X81300431Y-52900702D01*
X81211354Y-52695840D01*
X81090014Y-52508277D01*
X81086532Y-52504450D01*
X80942798Y-52346488D01*
X80911746Y-52282642D01*
X80920141Y-52212143D01*
X80965317Y-52157375D01*
X80991761Y-52143706D01*
X81098297Y-52103767D01*
X81106705Y-52100615D01*
X81223261Y-52013261D01*
X81310615Y-51896705D01*
X81361745Y-51760316D01*
X81368500Y-51698134D01*
X81368500Y-49901866D01*
X81361745Y-49839684D01*
X81310615Y-49703295D01*
X81223261Y-49586739D01*
X81106705Y-49499385D01*
X80970316Y-49448255D01*
X80908134Y-49441500D01*
X79111866Y-49441500D01*
X79049684Y-49448255D01*
X78913295Y-49499385D01*
X78796739Y-49586739D01*
X78709385Y-49703295D01*
X78658255Y-49839684D01*
X78651500Y-49901866D01*
X78651500Y-51698134D01*
X78658255Y-51760316D01*
X78709385Y-51896705D01*
X78796739Y-52013261D01*
X78913295Y-52100615D01*
X78921704Y-52103767D01*
X78921705Y-52103768D01*
X79030451Y-52144535D01*
X79087216Y-52187176D01*
X79111916Y-52253738D01*
X79096709Y-52323087D01*
X79077316Y-52349568D01*
X78950629Y-52482138D01*
X78824743Y-52666680D01*
X78730688Y-52869305D01*
X78670989Y-53084570D01*
X78647251Y-53306695D01*
X78647548Y-53311848D01*
X78647548Y-53311851D01*
X78653820Y-53420625D01*
X78660110Y-53529715D01*
X78661247Y-53534761D01*
X78661248Y-53534767D01*
X78666974Y-53560173D01*
X78709222Y-53747639D01*
X78793266Y-53954616D01*
X78909987Y-54145088D01*
X79056250Y-54313938D01*
X79228126Y-54456632D01*
X79248140Y-54468327D01*
X79301445Y-54499476D01*
X79350169Y-54551114D01*
X79363240Y-54620897D01*
X79336509Y-54686669D01*
X79296055Y-54720027D01*
X79283607Y-54726507D01*
X79279474Y-54729610D01*
X79279471Y-54729612D01*
X79235269Y-54762800D01*
X79104965Y-54860635D01*
X78950629Y-55022138D01*
X78824743Y-55206680D01*
X78730688Y-55409305D01*
X78670989Y-55624570D01*
X78647251Y-55846695D01*
X74168500Y-55846695D01*
X74168500Y-51848134D01*
X74691500Y-51848134D01*
X74698255Y-51910316D01*
X74749385Y-52046705D01*
X74836739Y-52163261D01*
X74953295Y-52250615D01*
X75089684Y-52301745D01*
X75151866Y-52308500D01*
X77248134Y-52308500D01*
X77310316Y-52301745D01*
X77446705Y-52250615D01*
X77563261Y-52163261D01*
X77650615Y-52046705D01*
X77701745Y-51910316D01*
X77708500Y-51848134D01*
X77708500Y-49751866D01*
X77701745Y-49689684D01*
X77650615Y-49553295D01*
X77563261Y-49436739D01*
X77446705Y-49349385D01*
X77310316Y-49298255D01*
X77248134Y-49291500D01*
X75151866Y-49291500D01*
X75089684Y-49298255D01*
X74953295Y-49349385D01*
X74836739Y-49436739D01*
X74749385Y-49553295D01*
X74698255Y-49689684D01*
X74691500Y-49751866D01*
X74691500Y-51848134D01*
X74168500Y-51848134D01*
X74168500Y-48894500D01*
X74188502Y-48826379D01*
X74242158Y-48779886D01*
X74294500Y-48768500D01*
X103505500Y-48768500D01*
X103573621Y-48788502D01*
G37*
%TD.AperFunction*%
%TD*%
M02*
