%FSLAX45Y45*%
G04 Gerber Fmt 4.5, Leading zero omitted, Abs format (unit mm)*
G04 Created by KiCad (PCBNEW 6.0.4) date 2022-03-30 22:58:50*
%MOMM*%
%LPD*%
G01*
G04 APERTURE LIST*
%TA.AperFunction,Profile*%
%ADD10C,0.100000*%
%TD*%
%ADD11C,0.200000*%
G04 APERTURE END LIST*
D10*
X10414000Y-4826000D02*
X7366000Y-4826000D01*
X10414000Y-6731000D02*
X10414000Y-4826000D01*
X7366000Y-6731000D02*
X10414000Y-6731000D01*
X7366000Y-4826000D02*
X7366000Y-6731000D01*
D11*
X7618619Y-7046476D02*
X7618619Y-6846476D01*
X7666238Y-6846476D01*
X7694809Y-6856000D01*
X7713857Y-6875048D01*
X7723381Y-6894095D01*
X7732905Y-6932190D01*
X7732905Y-6960762D01*
X7723381Y-6998857D01*
X7713857Y-7017905D01*
X7694809Y-7036952D01*
X7666238Y-7046476D01*
X7618619Y-7046476D01*
X7818619Y-7046476D02*
X7818619Y-6913143D01*
X7818619Y-6951238D02*
X7828143Y-6932190D01*
X7837667Y-6922667D01*
X7856714Y-6913143D01*
X7875762Y-6913143D01*
X7942428Y-7046476D02*
X7942428Y-6913143D01*
X7942428Y-6846476D02*
X7932905Y-6856000D01*
X7942428Y-6865524D01*
X7951952Y-6856000D01*
X7942428Y-6846476D01*
X7942428Y-6865524D01*
X8066238Y-7046476D02*
X8047190Y-7036952D01*
X8037667Y-7017905D01*
X8037667Y-6846476D01*
X8171000Y-7046476D02*
X8151952Y-7036952D01*
X8142428Y-7017905D01*
X8142428Y-6846476D01*
X8399571Y-7046476D02*
X8399571Y-6846476D01*
X8466238Y-6989333D01*
X8532905Y-6846476D01*
X8532905Y-7046476D01*
X8713857Y-7046476D02*
X8713857Y-6941714D01*
X8704333Y-6922667D01*
X8685286Y-6913143D01*
X8647190Y-6913143D01*
X8628143Y-6922667D01*
X8713857Y-7036952D02*
X8694810Y-7046476D01*
X8647190Y-7046476D01*
X8628143Y-7036952D01*
X8618619Y-7017905D01*
X8618619Y-6998857D01*
X8628143Y-6979809D01*
X8647190Y-6970286D01*
X8694810Y-6970286D01*
X8713857Y-6960762D01*
X8809095Y-6913143D02*
X8809095Y-7113143D01*
X8809095Y-6922667D02*
X8828143Y-6913143D01*
X8866238Y-6913143D01*
X8885286Y-6922667D01*
X8894810Y-6932190D01*
X8904333Y-6951238D01*
X8904333Y-7008381D01*
X8894810Y-7027428D01*
X8885286Y-7036952D01*
X8866238Y-7046476D01*
X8828143Y-7046476D01*
X8809095Y-7036952D01*
X8990048Y-7027428D02*
X8999571Y-7036952D01*
X8990048Y-7046476D01*
X8980524Y-7036952D01*
X8990048Y-7027428D01*
X8990048Y-7046476D01*
X8990048Y-6922667D02*
X8999571Y-6932190D01*
X8990048Y-6941714D01*
X8980524Y-6932190D01*
X8990048Y-6922667D01*
X8990048Y-6941714D01*
M02*
