%FSLAX45Y45*%
G04 Gerber Fmt 4.5, Leading zero omitted, Abs format (unit mm)*
G04 Created by KiCad (PCBNEW 5.1.6) date 2020-08-30 23:31:24*
%MOMM*%
%LPD*%
G01*
G04 APERTURE LIST*
%TA.AperFunction,Profile*%
%ADD10C,0.050000*%
%TD*%
%ADD11C,0.200000*%
%ADD12C,0.300000*%
G04 APERTURE END LIST*
D10*
X9118600Y-3632200D02*
X5638800Y-3632200D01*
X9118600Y-4775200D02*
X9118600Y-3632200D01*
X5638800Y-4775200D02*
X9118600Y-4775200D01*
X5638800Y-3632200D02*
X5638800Y-4775200D01*
D11*
D12*
X5922728Y-5243414D02*
X5922728Y-4943414D01*
X5994157Y-4943414D01*
X6037014Y-4957700D01*
X6065586Y-4986272D01*
X6079871Y-5014843D01*
X6094157Y-5071986D01*
X6094157Y-5114843D01*
X6079871Y-5171986D01*
X6065586Y-5200557D01*
X6037014Y-5229129D01*
X5994157Y-5243414D01*
X5922728Y-5243414D01*
X6222728Y-5243414D02*
X6222728Y-5043414D01*
X6222728Y-5100557D02*
X6237014Y-5071986D01*
X6251300Y-5057700D01*
X6279871Y-5043414D01*
X6308443Y-5043414D01*
X6408443Y-5243414D02*
X6408443Y-5043414D01*
X6408443Y-4943414D02*
X6394157Y-4957700D01*
X6408443Y-4971986D01*
X6422728Y-4957700D01*
X6408443Y-4943414D01*
X6408443Y-4971986D01*
X6594157Y-5243414D02*
X6565586Y-5229129D01*
X6551300Y-5200557D01*
X6551300Y-4943414D01*
X6751300Y-5243414D02*
X6722728Y-5229129D01*
X6708443Y-5200557D01*
X6708443Y-4943414D01*
X7094157Y-5243414D02*
X7094157Y-4943414D01*
X7194157Y-5157700D01*
X7294157Y-4943414D01*
X7294157Y-5243414D01*
X7565586Y-5243414D02*
X7565586Y-5086272D01*
X7551300Y-5057700D01*
X7522728Y-5043414D01*
X7465586Y-5043414D01*
X7437014Y-5057700D01*
X7565586Y-5229129D02*
X7537014Y-5243414D01*
X7465586Y-5243414D01*
X7437014Y-5229129D01*
X7422728Y-5200557D01*
X7422728Y-5171986D01*
X7437014Y-5143414D01*
X7465586Y-5129129D01*
X7537014Y-5129129D01*
X7565586Y-5114843D01*
X7708443Y-5043414D02*
X7708443Y-5343414D01*
X7708443Y-5057700D02*
X7737014Y-5043414D01*
X7794157Y-5043414D01*
X7822728Y-5057700D01*
X7837014Y-5071986D01*
X7851300Y-5100557D01*
X7851300Y-5186272D01*
X7837014Y-5214843D01*
X7822728Y-5229129D01*
X7794157Y-5243414D01*
X7737014Y-5243414D01*
X7708443Y-5229129D01*
X7979871Y-5214843D02*
X7994157Y-5229129D01*
X7979871Y-5243414D01*
X7965586Y-5229129D01*
X7979871Y-5214843D01*
X7979871Y-5243414D01*
X7979871Y-5057700D02*
X7994157Y-5071986D01*
X7979871Y-5086272D01*
X7965586Y-5071986D01*
X7979871Y-5057700D01*
X7979871Y-5086272D01*
M02*
