%TF.GenerationSoftware,KiCad,Pcbnew,5.1.6*%
%TF.CreationDate,2020-08-30T23:31:21+02:00*%
%TF.ProjectId,power-toggle-on-hold-off,706f7765-722d-4746-9f67-676c652d6f6e,rev?*%
%TF.SameCoordinates,Original*%
%TF.FileFunction,Copper,L1,Top*%
%TF.FilePolarity,Positive*%
%FSLAX46Y46*%
G04 Gerber Fmt 4.6, Leading zero omitted, Abs format (unit mm)*
G04 Created by KiCad (PCBNEW 5.1.6) date 2020-08-30 23:31:21*
%MOMM*%
%LPD*%
G01*
G04 APERTURE LIST*
%TA.AperFunction,EtchedComponent*%
%ADD10C,0.100000*%
%TD*%
%TA.AperFunction,SMDPad,CuDef*%
%ADD11R,1.700000X0.900000*%
%TD*%
%TA.AperFunction,SMDPad,CuDef*%
%ADD12R,1.500000X0.400000*%
%TD*%
%TA.AperFunction,SMDPad,CuDef*%
%ADD13C,2.000000*%
%TD*%
%TA.AperFunction,SMDPad,CuDef*%
%ADD14C,0.100000*%
%TD*%
%TA.AperFunction,SMDPad,CuDef*%
%ADD15R,1.500000X1.000000*%
%TD*%
%TA.AperFunction,ComponentPad*%
%ADD16O,1.700000X1.700000*%
%TD*%
%TA.AperFunction,ComponentPad*%
%ADD17R,1.700000X1.700000*%
%TD*%
%TA.AperFunction,Conductor*%
%ADD18C,0.500000*%
%TD*%
%TA.AperFunction,Conductor*%
%ADD19C,0.400000*%
%TD*%
%TA.AperFunction,Conductor*%
%ADD20C,0.100000*%
%TD*%
G04 APERTURE END LIST*
D10*
%TO.C,SW2*%
G36*
X79040000Y-42788000D02*
G01*
X79040000Y-43288000D01*
X78440000Y-43288000D01*
X78440000Y-42788000D01*
X79040000Y-42788000D01*
G37*
%TD*%
D11*
%TO.P,SW1,2*%
%TO.N,Net-(C1-Pad2)*%
X58166000Y-43258000D03*
%TO.P,SW1,1*%
%TO.N,GND*%
X58166000Y-46658000D03*
%TD*%
D12*
%TO.P,U1,6*%
%TO.N,Net-(C1-Pad1)*%
X76140000Y-40528000D03*
%TO.P,U1,5*%
X76140000Y-39878000D03*
%TO.P,U1,4*%
%TO.N,VCC*%
X76140000Y-39228000D03*
%TO.P,U1,3*%
%TO.N,Net-(C5-Pad2)*%
X78800000Y-39228000D03*
%TO.P,U1,2*%
%TO.N,Net-(C5-Pad1)*%
X78800000Y-39878000D03*
%TO.P,U1,1*%
%TO.N,GND*%
X78800000Y-40528000D03*
%TD*%
D13*
%TO.P,TP5,1*%
%TO.N,Net-(C5-Pad2)*%
X89154000Y-43942000D03*
%TD*%
%TO.P,TP4,1*%
%TO.N,Net-(D1-Pad2)*%
X85344000Y-43942000D03*
%TD*%
%TO.P,TP3,1*%
%TO.N,Net-(C1-Pad1)*%
X71374000Y-43180000D03*
%TD*%
%TO.P,TP2,1*%
%TO.N,Net-(C1-Pad2)*%
X61468000Y-41148000D03*
%TD*%
%TO.P,TP1,1*%
%TO.N,VCC*%
X61468000Y-38100000D03*
%TD*%
%TA.AperFunction,SMDPad,CuDef*%
D14*
%TO.P,SW2,1*%
%TO.N,VCC*%
G36*
X77990000Y-42938000D02*
G01*
X77990000Y-42388000D01*
X77990602Y-42388000D01*
X77990602Y-42363466D01*
X77995412Y-42314635D01*
X78004984Y-42266510D01*
X78019228Y-42219555D01*
X78038005Y-42174222D01*
X78061136Y-42130949D01*
X78088396Y-42090150D01*
X78119524Y-42052221D01*
X78154221Y-42017524D01*
X78192150Y-41986396D01*
X78232949Y-41959136D01*
X78276222Y-41936005D01*
X78321555Y-41917228D01*
X78368510Y-41902984D01*
X78416635Y-41893412D01*
X78465466Y-41888602D01*
X78490000Y-41888602D01*
X78490000Y-41888000D01*
X78990000Y-41888000D01*
X78990000Y-41888602D01*
X79014534Y-41888602D01*
X79063365Y-41893412D01*
X79111490Y-41902984D01*
X79158445Y-41917228D01*
X79203778Y-41936005D01*
X79247051Y-41959136D01*
X79287850Y-41986396D01*
X79325779Y-42017524D01*
X79360476Y-42052221D01*
X79391604Y-42090150D01*
X79418864Y-42130949D01*
X79441995Y-42174222D01*
X79460772Y-42219555D01*
X79475016Y-42266510D01*
X79484588Y-42314635D01*
X79489398Y-42363466D01*
X79489398Y-42388000D01*
X79490000Y-42388000D01*
X79490000Y-42938000D01*
X77990000Y-42938000D01*
G37*
%TD.AperFunction*%
D15*
%TO.P,SW2,2*%
%TO.N,Net-(C3-Pad2)*%
X78740000Y-43688000D03*
%TA.AperFunction,SMDPad,CuDef*%
D14*
%TO.P,SW2,3*%
%TO.N,GND*%
G36*
X79489398Y-44988000D02*
G01*
X79489398Y-45012534D01*
X79484588Y-45061365D01*
X79475016Y-45109490D01*
X79460772Y-45156445D01*
X79441995Y-45201778D01*
X79418864Y-45245051D01*
X79391604Y-45285850D01*
X79360476Y-45323779D01*
X79325779Y-45358476D01*
X79287850Y-45389604D01*
X79247051Y-45416864D01*
X79203778Y-45439995D01*
X79158445Y-45458772D01*
X79111490Y-45473016D01*
X79063365Y-45482588D01*
X79014534Y-45487398D01*
X78990000Y-45487398D01*
X78990000Y-45488000D01*
X78490000Y-45488000D01*
X78490000Y-45487398D01*
X78465466Y-45487398D01*
X78416635Y-45482588D01*
X78368510Y-45473016D01*
X78321555Y-45458772D01*
X78276222Y-45439995D01*
X78232949Y-45416864D01*
X78192150Y-45389604D01*
X78154221Y-45358476D01*
X78119524Y-45323779D01*
X78088396Y-45285850D01*
X78061136Y-45245051D01*
X78038005Y-45201778D01*
X78019228Y-45156445D01*
X78004984Y-45109490D01*
X77995412Y-45061365D01*
X77990602Y-45012534D01*
X77990602Y-44988000D01*
X77990000Y-44988000D01*
X77990000Y-44438000D01*
X79490000Y-44438000D01*
X79490000Y-44988000D01*
X79489398Y-44988000D01*
G37*
%TD.AperFunction*%
%TD*%
%TO.P,R7,2*%
%TO.N,Net-(D2-Pad2)*%
%TA.AperFunction,SMDPad,CuDef*%
G36*
G01*
X88916500Y-40341000D02*
X89391500Y-40341000D01*
G75*
G02*
X89629000Y-40578500I0J-237500D01*
G01*
X89629000Y-41153500D01*
G75*
G02*
X89391500Y-41391000I-237500J0D01*
G01*
X88916500Y-41391000D01*
G75*
G02*
X88679000Y-41153500I0J237500D01*
G01*
X88679000Y-40578500D01*
G75*
G02*
X88916500Y-40341000I237500J0D01*
G01*
G37*
%TD.AperFunction*%
%TO.P,R7,1*%
%TO.N,Net-(C5-Pad2)*%
%TA.AperFunction,SMDPad,CuDef*%
G36*
G01*
X88916500Y-38591000D02*
X89391500Y-38591000D01*
G75*
G02*
X89629000Y-38828500I0J-237500D01*
G01*
X89629000Y-39403500D01*
G75*
G02*
X89391500Y-39641000I-237500J0D01*
G01*
X88916500Y-39641000D01*
G75*
G02*
X88679000Y-39403500I0J237500D01*
G01*
X88679000Y-38828500D01*
G75*
G02*
X88916500Y-38591000I237500J0D01*
G01*
G37*
%TD.AperFunction*%
%TD*%
%TO.P,R6,2*%
%TO.N,Net-(C5-Pad2)*%
%TA.AperFunction,SMDPad,CuDef*%
G36*
G01*
X87613500Y-39641000D02*
X87138500Y-39641000D01*
G75*
G02*
X86901000Y-39403500I0J237500D01*
G01*
X86901000Y-38828500D01*
G75*
G02*
X87138500Y-38591000I237500J0D01*
G01*
X87613500Y-38591000D01*
G75*
G02*
X87851000Y-38828500I0J-237500D01*
G01*
X87851000Y-39403500D01*
G75*
G02*
X87613500Y-39641000I-237500J0D01*
G01*
G37*
%TD.AperFunction*%
%TO.P,R6,1*%
%TO.N,Net-(D1-Pad2)*%
%TA.AperFunction,SMDPad,CuDef*%
G36*
G01*
X87613500Y-41391000D02*
X87138500Y-41391000D01*
G75*
G02*
X86901000Y-41153500I0J237500D01*
G01*
X86901000Y-40578500D01*
G75*
G02*
X87138500Y-40341000I237500J0D01*
G01*
X87613500Y-40341000D01*
G75*
G02*
X87851000Y-40578500I0J-237500D01*
G01*
X87851000Y-41153500D01*
G75*
G02*
X87613500Y-41391000I-237500J0D01*
G01*
G37*
%TD.AperFunction*%
%TD*%
%TO.P,R5,2*%
%TO.N,Net-(C5-Pad1)*%
%TA.AperFunction,SMDPad,CuDef*%
G36*
G01*
X81692000Y-42434500D02*
X81692000Y-42909500D01*
G75*
G02*
X81454500Y-43147000I-237500J0D01*
G01*
X80879500Y-43147000D01*
G75*
G02*
X80642000Y-42909500I0J237500D01*
G01*
X80642000Y-42434500D01*
G75*
G02*
X80879500Y-42197000I237500J0D01*
G01*
X81454500Y-42197000D01*
G75*
G02*
X81692000Y-42434500I0J-237500D01*
G01*
G37*
%TD.AperFunction*%
%TO.P,R5,1*%
%TO.N,Net-(D1-Pad2)*%
%TA.AperFunction,SMDPad,CuDef*%
G36*
G01*
X83442000Y-42434500D02*
X83442000Y-42909500D01*
G75*
G02*
X83204500Y-43147000I-237500J0D01*
G01*
X82629500Y-43147000D01*
G75*
G02*
X82392000Y-42909500I0J237500D01*
G01*
X82392000Y-42434500D01*
G75*
G02*
X82629500Y-42197000I237500J0D01*
G01*
X83204500Y-42197000D01*
G75*
G02*
X83442000Y-42434500I0J-237500D01*
G01*
G37*
%TD.AperFunction*%
%TD*%
%TO.P,R4,2*%
%TO.N,Net-(C1-Pad1)*%
%TA.AperFunction,SMDPad,CuDef*%
G36*
G01*
X73676500Y-40228000D02*
X74151500Y-40228000D01*
G75*
G02*
X74389000Y-40465500I0J-237500D01*
G01*
X74389000Y-41040500D01*
G75*
G02*
X74151500Y-41278000I-237500J0D01*
G01*
X73676500Y-41278000D01*
G75*
G02*
X73439000Y-41040500I0J237500D01*
G01*
X73439000Y-40465500D01*
G75*
G02*
X73676500Y-40228000I237500J0D01*
G01*
G37*
%TD.AperFunction*%
%TO.P,R4,1*%
%TO.N,VCC*%
%TA.AperFunction,SMDPad,CuDef*%
G36*
G01*
X73676500Y-38478000D02*
X74151500Y-38478000D01*
G75*
G02*
X74389000Y-38715500I0J-237500D01*
G01*
X74389000Y-39290500D01*
G75*
G02*
X74151500Y-39528000I-237500J0D01*
G01*
X73676500Y-39528000D01*
G75*
G02*
X73439000Y-39290500I0J237500D01*
G01*
X73439000Y-38715500D01*
G75*
G02*
X73676500Y-38478000I237500J0D01*
G01*
G37*
%TD.AperFunction*%
%TD*%
%TO.P,R3,2*%
%TO.N,Net-(C1-Pad1)*%
%TA.AperFunction,SMDPad,CuDef*%
G36*
G01*
X71898500Y-40228000D02*
X72373500Y-40228000D01*
G75*
G02*
X72611000Y-40465500I0J-237500D01*
G01*
X72611000Y-41040500D01*
G75*
G02*
X72373500Y-41278000I-237500J0D01*
G01*
X71898500Y-41278000D01*
G75*
G02*
X71661000Y-41040500I0J237500D01*
G01*
X71661000Y-40465500D01*
G75*
G02*
X71898500Y-40228000I237500J0D01*
G01*
G37*
%TD.AperFunction*%
%TO.P,R3,1*%
%TO.N,VCC*%
%TA.AperFunction,SMDPad,CuDef*%
G36*
G01*
X71898500Y-38478000D02*
X72373500Y-38478000D01*
G75*
G02*
X72611000Y-38715500I0J-237500D01*
G01*
X72611000Y-39290500D01*
G75*
G02*
X72373500Y-39528000I-237500J0D01*
G01*
X71898500Y-39528000D01*
G75*
G02*
X71661000Y-39290500I0J237500D01*
G01*
X71661000Y-38715500D01*
G75*
G02*
X71898500Y-38478000I237500J0D01*
G01*
G37*
%TD.AperFunction*%
%TD*%
%TO.P,R2,2*%
%TO.N,Net-(C1-Pad2)*%
%TA.AperFunction,SMDPad,CuDef*%
G36*
G01*
X65548500Y-40228000D02*
X66023500Y-40228000D01*
G75*
G02*
X66261000Y-40465500I0J-237500D01*
G01*
X66261000Y-41040500D01*
G75*
G02*
X66023500Y-41278000I-237500J0D01*
G01*
X65548500Y-41278000D01*
G75*
G02*
X65311000Y-41040500I0J237500D01*
G01*
X65311000Y-40465500D01*
G75*
G02*
X65548500Y-40228000I237500J0D01*
G01*
G37*
%TD.AperFunction*%
%TO.P,R2,1*%
%TO.N,VCC*%
%TA.AperFunction,SMDPad,CuDef*%
G36*
G01*
X65548500Y-38478000D02*
X66023500Y-38478000D01*
G75*
G02*
X66261000Y-38715500I0J-237500D01*
G01*
X66261000Y-39290500D01*
G75*
G02*
X66023500Y-39528000I-237500J0D01*
G01*
X65548500Y-39528000D01*
G75*
G02*
X65311000Y-39290500I0J237500D01*
G01*
X65311000Y-38715500D01*
G75*
G02*
X65548500Y-38478000I237500J0D01*
G01*
G37*
%TD.AperFunction*%
%TD*%
%TO.P,R1,2*%
%TO.N,Net-(C1-Pad2)*%
%TA.AperFunction,SMDPad,CuDef*%
G36*
G01*
X63770500Y-40228000D02*
X64245500Y-40228000D01*
G75*
G02*
X64483000Y-40465500I0J-237500D01*
G01*
X64483000Y-41040500D01*
G75*
G02*
X64245500Y-41278000I-237500J0D01*
G01*
X63770500Y-41278000D01*
G75*
G02*
X63533000Y-41040500I0J237500D01*
G01*
X63533000Y-40465500D01*
G75*
G02*
X63770500Y-40228000I237500J0D01*
G01*
G37*
%TD.AperFunction*%
%TO.P,R1,1*%
%TO.N,VCC*%
%TA.AperFunction,SMDPad,CuDef*%
G36*
G01*
X63770500Y-38478000D02*
X64245500Y-38478000D01*
G75*
G02*
X64483000Y-38715500I0J-237500D01*
G01*
X64483000Y-39290500D01*
G75*
G02*
X64245500Y-39528000I-237500J0D01*
G01*
X63770500Y-39528000D01*
G75*
G02*
X63533000Y-39290500I0J237500D01*
G01*
X63533000Y-38715500D01*
G75*
G02*
X63770500Y-38478000I237500J0D01*
G01*
G37*
%TD.AperFunction*%
%TD*%
D16*
%TO.P,J1,2*%
%TO.N,VCC*%
X58166000Y-38100000D03*
D17*
%TO.P,J1,1*%
%TO.N,GND*%
X58166000Y-40640000D03*
%TD*%
%TO.P,D2,2*%
%TO.N,Net-(D2-Pad2)*%
%TA.AperFunction,SMDPad,CuDef*%
G36*
G01*
X82492000Y-45154001D02*
X82492000Y-44253999D01*
G75*
G02*
X82741999Y-44004000I249999J0D01*
G01*
X83392001Y-44004000D01*
G75*
G02*
X83642000Y-44253999I0J-249999D01*
G01*
X83642000Y-45154001D01*
G75*
G02*
X83392001Y-45404000I-249999J0D01*
G01*
X82741999Y-45404000D01*
G75*
G02*
X82492000Y-45154001I0J249999D01*
G01*
G37*
%TD.AperFunction*%
%TO.P,D2,1*%
%TO.N,GND*%
%TA.AperFunction,SMDPad,CuDef*%
G36*
G01*
X80442000Y-45154001D02*
X80442000Y-44253999D01*
G75*
G02*
X80691999Y-44004000I249999J0D01*
G01*
X81342001Y-44004000D01*
G75*
G02*
X81592000Y-44253999I0J-249999D01*
G01*
X81592000Y-45154001D01*
G75*
G02*
X81342001Y-45404000I-249999J0D01*
G01*
X80691999Y-45404000D01*
G75*
G02*
X80442000Y-45154001I0J249999D01*
G01*
G37*
%TD.AperFunction*%
%TD*%
%TO.P,D1,2*%
%TO.N,Net-(D1-Pad2)*%
%TA.AperFunction,SMDPad,CuDef*%
G36*
G01*
X67361750Y-44392000D02*
X68274250Y-44392000D01*
G75*
G02*
X68518000Y-44635750I0J-243750D01*
G01*
X68518000Y-45123250D01*
G75*
G02*
X68274250Y-45367000I-243750J0D01*
G01*
X67361750Y-45367000D01*
G75*
G02*
X67118000Y-45123250I0J243750D01*
G01*
X67118000Y-44635750D01*
G75*
G02*
X67361750Y-44392000I243750J0D01*
G01*
G37*
%TD.AperFunction*%
%TO.P,D1,1*%
%TO.N,Net-(C1-Pad2)*%
%TA.AperFunction,SMDPad,CuDef*%
G36*
G01*
X67361750Y-42517000D02*
X68274250Y-42517000D01*
G75*
G02*
X68518000Y-42760750I0J-243750D01*
G01*
X68518000Y-43248250D01*
G75*
G02*
X68274250Y-43492000I-243750J0D01*
G01*
X67361750Y-43492000D01*
G75*
G02*
X67118000Y-43248250I0J243750D01*
G01*
X67118000Y-42760750D01*
G75*
G02*
X67361750Y-42517000I243750J0D01*
G01*
G37*
%TD.AperFunction*%
%TD*%
%TO.P,C7,2*%
%TO.N,Net-(C5-Pad2)*%
%TA.AperFunction,SMDPad,CuDef*%
G36*
G01*
X85794001Y-39428000D02*
X84893999Y-39428000D01*
G75*
G02*
X84644000Y-39178001I0J249999D01*
G01*
X84644000Y-38527999D01*
G75*
G02*
X84893999Y-38278000I249999J0D01*
G01*
X85794001Y-38278000D01*
G75*
G02*
X86044000Y-38527999I0J-249999D01*
G01*
X86044000Y-39178001D01*
G75*
G02*
X85794001Y-39428000I-249999J0D01*
G01*
G37*
%TD.AperFunction*%
%TO.P,C7,1*%
%TO.N,Net-(C5-Pad1)*%
%TA.AperFunction,SMDPad,CuDef*%
G36*
G01*
X85794001Y-41478000D02*
X84893999Y-41478000D01*
G75*
G02*
X84644000Y-41228001I0J249999D01*
G01*
X84644000Y-40577999D01*
G75*
G02*
X84893999Y-40328000I249999J0D01*
G01*
X85794001Y-40328000D01*
G75*
G02*
X86044000Y-40577999I0J-249999D01*
G01*
X86044000Y-41228001D01*
G75*
G02*
X85794001Y-41478000I-249999J0D01*
G01*
G37*
%TD.AperFunction*%
%TD*%
%TO.P,C6,2*%
%TO.N,Net-(C5-Pad2)*%
%TA.AperFunction,SMDPad,CuDef*%
G36*
G01*
X83762001Y-39437000D02*
X82861999Y-39437000D01*
G75*
G02*
X82612000Y-39187001I0J249999D01*
G01*
X82612000Y-38536999D01*
G75*
G02*
X82861999Y-38287000I249999J0D01*
G01*
X83762001Y-38287000D01*
G75*
G02*
X84012000Y-38536999I0J-249999D01*
G01*
X84012000Y-39187001D01*
G75*
G02*
X83762001Y-39437000I-249999J0D01*
G01*
G37*
%TD.AperFunction*%
%TO.P,C6,1*%
%TO.N,Net-(C5-Pad1)*%
%TA.AperFunction,SMDPad,CuDef*%
G36*
G01*
X83762001Y-41487000D02*
X82861999Y-41487000D01*
G75*
G02*
X82612000Y-41237001I0J249999D01*
G01*
X82612000Y-40586999D01*
G75*
G02*
X82861999Y-40337000I249999J0D01*
G01*
X83762001Y-40337000D01*
G75*
G02*
X84012000Y-40586999I0J-249999D01*
G01*
X84012000Y-41237001D01*
G75*
G02*
X83762001Y-41487000I-249999J0D01*
G01*
G37*
%TD.AperFunction*%
%TD*%
%TO.P,C5,2*%
%TO.N,Net-(C5-Pad2)*%
%TA.AperFunction,SMDPad,CuDef*%
G36*
G01*
X81730001Y-39437000D02*
X80829999Y-39437000D01*
G75*
G02*
X80580000Y-39187001I0J249999D01*
G01*
X80580000Y-38536999D01*
G75*
G02*
X80829999Y-38287000I249999J0D01*
G01*
X81730001Y-38287000D01*
G75*
G02*
X81980000Y-38536999I0J-249999D01*
G01*
X81980000Y-39187001D01*
G75*
G02*
X81730001Y-39437000I-249999J0D01*
G01*
G37*
%TD.AperFunction*%
%TO.P,C5,1*%
%TO.N,Net-(C5-Pad1)*%
%TA.AperFunction,SMDPad,CuDef*%
G36*
G01*
X81730001Y-41487000D02*
X80829999Y-41487000D01*
G75*
G02*
X80580000Y-41237001I0J249999D01*
G01*
X80580000Y-40586999D01*
G75*
G02*
X80829999Y-40337000I249999J0D01*
G01*
X81730001Y-40337000D01*
G75*
G02*
X81980000Y-40586999I0J-249999D01*
G01*
X81980000Y-41237001D01*
G75*
G02*
X81730001Y-41487000I-249999J0D01*
G01*
G37*
%TD.AperFunction*%
%TD*%
%TO.P,C4,2*%
%TO.N,Net-(C3-Pad2)*%
%TA.AperFunction,SMDPad,CuDef*%
G36*
G01*
X75749999Y-44401000D02*
X76650001Y-44401000D01*
G75*
G02*
X76900000Y-44650999I0J-249999D01*
G01*
X76900000Y-45301001D01*
G75*
G02*
X76650001Y-45551000I-249999J0D01*
G01*
X75749999Y-45551000D01*
G75*
G02*
X75500000Y-45301001I0J249999D01*
G01*
X75500000Y-44650999D01*
G75*
G02*
X75749999Y-44401000I249999J0D01*
G01*
G37*
%TD.AperFunction*%
%TO.P,C4,1*%
%TO.N,Net-(C1-Pad1)*%
%TA.AperFunction,SMDPad,CuDef*%
G36*
G01*
X75749999Y-42351000D02*
X76650001Y-42351000D01*
G75*
G02*
X76900000Y-42600999I0J-249999D01*
G01*
X76900000Y-43251001D01*
G75*
G02*
X76650001Y-43501000I-249999J0D01*
G01*
X75749999Y-43501000D01*
G75*
G02*
X75500000Y-43251001I0J249999D01*
G01*
X75500000Y-42600999D01*
G75*
G02*
X75749999Y-42351000I249999J0D01*
G01*
G37*
%TD.AperFunction*%
%TD*%
%TO.P,C3,2*%
%TO.N,Net-(C3-Pad2)*%
%TA.AperFunction,SMDPad,CuDef*%
G36*
G01*
X73463999Y-44401000D02*
X74364001Y-44401000D01*
G75*
G02*
X74614000Y-44650999I0J-249999D01*
G01*
X74614000Y-45301001D01*
G75*
G02*
X74364001Y-45551000I-249999J0D01*
G01*
X73463999Y-45551000D01*
G75*
G02*
X73214000Y-45301001I0J249999D01*
G01*
X73214000Y-44650999D01*
G75*
G02*
X73463999Y-44401000I249999J0D01*
G01*
G37*
%TD.AperFunction*%
%TO.P,C3,1*%
%TO.N,Net-(C1-Pad1)*%
%TA.AperFunction,SMDPad,CuDef*%
G36*
G01*
X73463999Y-42351000D02*
X74364001Y-42351000D01*
G75*
G02*
X74614000Y-42600999I0J-249999D01*
G01*
X74614000Y-43251001D01*
G75*
G02*
X74364001Y-43501000I-249999J0D01*
G01*
X73463999Y-43501000D01*
G75*
G02*
X73214000Y-43251001I0J249999D01*
G01*
X73214000Y-42600999D01*
G75*
G02*
X73463999Y-42351000I249999J0D01*
G01*
G37*
%TD.AperFunction*%
%TD*%
%TO.P,C2,2*%
%TO.N,Net-(C1-Pad2)*%
%TA.AperFunction,SMDPad,CuDef*%
G36*
G01*
X67367999Y-40328000D02*
X68268001Y-40328000D01*
G75*
G02*
X68518000Y-40577999I0J-249999D01*
G01*
X68518000Y-41228001D01*
G75*
G02*
X68268001Y-41478000I-249999J0D01*
G01*
X67367999Y-41478000D01*
G75*
G02*
X67118000Y-41228001I0J249999D01*
G01*
X67118000Y-40577999D01*
G75*
G02*
X67367999Y-40328000I249999J0D01*
G01*
G37*
%TD.AperFunction*%
%TO.P,C2,1*%
%TO.N,Net-(C1-Pad1)*%
%TA.AperFunction,SMDPad,CuDef*%
G36*
G01*
X67367999Y-38278000D02*
X68268001Y-38278000D01*
G75*
G02*
X68518000Y-38527999I0J-249999D01*
G01*
X68518000Y-39178001D01*
G75*
G02*
X68268001Y-39428000I-249999J0D01*
G01*
X67367999Y-39428000D01*
G75*
G02*
X67118000Y-39178001I0J249999D01*
G01*
X67118000Y-38527999D01*
G75*
G02*
X67367999Y-38278000I249999J0D01*
G01*
G37*
%TD.AperFunction*%
%TD*%
%TO.P,C1,2*%
%TO.N,Net-(C1-Pad2)*%
%TA.AperFunction,SMDPad,CuDef*%
G36*
G01*
X69653999Y-40328000D02*
X70554001Y-40328000D01*
G75*
G02*
X70804000Y-40577999I0J-249999D01*
G01*
X70804000Y-41228001D01*
G75*
G02*
X70554001Y-41478000I-249999J0D01*
G01*
X69653999Y-41478000D01*
G75*
G02*
X69404000Y-41228001I0J249999D01*
G01*
X69404000Y-40577999D01*
G75*
G02*
X69653999Y-40328000I249999J0D01*
G01*
G37*
%TD.AperFunction*%
%TO.P,C1,1*%
%TO.N,Net-(C1-Pad1)*%
%TA.AperFunction,SMDPad,CuDef*%
G36*
G01*
X69653999Y-38278000D02*
X70554001Y-38278000D01*
G75*
G02*
X70804000Y-38527999I0J-249999D01*
G01*
X70804000Y-39178001D01*
G75*
G02*
X70554001Y-39428000I-249999J0D01*
G01*
X69653999Y-39428000D01*
G75*
G02*
X69404000Y-39178001I0J249999D01*
G01*
X69404000Y-38527999D01*
G75*
G02*
X69653999Y-38278000I249999J0D01*
G01*
G37*
%TD.AperFunction*%
%TD*%
D18*
%TO.N,GND*%
X80733000Y-44988000D02*
X81017000Y-44704000D01*
X78740000Y-44988000D02*
X80733000Y-44988000D01*
X71401010Y-46001010D02*
X69342000Y-43942000D01*
X77726990Y-46001010D02*
X71401010Y-46001010D01*
X63754000Y-43942000D02*
X61038000Y-46658000D01*
X69342000Y-43942000D02*
X63754000Y-43942000D01*
X61038000Y-46658000D02*
X58166000Y-46658000D01*
X78740000Y-44988000D02*
X77726990Y-46001010D01*
X58166000Y-46658000D02*
X57580000Y-46658000D01*
X56865999Y-41940001D02*
X58166000Y-40640000D01*
X56865999Y-45943999D02*
X56865999Y-41940001D01*
X57580000Y-46658000D02*
X56865999Y-45943999D01*
X79940010Y-41668010D02*
X79940010Y-44988000D01*
X78800000Y-40528000D02*
X79940010Y-41668010D01*
%TO.N,Net-(C1-Pad1)*%
X73914000Y-42926000D02*
X76200000Y-42926000D01*
X67818000Y-38853000D02*
X70104000Y-38853000D01*
X70236000Y-38853000D02*
X72136000Y-40753000D01*
X70104000Y-38853000D02*
X70236000Y-38853000D01*
X72136000Y-40753000D02*
X73914000Y-40753000D01*
X75915000Y-40753000D02*
X76140000Y-40528000D01*
X73914000Y-40753000D02*
X75915000Y-40753000D01*
X76140000Y-40528000D02*
X76140000Y-39928010D01*
X71628000Y-42926000D02*
X71374000Y-43180000D01*
X73914000Y-42926000D02*
X71628000Y-42926000D01*
X73914000Y-40753000D02*
X73914000Y-42926000D01*
%TO.N,Net-(D1-Pad2)*%
X82917000Y-42672000D02*
X85344000Y-42672000D01*
X85344000Y-42672000D02*
X85344000Y-43942000D01*
X85570000Y-42672000D02*
X87376000Y-40866000D01*
X85344000Y-42672000D02*
X85570000Y-42672000D01*
X82042000Y-43688000D02*
X82917000Y-42813000D01*
X82042000Y-45720000D02*
X82042000Y-43688000D01*
X78743962Y-45974000D02*
X81788000Y-45974000D01*
X71111058Y-46701020D02*
X78016943Y-46701020D01*
X82917000Y-42813000D02*
X82917000Y-42672000D01*
X78016943Y-46701020D02*
X78743962Y-45974000D01*
X81788000Y-45974000D02*
X82042000Y-45720000D01*
X69289538Y-44879500D02*
X71111058Y-46701020D01*
X67818000Y-44879500D02*
X69289538Y-44879500D01*
%TO.N,VCC*%
X73914000Y-39003000D02*
X73914000Y-37592000D01*
X72136000Y-39003000D02*
X72136000Y-37592000D01*
X72136000Y-37592000D02*
X73914000Y-37592000D01*
X65786000Y-39003000D02*
X65786000Y-37592000D01*
X65786000Y-37592000D02*
X72136000Y-37592000D01*
X64008000Y-39003000D02*
X64008000Y-37592000D01*
X64008000Y-37592000D02*
X65786000Y-37592000D01*
X76140000Y-39228000D02*
X76140000Y-37592000D01*
X77470000Y-41118000D02*
X78740000Y-42388000D01*
X77470000Y-38100000D02*
X77470000Y-41118000D01*
X76962000Y-37592000D02*
X77470000Y-38100000D01*
X73914000Y-37592000D02*
X76962000Y-37592000D01*
X58166000Y-38100000D02*
X61468000Y-38100000D01*
X64008000Y-37592000D02*
X63246000Y-37592000D01*
X62738000Y-38100000D02*
X61468000Y-38100000D01*
X63246000Y-37592000D02*
X62738000Y-38100000D01*
%TO.N,Net-(C1-Pad2)*%
X70104000Y-40903000D02*
X67818000Y-40903000D01*
X67818000Y-40903000D02*
X67818000Y-43004500D01*
X65936000Y-40903000D02*
X65786000Y-40753000D01*
X67818000Y-40903000D02*
X65936000Y-40903000D01*
X65786000Y-40753000D02*
X64008000Y-40753000D01*
X61863000Y-40753000D02*
X61468000Y-41148000D01*
X64008000Y-40753000D02*
X61863000Y-40753000D01*
X58166000Y-43258000D02*
X60882000Y-43258000D01*
X61468000Y-42672000D02*
X61468000Y-41148000D01*
X60882000Y-43258000D02*
X61468000Y-42672000D01*
%TO.N,Net-(C3-Pad2)*%
X77488000Y-43688000D02*
X76200000Y-44976000D01*
X78740000Y-43688000D02*
X77488000Y-43688000D01*
X76200000Y-44976000D02*
X73914000Y-44976000D01*
%TO.N,Net-(C5-Pad2)*%
X81280000Y-38862000D02*
X83312000Y-38862000D01*
X85335000Y-38862000D02*
X85344000Y-38853000D01*
X83312000Y-38862000D02*
X85335000Y-38862000D01*
X89154000Y-39116000D02*
X87376000Y-39116000D01*
X85607000Y-39116000D02*
X85344000Y-38853000D01*
X87376000Y-39116000D02*
X85607000Y-39116000D01*
X80914000Y-39228000D02*
X81280000Y-38862000D01*
X78800000Y-39228000D02*
X80914000Y-39228000D01*
X90424000Y-43942000D02*
X89154000Y-43942000D01*
X90678000Y-39370000D02*
X90678000Y-43688000D01*
X90678000Y-43688000D02*
X90424000Y-43942000D01*
X90424000Y-39116000D02*
X90678000Y-39370000D01*
X89154000Y-39116000D02*
X90424000Y-39116000D01*
%TO.N,Net-(C5-Pad1)*%
X83321000Y-40903000D02*
X83312000Y-40912000D01*
X85344000Y-40903000D02*
X83321000Y-40903000D01*
X83312000Y-40912000D02*
X81280000Y-40912000D01*
X81280000Y-42559000D02*
X81167000Y-42672000D01*
X81280000Y-40912000D02*
X81280000Y-42559000D01*
X81280000Y-40337000D02*
X80871010Y-39928010D01*
X81280000Y-40912000D02*
X81280000Y-40337000D01*
D19*
X80821000Y-39878000D02*
X80871010Y-39928010D01*
X78800000Y-39878000D02*
X80821000Y-39878000D01*
D18*
%TO.N,Net-(D2-Pad2)*%
X89154000Y-40866000D02*
X89154000Y-40894000D01*
X89154000Y-40894000D02*
X87122000Y-42926000D01*
X87122000Y-42926000D02*
X87122000Y-44704000D01*
X87122000Y-44704000D02*
X86106000Y-45720000D01*
X84083000Y-45720000D02*
X83067000Y-44704000D01*
X86106000Y-45720000D02*
X84083000Y-45720000D01*
%TD*%
D20*
%TO.N,GND*%
G36*
X90791001Y-38615131D02*
G01*
X90770120Y-38597995D01*
X90662411Y-38540424D01*
X90545541Y-38504972D01*
X90454449Y-38496000D01*
X90424000Y-38493001D01*
X90393551Y-38496000D01*
X89901315Y-38496000D01*
X89898106Y-38489997D01*
X89822333Y-38397667D01*
X89730003Y-38321894D01*
X89624665Y-38265589D01*
X89510367Y-38230917D01*
X89391500Y-38219210D01*
X88916500Y-38219210D01*
X88797633Y-38230917D01*
X88683335Y-38265589D01*
X88577997Y-38321894D01*
X88485667Y-38397667D01*
X88409894Y-38489997D01*
X88406685Y-38496000D01*
X88123315Y-38496000D01*
X88120106Y-38489997D01*
X88044333Y-38397667D01*
X87952003Y-38321894D01*
X87846665Y-38265589D01*
X87732367Y-38230917D01*
X87613500Y-38219210D01*
X87138500Y-38219210D01*
X87019633Y-38230917D01*
X86905335Y-38265589D01*
X86799997Y-38321894D01*
X86707667Y-38397667D01*
X86631894Y-38489997D01*
X86628685Y-38496000D01*
X86412638Y-38496000D01*
X86403842Y-38406694D01*
X86368459Y-38290051D01*
X86311000Y-38182552D01*
X86233672Y-38088328D01*
X86139448Y-38011000D01*
X86031949Y-37953541D01*
X85915306Y-37918158D01*
X85794001Y-37906210D01*
X84893999Y-37906210D01*
X84772694Y-37918158D01*
X84656051Y-37953541D01*
X84548552Y-38011000D01*
X84454328Y-38088328D01*
X84377000Y-38182552D01*
X84345225Y-38242000D01*
X84305965Y-38242000D01*
X84279000Y-38191552D01*
X84201672Y-38097328D01*
X84107448Y-38020000D01*
X83999949Y-37962541D01*
X83883306Y-37927158D01*
X83762001Y-37915210D01*
X82861999Y-37915210D01*
X82740694Y-37927158D01*
X82624051Y-37962541D01*
X82516552Y-38020000D01*
X82422328Y-38097328D01*
X82345000Y-38191552D01*
X82318035Y-38242000D01*
X82273965Y-38242000D01*
X82247000Y-38191552D01*
X82169672Y-38097328D01*
X82075448Y-38020000D01*
X81967949Y-37962541D01*
X81851306Y-37927158D01*
X81730001Y-37915210D01*
X80829999Y-37915210D01*
X80708694Y-37927158D01*
X80592051Y-37962541D01*
X80484552Y-38020000D01*
X80390328Y-38097328D01*
X80313000Y-38191552D01*
X80255541Y-38299051D01*
X80220158Y-38415694D01*
X80208210Y-38536999D01*
X80208210Y-38608000D01*
X78769551Y-38608000D01*
X78678459Y-38616972D01*
X78561589Y-38652424D01*
X78554506Y-38656210D01*
X78090000Y-38656210D01*
X78090000Y-38130440D01*
X78092998Y-38099999D01*
X78090000Y-38069558D01*
X78090000Y-38069551D01*
X78081028Y-37978459D01*
X78076200Y-37962541D01*
X78061842Y-37915210D01*
X78045576Y-37861589D01*
X77988005Y-37753880D01*
X77910527Y-37659473D01*
X77886872Y-37640060D01*
X77421945Y-37175134D01*
X77402527Y-37151473D01*
X77308120Y-37073995D01*
X77200411Y-37016424D01*
X77083541Y-36980972D01*
X76992449Y-36972000D01*
X76962000Y-36969001D01*
X76931551Y-36972000D01*
X76170449Y-36972000D01*
X76140000Y-36969001D01*
X76109552Y-36972000D01*
X73944449Y-36972000D01*
X73914000Y-36969001D01*
X73883552Y-36972000D01*
X72166449Y-36972000D01*
X72136000Y-36969001D01*
X72105552Y-36972000D01*
X65816449Y-36972000D01*
X65786000Y-36969001D01*
X65755552Y-36972000D01*
X64038449Y-36972000D01*
X64008000Y-36969001D01*
X63977552Y-36972000D01*
X63276440Y-36972000D01*
X63245999Y-36969002D01*
X63215558Y-36972000D01*
X63215551Y-36972000D01*
X63135984Y-36979837D01*
X63124458Y-36980972D01*
X63073569Y-36996409D01*
X63007589Y-37016424D01*
X62899880Y-37073995D01*
X62805473Y-37151473D01*
X62786059Y-37175130D01*
X62613204Y-37347984D01*
X62532149Y-37226676D01*
X62341324Y-37035851D01*
X62116938Y-36885922D01*
X61867614Y-36782648D01*
X61602933Y-36730000D01*
X61333067Y-36730000D01*
X61068386Y-36782648D01*
X60819062Y-36885922D01*
X60594676Y-37035851D01*
X60403851Y-37226676D01*
X60253922Y-37451062D01*
X60241935Y-37480000D01*
X59219011Y-37480000D01*
X59113636Y-37322295D01*
X58943705Y-37152364D01*
X58743887Y-37018850D01*
X58521861Y-36926884D01*
X58286160Y-36880000D01*
X58045840Y-36880000D01*
X57810139Y-36926884D01*
X57588113Y-37018850D01*
X57388295Y-37152364D01*
X57218364Y-37322295D01*
X57084850Y-37522113D01*
X56992884Y-37744139D01*
X56946000Y-37979840D01*
X56946000Y-38220160D01*
X56992884Y-38455861D01*
X57084850Y-38677887D01*
X57218364Y-38877705D01*
X57388295Y-39047636D01*
X57588113Y-39181150D01*
X57810139Y-39273116D01*
X58045840Y-39320000D01*
X58286160Y-39320000D01*
X58521861Y-39273116D01*
X58743887Y-39181150D01*
X58943705Y-39047636D01*
X59113636Y-38877705D01*
X59219011Y-38720000D01*
X60241935Y-38720000D01*
X60253922Y-38748938D01*
X60403851Y-38973324D01*
X60594676Y-39164149D01*
X60819062Y-39314078D01*
X61068386Y-39417352D01*
X61333067Y-39470000D01*
X61602933Y-39470000D01*
X61867614Y-39417352D01*
X62116938Y-39314078D01*
X62341324Y-39164149D01*
X62532149Y-38973324D01*
X62682078Y-38748938D01*
X62694065Y-38720000D01*
X62707551Y-38720000D01*
X62738000Y-38722999D01*
X62859541Y-38711028D01*
X62864140Y-38709633D01*
X62976411Y-38675576D01*
X63084120Y-38618005D01*
X63178527Y-38540527D01*
X63196627Y-38518472D01*
X63172917Y-38596633D01*
X63161210Y-38715500D01*
X63161210Y-39290500D01*
X63172917Y-39409367D01*
X63207589Y-39523665D01*
X63263894Y-39629003D01*
X63339667Y-39721333D01*
X63431997Y-39797106D01*
X63537335Y-39853411D01*
X63618394Y-39878000D01*
X63537335Y-39902589D01*
X63431997Y-39958894D01*
X63339667Y-40034667D01*
X63263894Y-40126997D01*
X63260685Y-40133000D01*
X62390473Y-40133000D01*
X62341324Y-40083851D01*
X62116938Y-39933922D01*
X61867614Y-39830648D01*
X61602933Y-39778000D01*
X61333067Y-39778000D01*
X61068386Y-39830648D01*
X60819062Y-39933922D01*
X60594676Y-40083851D01*
X60403851Y-40274676D01*
X60253922Y-40499062D01*
X60150648Y-40748386D01*
X60098000Y-41013067D01*
X60098000Y-41282933D01*
X60150648Y-41547614D01*
X60253922Y-41796938D01*
X60403851Y-42021324D01*
X60594676Y-42212149D01*
X60819062Y-42362078D01*
X60848000Y-42374065D01*
X60848000Y-42415188D01*
X60625189Y-42638000D01*
X59344671Y-42638000D01*
X59325132Y-42601445D01*
X59278895Y-42545105D01*
X59222555Y-42498868D01*
X59158278Y-42464511D01*
X59088533Y-42443354D01*
X59016000Y-42436210D01*
X57316000Y-42436210D01*
X57243467Y-42443354D01*
X57173722Y-42464511D01*
X57109445Y-42498868D01*
X57053105Y-42545105D01*
X57006868Y-42601445D01*
X56972511Y-42665722D01*
X56951354Y-42735467D01*
X56944210Y-42808000D01*
X56944210Y-43708000D01*
X56951354Y-43780533D01*
X56972511Y-43850278D01*
X57006868Y-43914555D01*
X57053105Y-43970895D01*
X57109445Y-44017132D01*
X57173722Y-44051489D01*
X57243467Y-44072646D01*
X57316000Y-44079790D01*
X59016000Y-44079790D01*
X59088533Y-44072646D01*
X59158278Y-44051489D01*
X59222555Y-44017132D01*
X59278895Y-43970895D01*
X59325132Y-43914555D01*
X59344671Y-43878000D01*
X60851551Y-43878000D01*
X60882000Y-43880999D01*
X61003541Y-43869028D01*
X61020808Y-43863790D01*
X61120411Y-43833576D01*
X61228120Y-43776005D01*
X61322527Y-43698527D01*
X61341945Y-43674866D01*
X61884872Y-43131940D01*
X61908527Y-43112527D01*
X61986005Y-43018120D01*
X62043576Y-42910411D01*
X62071768Y-42817473D01*
X62079028Y-42793542D01*
X62090999Y-42672001D01*
X62088000Y-42641551D01*
X62088000Y-42374065D01*
X62116938Y-42362078D01*
X62341324Y-42212149D01*
X62532149Y-42021324D01*
X62682078Y-41796938D01*
X62785352Y-41547614D01*
X62820085Y-41373000D01*
X63260685Y-41373000D01*
X63263894Y-41379003D01*
X63339667Y-41471333D01*
X63431997Y-41547106D01*
X63537335Y-41603411D01*
X63651633Y-41638083D01*
X63770500Y-41649790D01*
X64245500Y-41649790D01*
X64364367Y-41638083D01*
X64478665Y-41603411D01*
X64584003Y-41547106D01*
X64676333Y-41471333D01*
X64752106Y-41379003D01*
X64755315Y-41373000D01*
X65038685Y-41373000D01*
X65041894Y-41379003D01*
X65117667Y-41471333D01*
X65209997Y-41547106D01*
X65315335Y-41603411D01*
X65429633Y-41638083D01*
X65548500Y-41649790D01*
X66023500Y-41649790D01*
X66142367Y-41638083D01*
X66256665Y-41603411D01*
X66362003Y-41547106D01*
X66391376Y-41523000D01*
X66824035Y-41523000D01*
X66851000Y-41573448D01*
X66928328Y-41667672D01*
X67022552Y-41745000D01*
X67130051Y-41802459D01*
X67198000Y-41823071D01*
X67198001Y-42170282D01*
X67126193Y-42192065D01*
X67019774Y-42248947D01*
X66926497Y-42325497D01*
X66849947Y-42418774D01*
X66793065Y-42525193D01*
X66758037Y-42640664D01*
X66746210Y-42760750D01*
X66746210Y-43248250D01*
X66758037Y-43368336D01*
X66793065Y-43483807D01*
X66849947Y-43590226D01*
X66926497Y-43683503D01*
X67019774Y-43760053D01*
X67126193Y-43816935D01*
X67241664Y-43851963D01*
X67361750Y-43863790D01*
X68274250Y-43863790D01*
X68394336Y-43851963D01*
X68509807Y-43816935D01*
X68616226Y-43760053D01*
X68709503Y-43683503D01*
X68786053Y-43590226D01*
X68842935Y-43483807D01*
X68877963Y-43368336D01*
X68889790Y-43248250D01*
X68889790Y-42760750D01*
X68877963Y-42640664D01*
X68842935Y-42525193D01*
X68786053Y-42418774D01*
X68709503Y-42325497D01*
X68616226Y-42248947D01*
X68509807Y-42192065D01*
X68438000Y-42170282D01*
X68438000Y-41823071D01*
X68505949Y-41802459D01*
X68613448Y-41745000D01*
X68707672Y-41667672D01*
X68785000Y-41573448D01*
X68811965Y-41523000D01*
X69110035Y-41523000D01*
X69137000Y-41573448D01*
X69214328Y-41667672D01*
X69308552Y-41745000D01*
X69416051Y-41802459D01*
X69532694Y-41837842D01*
X69653999Y-41849790D01*
X70554001Y-41849790D01*
X70675306Y-41837842D01*
X70791949Y-41802459D01*
X70899448Y-41745000D01*
X70993672Y-41667672D01*
X71071000Y-41573448D01*
X71128459Y-41465949D01*
X71163842Y-41349306D01*
X71175790Y-41228001D01*
X71175790Y-40669602D01*
X71289210Y-40783023D01*
X71289210Y-41040500D01*
X71300917Y-41159367D01*
X71335589Y-41273665D01*
X71391894Y-41379003D01*
X71467667Y-41471333D01*
X71559997Y-41547106D01*
X71665335Y-41603411D01*
X71779633Y-41638083D01*
X71898500Y-41649790D01*
X72373500Y-41649790D01*
X72492367Y-41638083D01*
X72606665Y-41603411D01*
X72712003Y-41547106D01*
X72804333Y-41471333D01*
X72880106Y-41379003D01*
X72883315Y-41373000D01*
X73166685Y-41373000D01*
X73169894Y-41379003D01*
X73245667Y-41471333D01*
X73294000Y-41510999D01*
X73294001Y-42005929D01*
X73226051Y-42026541D01*
X73118552Y-42084000D01*
X73024328Y-42161328D01*
X72947000Y-42255552D01*
X72920035Y-42306000D01*
X72437473Y-42306000D01*
X72247324Y-42115851D01*
X72022938Y-41965922D01*
X71773614Y-41862648D01*
X71508933Y-41810000D01*
X71239067Y-41810000D01*
X70974386Y-41862648D01*
X70725062Y-41965922D01*
X70500676Y-42115851D01*
X70309851Y-42306676D01*
X70159922Y-42531062D01*
X70056648Y-42780386D01*
X70004000Y-43045067D01*
X70004000Y-43314933D01*
X70056648Y-43579614D01*
X70159922Y-43828938D01*
X70309851Y-44053324D01*
X70500676Y-44244149D01*
X70725062Y-44394078D01*
X70974386Y-44497352D01*
X71239067Y-44550000D01*
X71508933Y-44550000D01*
X71773614Y-44497352D01*
X72022938Y-44394078D01*
X72247324Y-44244149D01*
X72438149Y-44053324D01*
X72588078Y-43828938D01*
X72691352Y-43579614D01*
X72698038Y-43546000D01*
X72920035Y-43546000D01*
X72947000Y-43596448D01*
X73024328Y-43690672D01*
X73118552Y-43768000D01*
X73226051Y-43825459D01*
X73342694Y-43860842D01*
X73463999Y-43872790D01*
X74364001Y-43872790D01*
X74485306Y-43860842D01*
X74601949Y-43825459D01*
X74709448Y-43768000D01*
X74803672Y-43690672D01*
X74881000Y-43596448D01*
X74907965Y-43546000D01*
X75206035Y-43546000D01*
X75233000Y-43596448D01*
X75310328Y-43690672D01*
X75404552Y-43768000D01*
X75512051Y-43825459D01*
X75628694Y-43860842D01*
X75749999Y-43872790D01*
X76426398Y-43872790D01*
X76269979Y-44029210D01*
X75749999Y-44029210D01*
X75628694Y-44041158D01*
X75512051Y-44076541D01*
X75404552Y-44134000D01*
X75310328Y-44211328D01*
X75233000Y-44305552D01*
X75206035Y-44356000D01*
X74907965Y-44356000D01*
X74881000Y-44305552D01*
X74803672Y-44211328D01*
X74709448Y-44134000D01*
X74601949Y-44076541D01*
X74485306Y-44041158D01*
X74364001Y-44029210D01*
X73463999Y-44029210D01*
X73342694Y-44041158D01*
X73226051Y-44076541D01*
X73118552Y-44134000D01*
X73024328Y-44211328D01*
X72947000Y-44305552D01*
X72889541Y-44413051D01*
X72854158Y-44529694D01*
X72842210Y-44650999D01*
X72842210Y-45301001D01*
X72854158Y-45422306D01*
X72889541Y-45538949D01*
X72947000Y-45646448D01*
X73024328Y-45740672D01*
X73118552Y-45818000D01*
X73226051Y-45875459D01*
X73342694Y-45910842D01*
X73463999Y-45922790D01*
X74364001Y-45922790D01*
X74485306Y-45910842D01*
X74601949Y-45875459D01*
X74709448Y-45818000D01*
X74803672Y-45740672D01*
X74881000Y-45646448D01*
X74907965Y-45596000D01*
X75206035Y-45596000D01*
X75233000Y-45646448D01*
X75310328Y-45740672D01*
X75404552Y-45818000D01*
X75512051Y-45875459D01*
X75628694Y-45910842D01*
X75749999Y-45922790D01*
X76650001Y-45922790D01*
X76771306Y-45910842D01*
X76887949Y-45875459D01*
X76995448Y-45818000D01*
X77089672Y-45740672D01*
X77167000Y-45646448D01*
X77224459Y-45538949D01*
X77259842Y-45422306D01*
X77271790Y-45301001D01*
X77271790Y-44781021D01*
X77672992Y-44379820D01*
X77680868Y-44394555D01*
X77727105Y-44450895D01*
X77783445Y-44497132D01*
X77847722Y-44531489D01*
X77917467Y-44552646D01*
X77990000Y-44559790D01*
X79490000Y-44559790D01*
X79562533Y-44552646D01*
X79632278Y-44531489D01*
X79696555Y-44497132D01*
X79752895Y-44450895D01*
X79799132Y-44394555D01*
X79833489Y-44330278D01*
X79854646Y-44260533D01*
X79861790Y-44188000D01*
X79861790Y-43188000D01*
X79854646Y-43115467D01*
X79838730Y-43063000D01*
X79854646Y-43010533D01*
X79861790Y-42938000D01*
X79861790Y-42388000D01*
X79859382Y-42363552D01*
X79859382Y-42338991D01*
X79852238Y-42266459D01*
X79833116Y-42170326D01*
X79811960Y-42100582D01*
X79774451Y-42010026D01*
X79740093Y-41945746D01*
X79685637Y-41864247D01*
X79639400Y-41807908D01*
X79570092Y-41738600D01*
X79513753Y-41692363D01*
X79432254Y-41637907D01*
X79367974Y-41603549D01*
X79277418Y-41566040D01*
X79207674Y-41544884D01*
X79111541Y-41525762D01*
X79039009Y-41518618D01*
X79014448Y-41518618D01*
X78990000Y-41516210D01*
X78745022Y-41516210D01*
X78090000Y-40861189D01*
X78090000Y-40449790D01*
X79550000Y-40449790D01*
X79568174Y-40448000D01*
X80225525Y-40448000D01*
X80220158Y-40465694D01*
X80208210Y-40586999D01*
X80208210Y-41237001D01*
X80220158Y-41358306D01*
X80255541Y-41474949D01*
X80313000Y-41582448D01*
X80390328Y-41676672D01*
X80484552Y-41754000D01*
X80592051Y-41811459D01*
X80660001Y-41832071D01*
X80660001Y-41867444D01*
X80646335Y-41871589D01*
X80540997Y-41927894D01*
X80448667Y-42003667D01*
X80372894Y-42095997D01*
X80316589Y-42201335D01*
X80281917Y-42315633D01*
X80270210Y-42434500D01*
X80270210Y-42909500D01*
X80281917Y-43028367D01*
X80316589Y-43142665D01*
X80372894Y-43248003D01*
X80448667Y-43340333D01*
X80540997Y-43416106D01*
X80646335Y-43472411D01*
X80760633Y-43507083D01*
X80879500Y-43518790D01*
X81445433Y-43518790D01*
X81430972Y-43566459D01*
X81419001Y-43688000D01*
X81422001Y-43718459D01*
X81422000Y-45354000D01*
X78774410Y-45354000D01*
X78743961Y-45351001D01*
X78622420Y-45362972D01*
X78586968Y-45373727D01*
X78505551Y-45398424D01*
X78397842Y-45455995D01*
X78303435Y-45533473D01*
X78284021Y-45557129D01*
X77760131Y-46081020D01*
X71367870Y-46081020D01*
X69749484Y-44462635D01*
X69730065Y-44438973D01*
X69635658Y-44361495D01*
X69527949Y-44303924D01*
X69411079Y-44268472D01*
X69319987Y-44259500D01*
X69289538Y-44256501D01*
X69259089Y-44259500D01*
X68757925Y-44259500D01*
X68709503Y-44200497D01*
X68616226Y-44123947D01*
X68509807Y-44067065D01*
X68394336Y-44032037D01*
X68274250Y-44020210D01*
X67361750Y-44020210D01*
X67241664Y-44032037D01*
X67126193Y-44067065D01*
X67019774Y-44123947D01*
X66926497Y-44200497D01*
X66849947Y-44293774D01*
X66793065Y-44400193D01*
X66758037Y-44515664D01*
X66746210Y-44635750D01*
X66746210Y-45123250D01*
X66758037Y-45243336D01*
X66793065Y-45358807D01*
X66849947Y-45465226D01*
X66926497Y-45558503D01*
X67019774Y-45635053D01*
X67126193Y-45691935D01*
X67241664Y-45726963D01*
X67361750Y-45738790D01*
X68274250Y-45738790D01*
X68394336Y-45726963D01*
X68509807Y-45691935D01*
X68616226Y-45635053D01*
X68709503Y-45558503D01*
X68757925Y-45499500D01*
X69032727Y-45499500D01*
X70651117Y-47117891D01*
X70670531Y-47141547D01*
X70764938Y-47219025D01*
X70872647Y-47276596D01*
X70954064Y-47301293D01*
X70989516Y-47312048D01*
X71111057Y-47324019D01*
X71141506Y-47321020D01*
X77986495Y-47321020D01*
X78016943Y-47324019D01*
X78138484Y-47312048D01*
X78255354Y-47276596D01*
X78363063Y-47219025D01*
X78457470Y-47141547D01*
X78476888Y-47117886D01*
X79000775Y-46594000D01*
X81757551Y-46594000D01*
X81788000Y-46596999D01*
X81909541Y-46585028D01*
X81927830Y-46579480D01*
X82026411Y-46549576D01*
X82134120Y-46492005D01*
X82228527Y-46414527D01*
X82247946Y-46390865D01*
X82458866Y-46179945D01*
X82482527Y-46160527D01*
X82560005Y-46066120D01*
X82617576Y-45958411D01*
X82653028Y-45841541D01*
X82660297Y-45767743D01*
X82741999Y-45775790D01*
X83261978Y-45775790D01*
X83623059Y-46136871D01*
X83642473Y-46160527D01*
X83736880Y-46238005D01*
X83844589Y-46295576D01*
X83925497Y-46320119D01*
X83961458Y-46331028D01*
X84083000Y-46342999D01*
X84113449Y-46340000D01*
X86075551Y-46340000D01*
X86106000Y-46342999D01*
X86227541Y-46331028D01*
X86344411Y-46295576D01*
X86452120Y-46238005D01*
X86546527Y-46160527D01*
X86565946Y-46136866D01*
X87538871Y-45163941D01*
X87562527Y-45144527D01*
X87640005Y-45050120D01*
X87697576Y-44942411D01*
X87733028Y-44825541D01*
X87742000Y-44734449D01*
X87744999Y-44704000D01*
X87742000Y-44673551D01*
X87742000Y-43182811D01*
X89162022Y-41762790D01*
X89391500Y-41762790D01*
X89510367Y-41751083D01*
X89624665Y-41716411D01*
X89730003Y-41660106D01*
X89822333Y-41584333D01*
X89898106Y-41492003D01*
X89954411Y-41386665D01*
X89989083Y-41272367D01*
X90000790Y-41153500D01*
X90000790Y-40578500D01*
X89989083Y-40459633D01*
X89954411Y-40345335D01*
X89898106Y-40239997D01*
X89822333Y-40147667D01*
X89730003Y-40071894D01*
X89624665Y-40015589D01*
X89543606Y-39991000D01*
X89624665Y-39966411D01*
X89730003Y-39910106D01*
X89822333Y-39834333D01*
X89898106Y-39742003D01*
X89901315Y-39736000D01*
X90058000Y-39736000D01*
X90058001Y-42908528D01*
X90027324Y-42877851D01*
X89802938Y-42727922D01*
X89553614Y-42624648D01*
X89288933Y-42572000D01*
X89019067Y-42572000D01*
X88754386Y-42624648D01*
X88505062Y-42727922D01*
X88280676Y-42877851D01*
X88089851Y-43068676D01*
X87939922Y-43293062D01*
X87836648Y-43542386D01*
X87784000Y-43807067D01*
X87784000Y-44076933D01*
X87836648Y-44341614D01*
X87939922Y-44590938D01*
X88089851Y-44815324D01*
X88280676Y-45006149D01*
X88505062Y-45156078D01*
X88754386Y-45259352D01*
X89019067Y-45312000D01*
X89288933Y-45312000D01*
X89553614Y-45259352D01*
X89802938Y-45156078D01*
X90027324Y-45006149D01*
X90218149Y-44815324D01*
X90368078Y-44590938D01*
X90380065Y-44562000D01*
X90393551Y-44562000D01*
X90424000Y-44564999D01*
X90483639Y-44559125D01*
X90545541Y-44553028D01*
X90662411Y-44517576D01*
X90770120Y-44460005D01*
X90791000Y-44442869D01*
X90791000Y-47357000D01*
X56783000Y-47357000D01*
X56783000Y-36717000D01*
X90791001Y-36717000D01*
X90791001Y-38615131D01*
G37*
X90791001Y-38615131D02*
X90770120Y-38597995D01*
X90662411Y-38540424D01*
X90545541Y-38504972D01*
X90454449Y-38496000D01*
X90424000Y-38493001D01*
X90393551Y-38496000D01*
X89901315Y-38496000D01*
X89898106Y-38489997D01*
X89822333Y-38397667D01*
X89730003Y-38321894D01*
X89624665Y-38265589D01*
X89510367Y-38230917D01*
X89391500Y-38219210D01*
X88916500Y-38219210D01*
X88797633Y-38230917D01*
X88683335Y-38265589D01*
X88577997Y-38321894D01*
X88485667Y-38397667D01*
X88409894Y-38489997D01*
X88406685Y-38496000D01*
X88123315Y-38496000D01*
X88120106Y-38489997D01*
X88044333Y-38397667D01*
X87952003Y-38321894D01*
X87846665Y-38265589D01*
X87732367Y-38230917D01*
X87613500Y-38219210D01*
X87138500Y-38219210D01*
X87019633Y-38230917D01*
X86905335Y-38265589D01*
X86799997Y-38321894D01*
X86707667Y-38397667D01*
X86631894Y-38489997D01*
X86628685Y-38496000D01*
X86412638Y-38496000D01*
X86403842Y-38406694D01*
X86368459Y-38290051D01*
X86311000Y-38182552D01*
X86233672Y-38088328D01*
X86139448Y-38011000D01*
X86031949Y-37953541D01*
X85915306Y-37918158D01*
X85794001Y-37906210D01*
X84893999Y-37906210D01*
X84772694Y-37918158D01*
X84656051Y-37953541D01*
X84548552Y-38011000D01*
X84454328Y-38088328D01*
X84377000Y-38182552D01*
X84345225Y-38242000D01*
X84305965Y-38242000D01*
X84279000Y-38191552D01*
X84201672Y-38097328D01*
X84107448Y-38020000D01*
X83999949Y-37962541D01*
X83883306Y-37927158D01*
X83762001Y-37915210D01*
X82861999Y-37915210D01*
X82740694Y-37927158D01*
X82624051Y-37962541D01*
X82516552Y-38020000D01*
X82422328Y-38097328D01*
X82345000Y-38191552D01*
X82318035Y-38242000D01*
X82273965Y-38242000D01*
X82247000Y-38191552D01*
X82169672Y-38097328D01*
X82075448Y-38020000D01*
X81967949Y-37962541D01*
X81851306Y-37927158D01*
X81730001Y-37915210D01*
X80829999Y-37915210D01*
X80708694Y-37927158D01*
X80592051Y-37962541D01*
X80484552Y-38020000D01*
X80390328Y-38097328D01*
X80313000Y-38191552D01*
X80255541Y-38299051D01*
X80220158Y-38415694D01*
X80208210Y-38536999D01*
X80208210Y-38608000D01*
X78769551Y-38608000D01*
X78678459Y-38616972D01*
X78561589Y-38652424D01*
X78554506Y-38656210D01*
X78090000Y-38656210D01*
X78090000Y-38130440D01*
X78092998Y-38099999D01*
X78090000Y-38069558D01*
X78090000Y-38069551D01*
X78081028Y-37978459D01*
X78076200Y-37962541D01*
X78061842Y-37915210D01*
X78045576Y-37861589D01*
X77988005Y-37753880D01*
X77910527Y-37659473D01*
X77886872Y-37640060D01*
X77421945Y-37175134D01*
X77402527Y-37151473D01*
X77308120Y-37073995D01*
X77200411Y-37016424D01*
X77083541Y-36980972D01*
X76992449Y-36972000D01*
X76962000Y-36969001D01*
X76931551Y-36972000D01*
X76170449Y-36972000D01*
X76140000Y-36969001D01*
X76109552Y-36972000D01*
X73944449Y-36972000D01*
X73914000Y-36969001D01*
X73883552Y-36972000D01*
X72166449Y-36972000D01*
X72136000Y-36969001D01*
X72105552Y-36972000D01*
X65816449Y-36972000D01*
X65786000Y-36969001D01*
X65755552Y-36972000D01*
X64038449Y-36972000D01*
X64008000Y-36969001D01*
X63977552Y-36972000D01*
X63276440Y-36972000D01*
X63245999Y-36969002D01*
X63215558Y-36972000D01*
X63215551Y-36972000D01*
X63135984Y-36979837D01*
X63124458Y-36980972D01*
X63073569Y-36996409D01*
X63007589Y-37016424D01*
X62899880Y-37073995D01*
X62805473Y-37151473D01*
X62786059Y-37175130D01*
X62613204Y-37347984D01*
X62532149Y-37226676D01*
X62341324Y-37035851D01*
X62116938Y-36885922D01*
X61867614Y-36782648D01*
X61602933Y-36730000D01*
X61333067Y-36730000D01*
X61068386Y-36782648D01*
X60819062Y-36885922D01*
X60594676Y-37035851D01*
X60403851Y-37226676D01*
X60253922Y-37451062D01*
X60241935Y-37480000D01*
X59219011Y-37480000D01*
X59113636Y-37322295D01*
X58943705Y-37152364D01*
X58743887Y-37018850D01*
X58521861Y-36926884D01*
X58286160Y-36880000D01*
X58045840Y-36880000D01*
X57810139Y-36926884D01*
X57588113Y-37018850D01*
X57388295Y-37152364D01*
X57218364Y-37322295D01*
X57084850Y-37522113D01*
X56992884Y-37744139D01*
X56946000Y-37979840D01*
X56946000Y-38220160D01*
X56992884Y-38455861D01*
X57084850Y-38677887D01*
X57218364Y-38877705D01*
X57388295Y-39047636D01*
X57588113Y-39181150D01*
X57810139Y-39273116D01*
X58045840Y-39320000D01*
X58286160Y-39320000D01*
X58521861Y-39273116D01*
X58743887Y-39181150D01*
X58943705Y-39047636D01*
X59113636Y-38877705D01*
X59219011Y-38720000D01*
X60241935Y-38720000D01*
X60253922Y-38748938D01*
X60403851Y-38973324D01*
X60594676Y-39164149D01*
X60819062Y-39314078D01*
X61068386Y-39417352D01*
X61333067Y-39470000D01*
X61602933Y-39470000D01*
X61867614Y-39417352D01*
X62116938Y-39314078D01*
X62341324Y-39164149D01*
X62532149Y-38973324D01*
X62682078Y-38748938D01*
X62694065Y-38720000D01*
X62707551Y-38720000D01*
X62738000Y-38722999D01*
X62859541Y-38711028D01*
X62864140Y-38709633D01*
X62976411Y-38675576D01*
X63084120Y-38618005D01*
X63178527Y-38540527D01*
X63196627Y-38518472D01*
X63172917Y-38596633D01*
X63161210Y-38715500D01*
X63161210Y-39290500D01*
X63172917Y-39409367D01*
X63207589Y-39523665D01*
X63263894Y-39629003D01*
X63339667Y-39721333D01*
X63431997Y-39797106D01*
X63537335Y-39853411D01*
X63618394Y-39878000D01*
X63537335Y-39902589D01*
X63431997Y-39958894D01*
X63339667Y-40034667D01*
X63263894Y-40126997D01*
X63260685Y-40133000D01*
X62390473Y-40133000D01*
X62341324Y-40083851D01*
X62116938Y-39933922D01*
X61867614Y-39830648D01*
X61602933Y-39778000D01*
X61333067Y-39778000D01*
X61068386Y-39830648D01*
X60819062Y-39933922D01*
X60594676Y-40083851D01*
X60403851Y-40274676D01*
X60253922Y-40499062D01*
X60150648Y-40748386D01*
X60098000Y-41013067D01*
X60098000Y-41282933D01*
X60150648Y-41547614D01*
X60253922Y-41796938D01*
X60403851Y-42021324D01*
X60594676Y-42212149D01*
X60819062Y-42362078D01*
X60848000Y-42374065D01*
X60848000Y-42415188D01*
X60625189Y-42638000D01*
X59344671Y-42638000D01*
X59325132Y-42601445D01*
X59278895Y-42545105D01*
X59222555Y-42498868D01*
X59158278Y-42464511D01*
X59088533Y-42443354D01*
X59016000Y-42436210D01*
X57316000Y-42436210D01*
X57243467Y-42443354D01*
X57173722Y-42464511D01*
X57109445Y-42498868D01*
X57053105Y-42545105D01*
X57006868Y-42601445D01*
X56972511Y-42665722D01*
X56951354Y-42735467D01*
X56944210Y-42808000D01*
X56944210Y-43708000D01*
X56951354Y-43780533D01*
X56972511Y-43850278D01*
X57006868Y-43914555D01*
X57053105Y-43970895D01*
X57109445Y-44017132D01*
X57173722Y-44051489D01*
X57243467Y-44072646D01*
X57316000Y-44079790D01*
X59016000Y-44079790D01*
X59088533Y-44072646D01*
X59158278Y-44051489D01*
X59222555Y-44017132D01*
X59278895Y-43970895D01*
X59325132Y-43914555D01*
X59344671Y-43878000D01*
X60851551Y-43878000D01*
X60882000Y-43880999D01*
X61003541Y-43869028D01*
X61020808Y-43863790D01*
X61120411Y-43833576D01*
X61228120Y-43776005D01*
X61322527Y-43698527D01*
X61341945Y-43674866D01*
X61884872Y-43131940D01*
X61908527Y-43112527D01*
X61986005Y-43018120D01*
X62043576Y-42910411D01*
X62071768Y-42817473D01*
X62079028Y-42793542D01*
X62090999Y-42672001D01*
X62088000Y-42641551D01*
X62088000Y-42374065D01*
X62116938Y-42362078D01*
X62341324Y-42212149D01*
X62532149Y-42021324D01*
X62682078Y-41796938D01*
X62785352Y-41547614D01*
X62820085Y-41373000D01*
X63260685Y-41373000D01*
X63263894Y-41379003D01*
X63339667Y-41471333D01*
X63431997Y-41547106D01*
X63537335Y-41603411D01*
X63651633Y-41638083D01*
X63770500Y-41649790D01*
X64245500Y-41649790D01*
X64364367Y-41638083D01*
X64478665Y-41603411D01*
X64584003Y-41547106D01*
X64676333Y-41471333D01*
X64752106Y-41379003D01*
X64755315Y-41373000D01*
X65038685Y-41373000D01*
X65041894Y-41379003D01*
X65117667Y-41471333D01*
X65209997Y-41547106D01*
X65315335Y-41603411D01*
X65429633Y-41638083D01*
X65548500Y-41649790D01*
X66023500Y-41649790D01*
X66142367Y-41638083D01*
X66256665Y-41603411D01*
X66362003Y-41547106D01*
X66391376Y-41523000D01*
X66824035Y-41523000D01*
X66851000Y-41573448D01*
X66928328Y-41667672D01*
X67022552Y-41745000D01*
X67130051Y-41802459D01*
X67198000Y-41823071D01*
X67198001Y-42170282D01*
X67126193Y-42192065D01*
X67019774Y-42248947D01*
X66926497Y-42325497D01*
X66849947Y-42418774D01*
X66793065Y-42525193D01*
X66758037Y-42640664D01*
X66746210Y-42760750D01*
X66746210Y-43248250D01*
X66758037Y-43368336D01*
X66793065Y-43483807D01*
X66849947Y-43590226D01*
X66926497Y-43683503D01*
X67019774Y-43760053D01*
X67126193Y-43816935D01*
X67241664Y-43851963D01*
X67361750Y-43863790D01*
X68274250Y-43863790D01*
X68394336Y-43851963D01*
X68509807Y-43816935D01*
X68616226Y-43760053D01*
X68709503Y-43683503D01*
X68786053Y-43590226D01*
X68842935Y-43483807D01*
X68877963Y-43368336D01*
X68889790Y-43248250D01*
X68889790Y-42760750D01*
X68877963Y-42640664D01*
X68842935Y-42525193D01*
X68786053Y-42418774D01*
X68709503Y-42325497D01*
X68616226Y-42248947D01*
X68509807Y-42192065D01*
X68438000Y-42170282D01*
X68438000Y-41823071D01*
X68505949Y-41802459D01*
X68613448Y-41745000D01*
X68707672Y-41667672D01*
X68785000Y-41573448D01*
X68811965Y-41523000D01*
X69110035Y-41523000D01*
X69137000Y-41573448D01*
X69214328Y-41667672D01*
X69308552Y-41745000D01*
X69416051Y-41802459D01*
X69532694Y-41837842D01*
X69653999Y-41849790D01*
X70554001Y-41849790D01*
X70675306Y-41837842D01*
X70791949Y-41802459D01*
X70899448Y-41745000D01*
X70993672Y-41667672D01*
X71071000Y-41573448D01*
X71128459Y-41465949D01*
X71163842Y-41349306D01*
X71175790Y-41228001D01*
X71175790Y-40669602D01*
X71289210Y-40783023D01*
X71289210Y-41040500D01*
X71300917Y-41159367D01*
X71335589Y-41273665D01*
X71391894Y-41379003D01*
X71467667Y-41471333D01*
X71559997Y-41547106D01*
X71665335Y-41603411D01*
X71779633Y-41638083D01*
X71898500Y-41649790D01*
X72373500Y-41649790D01*
X72492367Y-41638083D01*
X72606665Y-41603411D01*
X72712003Y-41547106D01*
X72804333Y-41471333D01*
X72880106Y-41379003D01*
X72883315Y-41373000D01*
X73166685Y-41373000D01*
X73169894Y-41379003D01*
X73245667Y-41471333D01*
X73294000Y-41510999D01*
X73294001Y-42005929D01*
X73226051Y-42026541D01*
X73118552Y-42084000D01*
X73024328Y-42161328D01*
X72947000Y-42255552D01*
X72920035Y-42306000D01*
X72437473Y-42306000D01*
X72247324Y-42115851D01*
X72022938Y-41965922D01*
X71773614Y-41862648D01*
X71508933Y-41810000D01*
X71239067Y-41810000D01*
X70974386Y-41862648D01*
X70725062Y-41965922D01*
X70500676Y-42115851D01*
X70309851Y-42306676D01*
X70159922Y-42531062D01*
X70056648Y-42780386D01*
X70004000Y-43045067D01*
X70004000Y-43314933D01*
X70056648Y-43579614D01*
X70159922Y-43828938D01*
X70309851Y-44053324D01*
X70500676Y-44244149D01*
X70725062Y-44394078D01*
X70974386Y-44497352D01*
X71239067Y-44550000D01*
X71508933Y-44550000D01*
X71773614Y-44497352D01*
X72022938Y-44394078D01*
X72247324Y-44244149D01*
X72438149Y-44053324D01*
X72588078Y-43828938D01*
X72691352Y-43579614D01*
X72698038Y-43546000D01*
X72920035Y-43546000D01*
X72947000Y-43596448D01*
X73024328Y-43690672D01*
X73118552Y-43768000D01*
X73226051Y-43825459D01*
X73342694Y-43860842D01*
X73463999Y-43872790D01*
X74364001Y-43872790D01*
X74485306Y-43860842D01*
X74601949Y-43825459D01*
X74709448Y-43768000D01*
X74803672Y-43690672D01*
X74881000Y-43596448D01*
X74907965Y-43546000D01*
X75206035Y-43546000D01*
X75233000Y-43596448D01*
X75310328Y-43690672D01*
X75404552Y-43768000D01*
X75512051Y-43825459D01*
X75628694Y-43860842D01*
X75749999Y-43872790D01*
X76426398Y-43872790D01*
X76269979Y-44029210D01*
X75749999Y-44029210D01*
X75628694Y-44041158D01*
X75512051Y-44076541D01*
X75404552Y-44134000D01*
X75310328Y-44211328D01*
X75233000Y-44305552D01*
X75206035Y-44356000D01*
X74907965Y-44356000D01*
X74881000Y-44305552D01*
X74803672Y-44211328D01*
X74709448Y-44134000D01*
X74601949Y-44076541D01*
X74485306Y-44041158D01*
X74364001Y-44029210D01*
X73463999Y-44029210D01*
X73342694Y-44041158D01*
X73226051Y-44076541D01*
X73118552Y-44134000D01*
X73024328Y-44211328D01*
X72947000Y-44305552D01*
X72889541Y-44413051D01*
X72854158Y-44529694D01*
X72842210Y-44650999D01*
X72842210Y-45301001D01*
X72854158Y-45422306D01*
X72889541Y-45538949D01*
X72947000Y-45646448D01*
X73024328Y-45740672D01*
X73118552Y-45818000D01*
X73226051Y-45875459D01*
X73342694Y-45910842D01*
X73463999Y-45922790D01*
X74364001Y-45922790D01*
X74485306Y-45910842D01*
X74601949Y-45875459D01*
X74709448Y-45818000D01*
X74803672Y-45740672D01*
X74881000Y-45646448D01*
X74907965Y-45596000D01*
X75206035Y-45596000D01*
X75233000Y-45646448D01*
X75310328Y-45740672D01*
X75404552Y-45818000D01*
X75512051Y-45875459D01*
X75628694Y-45910842D01*
X75749999Y-45922790D01*
X76650001Y-45922790D01*
X76771306Y-45910842D01*
X76887949Y-45875459D01*
X76995448Y-45818000D01*
X77089672Y-45740672D01*
X77167000Y-45646448D01*
X77224459Y-45538949D01*
X77259842Y-45422306D01*
X77271790Y-45301001D01*
X77271790Y-44781021D01*
X77672992Y-44379820D01*
X77680868Y-44394555D01*
X77727105Y-44450895D01*
X77783445Y-44497132D01*
X77847722Y-44531489D01*
X77917467Y-44552646D01*
X77990000Y-44559790D01*
X79490000Y-44559790D01*
X79562533Y-44552646D01*
X79632278Y-44531489D01*
X79696555Y-44497132D01*
X79752895Y-44450895D01*
X79799132Y-44394555D01*
X79833489Y-44330278D01*
X79854646Y-44260533D01*
X79861790Y-44188000D01*
X79861790Y-43188000D01*
X79854646Y-43115467D01*
X79838730Y-43063000D01*
X79854646Y-43010533D01*
X79861790Y-42938000D01*
X79861790Y-42388000D01*
X79859382Y-42363552D01*
X79859382Y-42338991D01*
X79852238Y-42266459D01*
X79833116Y-42170326D01*
X79811960Y-42100582D01*
X79774451Y-42010026D01*
X79740093Y-41945746D01*
X79685637Y-41864247D01*
X79639400Y-41807908D01*
X79570092Y-41738600D01*
X79513753Y-41692363D01*
X79432254Y-41637907D01*
X79367974Y-41603549D01*
X79277418Y-41566040D01*
X79207674Y-41544884D01*
X79111541Y-41525762D01*
X79039009Y-41518618D01*
X79014448Y-41518618D01*
X78990000Y-41516210D01*
X78745022Y-41516210D01*
X78090000Y-40861189D01*
X78090000Y-40449790D01*
X79550000Y-40449790D01*
X79568174Y-40448000D01*
X80225525Y-40448000D01*
X80220158Y-40465694D01*
X80208210Y-40586999D01*
X80208210Y-41237001D01*
X80220158Y-41358306D01*
X80255541Y-41474949D01*
X80313000Y-41582448D01*
X80390328Y-41676672D01*
X80484552Y-41754000D01*
X80592051Y-41811459D01*
X80660001Y-41832071D01*
X80660001Y-41867444D01*
X80646335Y-41871589D01*
X80540997Y-41927894D01*
X80448667Y-42003667D01*
X80372894Y-42095997D01*
X80316589Y-42201335D01*
X80281917Y-42315633D01*
X80270210Y-42434500D01*
X80270210Y-42909500D01*
X80281917Y-43028367D01*
X80316589Y-43142665D01*
X80372894Y-43248003D01*
X80448667Y-43340333D01*
X80540997Y-43416106D01*
X80646335Y-43472411D01*
X80760633Y-43507083D01*
X80879500Y-43518790D01*
X81445433Y-43518790D01*
X81430972Y-43566459D01*
X81419001Y-43688000D01*
X81422001Y-43718459D01*
X81422000Y-45354000D01*
X78774410Y-45354000D01*
X78743961Y-45351001D01*
X78622420Y-45362972D01*
X78586968Y-45373727D01*
X78505551Y-45398424D01*
X78397842Y-45455995D01*
X78303435Y-45533473D01*
X78284021Y-45557129D01*
X77760131Y-46081020D01*
X71367870Y-46081020D01*
X69749484Y-44462635D01*
X69730065Y-44438973D01*
X69635658Y-44361495D01*
X69527949Y-44303924D01*
X69411079Y-44268472D01*
X69319987Y-44259500D01*
X69289538Y-44256501D01*
X69259089Y-44259500D01*
X68757925Y-44259500D01*
X68709503Y-44200497D01*
X68616226Y-44123947D01*
X68509807Y-44067065D01*
X68394336Y-44032037D01*
X68274250Y-44020210D01*
X67361750Y-44020210D01*
X67241664Y-44032037D01*
X67126193Y-44067065D01*
X67019774Y-44123947D01*
X66926497Y-44200497D01*
X66849947Y-44293774D01*
X66793065Y-44400193D01*
X66758037Y-44515664D01*
X66746210Y-44635750D01*
X66746210Y-45123250D01*
X66758037Y-45243336D01*
X66793065Y-45358807D01*
X66849947Y-45465226D01*
X66926497Y-45558503D01*
X67019774Y-45635053D01*
X67126193Y-45691935D01*
X67241664Y-45726963D01*
X67361750Y-45738790D01*
X68274250Y-45738790D01*
X68394336Y-45726963D01*
X68509807Y-45691935D01*
X68616226Y-45635053D01*
X68709503Y-45558503D01*
X68757925Y-45499500D01*
X69032727Y-45499500D01*
X70651117Y-47117891D01*
X70670531Y-47141547D01*
X70764938Y-47219025D01*
X70872647Y-47276596D01*
X70954064Y-47301293D01*
X70989516Y-47312048D01*
X71111057Y-47324019D01*
X71141506Y-47321020D01*
X77986495Y-47321020D01*
X78016943Y-47324019D01*
X78138484Y-47312048D01*
X78255354Y-47276596D01*
X78363063Y-47219025D01*
X78457470Y-47141547D01*
X78476888Y-47117886D01*
X79000775Y-46594000D01*
X81757551Y-46594000D01*
X81788000Y-46596999D01*
X81909541Y-46585028D01*
X81927830Y-46579480D01*
X82026411Y-46549576D01*
X82134120Y-46492005D01*
X82228527Y-46414527D01*
X82247946Y-46390865D01*
X82458866Y-46179945D01*
X82482527Y-46160527D01*
X82560005Y-46066120D01*
X82617576Y-45958411D01*
X82653028Y-45841541D01*
X82660297Y-45767743D01*
X82741999Y-45775790D01*
X83261978Y-45775790D01*
X83623059Y-46136871D01*
X83642473Y-46160527D01*
X83736880Y-46238005D01*
X83844589Y-46295576D01*
X83925497Y-46320119D01*
X83961458Y-46331028D01*
X84083000Y-46342999D01*
X84113449Y-46340000D01*
X86075551Y-46340000D01*
X86106000Y-46342999D01*
X86227541Y-46331028D01*
X86344411Y-46295576D01*
X86452120Y-46238005D01*
X86546527Y-46160527D01*
X86565946Y-46136866D01*
X87538871Y-45163941D01*
X87562527Y-45144527D01*
X87640005Y-45050120D01*
X87697576Y-44942411D01*
X87733028Y-44825541D01*
X87742000Y-44734449D01*
X87744999Y-44704000D01*
X87742000Y-44673551D01*
X87742000Y-43182811D01*
X89162022Y-41762790D01*
X89391500Y-41762790D01*
X89510367Y-41751083D01*
X89624665Y-41716411D01*
X89730003Y-41660106D01*
X89822333Y-41584333D01*
X89898106Y-41492003D01*
X89954411Y-41386665D01*
X89989083Y-41272367D01*
X90000790Y-41153500D01*
X90000790Y-40578500D01*
X89989083Y-40459633D01*
X89954411Y-40345335D01*
X89898106Y-40239997D01*
X89822333Y-40147667D01*
X89730003Y-40071894D01*
X89624665Y-40015589D01*
X89543606Y-39991000D01*
X89624665Y-39966411D01*
X89730003Y-39910106D01*
X89822333Y-39834333D01*
X89898106Y-39742003D01*
X89901315Y-39736000D01*
X90058000Y-39736000D01*
X90058001Y-42908528D01*
X90027324Y-42877851D01*
X89802938Y-42727922D01*
X89553614Y-42624648D01*
X89288933Y-42572000D01*
X89019067Y-42572000D01*
X88754386Y-42624648D01*
X88505062Y-42727922D01*
X88280676Y-42877851D01*
X88089851Y-43068676D01*
X87939922Y-43293062D01*
X87836648Y-43542386D01*
X87784000Y-43807067D01*
X87784000Y-44076933D01*
X87836648Y-44341614D01*
X87939922Y-44590938D01*
X88089851Y-44815324D01*
X88280676Y-45006149D01*
X88505062Y-45156078D01*
X88754386Y-45259352D01*
X89019067Y-45312000D01*
X89288933Y-45312000D01*
X89553614Y-45259352D01*
X89802938Y-45156078D01*
X90027324Y-45006149D01*
X90218149Y-44815324D01*
X90368078Y-44590938D01*
X90380065Y-44562000D01*
X90393551Y-44562000D01*
X90424000Y-44564999D01*
X90483639Y-44559125D01*
X90545541Y-44553028D01*
X90662411Y-44517576D01*
X90770120Y-44460005D01*
X90791000Y-44442869D01*
X90791000Y-47357000D01*
X56783000Y-47357000D01*
X56783000Y-36717000D01*
X90791001Y-36717000D01*
X90791001Y-38615131D01*
%TD*%
M02*
