%FSLAX45Y45*%
G04 Gerber Fmt 4.5, Leading zero omitted, Abs format (unit mm)*
G04 Created by KiCad (PCBNEW 6.0.4) date 2022-03-30 22:58:50*
%MOMM*%
%LPD*%
G01*
G04 APERTURE LIST*
%TA.AperFunction,Profile*%
%ADD10C,0.100000*%
%TD*%
%ADD11C,0.200000*%
%ADD12C,0.080000*%
%ADD13C,0.100000*%
G04 APERTURE END LIST*
D10*
X10414000Y-4826000D02*
X7366000Y-4826000D01*
X10414000Y-6731000D02*
X10414000Y-4826000D01*
X7366000Y-6731000D02*
X10414000Y-6731000D01*
X7366000Y-4826000D02*
X7366000Y-6731000D01*
D11*
D12*
X8354700Y-5814700D02*
X8434700Y-5894700D01*
X8434700Y-5814700D02*
X8354700Y-5894700D01*
D13*
X7670000Y-5080000D02*
G75*
G03*
X7670000Y-5080000I-50000J0D01*
G01*
X7670000Y-6477000D02*
G75*
G03*
X7670000Y-6477000I-50000J0D01*
G01*
X8051000Y-5080000D02*
G75*
G03*
X8051000Y-5080000I-50000J0D01*
G01*
X8051000Y-5334000D02*
G75*
G03*
X8051000Y-5334000I-50000J0D01*
G01*
X8051000Y-5588000D02*
G75*
G03*
X8051000Y-5588000I-50000J0D01*
G01*
X8051000Y-5967500D02*
G75*
G03*
X8051000Y-5967500I-50000J0D01*
G01*
X8051000Y-6221500D02*
G75*
G03*
X8051000Y-6221500I-50000J0D01*
G01*
X8051000Y-6475500D02*
G75*
G03*
X8051000Y-6475500I-50000J0D01*
G01*
X9067000Y-5081500D02*
G75*
G03*
X9067000Y-5081500I-50000J0D01*
G01*
X9067000Y-5335500D02*
G75*
G03*
X9067000Y-5335500I-50000J0D01*
G01*
X9067000Y-5589500D02*
G75*
G03*
X9067000Y-5589500I-50000J0D01*
G01*
X9448000Y-6096000D02*
G75*
G03*
X9448000Y-6096000I-50000J0D01*
G01*
X9575500Y-6477000D02*
G75*
G03*
X9575500Y-6477000I-50000J0D01*
G01*
X9702000Y-6096000D02*
G75*
G03*
X9702000Y-6096000I-50000J0D01*
G01*
X9829500Y-6477000D02*
G75*
G03*
X9829500Y-6477000I-50000J0D01*
G01*
X9956000Y-6096000D02*
G75*
G03*
X9956000Y-6096000I-50000J0D01*
G01*
X10210000Y-5080000D02*
G75*
G03*
X10210000Y-5080000I-50000J0D01*
G01*
X10210000Y-6477000D02*
G75*
G03*
X10210000Y-6477000I-50000J0D01*
G01*
D11*
X7618619Y-7046476D02*
X7618619Y-6846476D01*
X7666238Y-6846476D01*
X7694809Y-6856000D01*
X7713857Y-6875048D01*
X7723381Y-6894095D01*
X7732905Y-6932190D01*
X7732905Y-6960762D01*
X7723381Y-6998857D01*
X7713857Y-7017905D01*
X7694809Y-7036952D01*
X7666238Y-7046476D01*
X7618619Y-7046476D01*
X7818619Y-7046476D02*
X7818619Y-6913143D01*
X7818619Y-6951238D02*
X7828143Y-6932190D01*
X7837667Y-6922667D01*
X7856714Y-6913143D01*
X7875762Y-6913143D01*
X7942428Y-7046476D02*
X7942428Y-6913143D01*
X7942428Y-6846476D02*
X7932905Y-6856000D01*
X7942428Y-6865524D01*
X7951952Y-6856000D01*
X7942428Y-6846476D01*
X7942428Y-6865524D01*
X8066238Y-7046476D02*
X8047190Y-7036952D01*
X8037667Y-7017905D01*
X8037667Y-6846476D01*
X8171000Y-7046476D02*
X8151952Y-7036952D01*
X8142428Y-7017905D01*
X8142428Y-6846476D01*
X8399571Y-7046476D02*
X8399571Y-6846476D01*
X8466238Y-6989333D01*
X8532905Y-6846476D01*
X8532905Y-7046476D01*
X8713857Y-7046476D02*
X8713857Y-6941714D01*
X8704333Y-6922667D01*
X8685286Y-6913143D01*
X8647190Y-6913143D01*
X8628143Y-6922667D01*
X8713857Y-7036952D02*
X8694810Y-7046476D01*
X8647190Y-7046476D01*
X8628143Y-7036952D01*
X8618619Y-7017905D01*
X8618619Y-6998857D01*
X8628143Y-6979809D01*
X8647190Y-6970286D01*
X8694810Y-6970286D01*
X8713857Y-6960762D01*
X8809095Y-6913143D02*
X8809095Y-7113143D01*
X8809095Y-6922667D02*
X8828143Y-6913143D01*
X8866238Y-6913143D01*
X8885286Y-6922667D01*
X8894810Y-6932190D01*
X8904333Y-6951238D01*
X8904333Y-7008381D01*
X8894810Y-7027428D01*
X8885286Y-7036952D01*
X8866238Y-7046476D01*
X8828143Y-7046476D01*
X8809095Y-7036952D01*
X8990048Y-7027428D02*
X8999571Y-7036952D01*
X8990048Y-7046476D01*
X8980524Y-7036952D01*
X8990048Y-7027428D01*
X8990048Y-7046476D01*
X8990048Y-6922667D02*
X8999571Y-6932190D01*
X8990048Y-6941714D01*
X8980524Y-6932190D01*
X8990048Y-6922667D01*
X8990048Y-6941714D01*
D12*
X7281000Y-7336000D02*
X7361000Y-7416000D01*
X7361000Y-7336000D02*
X7281000Y-7416000D01*
D11*
X7656714Y-7266476D02*
X7675762Y-7266476D01*
X7694809Y-7276000D01*
X7704333Y-7285524D01*
X7713857Y-7304571D01*
X7723381Y-7342667D01*
X7723381Y-7390286D01*
X7713857Y-7428381D01*
X7704333Y-7447428D01*
X7694809Y-7456952D01*
X7675762Y-7466476D01*
X7656714Y-7466476D01*
X7637667Y-7456952D01*
X7628143Y-7447428D01*
X7618619Y-7428381D01*
X7609095Y-7390286D01*
X7609095Y-7342667D01*
X7618619Y-7304571D01*
X7628143Y-7285524D01*
X7637667Y-7276000D01*
X7656714Y-7266476D01*
X7809095Y-7447428D02*
X7818619Y-7456952D01*
X7809095Y-7466476D01*
X7799571Y-7456952D01*
X7809095Y-7447428D01*
X7809095Y-7466476D01*
X7932905Y-7352190D02*
X7913857Y-7342667D01*
X7904333Y-7333143D01*
X7894809Y-7314095D01*
X7894809Y-7304571D01*
X7904333Y-7285524D01*
X7913857Y-7276000D01*
X7932905Y-7266476D01*
X7971000Y-7266476D01*
X7990048Y-7276000D01*
X7999571Y-7285524D01*
X8009095Y-7304571D01*
X8009095Y-7314095D01*
X7999571Y-7333143D01*
X7990048Y-7342667D01*
X7971000Y-7352190D01*
X7932905Y-7352190D01*
X7913857Y-7361714D01*
X7904333Y-7371238D01*
X7894809Y-7390286D01*
X7894809Y-7428381D01*
X7904333Y-7447428D01*
X7913857Y-7456952D01*
X7932905Y-7466476D01*
X7971000Y-7466476D01*
X7990048Y-7456952D01*
X7999571Y-7447428D01*
X8009095Y-7428381D01*
X8009095Y-7390286D01*
X7999571Y-7371238D01*
X7990048Y-7361714D01*
X7971000Y-7352190D01*
X8132905Y-7266476D02*
X8151952Y-7266476D01*
X8171000Y-7276000D01*
X8180524Y-7285524D01*
X8190048Y-7304571D01*
X8199571Y-7342667D01*
X8199571Y-7390286D01*
X8190048Y-7428381D01*
X8180524Y-7447428D01*
X8171000Y-7456952D01*
X8151952Y-7466476D01*
X8132905Y-7466476D01*
X8113857Y-7456952D01*
X8104333Y-7447428D01*
X8094809Y-7428381D01*
X8085286Y-7390286D01*
X8085286Y-7342667D01*
X8094809Y-7304571D01*
X8104333Y-7285524D01*
X8113857Y-7276000D01*
X8132905Y-7266476D01*
X8323381Y-7266476D02*
X8342428Y-7266476D01*
X8361476Y-7276000D01*
X8371000Y-7285524D01*
X8380524Y-7304571D01*
X8390048Y-7342667D01*
X8390048Y-7390286D01*
X8380524Y-7428381D01*
X8371000Y-7447428D01*
X8361476Y-7456952D01*
X8342428Y-7466476D01*
X8323381Y-7466476D01*
X8304333Y-7456952D01*
X8294809Y-7447428D01*
X8285286Y-7428381D01*
X8275762Y-7390286D01*
X8275762Y-7342667D01*
X8285286Y-7304571D01*
X8294809Y-7285524D01*
X8304333Y-7276000D01*
X8323381Y-7266476D01*
X8475762Y-7466476D02*
X8475762Y-7333143D01*
X8475762Y-7352190D02*
X8485286Y-7342667D01*
X8504333Y-7333143D01*
X8532905Y-7333143D01*
X8551952Y-7342667D01*
X8561476Y-7361714D01*
X8561476Y-7466476D01*
X8561476Y-7361714D02*
X8571000Y-7342667D01*
X8590048Y-7333143D01*
X8618619Y-7333143D01*
X8637667Y-7342667D01*
X8647190Y-7361714D01*
X8647190Y-7466476D01*
X8742429Y-7466476D02*
X8742429Y-7333143D01*
X8742429Y-7352190D02*
X8751952Y-7342667D01*
X8771000Y-7333143D01*
X8799571Y-7333143D01*
X8818619Y-7342667D01*
X8828143Y-7361714D01*
X8828143Y-7466476D01*
X8828143Y-7361714D02*
X8837667Y-7342667D01*
X8856714Y-7333143D01*
X8885286Y-7333143D01*
X8904333Y-7342667D01*
X8913857Y-7361714D01*
X8913857Y-7466476D01*
X9304333Y-7256952D02*
X9132905Y-7514095D01*
X9561476Y-7266476D02*
X9580524Y-7266476D01*
X9599571Y-7276000D01*
X9609095Y-7285524D01*
X9618619Y-7304571D01*
X9628143Y-7342667D01*
X9628143Y-7390286D01*
X9618619Y-7428381D01*
X9609095Y-7447428D01*
X9599571Y-7456952D01*
X9580524Y-7466476D01*
X9561476Y-7466476D01*
X9542429Y-7456952D01*
X9532905Y-7447428D01*
X9523381Y-7428381D01*
X9513857Y-7390286D01*
X9513857Y-7342667D01*
X9523381Y-7304571D01*
X9532905Y-7285524D01*
X9542429Y-7276000D01*
X9561476Y-7266476D01*
X9713857Y-7447428D02*
X9723381Y-7456952D01*
X9713857Y-7466476D01*
X9704333Y-7456952D01*
X9713857Y-7447428D01*
X9713857Y-7466476D01*
X9847190Y-7266476D02*
X9866238Y-7266476D01*
X9885286Y-7276000D01*
X9894810Y-7285524D01*
X9904333Y-7304571D01*
X9913857Y-7342667D01*
X9913857Y-7390286D01*
X9904333Y-7428381D01*
X9894810Y-7447428D01*
X9885286Y-7456952D01*
X9866238Y-7466476D01*
X9847190Y-7466476D01*
X9828143Y-7456952D01*
X9818619Y-7447428D01*
X9809095Y-7428381D01*
X9799571Y-7390286D01*
X9799571Y-7342667D01*
X9809095Y-7304571D01*
X9818619Y-7285524D01*
X9828143Y-7276000D01*
X9847190Y-7266476D01*
X9980524Y-7266476D02*
X10104333Y-7266476D01*
X10037667Y-7342667D01*
X10066238Y-7342667D01*
X10085286Y-7352190D01*
X10094810Y-7361714D01*
X10104333Y-7380762D01*
X10104333Y-7428381D01*
X10094810Y-7447428D01*
X10085286Y-7456952D01*
X10066238Y-7466476D01*
X10009095Y-7466476D01*
X9990048Y-7456952D01*
X9980524Y-7447428D01*
X10294810Y-7466476D02*
X10180524Y-7466476D01*
X10237667Y-7466476D02*
X10237667Y-7266476D01*
X10218619Y-7295048D01*
X10199571Y-7314095D01*
X10180524Y-7323619D01*
X10475762Y-7266476D02*
X10380524Y-7266476D01*
X10371000Y-7361714D01*
X10380524Y-7352190D01*
X10399571Y-7342667D01*
X10447190Y-7342667D01*
X10466238Y-7352190D01*
X10475762Y-7361714D01*
X10485286Y-7380762D01*
X10485286Y-7428381D01*
X10475762Y-7447428D01*
X10466238Y-7456952D01*
X10447190Y-7466476D01*
X10399571Y-7466476D01*
X10380524Y-7456952D01*
X10371000Y-7447428D01*
X10561476Y-7266476D02*
X10561476Y-7304571D01*
X10637667Y-7266476D02*
X10637667Y-7304571D01*
X10932905Y-7542667D02*
X10923381Y-7533143D01*
X10904333Y-7504571D01*
X10894810Y-7485524D01*
X10885286Y-7456952D01*
X10875762Y-7409333D01*
X10875762Y-7371238D01*
X10885286Y-7323619D01*
X10894810Y-7295048D01*
X10904333Y-7276000D01*
X10923381Y-7247428D01*
X10932905Y-7237905D01*
X11113857Y-7466476D02*
X10999571Y-7466476D01*
X11056714Y-7466476D02*
X11056714Y-7266476D01*
X11037667Y-7295048D01*
X11018619Y-7314095D01*
X10999571Y-7323619D01*
X11351952Y-7466476D02*
X11351952Y-7266476D01*
X11437667Y-7466476D02*
X11437667Y-7361714D01*
X11428143Y-7342667D01*
X11409095Y-7333143D01*
X11380524Y-7333143D01*
X11361476Y-7342667D01*
X11351952Y-7352190D01*
X11561476Y-7466476D02*
X11542428Y-7456952D01*
X11532905Y-7447428D01*
X11523381Y-7428381D01*
X11523381Y-7371238D01*
X11532905Y-7352190D01*
X11542428Y-7342667D01*
X11561476Y-7333143D01*
X11590048Y-7333143D01*
X11609095Y-7342667D01*
X11618619Y-7352190D01*
X11628143Y-7371238D01*
X11628143Y-7428381D01*
X11618619Y-7447428D01*
X11609095Y-7456952D01*
X11590048Y-7466476D01*
X11561476Y-7466476D01*
X11742428Y-7466476D02*
X11723381Y-7456952D01*
X11713857Y-7437905D01*
X11713857Y-7266476D01*
X11894809Y-7456952D02*
X11875762Y-7466476D01*
X11837667Y-7466476D01*
X11818619Y-7456952D01*
X11809095Y-7437905D01*
X11809095Y-7361714D01*
X11818619Y-7342667D01*
X11837667Y-7333143D01*
X11875762Y-7333143D01*
X11894809Y-7342667D01*
X11904333Y-7361714D01*
X11904333Y-7380762D01*
X11809095Y-7399809D01*
X11971000Y-7542667D02*
X11980524Y-7533143D01*
X11999571Y-7504571D01*
X12009095Y-7485524D01*
X12018619Y-7456952D01*
X12028143Y-7409333D01*
X12028143Y-7371238D01*
X12018619Y-7323619D01*
X12009095Y-7295048D01*
X11999571Y-7276000D01*
X11980524Y-7247428D01*
X11971000Y-7237905D01*
D13*
X7361000Y-7640000D02*
G75*
G03*
X7361000Y-7640000I-50000J0D01*
G01*
D11*
X7723381Y-7730476D02*
X7609095Y-7730476D01*
X7666238Y-7730476D02*
X7666238Y-7530476D01*
X7647190Y-7559048D01*
X7628143Y-7578095D01*
X7609095Y-7587619D01*
X7809095Y-7711428D02*
X7818619Y-7720952D01*
X7809095Y-7730476D01*
X7799571Y-7720952D01*
X7809095Y-7711428D01*
X7809095Y-7730476D01*
X7942428Y-7530476D02*
X7961476Y-7530476D01*
X7980524Y-7540000D01*
X7990048Y-7549524D01*
X7999571Y-7568571D01*
X8009095Y-7606667D01*
X8009095Y-7654286D01*
X7999571Y-7692381D01*
X7990048Y-7711428D01*
X7980524Y-7720952D01*
X7961476Y-7730476D01*
X7942428Y-7730476D01*
X7923381Y-7720952D01*
X7913857Y-7711428D01*
X7904333Y-7692381D01*
X7894809Y-7654286D01*
X7894809Y-7606667D01*
X7904333Y-7568571D01*
X7913857Y-7549524D01*
X7923381Y-7540000D01*
X7942428Y-7530476D01*
X8132905Y-7530476D02*
X8151952Y-7530476D01*
X8171000Y-7540000D01*
X8180524Y-7549524D01*
X8190048Y-7568571D01*
X8199571Y-7606667D01*
X8199571Y-7654286D01*
X8190048Y-7692381D01*
X8180524Y-7711428D01*
X8171000Y-7720952D01*
X8151952Y-7730476D01*
X8132905Y-7730476D01*
X8113857Y-7720952D01*
X8104333Y-7711428D01*
X8094809Y-7692381D01*
X8085286Y-7654286D01*
X8085286Y-7606667D01*
X8094809Y-7568571D01*
X8104333Y-7549524D01*
X8113857Y-7540000D01*
X8132905Y-7530476D01*
X8323381Y-7530476D02*
X8342428Y-7530476D01*
X8361476Y-7540000D01*
X8371000Y-7549524D01*
X8380524Y-7568571D01*
X8390048Y-7606667D01*
X8390048Y-7654286D01*
X8380524Y-7692381D01*
X8371000Y-7711428D01*
X8361476Y-7720952D01*
X8342428Y-7730476D01*
X8323381Y-7730476D01*
X8304333Y-7720952D01*
X8294809Y-7711428D01*
X8285286Y-7692381D01*
X8275762Y-7654286D01*
X8275762Y-7606667D01*
X8285286Y-7568571D01*
X8294809Y-7549524D01*
X8304333Y-7540000D01*
X8323381Y-7530476D01*
X8475762Y-7730476D02*
X8475762Y-7597143D01*
X8475762Y-7616190D02*
X8485286Y-7606667D01*
X8504333Y-7597143D01*
X8532905Y-7597143D01*
X8551952Y-7606667D01*
X8561476Y-7625714D01*
X8561476Y-7730476D01*
X8561476Y-7625714D02*
X8571000Y-7606667D01*
X8590048Y-7597143D01*
X8618619Y-7597143D01*
X8637667Y-7606667D01*
X8647190Y-7625714D01*
X8647190Y-7730476D01*
X8742429Y-7730476D02*
X8742429Y-7597143D01*
X8742429Y-7616190D02*
X8751952Y-7606667D01*
X8771000Y-7597143D01*
X8799571Y-7597143D01*
X8818619Y-7606667D01*
X8828143Y-7625714D01*
X8828143Y-7730476D01*
X8828143Y-7625714D02*
X8837667Y-7606667D01*
X8856714Y-7597143D01*
X8885286Y-7597143D01*
X8904333Y-7606667D01*
X8913857Y-7625714D01*
X8913857Y-7730476D01*
X9304333Y-7520952D02*
X9132905Y-7778095D01*
X9561476Y-7530476D02*
X9580524Y-7530476D01*
X9599571Y-7540000D01*
X9609095Y-7549524D01*
X9618619Y-7568571D01*
X9628143Y-7606667D01*
X9628143Y-7654286D01*
X9618619Y-7692381D01*
X9609095Y-7711428D01*
X9599571Y-7720952D01*
X9580524Y-7730476D01*
X9561476Y-7730476D01*
X9542429Y-7720952D01*
X9532905Y-7711428D01*
X9523381Y-7692381D01*
X9513857Y-7654286D01*
X9513857Y-7606667D01*
X9523381Y-7568571D01*
X9532905Y-7549524D01*
X9542429Y-7540000D01*
X9561476Y-7530476D01*
X9713857Y-7711428D02*
X9723381Y-7720952D01*
X9713857Y-7730476D01*
X9704333Y-7720952D01*
X9713857Y-7711428D01*
X9713857Y-7730476D01*
X9847190Y-7530476D02*
X9866238Y-7530476D01*
X9885286Y-7540000D01*
X9894810Y-7549524D01*
X9904333Y-7568571D01*
X9913857Y-7606667D01*
X9913857Y-7654286D01*
X9904333Y-7692381D01*
X9894810Y-7711428D01*
X9885286Y-7720952D01*
X9866238Y-7730476D01*
X9847190Y-7730476D01*
X9828143Y-7720952D01*
X9818619Y-7711428D01*
X9809095Y-7692381D01*
X9799571Y-7654286D01*
X9799571Y-7606667D01*
X9809095Y-7568571D01*
X9818619Y-7549524D01*
X9828143Y-7540000D01*
X9847190Y-7530476D01*
X9980524Y-7530476D02*
X10104333Y-7530476D01*
X10037667Y-7606667D01*
X10066238Y-7606667D01*
X10085286Y-7616190D01*
X10094810Y-7625714D01*
X10104333Y-7644762D01*
X10104333Y-7692381D01*
X10094810Y-7711428D01*
X10085286Y-7720952D01*
X10066238Y-7730476D01*
X10009095Y-7730476D01*
X9990048Y-7720952D01*
X9980524Y-7711428D01*
X10199571Y-7730476D02*
X10237667Y-7730476D01*
X10256714Y-7720952D01*
X10266238Y-7711428D01*
X10285286Y-7682857D01*
X10294810Y-7644762D01*
X10294810Y-7568571D01*
X10285286Y-7549524D01*
X10275762Y-7540000D01*
X10256714Y-7530476D01*
X10218619Y-7530476D01*
X10199571Y-7540000D01*
X10190048Y-7549524D01*
X10180524Y-7568571D01*
X10180524Y-7616190D01*
X10190048Y-7635238D01*
X10199571Y-7644762D01*
X10218619Y-7654286D01*
X10256714Y-7654286D01*
X10275762Y-7644762D01*
X10285286Y-7635238D01*
X10294810Y-7616190D01*
X10466238Y-7597143D02*
X10466238Y-7730476D01*
X10418619Y-7520952D02*
X10371000Y-7663809D01*
X10494810Y-7663809D01*
X10561476Y-7530476D02*
X10561476Y-7568571D01*
X10637667Y-7530476D02*
X10637667Y-7568571D01*
X10932905Y-7806667D02*
X10923381Y-7797143D01*
X10904333Y-7768571D01*
X10894810Y-7749524D01*
X10885286Y-7720952D01*
X10875762Y-7673333D01*
X10875762Y-7635238D01*
X10885286Y-7587619D01*
X10894810Y-7559048D01*
X10904333Y-7540000D01*
X10923381Y-7511428D01*
X10932905Y-7501905D01*
X11113857Y-7730476D02*
X10999571Y-7730476D01*
X11056714Y-7730476D02*
X11056714Y-7530476D01*
X11037667Y-7559048D01*
X11018619Y-7578095D01*
X10999571Y-7587619D01*
X11228143Y-7616190D02*
X11209095Y-7606667D01*
X11199571Y-7597143D01*
X11190048Y-7578095D01*
X11190048Y-7568571D01*
X11199571Y-7549524D01*
X11209095Y-7540000D01*
X11228143Y-7530476D01*
X11266238Y-7530476D01*
X11285286Y-7540000D01*
X11294809Y-7549524D01*
X11304333Y-7568571D01*
X11304333Y-7578095D01*
X11294809Y-7597143D01*
X11285286Y-7606667D01*
X11266238Y-7616190D01*
X11228143Y-7616190D01*
X11209095Y-7625714D01*
X11199571Y-7635238D01*
X11190048Y-7654286D01*
X11190048Y-7692381D01*
X11199571Y-7711428D01*
X11209095Y-7720952D01*
X11228143Y-7730476D01*
X11266238Y-7730476D01*
X11285286Y-7720952D01*
X11294809Y-7711428D01*
X11304333Y-7692381D01*
X11304333Y-7654286D01*
X11294809Y-7635238D01*
X11285286Y-7625714D01*
X11266238Y-7616190D01*
X11542428Y-7730476D02*
X11542428Y-7530476D01*
X11628143Y-7730476D02*
X11628143Y-7625714D01*
X11618619Y-7606667D01*
X11599571Y-7597143D01*
X11571000Y-7597143D01*
X11551952Y-7606667D01*
X11542428Y-7616190D01*
X11751952Y-7730476D02*
X11732905Y-7720952D01*
X11723381Y-7711428D01*
X11713857Y-7692381D01*
X11713857Y-7635238D01*
X11723381Y-7616190D01*
X11732905Y-7606667D01*
X11751952Y-7597143D01*
X11780524Y-7597143D01*
X11799571Y-7606667D01*
X11809095Y-7616190D01*
X11818619Y-7635238D01*
X11818619Y-7692381D01*
X11809095Y-7711428D01*
X11799571Y-7720952D01*
X11780524Y-7730476D01*
X11751952Y-7730476D01*
X11932905Y-7730476D02*
X11913857Y-7720952D01*
X11904333Y-7701905D01*
X11904333Y-7530476D01*
X12085286Y-7720952D02*
X12066238Y-7730476D01*
X12028143Y-7730476D01*
X12009095Y-7720952D01*
X11999571Y-7701905D01*
X11999571Y-7625714D01*
X12009095Y-7606667D01*
X12028143Y-7597143D01*
X12066238Y-7597143D01*
X12085286Y-7606667D01*
X12094809Y-7625714D01*
X12094809Y-7644762D01*
X11999571Y-7663809D01*
X12171000Y-7720952D02*
X12190048Y-7730476D01*
X12228143Y-7730476D01*
X12247190Y-7720952D01*
X12256714Y-7701905D01*
X12256714Y-7692381D01*
X12247190Y-7673333D01*
X12228143Y-7663809D01*
X12199571Y-7663809D01*
X12180524Y-7654286D01*
X12171000Y-7635238D01*
X12171000Y-7625714D01*
X12180524Y-7606667D01*
X12199571Y-7597143D01*
X12228143Y-7597143D01*
X12247190Y-7606667D01*
X12323381Y-7806667D02*
X12332905Y-7797143D01*
X12351952Y-7768571D01*
X12361476Y-7749524D01*
X12371000Y-7720952D01*
X12380524Y-7673333D01*
X12380524Y-7635238D01*
X12371000Y-7587619D01*
X12361476Y-7559048D01*
X12351952Y-7540000D01*
X12332905Y-7511428D01*
X12323381Y-7501905D01*
M02*
