%TF.GenerationSoftware,KiCad,Pcbnew,6.0.4*%
%TF.CreationDate,2022-04-03T03:04:25+02:00*%
%TF.ProjectId,cederom-ap3211-test,63656465-726f-46d2-9d61-70333231312d,2022-04-03*%
%TF.SameCoordinates,Original*%
%TF.FileFunction,Copper,L1,Top*%
%TF.FilePolarity,Positive*%
%FSLAX46Y46*%
G04 Gerber Fmt 4.6, Leading zero omitted, Abs format (unit mm)*
G04 Created by KiCad (PCBNEW 6.0.4) date 2022-04-03 03:04:25*
%MOMM*%
%LPD*%
G01*
G04 APERTURE LIST*
G04 Aperture macros list*
%AMRoundRect*
0 Rectangle with rounded corners*
0 $1 Rounding radius*
0 $2 $3 $4 $5 $6 $7 $8 $9 X,Y pos of 4 corners*
0 Add a 4 corners polygon primitive as box body*
4,1,4,$2,$3,$4,$5,$6,$7,$8,$9,$2,$3,0*
0 Add four circle primitives for the rounded corners*
1,1,$1+$1,$2,$3*
1,1,$1+$1,$4,$5*
1,1,$1+$1,$6,$7*
1,1,$1+$1,$8,$9*
0 Add four rect primitives between the rounded corners*
20,1,$1+$1,$2,$3,$4,$5,0*
20,1,$1+$1,$4,$5,$6,$7,0*
20,1,$1+$1,$6,$7,$8,$9,0*
20,1,$1+$1,$8,$9,$2,$3,0*%
G04 Aperture macros list end*
%TA.AperFunction,ComponentPad*%
%ADD10R,2.000000X2.000000*%
%TD*%
%TA.AperFunction,SMDPad,CuDef*%
%ADD11RoundRect,0.237500X0.237500X-0.250000X0.237500X0.250000X-0.237500X0.250000X-0.237500X-0.250000X0*%
%TD*%
%TA.AperFunction,SMDPad,CuDef*%
%ADD12RoundRect,0.150000X-0.150000X0.512500X-0.150000X-0.512500X0.150000X-0.512500X0.150000X0.512500X0*%
%TD*%
%TA.AperFunction,ComponentPad*%
%ADD13O,1.700000X1.700000*%
%TD*%
%TA.AperFunction,ComponentPad*%
%ADD14R,1.700000X1.700000*%
%TD*%
%TA.AperFunction,SMDPad,CuDef*%
%ADD15RoundRect,0.237500X-0.237500X0.250000X-0.237500X-0.250000X0.237500X-0.250000X0.237500X0.250000X0*%
%TD*%
%TA.AperFunction,SMDPad,CuDef*%
%ADD16RoundRect,0.237500X0.237500X-0.287500X0.237500X0.287500X-0.237500X0.287500X-0.237500X-0.287500X0*%
%TD*%
%TA.AperFunction,SMDPad,CuDef*%
%ADD17R,1.800000X2.900000*%
%TD*%
%TA.AperFunction,SMDPad,CuDef*%
%ADD18R,3.500000X1.800000*%
%TD*%
%TA.AperFunction,SMDPad,CuDef*%
%ADD19RoundRect,0.250000X0.325000X0.450000X-0.325000X0.450000X-0.325000X-0.450000X0.325000X-0.450000X0*%
%TD*%
%TA.AperFunction,SMDPad,CuDef*%
%ADD20RoundRect,0.237500X-0.237500X0.300000X-0.237500X-0.300000X0.237500X-0.300000X0.237500X0.300000X0*%
%TD*%
%TA.AperFunction,SMDPad,CuDef*%
%ADD21RoundRect,0.250000X-0.475000X0.337500X-0.475000X-0.337500X0.475000X-0.337500X0.475000X0.337500X0*%
%TD*%
%TA.AperFunction,ViaPad*%
%ADD22C,1.200000*%
%TD*%
%TA.AperFunction,Conductor*%
%ADD23C,0.500000*%
%TD*%
%TA.AperFunction,Conductor*%
%ADD24C,0.250000*%
%TD*%
G04 APERTURE END LIST*
D10*
%TO.P,TP4,1,1*%
%TO.N,GND*%
X88900000Y-63500000D03*
%TD*%
%TO.P,TP3,1,1*%
%TO.N,Net-(C2-Pad1)*%
X88900000Y-50800000D03*
%TD*%
%TO.P,TP2,1,1*%
%TO.N,GND*%
X63500000Y-63500000D03*
%TD*%
%TO.P,TP1,1,1*%
%TO.N,Net-(C1-Pad1)*%
X63500000Y-50800000D03*
%TD*%
D11*
%TO.P,R3,1*%
%TO.N,GND*%
X66040000Y-55522500D03*
%TO.P,R3,2*%
%TO.N,Net-(JP1-Pad2)*%
X66040000Y-53697500D03*
%TD*%
D12*
%TO.P,U1,1,BS*%
%TO.N,Net-(CB1-Pad1)*%
X74610000Y-50932500D03*
%TO.P,U1,2,GND*%
%TO.N,GND*%
X73660000Y-50932500D03*
%TO.P,U1,3,FB*%
%TO.N,Net-(R1-Pad1)*%
X72710000Y-50932500D03*
%TO.P,U1,4,EN*%
%TO.N,Net-(JP1-Pad2)*%
X72710000Y-53207500D03*
%TO.P,U1,5,IN*%
%TO.N,Net-(C1-Pad1)*%
X73660000Y-53207500D03*
%TO.P,U1,6,SW*%
%TO.N,Net-(CB1-Pad2)*%
X74610000Y-53207500D03*
%TD*%
D13*
%TO.P,R`1,2,Pin_2*%
%TO.N,Net-(R1-Pad1)*%
X68580000Y-63500000D03*
D14*
%TO.P,R`1,1,Pin_1*%
%TO.N,Net-(JP4-Pad1)*%
X71120000Y-63500000D03*
%TD*%
D15*
%TO.P,R2,1*%
%TO.N,Net-(R1-Pad1)*%
X66040000Y-62587500D03*
%TO.P,R2,2*%
%TO.N,GND*%
X66040000Y-64412500D03*
%TD*%
%TO.P,R1,2*%
%TO.N,Net-(JP4-Pad3)*%
X73660000Y-64412500D03*
%TO.P,R1,1*%
%TO.N,Net-(R1-Pad1)*%
X73660000Y-62587500D03*
%TD*%
D16*
%TO.P,L2,1,1*%
%TO.N,Net-(JP3-Pad3)*%
X83820000Y-52945000D03*
%TO.P,L2,2,2*%
%TO.N,Net-(C2-Pad1)*%
X83820000Y-51195000D03*
%TD*%
D17*
%TO.P,L1,1,1*%
%TO.N,Net-(JP3-Pad1)*%
X78410000Y-52070000D03*
%TO.P,L1,2,2*%
%TO.N,Net-(C2-Pad1)*%
X81610000Y-52070000D03*
%TD*%
D14*
%TO.P,JP4,1,A*%
%TO.N,Net-(JP4-Pad1)*%
X78755000Y-63500000D03*
D13*
%TO.P,JP4,2,C*%
%TO.N,Net-(C2-Pad1)*%
X81295000Y-63500000D03*
%TO.P,JP4,3,B*%
%TO.N,Net-(JP4-Pad3)*%
X83835000Y-63500000D03*
%TD*%
D14*
%TO.P,JP3,1,A*%
%TO.N,Net-(JP3-Pad1)*%
X78755000Y-55880000D03*
D13*
%TO.P,JP3,2,C*%
%TO.N,Net-(CB1-Pad2)*%
X81295000Y-55880000D03*
%TO.P,JP3,3,B*%
%TO.N,Net-(JP3-Pad3)*%
X83835000Y-55880000D03*
%TD*%
%TO.P,JP2,3,B*%
%TO.N,Net-(D2-Pad1)*%
X83820000Y-59690000D03*
%TO.P,JP2,2,C*%
%TO.N,Net-(CB1-Pad2)*%
X81280000Y-59690000D03*
D14*
%TO.P,JP2,1,A*%
%TO.N,Net-(D1-Pad1)*%
X78740000Y-59690000D03*
%TD*%
%TO.P,JP1,1,A*%
%TO.N,GND*%
X68580000Y-55880000D03*
D13*
%TO.P,JP1,2,C*%
%TO.N,Net-(JP1-Pad2)*%
X68580000Y-53340000D03*
%TO.P,JP1,3,B*%
%TO.N,Net-(C1-Pad1)*%
X68580000Y-50800000D03*
%TD*%
D18*
%TO.P,D2,1,K*%
%TO.N,Net-(D2-Pad1)*%
X72350000Y-59690000D03*
%TO.P,D2,2,A*%
%TO.N,GND*%
X67350000Y-59690000D03*
%TD*%
D19*
%TO.P,D1,1,K*%
%TO.N,Net-(D1-Pad1)*%
X74685000Y-57150000D03*
%TO.P,D1,2,A*%
%TO.N,GND*%
X72635000Y-57150000D03*
%TD*%
D20*
%TO.P,CB1,2*%
%TO.N,Net-(CB1-Pad2)*%
X76200000Y-52932500D03*
%TO.P,CB1,1*%
%TO.N,Net-(CB1-Pad1)*%
X76200000Y-51207500D03*
%TD*%
D21*
%TO.P,C2,2*%
%TO.N,GND*%
X88900000Y-58187500D03*
%TO.P,C2,1*%
%TO.N,Net-(C2-Pad1)*%
X88900000Y-56112500D03*
%TD*%
D20*
%TO.P,C1,1*%
%TO.N,Net-(C1-Pad1)*%
X63500000Y-56287500D03*
%TO.P,C1,2*%
%TO.N,GND*%
X63500000Y-58012500D03*
%TD*%
D22*
%TO.N,Net-(R1-Pad1)*%
X71120000Y-50800000D03*
%TD*%
D23*
%TO.N,Net-(CB1-Pad2)*%
X81295000Y-55880000D02*
X81295000Y-57770000D01*
X81295000Y-57770000D02*
X81295000Y-59675000D01*
X78105000Y-57785000D02*
X81280000Y-57785000D01*
X81280000Y-57785000D02*
X81295000Y-57770000D01*
X81295000Y-59675000D02*
X81280000Y-59690000D01*
X74610000Y-54290000D02*
X78105000Y-57785000D01*
%TO.N,Net-(JP1-Pad2)*%
X68580000Y-53340000D02*
X72577500Y-53340000D01*
X72577500Y-53340000D02*
X72710000Y-53207500D01*
%TO.N,Net-(C1-Pad1)*%
X73057369Y-52044520D02*
X69824520Y-52044520D01*
X69824520Y-52044520D02*
X68580000Y-50800000D01*
%TO.N,Net-(R1-Pad1)*%
X71252500Y-50932500D02*
X71120000Y-50800000D01*
X72710000Y-50932500D02*
X71252500Y-50932500D01*
%TO.N,GND*%
X63500000Y-63500000D02*
X65127500Y-63500000D01*
X65127500Y-63500000D02*
X66040000Y-64412500D01*
%TO.N,Net-(C2-Pad1)*%
X88900000Y-56112500D02*
X87397500Y-56112500D01*
X87397500Y-56112500D02*
X86360000Y-57150000D01*
X83200000Y-61595000D02*
X81295000Y-63500000D01*
X86360000Y-57150000D02*
X86360000Y-60325000D01*
X85090000Y-61595000D02*
X83200000Y-61595000D01*
X86360000Y-60325000D02*
X85090000Y-61595000D01*
X84215000Y-50800000D02*
X88900000Y-50800000D01*
%TO.N,GND*%
X88900000Y-58187500D02*
X88900000Y-63500000D01*
%TO.N,Net-(C2-Pad1)*%
X88900000Y-50800000D02*
X88900000Y-56112500D01*
X83820000Y-51195000D02*
X84215000Y-50800000D01*
X83820000Y-51195000D02*
X82485000Y-51195000D01*
X82485000Y-51195000D02*
X81610000Y-52070000D01*
%TO.N,Net-(JP3-Pad3)*%
X83835000Y-55880000D02*
X83835000Y-52960000D01*
X83835000Y-52960000D02*
X83820000Y-52945000D01*
%TO.N,Net-(JP3-Pad1)*%
X78755000Y-55880000D02*
X78755000Y-52415000D01*
X78755000Y-52415000D02*
X78410000Y-52070000D01*
%TO.N,Net-(CB1-Pad2)*%
X74610000Y-53207500D02*
X74610000Y-54290000D01*
X74610000Y-53207500D02*
X75925000Y-53207500D01*
X75925000Y-53207500D02*
X76200000Y-52932500D01*
%TO.N,Net-(CB1-Pad1)*%
X74610000Y-50932500D02*
X75925000Y-50932500D01*
X75925000Y-50932500D02*
X76200000Y-51207500D01*
%TO.N,Net-(C1-Pad1)*%
X73660000Y-53207500D02*
X73660000Y-52647151D01*
X73660000Y-52647151D02*
X73057369Y-52044520D01*
%TO.N,Net-(CB1-Pad2)*%
X81280000Y-55895000D02*
X81295000Y-55880000D01*
%TO.N,Net-(D2-Pad1)*%
X82520489Y-60989511D02*
X76229511Y-60989511D01*
X83820000Y-59690000D02*
X82520489Y-60989511D01*
X76229511Y-60989511D02*
X74930000Y-59690000D01*
X74930000Y-59690000D02*
X72350000Y-59690000D01*
%TO.N,Net-(D1-Pad1)*%
X74685000Y-57150000D02*
X77225000Y-59690000D01*
X77225000Y-59690000D02*
X78740000Y-59690000D01*
%TO.N,Net-(JP4-Pad3)*%
X73660000Y-64412500D02*
X74047011Y-64799511D01*
X74047011Y-64799511D02*
X82535489Y-64799511D01*
X82535489Y-64799511D02*
X83835000Y-63500000D01*
D24*
%TO.N,Net-(JP4-Pad1)*%
X73025000Y-63500000D02*
X74295000Y-63500000D01*
D23*
X71120000Y-63500000D02*
X73025000Y-63500000D01*
X74295000Y-63500000D02*
X78755000Y-63500000D01*
%TO.N,Net-(R1-Pad1)*%
X66675000Y-61595000D02*
X68580000Y-61595000D01*
X68580000Y-61595000D02*
X73025000Y-61595000D01*
X68580000Y-63500000D02*
X68580000Y-61595000D01*
X73025000Y-61595000D02*
X73660000Y-62230000D01*
X66040000Y-62587500D02*
X66040000Y-62230000D01*
X66040000Y-62230000D02*
X66675000Y-61595000D01*
X73660000Y-62230000D02*
X73660000Y-62587500D01*
%TO.N,GND*%
X72635000Y-57150000D02*
X68580000Y-57150000D01*
%TO.N,Net-(JP1-Pad2)*%
X68580000Y-53340000D02*
X66397500Y-53340000D01*
X66397500Y-53340000D02*
X66040000Y-53697500D01*
%TO.N,GND*%
X68580000Y-55880000D02*
X66397500Y-55880000D01*
X66397500Y-55880000D02*
X66040000Y-55522500D01*
X67350000Y-59690000D02*
X67350000Y-58380000D01*
X67350000Y-58380000D02*
X67717500Y-58012500D01*
X63500000Y-58012500D02*
X67717500Y-58012500D01*
X68580000Y-57150000D02*
X68580000Y-55880000D01*
X67717500Y-58012500D02*
X68580000Y-57150000D01*
X63500000Y-58012500D02*
X63500000Y-63500000D01*
%TO.N,Net-(C1-Pad1)*%
X63500000Y-50800000D02*
X63500000Y-56287500D01*
X63500000Y-50800000D02*
X68580000Y-50800000D01*
%TD*%
%TA.AperFunction,Conductor*%
%TO.N,GND*%
G36*
X91127621Y-48534502D02*
G01*
X91174114Y-48588158D01*
X91185500Y-48640500D01*
X91185500Y-65659500D01*
X91165498Y-65727621D01*
X91111842Y-65774114D01*
X91059500Y-65785500D01*
X61340500Y-65785500D01*
X61272379Y-65765498D01*
X61225886Y-65711842D01*
X61214500Y-65659500D01*
X61214500Y-64518828D01*
X62246001Y-64518828D01*
X62247209Y-64531088D01*
X62258315Y-64586931D01*
X62267633Y-64609427D01*
X62309983Y-64672808D01*
X62327192Y-64690017D01*
X62390575Y-64732368D01*
X62413066Y-64741684D01*
X62468915Y-64752793D01*
X62481170Y-64754000D01*
X63227885Y-64754000D01*
X63243124Y-64749525D01*
X63244329Y-64748135D01*
X63246000Y-64740452D01*
X63246000Y-64735884D01*
X63754000Y-64735884D01*
X63758475Y-64751123D01*
X63759865Y-64752328D01*
X63767548Y-64753999D01*
X64518828Y-64753999D01*
X64531088Y-64752791D01*
X64586931Y-64741685D01*
X64609427Y-64732367D01*
X64649479Y-64705605D01*
X65311001Y-64705605D01*
X65311371Y-64712426D01*
X65316676Y-64761273D01*
X65320302Y-64776524D01*
X65363799Y-64892553D01*
X65372333Y-64908139D01*
X65446002Y-65006437D01*
X65458563Y-65018998D01*
X65556861Y-65092667D01*
X65572447Y-65101201D01*
X65688473Y-65144697D01*
X65703729Y-65148325D01*
X65752576Y-65153631D01*
X65759393Y-65154000D01*
X65767885Y-65154000D01*
X65783124Y-65149525D01*
X65784329Y-65148135D01*
X65786000Y-65140452D01*
X65786000Y-65135884D01*
X66294000Y-65135884D01*
X66298475Y-65151123D01*
X66299865Y-65152328D01*
X66307548Y-65153999D01*
X66320605Y-65153999D01*
X66327426Y-65153629D01*
X66376273Y-65148324D01*
X66391524Y-65144698D01*
X66507553Y-65101201D01*
X66523139Y-65092667D01*
X66621437Y-65018998D01*
X66633998Y-65006437D01*
X66707667Y-64908139D01*
X66716201Y-64892553D01*
X66759697Y-64776527D01*
X66763325Y-64761271D01*
X66768631Y-64712424D01*
X66769000Y-64705607D01*
X66769000Y-64684615D01*
X66764525Y-64669376D01*
X66763135Y-64668171D01*
X66755452Y-64666500D01*
X66312115Y-64666500D01*
X66296876Y-64670975D01*
X66295671Y-64672365D01*
X66294000Y-64680048D01*
X66294000Y-65135884D01*
X65786000Y-65135884D01*
X65786000Y-64684615D01*
X65781525Y-64669376D01*
X65780135Y-64668171D01*
X65772452Y-64666500D01*
X65329116Y-64666500D01*
X65313877Y-64670975D01*
X65312672Y-64672365D01*
X65311001Y-64680048D01*
X65311001Y-64705605D01*
X64649479Y-64705605D01*
X64672808Y-64690017D01*
X64690017Y-64672808D01*
X64732368Y-64609425D01*
X64741684Y-64586934D01*
X64752793Y-64531085D01*
X64754000Y-64518830D01*
X64754000Y-64140385D01*
X65311000Y-64140385D01*
X65315475Y-64155624D01*
X65316865Y-64156829D01*
X65324548Y-64158500D01*
X65767885Y-64158500D01*
X65783124Y-64154025D01*
X65784329Y-64152635D01*
X65786000Y-64144952D01*
X65786000Y-64140385D01*
X66294000Y-64140385D01*
X66298475Y-64155624D01*
X66299865Y-64156829D01*
X66307548Y-64158500D01*
X66750884Y-64158500D01*
X66766123Y-64154025D01*
X66767328Y-64152635D01*
X66768999Y-64144952D01*
X66768999Y-64119395D01*
X66768629Y-64112574D01*
X66763324Y-64063727D01*
X66759698Y-64048476D01*
X66716201Y-63932447D01*
X66707667Y-63916861D01*
X66633998Y-63818563D01*
X66621437Y-63806002D01*
X66523139Y-63732333D01*
X66507553Y-63723799D01*
X66391527Y-63680303D01*
X66376271Y-63676675D01*
X66327424Y-63671369D01*
X66320607Y-63671000D01*
X66312115Y-63671000D01*
X66296876Y-63675475D01*
X66295671Y-63676865D01*
X66294000Y-63684548D01*
X66294000Y-64140385D01*
X65786000Y-64140385D01*
X65786000Y-63689116D01*
X65781525Y-63673877D01*
X65780135Y-63672672D01*
X65772452Y-63671001D01*
X65759395Y-63671001D01*
X65752574Y-63671371D01*
X65703727Y-63676676D01*
X65688476Y-63680302D01*
X65572447Y-63723799D01*
X65556861Y-63732333D01*
X65458563Y-63806002D01*
X65446002Y-63818563D01*
X65372333Y-63916861D01*
X65363799Y-63932447D01*
X65320303Y-64048473D01*
X65316675Y-64063729D01*
X65311369Y-64112576D01*
X65311000Y-64119393D01*
X65311000Y-64140385D01*
X64754000Y-64140385D01*
X64754000Y-63772115D01*
X64749525Y-63756876D01*
X64748135Y-63755671D01*
X64740452Y-63754000D01*
X63772115Y-63754000D01*
X63756876Y-63758475D01*
X63755671Y-63759865D01*
X63754000Y-63767548D01*
X63754000Y-64735884D01*
X63246000Y-64735884D01*
X63246000Y-63772115D01*
X63241525Y-63756876D01*
X63240135Y-63755671D01*
X63232452Y-63754000D01*
X62264116Y-63754000D01*
X62248877Y-63758475D01*
X62247672Y-63759865D01*
X62246001Y-63767548D01*
X62246001Y-64518828D01*
X61214500Y-64518828D01*
X61214500Y-63227885D01*
X62246000Y-63227885D01*
X62250475Y-63243124D01*
X62251865Y-63244329D01*
X62259548Y-63246000D01*
X63227885Y-63246000D01*
X63243124Y-63241525D01*
X63244329Y-63240135D01*
X63246000Y-63232452D01*
X63246000Y-63227885D01*
X63754000Y-63227885D01*
X63758475Y-63243124D01*
X63759865Y-63244329D01*
X63767548Y-63246000D01*
X64735884Y-63246000D01*
X64751123Y-63241525D01*
X64752328Y-63240135D01*
X64753999Y-63232452D01*
X64753999Y-62481172D01*
X64752791Y-62468912D01*
X64741685Y-62413069D01*
X64732367Y-62390573D01*
X64690017Y-62327192D01*
X64672808Y-62309983D01*
X64609425Y-62267632D01*
X64586934Y-62258316D01*
X64531085Y-62247207D01*
X64518830Y-62246000D01*
X63772115Y-62246000D01*
X63756876Y-62250475D01*
X63755671Y-62251865D01*
X63754000Y-62259548D01*
X63754000Y-63227885D01*
X63246000Y-63227885D01*
X63246000Y-62264116D01*
X63241525Y-62248877D01*
X63240135Y-62247672D01*
X63232452Y-62246001D01*
X62481172Y-62246001D01*
X62468912Y-62247209D01*
X62413069Y-62258315D01*
X62390573Y-62267633D01*
X62327192Y-62309983D01*
X62309983Y-62327192D01*
X62267632Y-62390575D01*
X62258316Y-62413066D01*
X62247207Y-62468915D01*
X62246000Y-62481170D01*
X62246000Y-63227885D01*
X61214500Y-63227885D01*
X61214500Y-59417885D01*
X65346000Y-59417885D01*
X65350475Y-59433124D01*
X65351865Y-59434329D01*
X65359548Y-59436000D01*
X67077885Y-59436000D01*
X67093124Y-59431525D01*
X67094329Y-59430135D01*
X67096000Y-59422452D01*
X67096000Y-59417885D01*
X67604000Y-59417885D01*
X67608475Y-59433124D01*
X67609865Y-59434329D01*
X67617548Y-59436000D01*
X69335884Y-59436000D01*
X69351123Y-59431525D01*
X69352328Y-59430135D01*
X69353999Y-59422452D01*
X69353999Y-58771172D01*
X69352791Y-58758912D01*
X69341685Y-58703069D01*
X69332367Y-58680573D01*
X69290017Y-58617192D01*
X69272808Y-58599983D01*
X69209425Y-58557632D01*
X69186934Y-58548316D01*
X69131085Y-58537207D01*
X69118830Y-58536000D01*
X67622115Y-58536000D01*
X67606876Y-58540475D01*
X67605671Y-58541865D01*
X67604000Y-58549548D01*
X67604000Y-59417885D01*
X67096000Y-59417885D01*
X67096000Y-58554116D01*
X67091525Y-58538877D01*
X67090135Y-58537672D01*
X67082452Y-58536001D01*
X65581172Y-58536001D01*
X65568912Y-58537209D01*
X65513069Y-58548315D01*
X65490573Y-58557633D01*
X65427192Y-58599983D01*
X65409983Y-58617192D01*
X65367632Y-58680575D01*
X65358316Y-58703066D01*
X65347207Y-58758915D01*
X65346000Y-58771170D01*
X65346000Y-59417885D01*
X61214500Y-59417885D01*
X61214500Y-58355605D01*
X62771001Y-58355605D01*
X62771371Y-58362426D01*
X62776676Y-58411273D01*
X62780302Y-58426524D01*
X62823799Y-58542553D01*
X62832333Y-58558139D01*
X62906002Y-58656437D01*
X62918563Y-58668998D01*
X63016861Y-58742667D01*
X63032447Y-58751201D01*
X63148473Y-58794697D01*
X63163729Y-58798325D01*
X63212576Y-58803631D01*
X63219393Y-58804000D01*
X63227885Y-58804000D01*
X63243124Y-58799525D01*
X63244329Y-58798135D01*
X63246000Y-58790452D01*
X63246000Y-58785884D01*
X63754000Y-58785884D01*
X63758475Y-58801123D01*
X63759865Y-58802328D01*
X63767548Y-58803999D01*
X63780605Y-58803999D01*
X63787426Y-58803629D01*
X63836273Y-58798324D01*
X63851524Y-58794698D01*
X63967553Y-58751201D01*
X63983139Y-58742667D01*
X64081437Y-58668998D01*
X64093998Y-58656437D01*
X64167667Y-58558139D01*
X64176201Y-58542553D01*
X64219697Y-58426527D01*
X64223325Y-58411271D01*
X64228631Y-58362424D01*
X64229000Y-58355607D01*
X64229000Y-58284615D01*
X64224525Y-58269376D01*
X64223135Y-58268171D01*
X64215452Y-58266500D01*
X63772115Y-58266500D01*
X63756876Y-58270975D01*
X63755671Y-58272365D01*
X63754000Y-58280048D01*
X63754000Y-58785884D01*
X63246000Y-58785884D01*
X63246000Y-58284615D01*
X63241525Y-58269376D01*
X63240135Y-58268171D01*
X63232452Y-58266500D01*
X62789116Y-58266500D01*
X62773877Y-58270975D01*
X62772672Y-58272365D01*
X62771001Y-58280048D01*
X62771001Y-58355605D01*
X61214500Y-58355605D01*
X61214500Y-49774933D01*
X62245500Y-49774933D01*
X62245501Y-51825066D01*
X62248343Y-51839355D01*
X62256311Y-51879414D01*
X62260266Y-51899301D01*
X62267161Y-51909620D01*
X62267162Y-51909622D01*
X62291900Y-51946644D01*
X62316516Y-51983484D01*
X62400699Y-52039734D01*
X62474933Y-52054500D01*
X62869500Y-52054500D01*
X62937621Y-52074502D01*
X62984114Y-52128158D01*
X62995500Y-52180500D01*
X62995500Y-55509689D01*
X62975498Y-55577810D01*
X62945065Y-55610515D01*
X62923049Y-55627015D01*
X62911026Y-55636026D01*
X62826507Y-55748801D01*
X62823357Y-55757202D01*
X62823356Y-55757205D01*
X62809731Y-55793551D01*
X62777036Y-55880764D01*
X62770500Y-55940930D01*
X62770500Y-56634070D01*
X62777036Y-56694236D01*
X62779928Y-56701951D01*
X62823034Y-56816934D01*
X62826507Y-56826199D01*
X62911026Y-56938974D01*
X63023801Y-57023493D01*
X63032202Y-57026642D01*
X63032203Y-57026643D01*
X63047254Y-57032285D01*
X63104018Y-57074927D01*
X63128717Y-57141489D01*
X63113509Y-57210838D01*
X63063223Y-57260956D01*
X63047252Y-57268249D01*
X63032449Y-57273798D01*
X63016861Y-57282333D01*
X62918563Y-57356002D01*
X62906002Y-57368563D01*
X62832333Y-57466861D01*
X62823799Y-57482447D01*
X62780303Y-57598473D01*
X62776675Y-57613729D01*
X62771369Y-57662576D01*
X62771000Y-57669393D01*
X62771000Y-57740385D01*
X62775475Y-57755624D01*
X62776865Y-57756829D01*
X62784548Y-57758500D01*
X64210884Y-57758500D01*
X64226123Y-57754025D01*
X64227328Y-57752635D01*
X64228999Y-57744952D01*
X64228999Y-57669395D01*
X64228629Y-57662574D01*
X64226643Y-57644292D01*
X71806001Y-57644292D01*
X71806370Y-57651110D01*
X71811841Y-57701482D01*
X71815470Y-57716741D01*
X71860222Y-57836118D01*
X71868754Y-57851704D01*
X71944572Y-57952867D01*
X71957133Y-57965428D01*
X72058296Y-58041246D01*
X72073882Y-58049778D01*
X72193265Y-58094533D01*
X72208510Y-58098158D01*
X72258892Y-58103631D01*
X72265706Y-58104000D01*
X72362885Y-58104000D01*
X72378124Y-58099525D01*
X72379329Y-58098135D01*
X72381000Y-58090452D01*
X72381000Y-58085884D01*
X72889000Y-58085884D01*
X72893475Y-58101123D01*
X72894865Y-58102328D01*
X72902548Y-58103999D01*
X73004292Y-58103999D01*
X73011110Y-58103630D01*
X73061482Y-58098159D01*
X73076741Y-58094530D01*
X73196118Y-58049778D01*
X73211704Y-58041246D01*
X73312867Y-57965428D01*
X73325428Y-57952867D01*
X73401246Y-57851704D01*
X73409778Y-57836118D01*
X73454533Y-57716735D01*
X73458158Y-57701490D01*
X73463631Y-57651108D01*
X73464000Y-57644294D01*
X73464000Y-57422115D01*
X73459525Y-57406876D01*
X73458135Y-57405671D01*
X73450452Y-57404000D01*
X72907115Y-57404000D01*
X72891876Y-57408475D01*
X72890671Y-57409865D01*
X72889000Y-57417548D01*
X72889000Y-58085884D01*
X72381000Y-58085884D01*
X72381000Y-57422115D01*
X72376525Y-57406876D01*
X72375135Y-57405671D01*
X72367452Y-57404000D01*
X71824116Y-57404000D01*
X71808877Y-57408475D01*
X71807672Y-57409865D01*
X71806001Y-57417548D01*
X71806001Y-57644292D01*
X64226643Y-57644292D01*
X64223324Y-57613727D01*
X64219698Y-57598476D01*
X64176201Y-57482447D01*
X64167667Y-57466861D01*
X64093998Y-57368563D01*
X64081437Y-57356002D01*
X63983139Y-57282333D01*
X63967551Y-57273798D01*
X63952748Y-57268249D01*
X63895983Y-57225608D01*
X63871283Y-57159046D01*
X63886490Y-57089697D01*
X63936776Y-57039579D01*
X63952746Y-57032285D01*
X63967797Y-57026643D01*
X63967798Y-57026642D01*
X63976199Y-57023493D01*
X64088974Y-56938974D01*
X64173493Y-56826199D01*
X64176967Y-56816934D01*
X64202499Y-56748828D01*
X67476001Y-56748828D01*
X67477209Y-56761088D01*
X67488315Y-56816931D01*
X67497633Y-56839427D01*
X67539983Y-56902808D01*
X67557192Y-56920017D01*
X67620575Y-56962368D01*
X67643066Y-56971684D01*
X67698915Y-56982793D01*
X67711170Y-56984000D01*
X68307885Y-56984000D01*
X68323124Y-56979525D01*
X68324329Y-56978135D01*
X68326000Y-56970452D01*
X68326000Y-56965884D01*
X68834000Y-56965884D01*
X68838475Y-56981123D01*
X68839865Y-56982328D01*
X68847548Y-56983999D01*
X69448828Y-56983999D01*
X69461088Y-56982791D01*
X69516931Y-56971685D01*
X69539427Y-56962367D01*
X69602808Y-56920017D01*
X69620017Y-56902808D01*
X69636670Y-56877885D01*
X71806000Y-56877885D01*
X71810475Y-56893124D01*
X71811865Y-56894329D01*
X71819548Y-56896000D01*
X72362885Y-56896000D01*
X72378124Y-56891525D01*
X72379329Y-56890135D01*
X72381000Y-56882452D01*
X72381000Y-56877885D01*
X72889000Y-56877885D01*
X72893475Y-56893124D01*
X72894865Y-56894329D01*
X72902548Y-56896000D01*
X73445884Y-56896000D01*
X73461123Y-56891525D01*
X73462328Y-56890135D01*
X73463999Y-56882452D01*
X73463999Y-56655708D01*
X73463630Y-56648890D01*
X73458159Y-56598518D01*
X73454530Y-56583259D01*
X73409778Y-56463882D01*
X73401246Y-56448296D01*
X73325428Y-56347133D01*
X73312867Y-56334572D01*
X73211704Y-56258754D01*
X73196118Y-56250222D01*
X73076735Y-56205467D01*
X73061490Y-56201842D01*
X73011108Y-56196369D01*
X73004294Y-56196000D01*
X72907115Y-56196000D01*
X72891876Y-56200475D01*
X72890671Y-56201865D01*
X72889000Y-56209548D01*
X72889000Y-56877885D01*
X72381000Y-56877885D01*
X72381000Y-56214116D01*
X72376525Y-56198877D01*
X72375135Y-56197672D01*
X72367452Y-56196001D01*
X72265708Y-56196001D01*
X72258890Y-56196370D01*
X72208518Y-56201841D01*
X72193259Y-56205470D01*
X72073882Y-56250222D01*
X72058296Y-56258754D01*
X71957133Y-56334572D01*
X71944572Y-56347133D01*
X71868754Y-56448296D01*
X71860222Y-56463882D01*
X71815467Y-56583265D01*
X71811842Y-56598510D01*
X71806369Y-56648892D01*
X71806000Y-56655706D01*
X71806000Y-56877885D01*
X69636670Y-56877885D01*
X69662368Y-56839425D01*
X69671684Y-56816934D01*
X69682793Y-56761085D01*
X69684000Y-56748830D01*
X69684000Y-56152115D01*
X69679525Y-56136876D01*
X69678135Y-56135671D01*
X69670452Y-56134000D01*
X68852115Y-56134000D01*
X68836876Y-56138475D01*
X68835671Y-56139865D01*
X68834000Y-56147548D01*
X68834000Y-56965884D01*
X68326000Y-56965884D01*
X68326000Y-56152115D01*
X68321525Y-56136876D01*
X68320135Y-56135671D01*
X68312452Y-56134000D01*
X67494116Y-56134000D01*
X67478877Y-56138475D01*
X67477672Y-56139865D01*
X67476001Y-56147548D01*
X67476001Y-56748828D01*
X64202499Y-56748828D01*
X64220072Y-56701951D01*
X64222964Y-56694236D01*
X64229500Y-56634070D01*
X64229500Y-55940930D01*
X64222964Y-55880764D01*
X64198537Y-55815605D01*
X65311001Y-55815605D01*
X65311371Y-55822426D01*
X65316676Y-55871273D01*
X65320302Y-55886524D01*
X65363799Y-56002553D01*
X65372333Y-56018139D01*
X65446002Y-56116437D01*
X65458563Y-56128998D01*
X65556861Y-56202667D01*
X65572447Y-56211201D01*
X65688473Y-56254697D01*
X65703729Y-56258325D01*
X65752576Y-56263631D01*
X65759393Y-56264000D01*
X65767885Y-56264000D01*
X65783124Y-56259525D01*
X65784329Y-56258135D01*
X65786000Y-56250452D01*
X65786000Y-56245884D01*
X66294000Y-56245884D01*
X66298475Y-56261123D01*
X66299865Y-56262328D01*
X66307548Y-56263999D01*
X66320605Y-56263999D01*
X66327426Y-56263629D01*
X66376273Y-56258324D01*
X66391524Y-56254698D01*
X66507553Y-56211201D01*
X66523139Y-56202667D01*
X66621437Y-56128998D01*
X66633998Y-56116437D01*
X66707667Y-56018139D01*
X66716201Y-56002553D01*
X66759697Y-55886527D01*
X66763325Y-55871271D01*
X66768631Y-55822424D01*
X66769000Y-55815607D01*
X66769000Y-55794615D01*
X66764525Y-55779376D01*
X66763135Y-55778171D01*
X66755452Y-55776500D01*
X66312115Y-55776500D01*
X66296876Y-55780975D01*
X66295671Y-55782365D01*
X66294000Y-55790048D01*
X66294000Y-56245884D01*
X65786000Y-56245884D01*
X65786000Y-55794615D01*
X65781525Y-55779376D01*
X65780135Y-55778171D01*
X65772452Y-55776500D01*
X65329116Y-55776500D01*
X65313877Y-55780975D01*
X65312672Y-55782365D01*
X65311001Y-55790048D01*
X65311001Y-55815605D01*
X64198537Y-55815605D01*
X64190269Y-55793551D01*
X64176644Y-55757205D01*
X64176643Y-55757202D01*
X64173493Y-55748801D01*
X64088974Y-55636026D01*
X64076951Y-55627015D01*
X64054935Y-55610515D01*
X64052968Y-55607885D01*
X67476000Y-55607885D01*
X67480475Y-55623124D01*
X67481865Y-55624329D01*
X67489548Y-55626000D01*
X68307885Y-55626000D01*
X68323124Y-55621525D01*
X68324329Y-55620135D01*
X68326000Y-55612452D01*
X68326000Y-55607885D01*
X68834000Y-55607885D01*
X68838475Y-55623124D01*
X68839865Y-55624329D01*
X68847548Y-55626000D01*
X69665884Y-55626000D01*
X69681123Y-55621525D01*
X69682328Y-55620135D01*
X69683999Y-55612452D01*
X69683999Y-55011172D01*
X69682791Y-54998912D01*
X69671685Y-54943069D01*
X69662367Y-54920573D01*
X69620017Y-54857192D01*
X69602808Y-54839983D01*
X69539425Y-54797632D01*
X69516934Y-54788316D01*
X69461085Y-54777207D01*
X69448830Y-54776000D01*
X68852115Y-54776000D01*
X68836876Y-54780475D01*
X68835671Y-54781865D01*
X68834000Y-54789548D01*
X68834000Y-55607885D01*
X68326000Y-55607885D01*
X68326000Y-54794116D01*
X68321525Y-54778877D01*
X68320135Y-54777672D01*
X68312452Y-54776001D01*
X67711172Y-54776001D01*
X67698912Y-54777209D01*
X67643069Y-54788315D01*
X67620573Y-54797633D01*
X67557192Y-54839983D01*
X67539983Y-54857192D01*
X67497632Y-54920575D01*
X67488316Y-54943066D01*
X67477207Y-54998915D01*
X67476000Y-55011170D01*
X67476000Y-55607885D01*
X64052968Y-55607885D01*
X64012420Y-55553656D01*
X64004500Y-55509689D01*
X64004500Y-55250385D01*
X65311000Y-55250385D01*
X65315475Y-55265624D01*
X65316865Y-55266829D01*
X65324548Y-55268500D01*
X65767885Y-55268500D01*
X65783124Y-55264025D01*
X65784329Y-55262635D01*
X65786000Y-55254952D01*
X65786000Y-55250385D01*
X66294000Y-55250385D01*
X66298475Y-55265624D01*
X66299865Y-55266829D01*
X66307548Y-55268500D01*
X66750884Y-55268500D01*
X66766123Y-55264025D01*
X66767328Y-55262635D01*
X66768999Y-55254952D01*
X66768999Y-55229395D01*
X66768629Y-55222574D01*
X66763324Y-55173727D01*
X66759698Y-55158476D01*
X66716201Y-55042447D01*
X66707667Y-55026861D01*
X66633998Y-54928563D01*
X66621437Y-54916002D01*
X66523139Y-54842333D01*
X66507553Y-54833799D01*
X66391527Y-54790303D01*
X66376271Y-54786675D01*
X66327424Y-54781369D01*
X66320607Y-54781000D01*
X66312115Y-54781000D01*
X66296876Y-54785475D01*
X66295671Y-54786865D01*
X66294000Y-54794548D01*
X66294000Y-55250385D01*
X65786000Y-55250385D01*
X65786000Y-54799116D01*
X65781525Y-54783877D01*
X65780135Y-54782672D01*
X65772452Y-54781001D01*
X65759395Y-54781001D01*
X65752574Y-54781371D01*
X65703727Y-54786676D01*
X65688476Y-54790302D01*
X65572447Y-54833799D01*
X65556861Y-54842333D01*
X65458563Y-54916002D01*
X65446002Y-54928563D01*
X65372333Y-55026861D01*
X65363799Y-55042447D01*
X65320303Y-55158473D01*
X65316675Y-55173729D01*
X65311369Y-55222576D01*
X65311000Y-55229393D01*
X65311000Y-55250385D01*
X64004500Y-55250385D01*
X64004500Y-52180499D01*
X64024502Y-52112378D01*
X64078158Y-52065885D01*
X64130500Y-52054499D01*
X64525066Y-52054499D01*
X64560818Y-52047388D01*
X64587126Y-52042156D01*
X64587128Y-52042155D01*
X64599301Y-52039734D01*
X64609621Y-52032839D01*
X64609622Y-52032838D01*
X64673168Y-51990377D01*
X64683484Y-51983484D01*
X64739734Y-51899301D01*
X64754500Y-51825067D01*
X64754500Y-51430500D01*
X64774502Y-51362379D01*
X64828158Y-51315886D01*
X64880500Y-51304500D01*
X67518716Y-51304500D01*
X67586837Y-51324502D01*
X67621613Y-51357780D01*
X67705752Y-51476834D01*
X67736533Y-51520389D01*
X67740675Y-51524424D01*
X67756685Y-51540020D01*
X67881938Y-51662035D01*
X68050720Y-51774812D01*
X68056023Y-51777090D01*
X68056026Y-51777092D01*
X68224561Y-51849500D01*
X68237228Y-51854942D01*
X68278828Y-51864355D01*
X68429579Y-51898467D01*
X68429584Y-51898468D01*
X68435216Y-51899742D01*
X68440987Y-51899969D01*
X68440989Y-51899969D01*
X68500756Y-51902317D01*
X68638053Y-51907712D01*
X68756189Y-51890583D01*
X68833223Y-51879414D01*
X68833227Y-51879413D01*
X68838945Y-51878584D01*
X68844418Y-51876726D01*
X68850033Y-51875378D01*
X68850327Y-51876603D01*
X68914935Y-51873903D01*
X68973610Y-51907081D01*
X69207229Y-52140700D01*
X69241255Y-52203012D01*
X69236190Y-52273827D01*
X69193643Y-52330663D01*
X69127123Y-52355474D01*
X69071445Y-52346825D01*
X68895039Y-52276446D01*
X68889379Y-52275320D01*
X68889375Y-52275319D01*
X68701613Y-52237971D01*
X68701610Y-52237971D01*
X68695946Y-52236844D01*
X68690171Y-52236768D01*
X68690167Y-52236768D01*
X68588793Y-52235441D01*
X68492971Y-52234187D01*
X68487274Y-52235166D01*
X68487273Y-52235166D01*
X68298607Y-52267585D01*
X68292910Y-52268564D01*
X68102463Y-52338824D01*
X67928010Y-52442612D01*
X67923670Y-52446418D01*
X67923666Y-52446421D01*
X67806675Y-52549020D01*
X67775392Y-52576455D01*
X67771817Y-52580990D01*
X67771816Y-52580991D01*
X67765229Y-52589347D01*
X67649720Y-52735869D01*
X67647030Y-52740982D01*
X67647026Y-52740988D01*
X67632725Y-52768169D01*
X67583305Y-52819141D01*
X67521218Y-52835500D01*
X66468124Y-52835500D01*
X66456119Y-52834159D01*
X66456079Y-52834655D01*
X66447132Y-52833935D01*
X66438376Y-52831954D01*
X66394838Y-52834655D01*
X66385118Y-52835258D01*
X66377316Y-52835500D01*
X66361274Y-52835500D01*
X66356843Y-52836135D01*
X66356838Y-52836135D01*
X66352813Y-52836712D01*
X66351043Y-52836965D01*
X66340986Y-52837996D01*
X66318524Y-52839389D01*
X66303100Y-52840346D01*
X66303098Y-52840346D01*
X66294141Y-52840902D01*
X66285701Y-52843949D01*
X66282411Y-52844630D01*
X66266562Y-52848582D01*
X66263332Y-52849527D01*
X66254448Y-52850799D01*
X66211722Y-52870225D01*
X66202360Y-52874036D01*
X66166658Y-52886925D01*
X66166657Y-52886926D01*
X66158216Y-52889973D01*
X66150967Y-52895269D01*
X66147986Y-52896854D01*
X66133908Y-52905080D01*
X66131069Y-52906896D01*
X66122895Y-52910612D01*
X66116091Y-52916475D01*
X66106253Y-52924952D01*
X66041591Y-52954267D01*
X66024004Y-52955500D01*
X65755930Y-52955500D01*
X65695764Y-52962036D01*
X65650613Y-52978963D01*
X65572205Y-53008356D01*
X65572202Y-53008357D01*
X65563801Y-53011507D01*
X65451026Y-53096026D01*
X65366507Y-53208801D01*
X65317036Y-53340764D01*
X65310500Y-53400930D01*
X65310500Y-53994070D01*
X65317036Y-54054236D01*
X65327080Y-54081029D01*
X65349743Y-54141480D01*
X65366507Y-54186199D01*
X65451026Y-54298974D01*
X65563801Y-54383493D01*
X65572202Y-54386643D01*
X65572205Y-54386644D01*
X65641710Y-54412700D01*
X65695764Y-54432964D01*
X65755930Y-54439500D01*
X66324070Y-54439500D01*
X66384236Y-54432964D01*
X66438290Y-54412700D01*
X66507795Y-54386644D01*
X66507798Y-54386643D01*
X66516199Y-54383493D01*
X66628974Y-54298974D01*
X66713493Y-54186199D01*
X66730258Y-54141480D01*
X66752920Y-54081029D01*
X66762964Y-54054236D01*
X66769500Y-53994070D01*
X66769500Y-53970500D01*
X66789502Y-53902379D01*
X66843158Y-53855886D01*
X66895500Y-53844500D01*
X67518716Y-53844500D01*
X67586837Y-53864502D01*
X67621613Y-53897780D01*
X67732185Y-54054236D01*
X67736533Y-54060389D01*
X67881938Y-54202035D01*
X68050720Y-54314812D01*
X68056023Y-54317090D01*
X68056026Y-54317092D01*
X68212691Y-54384400D01*
X68237228Y-54394942D01*
X68310244Y-54411464D01*
X68429579Y-54438467D01*
X68429584Y-54438468D01*
X68435216Y-54439742D01*
X68440987Y-54439969D01*
X68440989Y-54439969D01*
X68500756Y-54442317D01*
X68638053Y-54447712D01*
X68739768Y-54432964D01*
X68833231Y-54419413D01*
X68833236Y-54419412D01*
X68838945Y-54418584D01*
X68844409Y-54416729D01*
X68844414Y-54416728D01*
X69025693Y-54355192D01*
X69025698Y-54355190D01*
X69031165Y-54353334D01*
X69208276Y-54254147D01*
X69214316Y-54249124D01*
X69335696Y-54148172D01*
X69364345Y-54124345D01*
X69421502Y-54055622D01*
X69490453Y-53972718D01*
X69490455Y-53972715D01*
X69494147Y-53968276D01*
X69527382Y-53908931D01*
X69578116Y-53859272D01*
X69637314Y-53844500D01*
X72092242Y-53844500D01*
X72160363Y-53864502D01*
X72204509Y-53913297D01*
X72228674Y-53960723D01*
X72319277Y-54051326D01*
X72433445Y-54109498D01*
X72528166Y-54124500D01*
X72891834Y-54124500D01*
X72986555Y-54109498D01*
X73080491Y-54061635D01*
X73091890Y-54055827D01*
X73091891Y-54055826D01*
X73100723Y-54051326D01*
X73107734Y-54044315D01*
X73110938Y-54041987D01*
X73177805Y-54018128D01*
X73246957Y-54034207D01*
X73259062Y-54041987D01*
X73262266Y-54044315D01*
X73269277Y-54051326D01*
X73278109Y-54055826D01*
X73278110Y-54055827D01*
X73289509Y-54061635D01*
X73383445Y-54109498D01*
X73478166Y-54124500D01*
X73841834Y-54124500D01*
X73936555Y-54109498D01*
X73941879Y-54106785D01*
X74010658Y-54104819D01*
X74071457Y-54141480D01*
X74102783Y-54205192D01*
X74104223Y-54236783D01*
X74103934Y-54240372D01*
X74101954Y-54249124D01*
X74102510Y-54258082D01*
X74105258Y-54302382D01*
X74105500Y-54310184D01*
X74105500Y-54326226D01*
X74106135Y-54330657D01*
X74106135Y-54330662D01*
X74106965Y-54336453D01*
X74107996Y-54346514D01*
X74110902Y-54393359D01*
X74113949Y-54401799D01*
X74114630Y-54405089D01*
X74118582Y-54420938D01*
X74119527Y-54424168D01*
X74120799Y-54433052D01*
X74124514Y-54441223D01*
X74140218Y-54475763D01*
X74144030Y-54485128D01*
X74156922Y-54520837D01*
X74156924Y-54520840D01*
X74159972Y-54529284D01*
X74165268Y-54536533D01*
X74166840Y-54539490D01*
X74175093Y-54553614D01*
X74176898Y-54556437D01*
X74180612Y-54564605D01*
X74186469Y-54571402D01*
X74186470Y-54571404D01*
X74211243Y-54600153D01*
X74217525Y-54608064D01*
X74225473Y-54618944D01*
X74236335Y-54629806D01*
X74242693Y-54636652D01*
X74274944Y-54674082D01*
X74282479Y-54678966D01*
X74289051Y-54684699D01*
X74300455Y-54693926D01*
X77698323Y-58091794D01*
X77705865Y-58101234D01*
X77706245Y-58100911D01*
X77712063Y-58107747D01*
X77716853Y-58115339D01*
X77723581Y-58121281D01*
X77756859Y-58150671D01*
X77762546Y-58156017D01*
X77773880Y-58167351D01*
X77777466Y-58170038D01*
X77777471Y-58170043D01*
X77782159Y-58173557D01*
X77789997Y-58179938D01*
X77825170Y-58211001D01*
X77833293Y-58214815D01*
X77836104Y-58216661D01*
X77850103Y-58225072D01*
X77853052Y-58226686D01*
X77860235Y-58232070D01*
X77897023Y-58245861D01*
X77904174Y-58248542D01*
X77913494Y-58252469D01*
X77955982Y-58272417D01*
X77964853Y-58273798D01*
X77968075Y-58274783D01*
X77983846Y-58278920D01*
X77987140Y-58279644D01*
X77995552Y-58282798D01*
X78004510Y-58283464D01*
X78004511Y-58283464D01*
X78042350Y-58286276D01*
X78052374Y-58287426D01*
X78065697Y-58289500D01*
X78081062Y-58289500D01*
X78090399Y-58289846D01*
X78139666Y-58293507D01*
X78148441Y-58291634D01*
X78157137Y-58291041D01*
X78171737Y-58289500D01*
X80664500Y-58289500D01*
X80732621Y-58309502D01*
X80779114Y-58363158D01*
X80790500Y-58415500D01*
X80790500Y-58624290D01*
X80770498Y-58692411D01*
X80728923Y-58732575D01*
X80632978Y-58789656D01*
X80632977Y-58789657D01*
X80628010Y-58792612D01*
X80623670Y-58796418D01*
X80623666Y-58796421D01*
X80516473Y-58890428D01*
X80475392Y-58926455D01*
X80349720Y-59085869D01*
X80347031Y-59090980D01*
X80347029Y-59090983D01*
X80336055Y-59111842D01*
X80255203Y-59265515D01*
X80195007Y-59459378D01*
X80171148Y-59660964D01*
X80184424Y-59863522D01*
X80185845Y-59869118D01*
X80185846Y-59869123D01*
X80220669Y-60006234D01*
X80234392Y-60060269D01*
X80236809Y-60065512D01*
X80274007Y-60146200D01*
X80319377Y-60244616D01*
X80322710Y-60249332D01*
X80348830Y-60286291D01*
X80371811Y-60353465D01*
X80354827Y-60422400D01*
X80303269Y-60471210D01*
X80245933Y-60485011D01*
X79970500Y-60485011D01*
X79902379Y-60465009D01*
X79855886Y-60411353D01*
X79844500Y-60359011D01*
X79844499Y-58821123D01*
X79844499Y-58814934D01*
X79834554Y-58764933D01*
X79832156Y-58752874D01*
X79832155Y-58752872D01*
X79829734Y-58740699D01*
X79804459Y-58702872D01*
X79780377Y-58666832D01*
X79773484Y-58656516D01*
X79689301Y-58600266D01*
X79615067Y-58585500D01*
X78740142Y-58585500D01*
X77864934Y-58585501D01*
X77829182Y-58592612D01*
X77802874Y-58597844D01*
X77802872Y-58597845D01*
X77790699Y-58600266D01*
X77780379Y-58607161D01*
X77780378Y-58607162D01*
X77728637Y-58641735D01*
X77706516Y-58656516D01*
X77650266Y-58740699D01*
X77635500Y-58814933D01*
X77635500Y-59059500D01*
X77615498Y-59127621D01*
X77561842Y-59174114D01*
X77509500Y-59185500D01*
X77486160Y-59185500D01*
X77418039Y-59165498D01*
X77397065Y-59148595D01*
X75551405Y-57302934D01*
X75517379Y-57240622D01*
X75514500Y-57213839D01*
X75514500Y-56652244D01*
X75510984Y-56619880D01*
X75508651Y-56598403D01*
X75508651Y-56598402D01*
X75507798Y-56590552D01*
X75457071Y-56455236D01*
X75451691Y-56448057D01*
X75451689Y-56448054D01*
X75375785Y-56346776D01*
X75370404Y-56339596D01*
X75349977Y-56324287D01*
X75261946Y-56258311D01*
X75261943Y-56258309D01*
X75254764Y-56252929D01*
X75128166Y-56205470D01*
X75126843Y-56204974D01*
X75126841Y-56204974D01*
X75119448Y-56202202D01*
X75111598Y-56201349D01*
X75111597Y-56201349D01*
X75061153Y-56195869D01*
X75061152Y-56195869D01*
X75057756Y-56195500D01*
X74312244Y-56195500D01*
X74308848Y-56195869D01*
X74308847Y-56195869D01*
X74258403Y-56201349D01*
X74258402Y-56201349D01*
X74250552Y-56202202D01*
X74243159Y-56204974D01*
X74243157Y-56204974D01*
X74241834Y-56205470D01*
X74115236Y-56252929D01*
X74108057Y-56258309D01*
X74108054Y-56258311D01*
X74020023Y-56324287D01*
X73999596Y-56339596D01*
X73994215Y-56346776D01*
X73918311Y-56448054D01*
X73918309Y-56448057D01*
X73912929Y-56455236D01*
X73862202Y-56590552D01*
X73861349Y-56598402D01*
X73861349Y-56598403D01*
X73859016Y-56619880D01*
X73855500Y-56652244D01*
X73855500Y-57647756D01*
X73862202Y-57709448D01*
X73864974Y-57716841D01*
X73864974Y-57716843D01*
X73875512Y-57744952D01*
X73912929Y-57844764D01*
X73918309Y-57851943D01*
X73918311Y-57851946D01*
X73965856Y-57915385D01*
X73999596Y-57960404D01*
X74006776Y-57965785D01*
X74108054Y-58041689D01*
X74108057Y-58041691D01*
X74115236Y-58047071D01*
X74204954Y-58080704D01*
X74243157Y-58095026D01*
X74243159Y-58095026D01*
X74250552Y-58097798D01*
X74258402Y-58098651D01*
X74258403Y-58098651D01*
X74307632Y-58103999D01*
X74312244Y-58104500D01*
X74873839Y-58104500D01*
X74941960Y-58124502D01*
X74962934Y-58141405D01*
X76818323Y-59996794D01*
X76825865Y-60006234D01*
X76826245Y-60005911D01*
X76832063Y-60012747D01*
X76836853Y-60020339D01*
X76843581Y-60026281D01*
X76876859Y-60055671D01*
X76882546Y-60061017D01*
X76893880Y-60072351D01*
X76897466Y-60075038D01*
X76897471Y-60075043D01*
X76902159Y-60078557D01*
X76909997Y-60084938D01*
X76945170Y-60116001D01*
X76953293Y-60119815D01*
X76956104Y-60121661D01*
X76970103Y-60130072D01*
X76973052Y-60131686D01*
X76980235Y-60137070D01*
X77004611Y-60146208D01*
X77024174Y-60153542D01*
X77033494Y-60157469D01*
X77075982Y-60177417D01*
X77084853Y-60178798D01*
X77088075Y-60179783D01*
X77103846Y-60183920D01*
X77107140Y-60184644D01*
X77115552Y-60187798D01*
X77124510Y-60188464D01*
X77124511Y-60188464D01*
X77162350Y-60191276D01*
X77172374Y-60192426D01*
X77185697Y-60194500D01*
X77201062Y-60194500D01*
X77210399Y-60194846D01*
X77259666Y-60198507D01*
X77268441Y-60196634D01*
X77277137Y-60196041D01*
X77291737Y-60194500D01*
X77509501Y-60194500D01*
X77577622Y-60214502D01*
X77624115Y-60268158D01*
X77635501Y-60320500D01*
X77635501Y-60359011D01*
X77615499Y-60427132D01*
X77561843Y-60473625D01*
X77509501Y-60485011D01*
X76490672Y-60485011D01*
X76422551Y-60465009D01*
X76401577Y-60448106D01*
X75336677Y-59383206D01*
X75329135Y-59373766D01*
X75328755Y-59374089D01*
X75322937Y-59367253D01*
X75318147Y-59359661D01*
X75278140Y-59324328D01*
X75272454Y-59318983D01*
X75261120Y-59307649D01*
X75252845Y-59301447D01*
X75245000Y-59295060D01*
X75216557Y-59269940D01*
X75209830Y-59263999D01*
X75201708Y-59260186D01*
X75198907Y-59258346D01*
X75184912Y-59249937D01*
X75181949Y-59248315D01*
X75174764Y-59242930D01*
X75166354Y-59239777D01*
X75166352Y-59239776D01*
X75130818Y-59226454D01*
X75121502Y-59222529D01*
X75079018Y-59202583D01*
X75070144Y-59201201D01*
X75066917Y-59200215D01*
X75051134Y-59196075D01*
X75047856Y-59195354D01*
X75039448Y-59192202D01*
X75025691Y-59191180D01*
X74992643Y-59188724D01*
X74982596Y-59187570D01*
X74974114Y-59186249D01*
X74974111Y-59186249D01*
X74969303Y-59185500D01*
X74953938Y-59185500D01*
X74944601Y-59185154D01*
X74928519Y-59183959D01*
X74895333Y-59181493D01*
X74886558Y-59183366D01*
X74877862Y-59183959D01*
X74863262Y-59185500D01*
X74480499Y-59185500D01*
X74412378Y-59165498D01*
X74365885Y-59111842D01*
X74354499Y-59059500D01*
X74354499Y-58764934D01*
X74343913Y-58711711D01*
X74342156Y-58702874D01*
X74342155Y-58702872D01*
X74339734Y-58690699D01*
X74323787Y-58666832D01*
X74290377Y-58616832D01*
X74283484Y-58606516D01*
X74199301Y-58550266D01*
X74125067Y-58535500D01*
X72350287Y-58535500D01*
X70574934Y-58535501D01*
X70539478Y-58542553D01*
X70512874Y-58547844D01*
X70512872Y-58547845D01*
X70500699Y-58550266D01*
X70490379Y-58557161D01*
X70490378Y-58557162D01*
X70445957Y-58586844D01*
X70416516Y-58606516D01*
X70360266Y-58690699D01*
X70345500Y-58764933D01*
X70345501Y-60615066D01*
X70350460Y-60640000D01*
X70357806Y-60676931D01*
X70360266Y-60689301D01*
X70367161Y-60699620D01*
X70367162Y-60699622D01*
X70388581Y-60731677D01*
X70416516Y-60773484D01*
X70500699Y-60829734D01*
X70555071Y-60840549D01*
X70556940Y-60840921D01*
X70619850Y-60873828D01*
X70654982Y-60935523D01*
X70651182Y-61006418D01*
X70609656Y-61064004D01*
X70543590Y-61089998D01*
X70532359Y-61090500D01*
X69165071Y-61090500D01*
X69096950Y-61070498D01*
X69050457Y-61016842D01*
X69040353Y-60946568D01*
X69069847Y-60881988D01*
X69129573Y-60843604D01*
X69140492Y-60840921D01*
X69186931Y-60831685D01*
X69209427Y-60822367D01*
X69272808Y-60780017D01*
X69290017Y-60762808D01*
X69332368Y-60699425D01*
X69341684Y-60676934D01*
X69352793Y-60621085D01*
X69354000Y-60608830D01*
X69354000Y-59962115D01*
X69349525Y-59946876D01*
X69348135Y-59945671D01*
X69340452Y-59944000D01*
X65364116Y-59944000D01*
X65348877Y-59948475D01*
X65347672Y-59949865D01*
X65346001Y-59957548D01*
X65346001Y-60608828D01*
X65347209Y-60621088D01*
X65358315Y-60676931D01*
X65367633Y-60699427D01*
X65409983Y-60762808D01*
X65427192Y-60780017D01*
X65490575Y-60822368D01*
X65513066Y-60831684D01*
X65568915Y-60842793D01*
X65581170Y-60844000D01*
X66566164Y-60844000D01*
X66634285Y-60864002D01*
X66680778Y-60917658D01*
X66690882Y-60987932D01*
X66661388Y-61052512D01*
X66601662Y-61090896D01*
X66589295Y-61093066D01*
X66589390Y-61093526D01*
X66580601Y-61095346D01*
X66571642Y-61095902D01*
X66563199Y-61098950D01*
X66559920Y-61099629D01*
X66544055Y-61103584D01*
X66540831Y-61104527D01*
X66531948Y-61105799D01*
X66523779Y-61109513D01*
X66523773Y-61109515D01*
X66489221Y-61125225D01*
X66479853Y-61129039D01*
X66435716Y-61144972D01*
X66428466Y-61150269D01*
X66425499Y-61151846D01*
X66411386Y-61160093D01*
X66408563Y-61161898D01*
X66400395Y-61165612D01*
X66393598Y-61171469D01*
X66393596Y-61171470D01*
X66364847Y-61196243D01*
X66356936Y-61202525D01*
X66346056Y-61210473D01*
X66335194Y-61221335D01*
X66328348Y-61227693D01*
X66290918Y-61259944D01*
X66286034Y-61267479D01*
X66280301Y-61274051D01*
X66271074Y-61285455D01*
X65733206Y-61823323D01*
X65723767Y-61830864D01*
X65724090Y-61831244D01*
X65719517Y-61835136D01*
X65715356Y-61837585D01*
X65711339Y-61840794D01*
X65709654Y-61841857D01*
X65709232Y-61841188D01*
X65682084Y-61857164D01*
X65649761Y-61869282D01*
X65572205Y-61898356D01*
X65572202Y-61898357D01*
X65563801Y-61901507D01*
X65451026Y-61986026D01*
X65366507Y-62098801D01*
X65363357Y-62107202D01*
X65363356Y-62107205D01*
X65358746Y-62119502D01*
X65317036Y-62230764D01*
X65310500Y-62290930D01*
X65310500Y-62884070D01*
X65317036Y-62944236D01*
X65366507Y-63076199D01*
X65451026Y-63188974D01*
X65563801Y-63273493D01*
X65572202Y-63276643D01*
X65572205Y-63276644D01*
X65650613Y-63306037D01*
X65695764Y-63322964D01*
X65755930Y-63329500D01*
X66324070Y-63329500D01*
X66384236Y-63322964D01*
X66429387Y-63306037D01*
X66507795Y-63276644D01*
X66507798Y-63276643D01*
X66516199Y-63273493D01*
X66628974Y-63188974D01*
X66713493Y-63076199D01*
X66762964Y-62944236D01*
X66769500Y-62884070D01*
X66769500Y-62290930D01*
X66768479Y-62281533D01*
X66781003Y-62211650D01*
X66804646Y-62178824D01*
X66847065Y-62136405D01*
X66909377Y-62102379D01*
X66936160Y-62099500D01*
X67949500Y-62099500D01*
X68017621Y-62119502D01*
X68064114Y-62173158D01*
X68075500Y-62225500D01*
X68075500Y-62443214D01*
X68055498Y-62511335D01*
X68013923Y-62551499D01*
X67932978Y-62599656D01*
X67932977Y-62599657D01*
X67928010Y-62602612D01*
X67923670Y-62606418D01*
X67923666Y-62606421D01*
X67779733Y-62732648D01*
X67775392Y-62736455D01*
X67649720Y-62895869D01*
X67647031Y-62900980D01*
X67647029Y-62900983D01*
X67636055Y-62921842D01*
X67555203Y-63075515D01*
X67495007Y-63269378D01*
X67471148Y-63470964D01*
X67484424Y-63673522D01*
X67485845Y-63679118D01*
X67485846Y-63679123D01*
X67518070Y-63806002D01*
X67534392Y-63870269D01*
X67536809Y-63875512D01*
X67574007Y-63956200D01*
X67619377Y-64054616D01*
X67622710Y-64059332D01*
X67693031Y-64158834D01*
X67736533Y-64220389D01*
X67740675Y-64224424D01*
X67797637Y-64279913D01*
X67881938Y-64362035D01*
X68050720Y-64474812D01*
X68056023Y-64477090D01*
X68056026Y-64477092D01*
X68181699Y-64531085D01*
X68237228Y-64554942D01*
X68305052Y-64570289D01*
X68429579Y-64598467D01*
X68429584Y-64598468D01*
X68435216Y-64599742D01*
X68440987Y-64599969D01*
X68440989Y-64599969D01*
X68500756Y-64602317D01*
X68638053Y-64607712D01*
X68745348Y-64592155D01*
X68833231Y-64579413D01*
X68833236Y-64579412D01*
X68838945Y-64578584D01*
X68844409Y-64576729D01*
X68844414Y-64576728D01*
X69025693Y-64515192D01*
X69025698Y-64515190D01*
X69031165Y-64513334D01*
X69208276Y-64414147D01*
X69247969Y-64381135D01*
X69359913Y-64288031D01*
X69364345Y-64284345D01*
X69403612Y-64237132D01*
X69490453Y-64132718D01*
X69490455Y-64132715D01*
X69494147Y-64128276D01*
X69593334Y-63951165D01*
X69595190Y-63945698D01*
X69595192Y-63945693D01*
X69656728Y-63764414D01*
X69656729Y-63764409D01*
X69658584Y-63758945D01*
X69659412Y-63753236D01*
X69659413Y-63753231D01*
X69687179Y-63561727D01*
X69687712Y-63558053D01*
X69689232Y-63500000D01*
X69677797Y-63375551D01*
X69671187Y-63303613D01*
X69671186Y-63303610D01*
X69670658Y-63297859D01*
X69664675Y-63276644D01*
X69617125Y-63108046D01*
X69617124Y-63108044D01*
X69615557Y-63102487D01*
X69604978Y-63081033D01*
X69528331Y-62925609D01*
X69525776Y-62920428D01*
X69404320Y-62757779D01*
X69255258Y-62619987D01*
X69250375Y-62616906D01*
X69250371Y-62616903D01*
X69143265Y-62549325D01*
X69096326Y-62496058D01*
X69084500Y-62442763D01*
X69084500Y-62225500D01*
X69104502Y-62157379D01*
X69158158Y-62110886D01*
X69210500Y-62099500D01*
X72763838Y-62099500D01*
X72831959Y-62119502D01*
X72852933Y-62136405D01*
X72895353Y-62178825D01*
X72929379Y-62241137D01*
X72931522Y-62281522D01*
X72930500Y-62290930D01*
X72930500Y-62869500D01*
X72910498Y-62937621D01*
X72856842Y-62984114D01*
X72804500Y-62995500D01*
X72350499Y-62995500D01*
X72282378Y-62975498D01*
X72235885Y-62921842D01*
X72224499Y-62869500D01*
X72224499Y-62624934D01*
X72209734Y-62550699D01*
X72183654Y-62511667D01*
X72160377Y-62476832D01*
X72153484Y-62466516D01*
X72069301Y-62410266D01*
X71995067Y-62395500D01*
X71120142Y-62395500D01*
X70244934Y-62395501D01*
X70209182Y-62402612D01*
X70182874Y-62407844D01*
X70182872Y-62407845D01*
X70170699Y-62410266D01*
X70160379Y-62417161D01*
X70160378Y-62417162D01*
X70122064Y-62442763D01*
X70086516Y-62466516D01*
X70030266Y-62550699D01*
X70015500Y-62624933D01*
X70015501Y-64375066D01*
X70030266Y-64449301D01*
X70037161Y-64459620D01*
X70037162Y-64459622D01*
X70076723Y-64518828D01*
X70086516Y-64533484D01*
X70170699Y-64589734D01*
X70244933Y-64604500D01*
X71119858Y-64604500D01*
X71995066Y-64604499D01*
X72030818Y-64597388D01*
X72057126Y-64592156D01*
X72057128Y-64592155D01*
X72069301Y-64589734D01*
X72079621Y-64582839D01*
X72079622Y-64582838D01*
X72143168Y-64540377D01*
X72153484Y-64533484D01*
X72209734Y-64449301D01*
X72224500Y-64375067D01*
X72224500Y-64130500D01*
X72244502Y-64062379D01*
X72298158Y-64015886D01*
X72350500Y-64004500D01*
X72804500Y-64004500D01*
X72872621Y-64024502D01*
X72919114Y-64078158D01*
X72930500Y-64130500D01*
X72930500Y-64709070D01*
X72937036Y-64769236D01*
X72939810Y-64776635D01*
X72983266Y-64892553D01*
X72986507Y-64901199D01*
X73071026Y-65013974D01*
X73183801Y-65098493D01*
X73192202Y-65101643D01*
X73192205Y-65101644D01*
X73270613Y-65131037D01*
X73315764Y-65147964D01*
X73375930Y-65154500D01*
X73637802Y-65154500D01*
X73705923Y-65174502D01*
X73715838Y-65181928D01*
X73715889Y-65181861D01*
X73724166Y-65188064D01*
X73732009Y-65194449D01*
X73767181Y-65225512D01*
X73775303Y-65229325D01*
X73778104Y-65231165D01*
X73792099Y-65239574D01*
X73795062Y-65241196D01*
X73802247Y-65246581D01*
X73810657Y-65249734D01*
X73810659Y-65249735D01*
X73846193Y-65263057D01*
X73855506Y-65266981D01*
X73897993Y-65286928D01*
X73906867Y-65288310D01*
X73910094Y-65289296D01*
X73925857Y-65293431D01*
X73929151Y-65294155D01*
X73937563Y-65297309D01*
X73946521Y-65297975D01*
X73946522Y-65297975D01*
X73984361Y-65300787D01*
X73994385Y-65301937D01*
X74007708Y-65304011D01*
X74023073Y-65304011D01*
X74032410Y-65304357D01*
X74081677Y-65308018D01*
X74090453Y-65306145D01*
X74099147Y-65305552D01*
X74113747Y-65304011D01*
X82464865Y-65304011D01*
X82476870Y-65305352D01*
X82476910Y-65304856D01*
X82485857Y-65305576D01*
X82494613Y-65307557D01*
X82547871Y-65304253D01*
X82555673Y-65304011D01*
X82571715Y-65304011D01*
X82576146Y-65303376D01*
X82576151Y-65303376D01*
X82580176Y-65302799D01*
X82581946Y-65302546D01*
X82592003Y-65301515D01*
X82614465Y-65300122D01*
X82629889Y-65299165D01*
X82629891Y-65299165D01*
X82638848Y-65298609D01*
X82647288Y-65295562D01*
X82650578Y-65294881D01*
X82666427Y-65290929D01*
X82669657Y-65289984D01*
X82678541Y-65288712D01*
X82721252Y-65269293D01*
X82730617Y-65265481D01*
X82766326Y-65252589D01*
X82766329Y-65252587D01*
X82774773Y-65249539D01*
X82782022Y-65244243D01*
X82784979Y-65242671D01*
X82799103Y-65234418D01*
X82801926Y-65232613D01*
X82810094Y-65228899D01*
X82816891Y-65223042D01*
X82816893Y-65223041D01*
X82845642Y-65198268D01*
X82853553Y-65191986D01*
X82864433Y-65184038D01*
X82875295Y-65173176D01*
X82882142Y-65166818D01*
X82897446Y-65153631D01*
X82919571Y-65134567D01*
X82924455Y-65127032D01*
X82930188Y-65120460D01*
X82939415Y-65109056D01*
X83444156Y-64604315D01*
X83506468Y-64570289D01*
X83561059Y-64570517D01*
X83684579Y-64598467D01*
X83684585Y-64598468D01*
X83690216Y-64599742D01*
X83695987Y-64599969D01*
X83695989Y-64599969D01*
X83755756Y-64602317D01*
X83893053Y-64607712D01*
X84000348Y-64592155D01*
X84088231Y-64579413D01*
X84088236Y-64579412D01*
X84093945Y-64578584D01*
X84099409Y-64576729D01*
X84099414Y-64576728D01*
X84269982Y-64518828D01*
X87646001Y-64518828D01*
X87647209Y-64531088D01*
X87658315Y-64586931D01*
X87667633Y-64609427D01*
X87709983Y-64672808D01*
X87727192Y-64690017D01*
X87790575Y-64732368D01*
X87813066Y-64741684D01*
X87868915Y-64752793D01*
X87881170Y-64754000D01*
X88627885Y-64754000D01*
X88643124Y-64749525D01*
X88644329Y-64748135D01*
X88646000Y-64740452D01*
X88646000Y-64735884D01*
X89154000Y-64735884D01*
X89158475Y-64751123D01*
X89159865Y-64752328D01*
X89167548Y-64753999D01*
X89918828Y-64753999D01*
X89931088Y-64752791D01*
X89986931Y-64741685D01*
X90009427Y-64732367D01*
X90072808Y-64690017D01*
X90090017Y-64672808D01*
X90132368Y-64609425D01*
X90141684Y-64586934D01*
X90152793Y-64531085D01*
X90154000Y-64518830D01*
X90154000Y-63772115D01*
X90149525Y-63756876D01*
X90148135Y-63755671D01*
X90140452Y-63754000D01*
X89172115Y-63754000D01*
X89156876Y-63758475D01*
X89155671Y-63759865D01*
X89154000Y-63767548D01*
X89154000Y-64735884D01*
X88646000Y-64735884D01*
X88646000Y-63772115D01*
X88641525Y-63756876D01*
X88640135Y-63755671D01*
X88632452Y-63754000D01*
X87664116Y-63754000D01*
X87648877Y-63758475D01*
X87647672Y-63759865D01*
X87646001Y-63767548D01*
X87646001Y-64518828D01*
X84269982Y-64518828D01*
X84280693Y-64515192D01*
X84280698Y-64515190D01*
X84286165Y-64513334D01*
X84463276Y-64414147D01*
X84502969Y-64381135D01*
X84614913Y-64288031D01*
X84619345Y-64284345D01*
X84658612Y-64237132D01*
X84745453Y-64132718D01*
X84745455Y-64132715D01*
X84749147Y-64128276D01*
X84848334Y-63951165D01*
X84850190Y-63945698D01*
X84850192Y-63945693D01*
X84911728Y-63764414D01*
X84911729Y-63764409D01*
X84913584Y-63758945D01*
X84914412Y-63753236D01*
X84914413Y-63753231D01*
X84942179Y-63561727D01*
X84942712Y-63558053D01*
X84944232Y-63500000D01*
X84932797Y-63375551D01*
X84926187Y-63303613D01*
X84926186Y-63303610D01*
X84925658Y-63297859D01*
X84919675Y-63276644D01*
X84905923Y-63227885D01*
X87646000Y-63227885D01*
X87650475Y-63243124D01*
X87651865Y-63244329D01*
X87659548Y-63246000D01*
X88627885Y-63246000D01*
X88643124Y-63241525D01*
X88644329Y-63240135D01*
X88646000Y-63232452D01*
X88646000Y-63227885D01*
X89154000Y-63227885D01*
X89158475Y-63243124D01*
X89159865Y-63244329D01*
X89167548Y-63246000D01*
X90135884Y-63246000D01*
X90151123Y-63241525D01*
X90152328Y-63240135D01*
X90153999Y-63232452D01*
X90153999Y-62481172D01*
X90152791Y-62468912D01*
X90141685Y-62413069D01*
X90132367Y-62390573D01*
X90090017Y-62327192D01*
X90072808Y-62309983D01*
X90009425Y-62267632D01*
X89986934Y-62258316D01*
X89931085Y-62247207D01*
X89918830Y-62246000D01*
X89172115Y-62246000D01*
X89156876Y-62250475D01*
X89155671Y-62251865D01*
X89154000Y-62259548D01*
X89154000Y-63227885D01*
X88646000Y-63227885D01*
X88646000Y-62264116D01*
X88641525Y-62248877D01*
X88640135Y-62247672D01*
X88632452Y-62246001D01*
X87881172Y-62246001D01*
X87868912Y-62247209D01*
X87813069Y-62258315D01*
X87790573Y-62267633D01*
X87727192Y-62309983D01*
X87709983Y-62327192D01*
X87667632Y-62390575D01*
X87658316Y-62413066D01*
X87647207Y-62468915D01*
X87646000Y-62481170D01*
X87646000Y-63227885D01*
X84905923Y-63227885D01*
X84872125Y-63108046D01*
X84872124Y-63108044D01*
X84870557Y-63102487D01*
X84859978Y-63081033D01*
X84783331Y-62925609D01*
X84780776Y-62920428D01*
X84659320Y-62757779D01*
X84510258Y-62619987D01*
X84505375Y-62616906D01*
X84505371Y-62616903D01*
X84359728Y-62525010D01*
X84338581Y-62511667D01*
X84150039Y-62436446D01*
X84144379Y-62435320D01*
X84144375Y-62435319D01*
X83956613Y-62397971D01*
X83956610Y-62397971D01*
X83950946Y-62396844D01*
X83945171Y-62396768D01*
X83945167Y-62396768D01*
X83843793Y-62395441D01*
X83747971Y-62394187D01*
X83742274Y-62395166D01*
X83742273Y-62395166D01*
X83553607Y-62427585D01*
X83547910Y-62428564D01*
X83464918Y-62459182D01*
X83362883Y-62496824D01*
X83362879Y-62496826D01*
X83357463Y-62498824D01*
X83352992Y-62501484D01*
X83283082Y-62512727D01*
X83218018Y-62484314D01*
X83178645Y-62425235D01*
X83177462Y-62354249D01*
X83209838Y-62298633D01*
X83372066Y-62136405D01*
X83434378Y-62102379D01*
X83461161Y-62099500D01*
X85019376Y-62099500D01*
X85031381Y-62100841D01*
X85031421Y-62100345D01*
X85040368Y-62101065D01*
X85049124Y-62103046D01*
X85102382Y-62099742D01*
X85110184Y-62099500D01*
X85126226Y-62099500D01*
X85130657Y-62098865D01*
X85130662Y-62098865D01*
X85134687Y-62098288D01*
X85136457Y-62098035D01*
X85146514Y-62097004D01*
X85168976Y-62095611D01*
X85184400Y-62094654D01*
X85184402Y-62094654D01*
X85193359Y-62094098D01*
X85201799Y-62091051D01*
X85205089Y-62090370D01*
X85220938Y-62086418D01*
X85224168Y-62085473D01*
X85233052Y-62084201D01*
X85275763Y-62064782D01*
X85285128Y-62060970D01*
X85320837Y-62048078D01*
X85320840Y-62048076D01*
X85329284Y-62045028D01*
X85336533Y-62039732D01*
X85339490Y-62038160D01*
X85353614Y-62029907D01*
X85356437Y-62028102D01*
X85364605Y-62024388D01*
X85371402Y-62018531D01*
X85371404Y-62018530D01*
X85400153Y-61993757D01*
X85408064Y-61987475D01*
X85418944Y-61979527D01*
X85429806Y-61968665D01*
X85436653Y-61962307D01*
X85467282Y-61935915D01*
X85474082Y-61930056D01*
X85478966Y-61922521D01*
X85484699Y-61915949D01*
X85493926Y-61904545D01*
X86666794Y-60731677D01*
X86676234Y-60724135D01*
X86675911Y-60723755D01*
X86682747Y-60717937D01*
X86690339Y-60713147D01*
X86725672Y-60673140D01*
X86731017Y-60667454D01*
X86742351Y-60656120D01*
X86748553Y-60647845D01*
X86754940Y-60640000D01*
X86780060Y-60611557D01*
X86786001Y-60604830D01*
X86789814Y-60596708D01*
X86791654Y-60593907D01*
X86800063Y-60579912D01*
X86801685Y-60576949D01*
X86807070Y-60569764D01*
X86810224Y-60561352D01*
X86823546Y-60525818D01*
X86827471Y-60516502D01*
X86847417Y-60474018D01*
X86848799Y-60465144D01*
X86849785Y-60461917D01*
X86853920Y-60446154D01*
X86854644Y-60442860D01*
X86857798Y-60434448D01*
X86858694Y-60422400D01*
X86861276Y-60387650D01*
X86862426Y-60377626D01*
X86864500Y-60364303D01*
X86864500Y-60348938D01*
X86864846Y-60339601D01*
X86866431Y-60318276D01*
X86868507Y-60290334D01*
X86866634Y-60281559D01*
X86866041Y-60272863D01*
X86864500Y-60258263D01*
X86864500Y-58569292D01*
X87921001Y-58569292D01*
X87921370Y-58576110D01*
X87926841Y-58626482D01*
X87930470Y-58641741D01*
X87975222Y-58761118D01*
X87983754Y-58776704D01*
X88059572Y-58877867D01*
X88072133Y-58890428D01*
X88173296Y-58966246D01*
X88188882Y-58974778D01*
X88308265Y-59019533D01*
X88323510Y-59023158D01*
X88373892Y-59028631D01*
X88380706Y-59029000D01*
X88627885Y-59029000D01*
X88643124Y-59024525D01*
X88644329Y-59023135D01*
X88646000Y-59015452D01*
X88646000Y-59010884D01*
X89154000Y-59010884D01*
X89158475Y-59026123D01*
X89159865Y-59027328D01*
X89167548Y-59028999D01*
X89419292Y-59028999D01*
X89426110Y-59028630D01*
X89476482Y-59023159D01*
X89491741Y-59019530D01*
X89611118Y-58974778D01*
X89626704Y-58966246D01*
X89727867Y-58890428D01*
X89740428Y-58877867D01*
X89816246Y-58776704D01*
X89824778Y-58761118D01*
X89869533Y-58641735D01*
X89873158Y-58626490D01*
X89878631Y-58576108D01*
X89879000Y-58569294D01*
X89879000Y-58459615D01*
X89874525Y-58444376D01*
X89873135Y-58443171D01*
X89865452Y-58441500D01*
X89172115Y-58441500D01*
X89156876Y-58445975D01*
X89155671Y-58447365D01*
X89154000Y-58455048D01*
X89154000Y-59010884D01*
X88646000Y-59010884D01*
X88646000Y-58459615D01*
X88641525Y-58444376D01*
X88640135Y-58443171D01*
X88632452Y-58441500D01*
X87939116Y-58441500D01*
X87923877Y-58445975D01*
X87922672Y-58447365D01*
X87921001Y-58455048D01*
X87921001Y-58569292D01*
X86864500Y-58569292D01*
X86864500Y-57915385D01*
X87921000Y-57915385D01*
X87925475Y-57930624D01*
X87926865Y-57931829D01*
X87934548Y-57933500D01*
X88627885Y-57933500D01*
X88643124Y-57929025D01*
X88644329Y-57927635D01*
X88646000Y-57919952D01*
X88646000Y-57915385D01*
X89154000Y-57915385D01*
X89158475Y-57930624D01*
X89159865Y-57931829D01*
X89167548Y-57933500D01*
X89860884Y-57933500D01*
X89876123Y-57929025D01*
X89877328Y-57927635D01*
X89878999Y-57919952D01*
X89878999Y-57805708D01*
X89878630Y-57798890D01*
X89873159Y-57748518D01*
X89869530Y-57733259D01*
X89824778Y-57613882D01*
X89816246Y-57598296D01*
X89740428Y-57497133D01*
X89727867Y-57484572D01*
X89626704Y-57408754D01*
X89611118Y-57400222D01*
X89491735Y-57355467D01*
X89476490Y-57351842D01*
X89426108Y-57346369D01*
X89419294Y-57346000D01*
X89172115Y-57346000D01*
X89156876Y-57350475D01*
X89155671Y-57351865D01*
X89154000Y-57359548D01*
X89154000Y-57915385D01*
X88646000Y-57915385D01*
X88646000Y-57364116D01*
X88641525Y-57348877D01*
X88640135Y-57347672D01*
X88632452Y-57346001D01*
X88380708Y-57346001D01*
X88373890Y-57346370D01*
X88323518Y-57351841D01*
X88308259Y-57355470D01*
X88188882Y-57400222D01*
X88173296Y-57408754D01*
X88072133Y-57484572D01*
X88059572Y-57497133D01*
X87983754Y-57598296D01*
X87975222Y-57613882D01*
X87930467Y-57733265D01*
X87926842Y-57748510D01*
X87921369Y-57798892D01*
X87921000Y-57805706D01*
X87921000Y-57915385D01*
X86864500Y-57915385D01*
X86864500Y-57411162D01*
X86884502Y-57343041D01*
X86901404Y-57322067D01*
X87569565Y-56653905D01*
X87631878Y-56619880D01*
X87658661Y-56617000D01*
X87862141Y-56617000D01*
X87930262Y-56637002D01*
X87972662Y-56682492D01*
X87974776Y-56686354D01*
X87977929Y-56694764D01*
X87983312Y-56701946D01*
X87983315Y-56701951D01*
X88043355Y-56782062D01*
X88064596Y-56810404D01*
X88071776Y-56815785D01*
X88173054Y-56891689D01*
X88173057Y-56891691D01*
X88180236Y-56897071D01*
X88242406Y-56920377D01*
X88308157Y-56945026D01*
X88308159Y-56945026D01*
X88315552Y-56947798D01*
X88323402Y-56948651D01*
X88323403Y-56948651D01*
X88373847Y-56954131D01*
X88377244Y-56954500D01*
X89422756Y-56954500D01*
X89426153Y-56954131D01*
X89476597Y-56948651D01*
X89476598Y-56948651D01*
X89484448Y-56947798D01*
X89491841Y-56945026D01*
X89491843Y-56945026D01*
X89557594Y-56920377D01*
X89619764Y-56897071D01*
X89626943Y-56891691D01*
X89626946Y-56891689D01*
X89728224Y-56815785D01*
X89735404Y-56810404D01*
X89750713Y-56789977D01*
X89816689Y-56701946D01*
X89816691Y-56701943D01*
X89822071Y-56694764D01*
X89872798Y-56559448D01*
X89879500Y-56497756D01*
X89879500Y-55727244D01*
X89872798Y-55665552D01*
X89868886Y-55655115D01*
X89837996Y-55572717D01*
X89822071Y-55530236D01*
X89816691Y-55523057D01*
X89816689Y-55523054D01*
X89740785Y-55421776D01*
X89735404Y-55414596D01*
X89714977Y-55399287D01*
X89626946Y-55333311D01*
X89626943Y-55333309D01*
X89619764Y-55327929D01*
X89543648Y-55299395D01*
X89486271Y-55277885D01*
X89429506Y-55235244D01*
X89404806Y-55168682D01*
X89404500Y-55159903D01*
X89404500Y-52180499D01*
X89424502Y-52112378D01*
X89478158Y-52065885D01*
X89530500Y-52054499D01*
X89925066Y-52054499D01*
X89960818Y-52047388D01*
X89987126Y-52042156D01*
X89987128Y-52042155D01*
X89999301Y-52039734D01*
X90009621Y-52032839D01*
X90009622Y-52032838D01*
X90073168Y-51990377D01*
X90083484Y-51983484D01*
X90139734Y-51899301D01*
X90154500Y-51825067D01*
X90154499Y-49774934D01*
X90139734Y-49700699D01*
X90083484Y-49616516D01*
X89999301Y-49560266D01*
X89925067Y-49545500D01*
X88900166Y-49545500D01*
X87874934Y-49545501D01*
X87839182Y-49552612D01*
X87812874Y-49557844D01*
X87812872Y-49557845D01*
X87800699Y-49560266D01*
X87790379Y-49567161D01*
X87790378Y-49567162D01*
X87729985Y-49607516D01*
X87716516Y-49616516D01*
X87660266Y-49700699D01*
X87645500Y-49774933D01*
X87645500Y-50169500D01*
X87625498Y-50237621D01*
X87571842Y-50284114D01*
X87519500Y-50295500D01*
X84285624Y-50295500D01*
X84273619Y-50294159D01*
X84273579Y-50294655D01*
X84264632Y-50293935D01*
X84255876Y-50291954D01*
X84212338Y-50294655D01*
X84202618Y-50295258D01*
X84194816Y-50295500D01*
X84178774Y-50295500D01*
X84174343Y-50296135D01*
X84174338Y-50296135D01*
X84170313Y-50296712D01*
X84168543Y-50296965D01*
X84158486Y-50297996D01*
X84136024Y-50299389D01*
X84120600Y-50300346D01*
X84120598Y-50300346D01*
X84111641Y-50300902D01*
X84103201Y-50303949D01*
X84099911Y-50304630D01*
X84084062Y-50308582D01*
X84080832Y-50309527D01*
X84071948Y-50310799D01*
X84029222Y-50330225D01*
X84019860Y-50334036D01*
X83984158Y-50346925D01*
X83984157Y-50346926D01*
X83975716Y-50349973D01*
X83968467Y-50355269D01*
X83965486Y-50356854D01*
X83951408Y-50365080D01*
X83948569Y-50366896D01*
X83940395Y-50370612D01*
X83933591Y-50376475D01*
X83923753Y-50384952D01*
X83859091Y-50414267D01*
X83841504Y-50415500D01*
X83535930Y-50415500D01*
X83475764Y-50422036D01*
X83455526Y-50429623D01*
X83352205Y-50468356D01*
X83352202Y-50468357D01*
X83343801Y-50471507D01*
X83231026Y-50556026D01*
X83177142Y-50627925D01*
X83168044Y-50640064D01*
X83111185Y-50682580D01*
X83067217Y-50690500D01*
X82886913Y-50690500D01*
X82818792Y-50670498D01*
X82772299Y-50616842D01*
X82763337Y-50589091D01*
X82749734Y-50520699D01*
X82720462Y-50476890D01*
X82700377Y-50446832D01*
X82693484Y-50436516D01*
X82609301Y-50380266D01*
X82535067Y-50365500D01*
X81610150Y-50365500D01*
X80684934Y-50365501D01*
X80649182Y-50372612D01*
X80622874Y-50377844D01*
X80622872Y-50377845D01*
X80610699Y-50380266D01*
X80600379Y-50387161D01*
X80600378Y-50387162D01*
X80558009Y-50415473D01*
X80526516Y-50436516D01*
X80470266Y-50520699D01*
X80455500Y-50594933D01*
X80455501Y-53545066D01*
X80470266Y-53619301D01*
X80477161Y-53629620D01*
X80477162Y-53629622D01*
X80503135Y-53668493D01*
X80526516Y-53703484D01*
X80610699Y-53759734D01*
X80684933Y-53774500D01*
X81609850Y-53774500D01*
X82535066Y-53774499D01*
X82570818Y-53767388D01*
X82597126Y-53762156D01*
X82597128Y-53762155D01*
X82609301Y-53759734D01*
X82619621Y-53752839D01*
X82619622Y-53752838D01*
X82683168Y-53710377D01*
X82693484Y-53703484D01*
X82749734Y-53619301D01*
X82764500Y-53545067D01*
X82764499Y-51825500D01*
X82784501Y-51757379D01*
X82838157Y-51710886D01*
X82890499Y-51699500D01*
X83067217Y-51699500D01*
X83135338Y-51719502D01*
X83168044Y-51749936D01*
X83231026Y-51833974D01*
X83343801Y-51918493D01*
X83352202Y-51921643D01*
X83352205Y-51921644D01*
X83433228Y-51952018D01*
X83489992Y-51994660D01*
X83514692Y-52061221D01*
X83499484Y-52130570D01*
X83449198Y-52180688D01*
X83433228Y-52187982D01*
X83352205Y-52218356D01*
X83352202Y-52218357D01*
X83343801Y-52221507D01*
X83231026Y-52306026D01*
X83146507Y-52418801D01*
X83143357Y-52427202D01*
X83143356Y-52427205D01*
X83131067Y-52459987D01*
X83097036Y-52550764D01*
X83090500Y-52610930D01*
X83090500Y-53279070D01*
X83097036Y-53339236D01*
X83146507Y-53471199D01*
X83231026Y-53583974D01*
X83238206Y-53589355D01*
X83238210Y-53589359D01*
X83280064Y-53620726D01*
X83322580Y-53677585D01*
X83330500Y-53721553D01*
X83330500Y-54823214D01*
X83310498Y-54891335D01*
X83268923Y-54931499D01*
X83187978Y-54979656D01*
X83187977Y-54979657D01*
X83183010Y-54982612D01*
X83178670Y-54986418D01*
X83178666Y-54986421D01*
X83034733Y-55112648D01*
X83030392Y-55116455D01*
X82904720Y-55275869D01*
X82902031Y-55280980D01*
X82902029Y-55280983D01*
X82889073Y-55305609D01*
X82810203Y-55455515D01*
X82767620Y-55592654D01*
X82758793Y-55621084D01*
X82750007Y-55649378D01*
X82726148Y-55850964D01*
X82739424Y-56053522D01*
X82740845Y-56059118D01*
X82740846Y-56059123D01*
X82778014Y-56205470D01*
X82789392Y-56250269D01*
X82791809Y-56255512D01*
X82828092Y-56334215D01*
X82874377Y-56434616D01*
X82877710Y-56439332D01*
X82979355Y-56583157D01*
X82991533Y-56600389D01*
X83136938Y-56742035D01*
X83305720Y-56854812D01*
X83311023Y-56857090D01*
X83311026Y-56857092D01*
X83457489Y-56920017D01*
X83492228Y-56934942D01*
X83552813Y-56948651D01*
X83684579Y-56978467D01*
X83684584Y-56978468D01*
X83690216Y-56979742D01*
X83695987Y-56979969D01*
X83695989Y-56979969D01*
X83755756Y-56982317D01*
X83893053Y-56987712D01*
X84003596Y-56971684D01*
X84088231Y-56959413D01*
X84088236Y-56959412D01*
X84093945Y-56958584D01*
X84099409Y-56956729D01*
X84099414Y-56956728D01*
X84280693Y-56895192D01*
X84280698Y-56895190D01*
X84286165Y-56893334D01*
X84291878Y-56890135D01*
X84392197Y-56833953D01*
X84463276Y-56794147D01*
X84502969Y-56761135D01*
X84614913Y-56668031D01*
X84619345Y-56664345D01*
X84676463Y-56595669D01*
X84745453Y-56512718D01*
X84745455Y-56512715D01*
X84749147Y-56508276D01*
X84820447Y-56380961D01*
X84845510Y-56336208D01*
X84845511Y-56336206D01*
X84848334Y-56331165D01*
X84850190Y-56325698D01*
X84850192Y-56325693D01*
X84911728Y-56144414D01*
X84911729Y-56144409D01*
X84913584Y-56138945D01*
X84914412Y-56133236D01*
X84914413Y-56133231D01*
X84942179Y-55941727D01*
X84942712Y-55938053D01*
X84944232Y-55880000D01*
X84931261Y-55738835D01*
X84926187Y-55683613D01*
X84926186Y-55683610D01*
X84925658Y-55677859D01*
X84921318Y-55662472D01*
X84872125Y-55488046D01*
X84872124Y-55488044D01*
X84870557Y-55482487D01*
X84859978Y-55461033D01*
X84783331Y-55305609D01*
X84780776Y-55300428D01*
X84659320Y-55137779D01*
X84510258Y-54999987D01*
X84505375Y-54996906D01*
X84505371Y-54996903D01*
X84398265Y-54929325D01*
X84351326Y-54876058D01*
X84339500Y-54822763D01*
X84339500Y-53699069D01*
X84359502Y-53630948D01*
X84389936Y-53598242D01*
X84401794Y-53589355D01*
X84408974Y-53583974D01*
X84493493Y-53471199D01*
X84542964Y-53339236D01*
X84549500Y-53279070D01*
X84549500Y-52610930D01*
X84542964Y-52550764D01*
X84508933Y-52459987D01*
X84496644Y-52427205D01*
X84496643Y-52427202D01*
X84493493Y-52418801D01*
X84408974Y-52306026D01*
X84296199Y-52221507D01*
X84287798Y-52218357D01*
X84287795Y-52218356D01*
X84206772Y-52187982D01*
X84150008Y-52145340D01*
X84125308Y-52078779D01*
X84140516Y-52009430D01*
X84190802Y-51959312D01*
X84206772Y-51952018D01*
X84287795Y-51921644D01*
X84287798Y-51921643D01*
X84296199Y-51918493D01*
X84408974Y-51833974D01*
X84493493Y-51721199D01*
X84497360Y-51710886D01*
X84536537Y-51606380D01*
X84542964Y-51589236D01*
X84549500Y-51529070D01*
X84549500Y-51430500D01*
X84569502Y-51362379D01*
X84623158Y-51315886D01*
X84675500Y-51304500D01*
X87519501Y-51304500D01*
X87587622Y-51324502D01*
X87634115Y-51378158D01*
X87645501Y-51430500D01*
X87645501Y-51825066D01*
X87648343Y-51839355D01*
X87656311Y-51879414D01*
X87660266Y-51899301D01*
X87667161Y-51909620D01*
X87667162Y-51909622D01*
X87691900Y-51946644D01*
X87716516Y-51983484D01*
X87800699Y-52039734D01*
X87874933Y-52054500D01*
X88269500Y-52054500D01*
X88337621Y-52074502D01*
X88384114Y-52128158D01*
X88395500Y-52180500D01*
X88395500Y-55159903D01*
X88375498Y-55228024D01*
X88321842Y-55274517D01*
X88313729Y-55277885D01*
X88256352Y-55299395D01*
X88180236Y-55327929D01*
X88173057Y-55333309D01*
X88173054Y-55333311D01*
X88085023Y-55399287D01*
X88064596Y-55414596D01*
X88059215Y-55421776D01*
X88009549Y-55488046D01*
X87977929Y-55530236D01*
X87974776Y-55538646D01*
X87972662Y-55542508D01*
X87922404Y-55592654D01*
X87862141Y-55608000D01*
X87468130Y-55608000D01*
X87456122Y-55606658D01*
X87456082Y-55607154D01*
X87447131Y-55606434D01*
X87438377Y-55604453D01*
X87407930Y-55606342D01*
X87385107Y-55607758D01*
X87377305Y-55608000D01*
X87361274Y-55608000D01*
X87351041Y-55609465D01*
X87340989Y-55610495D01*
X87311585Y-55612320D01*
X87303101Y-55612846D01*
X87303100Y-55612846D01*
X87294142Y-55613402D01*
X87285699Y-55616450D01*
X87282420Y-55617129D01*
X87266555Y-55621084D01*
X87263331Y-55622027D01*
X87254448Y-55623299D01*
X87246279Y-55627013D01*
X87246273Y-55627015D01*
X87211721Y-55642725D01*
X87202353Y-55646539D01*
X87158216Y-55662472D01*
X87150966Y-55667769D01*
X87147999Y-55669346D01*
X87133886Y-55677593D01*
X87131063Y-55679398D01*
X87122895Y-55683112D01*
X87116098Y-55688969D01*
X87116096Y-55688970D01*
X87087347Y-55713743D01*
X87079436Y-55720025D01*
X87068556Y-55727973D01*
X87057694Y-55738835D01*
X87050848Y-55745193D01*
X87013418Y-55777444D01*
X87008534Y-55784979D01*
X87002801Y-55791551D01*
X86993574Y-55802955D01*
X86053206Y-56743323D01*
X86043766Y-56750865D01*
X86044089Y-56751245D01*
X86037253Y-56757063D01*
X86029661Y-56761853D01*
X86023719Y-56768581D01*
X85994329Y-56801859D01*
X85988983Y-56807546D01*
X85977649Y-56818880D01*
X85974964Y-56822463D01*
X85974962Y-56822465D01*
X85971447Y-56827155D01*
X85965062Y-56834998D01*
X85933999Y-56870170D01*
X85930186Y-56878292D01*
X85928346Y-56881093D01*
X85919937Y-56895088D01*
X85918315Y-56898051D01*
X85912930Y-56905236D01*
X85909777Y-56913646D01*
X85909776Y-56913648D01*
X85896454Y-56949182D01*
X85892530Y-56958495D01*
X85872583Y-57000982D01*
X85871201Y-57009856D01*
X85870215Y-57013083D01*
X85866075Y-57028866D01*
X85865354Y-57032144D01*
X85862202Y-57040552D01*
X85861537Y-57049503D01*
X85858724Y-57087357D01*
X85857570Y-57097404D01*
X85855500Y-57110697D01*
X85855500Y-57126062D01*
X85855154Y-57135399D01*
X85851493Y-57184667D01*
X85853366Y-57193442D01*
X85853959Y-57202138D01*
X85855500Y-57216738D01*
X85855500Y-60063839D01*
X85835498Y-60131960D01*
X85818595Y-60152934D01*
X84917934Y-61053595D01*
X84855622Y-61087621D01*
X84828839Y-61090500D01*
X83437161Y-61090500D01*
X83369040Y-61070498D01*
X83322547Y-61016842D01*
X83312443Y-60946568D01*
X83341937Y-60881988D01*
X83348066Y-60875405D01*
X83429156Y-60794315D01*
X83491468Y-60760289D01*
X83546059Y-60760517D01*
X83669579Y-60788467D01*
X83669585Y-60788468D01*
X83675216Y-60789742D01*
X83680987Y-60789969D01*
X83680989Y-60789969D01*
X83740756Y-60792317D01*
X83878053Y-60797712D01*
X83978499Y-60783148D01*
X84073231Y-60769413D01*
X84073236Y-60769412D01*
X84078945Y-60768584D01*
X84084409Y-60766729D01*
X84084414Y-60766728D01*
X84265693Y-60705192D01*
X84265698Y-60705190D01*
X84271165Y-60703334D01*
X84277794Y-60699622D01*
X84361873Y-60652535D01*
X84448276Y-60604147D01*
X84460589Y-60593907D01*
X84599913Y-60478031D01*
X84604345Y-60474345D01*
X84644978Y-60425489D01*
X84730453Y-60322718D01*
X84730455Y-60322715D01*
X84734147Y-60318276D01*
X84804625Y-60192428D01*
X84830510Y-60146208D01*
X84830514Y-60146200D01*
X84833334Y-60141165D01*
X84835190Y-60135698D01*
X84835192Y-60135693D01*
X84896728Y-59954414D01*
X84896729Y-59954409D01*
X84898584Y-59948945D01*
X84899412Y-59943236D01*
X84899413Y-59943231D01*
X84927179Y-59751727D01*
X84927712Y-59748053D01*
X84929232Y-59690000D01*
X84910658Y-59487859D01*
X84909090Y-59482299D01*
X84857125Y-59298046D01*
X84857124Y-59298044D01*
X84855557Y-59292487D01*
X84844978Y-59271033D01*
X84768331Y-59115609D01*
X84765776Y-59110428D01*
X84644320Y-58947779D01*
X84495258Y-58809987D01*
X84490375Y-58806906D01*
X84490371Y-58806903D01*
X84328464Y-58704748D01*
X84323581Y-58701667D01*
X84135039Y-58626446D01*
X84129379Y-58625320D01*
X84129375Y-58625319D01*
X83941613Y-58587971D01*
X83941610Y-58587971D01*
X83935946Y-58586844D01*
X83930171Y-58586768D01*
X83930167Y-58586768D01*
X83828793Y-58585441D01*
X83732971Y-58584187D01*
X83727274Y-58585166D01*
X83727273Y-58585166D01*
X83538607Y-58617585D01*
X83532910Y-58618564D01*
X83342463Y-58688824D01*
X83168010Y-58792612D01*
X83163670Y-58796418D01*
X83163666Y-58796421D01*
X83056473Y-58890428D01*
X83015392Y-58926455D01*
X82889720Y-59085869D01*
X82887031Y-59090980D01*
X82887029Y-59090983D01*
X82876055Y-59111842D01*
X82795203Y-59265515D01*
X82735007Y-59459378D01*
X82711148Y-59660964D01*
X82724424Y-59863522D01*
X82745594Y-59946876D01*
X82749032Y-59960414D01*
X82746414Y-60031362D01*
X82716004Y-60080525D01*
X82476656Y-60319873D01*
X82414344Y-60353899D01*
X82343529Y-60348834D01*
X82286693Y-60306287D01*
X82261882Y-60239767D01*
X82277625Y-60169215D01*
X82293334Y-60141165D01*
X82295190Y-60135698D01*
X82295192Y-60135693D01*
X82356728Y-59954414D01*
X82356729Y-59954409D01*
X82358584Y-59948945D01*
X82359412Y-59943236D01*
X82359413Y-59943231D01*
X82387179Y-59751727D01*
X82387712Y-59748053D01*
X82389232Y-59690000D01*
X82370658Y-59487859D01*
X82369090Y-59482299D01*
X82317125Y-59298046D01*
X82317124Y-59298044D01*
X82315557Y-59292487D01*
X82304978Y-59271033D01*
X82228331Y-59115609D01*
X82225776Y-59110428D01*
X82104320Y-58947779D01*
X81955258Y-58809987D01*
X81950375Y-58806906D01*
X81950371Y-58806903D01*
X81858265Y-58748789D01*
X81811326Y-58695522D01*
X81799500Y-58642227D01*
X81799500Y-57793938D01*
X81799846Y-57784601D01*
X81800312Y-57778330D01*
X81803507Y-57735334D01*
X81801634Y-57726558D01*
X81801041Y-57717864D01*
X81799500Y-57703264D01*
X81799500Y-56937314D01*
X81819502Y-56869193D01*
X81863931Y-56827382D01*
X81923276Y-56794147D01*
X81962969Y-56761135D01*
X82074913Y-56668031D01*
X82079345Y-56664345D01*
X82136463Y-56595669D01*
X82205453Y-56512718D01*
X82205455Y-56512715D01*
X82209147Y-56508276D01*
X82280447Y-56380961D01*
X82305510Y-56336208D01*
X82305511Y-56336206D01*
X82308334Y-56331165D01*
X82310190Y-56325698D01*
X82310192Y-56325693D01*
X82371728Y-56144414D01*
X82371729Y-56144409D01*
X82373584Y-56138945D01*
X82374412Y-56133236D01*
X82374413Y-56133231D01*
X82402179Y-55941727D01*
X82402712Y-55938053D01*
X82404232Y-55880000D01*
X82391261Y-55738835D01*
X82386187Y-55683613D01*
X82386186Y-55683610D01*
X82385658Y-55677859D01*
X82381318Y-55662472D01*
X82332125Y-55488046D01*
X82332124Y-55488044D01*
X82330557Y-55482487D01*
X82319978Y-55461033D01*
X82243331Y-55305609D01*
X82240776Y-55300428D01*
X82119320Y-55137779D01*
X81970258Y-54999987D01*
X81965375Y-54996906D01*
X81965371Y-54996903D01*
X81819728Y-54905010D01*
X81798581Y-54891667D01*
X81610039Y-54816446D01*
X81604379Y-54815320D01*
X81604375Y-54815319D01*
X81416613Y-54777971D01*
X81416610Y-54777971D01*
X81410946Y-54776844D01*
X81405171Y-54776768D01*
X81405167Y-54776768D01*
X81303793Y-54775441D01*
X81207971Y-54774187D01*
X81202274Y-54775166D01*
X81202273Y-54775166D01*
X81013607Y-54807585D01*
X81007910Y-54808564D01*
X80817463Y-54878824D01*
X80643010Y-54982612D01*
X80638670Y-54986418D01*
X80638666Y-54986421D01*
X80494733Y-55112648D01*
X80490392Y-55116455D01*
X80364720Y-55275869D01*
X80362031Y-55280980D01*
X80362029Y-55280983D01*
X80349073Y-55305609D01*
X80270203Y-55455515D01*
X80227620Y-55592654D01*
X80218793Y-55621084D01*
X80210007Y-55649378D01*
X80186148Y-55850964D01*
X80199424Y-56053522D01*
X80200845Y-56059118D01*
X80200846Y-56059123D01*
X80238014Y-56205470D01*
X80249392Y-56250269D01*
X80251809Y-56255512D01*
X80288092Y-56334215D01*
X80334377Y-56434616D01*
X80337710Y-56439332D01*
X80439355Y-56583157D01*
X80451533Y-56600389D01*
X80596938Y-56742035D01*
X80601742Y-56745245D01*
X80734502Y-56833953D01*
X80780030Y-56888430D01*
X80790500Y-56938718D01*
X80790500Y-57154500D01*
X80770498Y-57222621D01*
X80716842Y-57269114D01*
X80664500Y-57280500D01*
X78366161Y-57280500D01*
X78298040Y-57260498D01*
X78277066Y-57243595D01*
X78233066Y-57199595D01*
X78199040Y-57137283D01*
X78204105Y-57066468D01*
X78246652Y-57009632D01*
X78313172Y-56984821D01*
X78322161Y-56984500D01*
X79597921Y-56984499D01*
X79630066Y-56984499D01*
X79665818Y-56977388D01*
X79692126Y-56972156D01*
X79692128Y-56972155D01*
X79704301Y-56969734D01*
X79714621Y-56962839D01*
X79714622Y-56962838D01*
X79778168Y-56920377D01*
X79788484Y-56913484D01*
X79844734Y-56829301D01*
X79859500Y-56755067D01*
X79859499Y-55004934D01*
X79852388Y-54969182D01*
X79847156Y-54942874D01*
X79847155Y-54942872D01*
X79844734Y-54930699D01*
X79818654Y-54891667D01*
X79795377Y-54856832D01*
X79788484Y-54846516D01*
X79704301Y-54790266D01*
X79630067Y-54775500D01*
X79385500Y-54775500D01*
X79317379Y-54755498D01*
X79270886Y-54701842D01*
X79259500Y-54649500D01*
X79259500Y-53892936D01*
X79279502Y-53824815D01*
X79333158Y-53778322D01*
X79360920Y-53769357D01*
X79371952Y-53767163D01*
X79409301Y-53759734D01*
X79419621Y-53752839D01*
X79419622Y-53752838D01*
X79483168Y-53710377D01*
X79493484Y-53703484D01*
X79549734Y-53619301D01*
X79564500Y-53545067D01*
X79564499Y-50594934D01*
X79549734Y-50520699D01*
X79520462Y-50476890D01*
X79500377Y-50446832D01*
X79493484Y-50436516D01*
X79409301Y-50380266D01*
X79335067Y-50365500D01*
X78410150Y-50365500D01*
X77484934Y-50365501D01*
X77449182Y-50372612D01*
X77422874Y-50377844D01*
X77422872Y-50377845D01*
X77410699Y-50380266D01*
X77400379Y-50387161D01*
X77400378Y-50387162D01*
X77358009Y-50415473D01*
X77326516Y-50436516D01*
X77270266Y-50520699D01*
X77255500Y-50594933D01*
X77255501Y-53545066D01*
X77270266Y-53619301D01*
X77277161Y-53629620D01*
X77277162Y-53629622D01*
X77303135Y-53668493D01*
X77326516Y-53703484D01*
X77410699Y-53759734D01*
X77484933Y-53774500D01*
X78124500Y-53774500D01*
X78192621Y-53794502D01*
X78239114Y-53848158D01*
X78250500Y-53900500D01*
X78250500Y-54649501D01*
X78230498Y-54717622D01*
X78176842Y-54764115D01*
X78124500Y-54775501D01*
X77879934Y-54775501D01*
X77844182Y-54782612D01*
X77817874Y-54787844D01*
X77817872Y-54787845D01*
X77805699Y-54790266D01*
X77795379Y-54797161D01*
X77795378Y-54797162D01*
X77757064Y-54822763D01*
X77721516Y-54846516D01*
X77665266Y-54930699D01*
X77650500Y-55004933D01*
X77650501Y-55802955D01*
X77650501Y-56312840D01*
X77630499Y-56380961D01*
X77576843Y-56427454D01*
X77506569Y-56437558D01*
X77441989Y-56408065D01*
X77435406Y-56401935D01*
X75151405Y-54117934D01*
X75117379Y-54055622D01*
X75114500Y-54028839D01*
X75114500Y-53945493D01*
X75128233Y-53888290D01*
X75144997Y-53855389D01*
X75144997Y-53855388D01*
X75149498Y-53846555D01*
X75153975Y-53818288D01*
X75184388Y-53754135D01*
X75244657Y-53716609D01*
X75278424Y-53712000D01*
X75820173Y-53712000D01*
X75848814Y-53715359D01*
X75855764Y-53717964D01*
X75863612Y-53718817D01*
X75863614Y-53718817D01*
X75912533Y-53724131D01*
X75915930Y-53724500D01*
X76484070Y-53724500D01*
X76544236Y-53717964D01*
X76610379Y-53693168D01*
X76667795Y-53671644D01*
X76667798Y-53671643D01*
X76676199Y-53668493D01*
X76788974Y-53583974D01*
X76873493Y-53471199D01*
X76922964Y-53339236D01*
X76929500Y-53279070D01*
X76929500Y-52585930D01*
X76922964Y-52525764D01*
X76893536Y-52447266D01*
X76876644Y-52402205D01*
X76876643Y-52402202D01*
X76873493Y-52393801D01*
X76788974Y-52281026D01*
X76676199Y-52196507D01*
X76667798Y-52193357D01*
X76667795Y-52193356D01*
X76653459Y-52187982D01*
X76596694Y-52145340D01*
X76571995Y-52078778D01*
X76587203Y-52009429D01*
X76637489Y-51959311D01*
X76653459Y-51952018D01*
X76667795Y-51946644D01*
X76667798Y-51946643D01*
X76676199Y-51943493D01*
X76788974Y-51858974D01*
X76873493Y-51746199D01*
X76883502Y-51719502D01*
X76920190Y-51621635D01*
X76922964Y-51614236D01*
X76929500Y-51554070D01*
X76929500Y-50860930D01*
X76922964Y-50800764D01*
X76873493Y-50668801D01*
X76788974Y-50556026D01*
X76676199Y-50471507D01*
X76667798Y-50468357D01*
X76667795Y-50468356D01*
X76564474Y-50429623D01*
X76544236Y-50422036D01*
X76484070Y-50415500D01*
X75915930Y-50415500D01*
X75912533Y-50415869D01*
X75863614Y-50421183D01*
X75863612Y-50421183D01*
X75855764Y-50422036D01*
X75848814Y-50424641D01*
X75820173Y-50428000D01*
X75278424Y-50428000D01*
X75210303Y-50407998D01*
X75163810Y-50354342D01*
X75153975Y-50321712D01*
X75151049Y-50303236D01*
X75151048Y-50303234D01*
X75149498Y-50293445D01*
X75091326Y-50179277D01*
X75000723Y-50088674D01*
X74886555Y-50030502D01*
X74791834Y-50015500D01*
X74428166Y-50015500D01*
X74333445Y-50030502D01*
X74288859Y-50053220D01*
X74228110Y-50084173D01*
X74228109Y-50084174D01*
X74219277Y-50088674D01*
X74212266Y-50095685D01*
X74208631Y-50098326D01*
X74141764Y-50122185D01*
X74072612Y-50106106D01*
X74060505Y-50098325D01*
X74041589Y-50084581D01*
X73945231Y-50035484D01*
X73929955Y-50030521D01*
X73918212Y-50032038D01*
X73914000Y-50046012D01*
X73914000Y-51060500D01*
X73893998Y-51128621D01*
X73840342Y-51175114D01*
X73788000Y-51186500D01*
X73532000Y-51186500D01*
X73463879Y-51166498D01*
X73417386Y-51112842D01*
X73406000Y-51060500D01*
X73406000Y-50045552D01*
X73402113Y-50032316D01*
X73389727Y-50030625D01*
X73374766Y-50035486D01*
X73278408Y-50084582D01*
X73259492Y-50098326D01*
X73192625Y-50122185D01*
X73123473Y-50106106D01*
X73111366Y-50098325D01*
X73107738Y-50095689D01*
X73100723Y-50088674D01*
X72986555Y-50030502D01*
X72891834Y-50015500D01*
X72528166Y-50015500D01*
X72433445Y-50030502D01*
X72319277Y-50088674D01*
X72228674Y-50179277D01*
X72170502Y-50293445D01*
X72168952Y-50303234D01*
X72168951Y-50303236D01*
X72166025Y-50321712D01*
X72135612Y-50385865D01*
X72075343Y-50423391D01*
X72041576Y-50428000D01*
X71964664Y-50428000D01*
X71896543Y-50407998D01*
X71855545Y-50365001D01*
X71849391Y-50354342D01*
X71815113Y-50294971D01*
X71805338Y-50284114D01*
X71699344Y-50166396D01*
X71699343Y-50166395D01*
X71694922Y-50161485D01*
X71640831Y-50122185D01*
X71554946Y-50059786D01*
X71554945Y-50059785D01*
X71549604Y-50055905D01*
X71543576Y-50053221D01*
X71543574Y-50053220D01*
X71391541Y-49985531D01*
X71391540Y-49985531D01*
X71385510Y-49982846D01*
X71297661Y-49964173D01*
X71216269Y-49946872D01*
X71216264Y-49946872D01*
X71209812Y-49945500D01*
X71030188Y-49945500D01*
X71023736Y-49946872D01*
X71023731Y-49946872D01*
X70942339Y-49964173D01*
X70854490Y-49982846D01*
X70848460Y-49985531D01*
X70848459Y-49985531D01*
X70696427Y-50053220D01*
X70696425Y-50053221D01*
X70690397Y-50055905D01*
X70685056Y-50059785D01*
X70685055Y-50059786D01*
X70550422Y-50157602D01*
X70550420Y-50157604D01*
X70545078Y-50161485D01*
X70540657Y-50166395D01*
X70540656Y-50166396D01*
X70434663Y-50284114D01*
X70424887Y-50294971D01*
X70390609Y-50354342D01*
X70350056Y-50424582D01*
X70335075Y-50450529D01*
X70333034Y-50456811D01*
X70333033Y-50456813D01*
X70281609Y-50615082D01*
X70279569Y-50621361D01*
X70278879Y-50627924D01*
X70278879Y-50627925D01*
X70272302Y-50690500D01*
X70260793Y-50800000D01*
X70279569Y-50978639D01*
X70281609Y-50984917D01*
X70281609Y-50984918D01*
X70328301Y-51128621D01*
X70335075Y-51149471D01*
X70338378Y-51155193D01*
X70338379Y-51155194D01*
X70349880Y-51175114D01*
X70424887Y-51305029D01*
X70447111Y-51329712D01*
X70477827Y-51393717D01*
X70469064Y-51464170D01*
X70423601Y-51518702D01*
X70353474Y-51540020D01*
X70085681Y-51540020D01*
X70017560Y-51520018D01*
X69996586Y-51503115D01*
X69687081Y-51193610D01*
X69653055Y-51131298D01*
X69656510Y-51070305D01*
X69655378Y-51070033D01*
X69656726Y-51064418D01*
X69658584Y-51058945D01*
X69669318Y-50984918D01*
X69687179Y-50861727D01*
X69687712Y-50858053D01*
X69689232Y-50800000D01*
X69672818Y-50621361D01*
X69671187Y-50603613D01*
X69671186Y-50603610D01*
X69670658Y-50597859D01*
X69668182Y-50589079D01*
X69617125Y-50408046D01*
X69617124Y-50408044D01*
X69615557Y-50402487D01*
X69608000Y-50387161D01*
X69528331Y-50225609D01*
X69525776Y-50220428D01*
X69511260Y-50200988D01*
X69481761Y-50161485D01*
X69404320Y-50057779D01*
X69255258Y-49919987D01*
X69250375Y-49916906D01*
X69250371Y-49916903D01*
X69088464Y-49814748D01*
X69083581Y-49811667D01*
X68895039Y-49736446D01*
X68889379Y-49735320D01*
X68889375Y-49735319D01*
X68701613Y-49697971D01*
X68701610Y-49697971D01*
X68695946Y-49696844D01*
X68690171Y-49696768D01*
X68690167Y-49696768D01*
X68588793Y-49695441D01*
X68492971Y-49694187D01*
X68487274Y-49695166D01*
X68487273Y-49695166D01*
X68298607Y-49727585D01*
X68292910Y-49728564D01*
X68102463Y-49798824D01*
X67928010Y-49902612D01*
X67923670Y-49906418D01*
X67923666Y-49906421D01*
X67836521Y-49982846D01*
X67775392Y-50036455D01*
X67771817Y-50040990D01*
X67771816Y-50040991D01*
X67761675Y-50053855D01*
X67649720Y-50195869D01*
X67647030Y-50200982D01*
X67647026Y-50200988D01*
X67632725Y-50228169D01*
X67583305Y-50279141D01*
X67521218Y-50295500D01*
X64880499Y-50295500D01*
X64812378Y-50275498D01*
X64765885Y-50221842D01*
X64754499Y-50169500D01*
X64754499Y-49774934D01*
X64739734Y-49700699D01*
X64683484Y-49616516D01*
X64599301Y-49560266D01*
X64525067Y-49545500D01*
X63500166Y-49545500D01*
X62474934Y-49545501D01*
X62439182Y-49552612D01*
X62412874Y-49557844D01*
X62412872Y-49557845D01*
X62400699Y-49560266D01*
X62390379Y-49567161D01*
X62390378Y-49567162D01*
X62329985Y-49607516D01*
X62316516Y-49616516D01*
X62260266Y-49700699D01*
X62245500Y-49774933D01*
X61214500Y-49774933D01*
X61214500Y-48640500D01*
X61234502Y-48572379D01*
X61288158Y-48525886D01*
X61340500Y-48514500D01*
X91059500Y-48514500D01*
X91127621Y-48534502D01*
G37*
%TD.AperFunction*%
%TD*%
M02*
